# assembled_stack — generated by scripts/build_models.py from the Project Phosphorus plan
# units: meters, Y up
mtllib assembled_stack.mtl
o assembled_stack
v 0.0000 -30.0000 -0.7500
v -0.3750 -30.0000 -0.6495
v -0.6495 -30.0000 -0.3750
v -0.7500 -30.0000 -0.0000
v -0.6495 -30.0000 0.3750
v -0.3750 -30.0000 0.6495
v -0.0000 -30.0000 0.7500
v 0.3750 -30.0000 0.6495
v 0.6495 -30.0000 0.3750
v 0.7500 -30.0000 0.0000
v 0.6495 -30.0000 -0.3750
v 0.3750 -30.0000 -0.6495
v 0.0000 14.0000 -0.7500
v -0.3750 14.0000 -0.6495
v -0.6495 14.0000 -0.3750
v -0.7500 14.0000 -0.0000
v -0.6495 14.0000 0.3750
v -0.3750 14.0000 0.6495
v -0.0000 14.0000 0.7500
v 0.3750 14.0000 0.6495
v 0.6495 14.0000 0.3750
v 0.7500 14.0000 0.0000
v 0.6495 14.0000 -0.3750
v 0.3750 14.0000 -0.6495
v 0.0000 -30.0000 0.0000
v 0.0000 14.0000 0.0000
v 0.0000 2.0000 -2.2500
v -0.3520 2.0000 -2.2223
v -0.6953 2.0000 -2.1399
v -1.0215 2.0000 -2.0048
v -1.3225 2.0000 -1.8203
v -1.5910 2.0000 -1.5910
v -1.8203 2.0000 -1.3225
v -2.0048 2.0000 -1.0215
v -2.1399 2.0000 -0.6953
v -2.2223 2.0000 -0.3520
v -2.2500 2.0000 -0.0000
v -2.2223 2.0000 0.3520
v -2.1399 2.0000 0.6953
v -2.0048 2.0000 1.0215
v -1.8203 2.0000 1.3225
v -1.5910 2.0000 1.5910
v -1.3225 2.0000 1.8203
v -1.0215 2.0000 2.0048
v -0.6953 2.0000 2.1399
v -0.3520 2.0000 2.2223
v -0.0000 2.0000 2.2500
v 0.3520 2.0000 2.2223
v 0.6953 2.0000 2.1399
v 1.0215 2.0000 2.0048
v 1.3225 2.0000 1.8203
v 1.5910 2.0000 1.5910
v 1.8203 2.0000 1.3225
v 2.0048 2.0000 1.0215
v 2.1399 2.0000 0.6953
v 2.2223 2.0000 0.3520
v 2.2500 2.0000 0.0000
v 2.2223 2.0000 -0.3520
v 2.1399 2.0000 -0.6953
v 2.0048 2.0000 -1.0215
v 1.8203 2.0000 -1.3225
v 1.5910 2.0000 -1.5910
v 1.3225 2.0000 -1.8203
v 1.0215 2.0000 -2.0048
v 0.6953 2.0000 -2.1399
v 0.3520 2.0000 -2.2223
v 0.0000 13.3000 -2.2500
v -0.3520 13.3000 -2.2223
v -0.6953 13.3000 -2.1399
v -1.0215 13.3000 -2.0048
v -1.3225 13.3000 -1.8203
v -1.5910 13.3000 -1.5910
v -1.8203 13.3000 -1.3225
v -2.0048 13.3000 -1.0215
v -2.1399 13.3000 -0.6953
v -2.2223 13.3000 -0.3520
v -2.2500 13.3000 -0.0000
v -2.2223 13.3000 0.3520
v -2.1399 13.3000 0.6953
v -2.0048 13.3000 1.0215
v -1.8203 13.3000 1.3225
v -1.5910 13.3000 1.5910
v -1.3225 13.3000 1.8203
v -1.0215 13.3000 2.0048
v -0.6953 13.3000 2.1399
v -0.3520 13.3000 2.2223
v -0.0000 13.3000 2.2500
v 0.3520 13.3000 2.2223
v 0.6953 13.3000 2.1399
v 1.0215 13.3000 2.0048
v 1.3225 13.3000 1.8203
v 1.5910 13.3000 1.5910
v 1.8203 13.3000 1.3225
v 2.0048 13.3000 1.0215
v 2.1399 13.3000 0.6953
v 2.2223 13.3000 0.3520
v 2.2500 13.3000 0.0000
v 2.2223 13.3000 -0.3520
v 2.1399 13.3000 -0.6953
v 2.0048 13.3000 -1.0215
v 1.8203 13.3000 -1.3225
v 1.5910 13.3000 -1.5910
v 1.3225 13.3000 -1.8203
v 1.0215 13.3000 -2.0048
v 0.6953 13.3000 -2.1399
v 0.3520 13.3000 -2.2223
v 0.0000 2.0000 0.0000
v 0.0000 13.3000 0.0000
v 0.0000 6.2000 -2.5200
v -0.3942 6.2000 -2.4890
v -0.7787 6.2000 -2.3967
v -1.1441 6.2000 -2.2453
v -1.4812 6.2000 -2.0387
v -1.7819 6.2000 -1.7819
v -2.0387 6.2000 -1.4812
v -2.2453 6.2000 -1.1441
v -2.3967 6.2000 -0.7787
v -2.4890 6.2000 -0.3942
v -2.5200 6.2000 -0.0000
v -2.4890 6.2000 0.3942
v -2.3967 6.2000 0.7787
v -2.2453 6.2000 1.1441
v -2.0387 6.2000 1.4812
v -1.7819 6.2000 1.7819
v -1.4812 6.2000 2.0387
v -1.1441 6.2000 2.2453
v -0.7787 6.2000 2.3967
v -0.3942 6.2000 2.4890
v -0.0000 6.2000 2.5200
v 0.3942 6.2000 2.4890
v 0.7787 6.2000 2.3967
v 1.1441 6.2000 2.2453
v 1.4812 6.2000 2.0387
v 1.7819 6.2000 1.7819
v 2.0387 6.2000 1.4812
v 2.2453 6.2000 1.1441
v 2.3967 6.2000 0.7787
v 2.4890 6.2000 0.3942
v 2.5200 6.2000 0.0000
v 2.4890 6.2000 -0.3942
v 2.3967 6.2000 -0.7787
v 2.2453 6.2000 -1.1441
v 2.0387 6.2000 -1.4812
v 1.7819 6.2000 -1.7819
v 1.4812 6.2000 -2.0387
v 1.1441 6.2000 -2.2453
v 0.7787 6.2000 -2.3967
v 0.3942 6.2000 -2.4890
v 0.0000 9.1000 -2.5200
v -0.3942 9.1000 -2.4890
v -0.7787 9.1000 -2.3967
v -1.1441 9.1000 -2.2453
v -1.4812 9.1000 -2.0387
v -1.7819 9.1000 -1.7819
v -2.0387 9.1000 -1.4812
v -2.2453 9.1000 -1.1441
v -2.3967 9.1000 -0.7787
v -2.4890 9.1000 -0.3942
v -2.5200 9.1000 -0.0000
v -2.4890 9.1000 0.3942
v -2.3967 9.1000 0.7787
v -2.2453 9.1000 1.1441
v -2.0387 9.1000 1.4812
v -1.7819 9.1000 1.7819
v -1.4812 9.1000 2.0387
v -1.1441 9.1000 2.2453
v -0.7787 9.1000 2.3967
v -0.3942 9.1000 2.4890
v -0.0000 9.1000 2.5200
v 0.3942 9.1000 2.4890
v 0.7787 9.1000 2.3967
v 1.1441 9.1000 2.2453
v 1.4812 9.1000 2.0387
v 1.7819 9.1000 1.7819
v 2.0387 9.1000 1.4812
v 2.2453 9.1000 1.1441
v 2.3967 9.1000 0.7787
v 2.4890 9.1000 0.3942
v 2.5200 9.1000 0.0000
v 2.4890 9.1000 -0.3942
v 2.3967 9.1000 -0.7787
v 2.2453 9.1000 -1.1441
v 2.0387 9.1000 -1.4812
v 1.7819 9.1000 -1.7819
v 1.4812 9.1000 -2.0387
v 1.1441 9.1000 -2.2453
v 0.7787 9.1000 -2.3967
v 0.3942 9.1000 -2.4890
v 0.0000 6.2000 0.0000
v 0.0000 9.1000 0.0000
v 0.0000 13.3000 -1.1000
v -0.2847 13.3000 -1.0625
v -0.5500 13.3000 -0.9526
v -0.7778 13.3000 -0.7778
v -0.9526 13.3000 -0.5500
v -1.0625 13.3000 -0.2847
v -1.1000 13.3000 -0.0000
v -1.0625 13.3000 0.2847
v -0.9526 13.3000 0.5500
v -0.7778 13.3000 0.7778
v -0.5500 13.3000 0.9526
v -0.2847 13.3000 1.0625
v -0.0000 13.3000 1.1000
v 0.2847 13.3000 1.0625
v 0.5500 13.3000 0.9526
v 0.7778 13.3000 0.7778
v 0.9526 13.3000 0.5500
v 1.0625 13.3000 0.2847
v 1.1000 13.3000 0.0000
v 1.0625 13.3000 -0.2847
v 0.9526 13.3000 -0.5500
v 0.7778 13.3000 -0.7778
v 0.5500 13.3000 -0.9526
v 0.2847 13.3000 -1.0625
v 0.0000 15.0000 -1.1000
v -0.2847 15.0000 -1.0625
v -0.5500 15.0000 -0.9526
v -0.7778 15.0000 -0.7778
v -0.9526 15.0000 -0.5500
v -1.0625 15.0000 -0.2847
v -1.1000 15.0000 -0.0000
v -1.0625 15.0000 0.2847
v -0.9526 15.0000 0.5500
v -0.7778 15.0000 0.7778
v -0.5500 15.0000 0.9526
v -0.2847 15.0000 1.0625
v -0.0000 15.0000 1.1000
v 0.2847 15.0000 1.0625
v 0.5500 15.0000 0.9526
v 0.7778 15.0000 0.7778
v 0.9526 15.0000 0.5500
v 1.0625 15.0000 0.2847
v 1.1000 15.0000 0.0000
v 1.0625 15.0000 -0.2847
v 0.9526 15.0000 -0.5500
v 0.7778 15.0000 -0.7778
v 0.5500 15.0000 -0.9526
v 0.2847 15.0000 -1.0625
v 0.0000 13.3000 0.0000
v 0.0000 15.0000 0.0000
v -15.9500 10.5400 -2.1000
v -15.9500 10.5400 2.1000
v -15.9500 10.6600 -2.1000
v -15.9500 10.6600 2.1000
v -2.9500 10.5400 -2.1000
v -2.9500 10.5400 2.1000
v -2.9500 10.6600 -2.1000
v -2.9500 10.6600 2.1000
v -2.2500 10.6000 -0.2500
v -2.2500 10.4232 -0.1768
v -2.2500 10.3500 -0.0000
v -2.2500 10.4232 0.1768
v -2.2500 10.6000 0.2500
v -2.2500 10.7768 0.1768
v -2.2500 10.8500 0.0000
v -2.2500 10.7768 -0.1768
v -2.9500 10.6000 -0.2500
v -2.9500 10.4232 -0.1768
v -2.9500 10.3500 -0.0000
v -2.9500 10.4232 0.1768
v -2.9500 10.6000 0.2500
v -2.9500 10.7768 0.1768
v -2.9500 10.8500 0.0000
v -2.9500 10.7768 -0.1768
v -2.2500 10.6000 0.0000
v -2.9500 10.6000 0.0000
v 2.9500 10.5400 -2.1000
v 2.9500 10.5400 2.1000
v 2.9500 10.6600 -2.1000
v 2.9500 10.6600 2.1000
v 15.9500 10.5400 -2.1000
v 15.9500 10.5400 2.1000
v 15.9500 10.6600 -2.1000
v 15.9500 10.6600 2.1000
v 2.2500 10.6000 0.2500
v 2.2500 10.4232 0.1768
v 2.2500 10.3500 0.0000
v 2.2500 10.4232 -0.1768
v 2.2500 10.6000 -0.2500
v 2.2500 10.7768 -0.1768
v 2.2500 10.8500 -0.0000
v 2.2500 10.7768 0.1768
v 2.9500 10.6000 0.2500
v 2.9500 10.4232 0.1768
v 2.9500 10.3500 0.0000
v 2.9500 10.4232 -0.1768
v 2.9500 10.6000 -0.2500
v 2.9500 10.7768 -0.1768
v 2.9500 10.8500 -0.0000
v 2.9500 10.7768 0.1768
v 2.2500 10.6000 0.0000
v 2.9500 10.6000 0.0000
v 0.0000 1.4000 -1.8500
v -0.3449 1.4000 -1.8889
v -0.6725 1.4000 -2.0035
v -0.9664 1.4000 -2.1882
v -1.2118 1.4000 -2.4336
v -1.3965 1.4000 -2.7275
v -1.5111 1.4000 -3.0551
v -1.5500 1.4000 -3.4000
v -1.5111 1.4000 -3.7449
v -1.3965 1.4000 -4.0725
v -1.2118 1.4000 -4.3664
v -0.9664 1.4000 -4.6118
v -0.6725 1.4000 -4.7965
v -0.3449 1.4000 -4.9111
v -0.0000 1.4000 -4.9500
v 0.3449 1.4000 -4.9111
v 0.6725 1.4000 -4.7965
v 0.9664 1.4000 -4.6118
v 1.2118 1.4000 -4.3664
v 1.3965 1.4000 -4.0725
v 1.5111 1.4000 -3.7449
v 1.5500 1.4000 -3.4000
v 1.5111 1.4000 -3.0551
v 1.3965 1.4000 -2.7275
v 1.2118 1.4000 -2.4336
v 0.9664 1.4000 -2.1882
v 0.6725 1.4000 -2.0035
v 0.3449 1.4000 -1.8889
v 0.0000 -5.2000 -1.8500
v -0.3449 -5.2000 -1.8889
v -0.6725 -5.2000 -2.0035
v -0.9664 -5.2000 -2.1882
v -1.2118 -5.2000 -2.4336
v -1.3965 -5.2000 -2.7275
v -1.5111 -5.2000 -3.0551
v -1.5500 -5.2000 -3.4000
v -1.5111 -5.2000 -3.7449
v -1.3965 -5.2000 -4.0725
v -1.2118 -5.2000 -4.3664
v -0.9664 -5.2000 -4.6118
v -0.6725 -5.2000 -4.7965
v -0.3449 -5.2000 -4.9111
v -0.0000 -5.2000 -4.9500
v 0.3449 -5.2000 -4.9111
v 0.6725 -5.2000 -4.7965
v 0.9664 -5.2000 -4.6118
v 1.2118 -5.2000 -4.3664
v 1.3965 -5.2000 -4.0725
v 1.5111 -5.2000 -3.7449
v 1.5500 -5.2000 -3.4000
v 1.5111 -5.2000 -3.0551
v 1.3965 -5.2000 -2.7275
v 1.2118 -5.2000 -2.4336
v 0.9664 -5.2000 -2.1882
v 0.6725 -5.2000 -2.0035
v 0.3449 -5.2000 -1.8889
v 0.0000 1.4000 -3.4000
v 0.0000 -5.2000 -3.4000
v 0.0000 1.4000 4.9500
v -0.3449 1.4000 4.9111
v -0.6725 1.4000 4.7965
v -0.9664 1.4000 4.6118
v -1.2118 1.4000 4.3664
v -1.3965 1.4000 4.0725
v -1.5111 1.4000 3.7449
v -1.5500 1.4000 3.4000
v -1.5111 1.4000 3.0551
v -1.3965 1.4000 2.7275
v -1.2118 1.4000 2.4336
v -0.9664 1.4000 2.1882
v -0.6725 1.4000 2.0035
v -0.3449 1.4000 1.8889
v -0.0000 1.4000 1.8500
v 0.3449 1.4000 1.8889
v 0.6725 1.4000 2.0035
v 0.9664 1.4000 2.1882
v 1.2118 1.4000 2.4336
v 1.3965 1.4000 2.7275
v 1.5111 1.4000 3.0551
v 1.5500 1.4000 3.4000
v 1.5111 1.4000 3.7449
v 1.3965 1.4000 4.0725
v 1.2118 1.4000 4.3664
v 0.9664 1.4000 4.6118
v 0.6725 1.4000 4.7965
v 0.3449 1.4000 4.9111
v 0.0000 -5.2000 4.9500
v -0.3449 -5.2000 4.9111
v -0.6725 -5.2000 4.7965
v -0.9664 -5.2000 4.6118
v -1.2118 -5.2000 4.3664
v -1.3965 -5.2000 4.0725
v -1.5111 -5.2000 3.7449
v -1.5500 -5.2000 3.4000
v -1.5111 -5.2000 3.0551
v -1.3965 -5.2000 2.7275
v -1.2118 -5.2000 2.4336
v -0.9664 -5.2000 2.1882
v -0.6725 -5.2000 2.0035
v -0.3449 -5.2000 1.8889
v -0.0000 -5.2000 1.8500
v 0.3449 -5.2000 1.8889
v 0.6725 -5.2000 2.0035
v 0.9664 -5.2000 2.1882
v 1.2118 -5.2000 2.4336
v 1.3965 -5.2000 2.7275
v 1.5111 -5.2000 3.0551
v 1.5500 -5.2000 3.4000
v 1.5111 -5.2000 3.7449
v 1.3965 -5.2000 4.0725
v 1.2118 -5.2000 4.3664
v 0.9664 -5.2000 4.6118
v 0.6725 -5.2000 4.7965
v 0.3449 -5.2000 4.9111
v 0.0000 1.4000 3.4000
v 0.0000 -5.2000 3.4000
v 0.0000 2.0000 0.9000
v -0.4500 2.0000 0.7794
v -0.7794 2.0000 0.4500
v -0.9000 2.0000 0.0000
v -0.7794 2.0000 -0.4500
v -0.4500 2.0000 -0.7794
v -0.0000 2.0000 -0.9000
v 0.4500 2.0000 -0.7794
v 0.7794 2.0000 -0.4500
v 0.9000 2.0000 -0.0000
v 0.7794 2.0000 0.4500
v 0.4500 2.0000 0.7794
v 0.0000 -6.0000 0.9000
v -0.4500 -6.0000 0.7794
v -0.7794 -6.0000 0.4500
v -0.9000 -6.0000 0.0000
v -0.7794 -6.0000 -0.4500
v -0.4500 -6.0000 -0.7794
v -0.0000 -6.0000 -0.9000
v 0.4500 -6.0000 -0.7794
v 0.7794 -6.0000 -0.4500
v 0.9000 -6.0000 -0.0000
v 0.7794 -6.0000 0.4500
v 0.4500 -6.0000 0.7794
v 0.0000 2.0000 0.0000
v 0.0000 -6.0000 0.0000
v 0.0000 -6.0000 0.9000
v -0.2329 -6.0000 0.8693
v -0.4500 -6.0000 0.7794
v -0.6364 -6.0000 0.6364
v -0.7794 -6.0000 0.4500
v -0.8693 -6.0000 0.2329
v -0.9000 -6.0000 0.0000
v -0.8693 -6.0000 -0.2329
v -0.7794 -6.0000 -0.4500
v -0.6364 -6.0000 -0.6364
v -0.4500 -6.0000 -0.7794
v -0.2329 -6.0000 -0.8693
v -0.0000 -6.0000 -0.9000
v 0.2329 -6.0000 -0.8693
v 0.4500 -6.0000 -0.7794
v 0.6364 -6.0000 -0.6364
v 0.7794 -6.0000 -0.4500
v 0.8693 -6.0000 -0.2329
v 0.9000 -6.0000 -0.0000
v 0.8693 -6.0000 0.2329
v 0.7794 -6.0000 0.4500
v 0.6364 -6.0000 0.6364
v 0.4500 -6.0000 0.7794
v 0.2329 -6.0000 0.8693
v 0.0000 -8.4000 1.7000
v -0.4400 -8.4000 1.6421
v -0.8500 -8.4000 1.4722
v -1.2021 -8.4000 1.2021
v -1.4722 -8.4000 0.8500
v -1.6421 -8.4000 0.4400
v -1.7000 -8.4000 0.0000
v -1.6421 -8.4000 -0.4400
v -1.4722 -8.4000 -0.8500
v -1.2021 -8.4000 -1.2021
v -0.8500 -8.4000 -1.4722
v -0.4400 -8.4000 -1.6421
v -0.0000 -8.4000 -1.7000
v 0.4400 -8.4000 -1.6421
v 0.8500 -8.4000 -1.4722
v 1.2021 -8.4000 -1.2021
v 1.4722 -8.4000 -0.8500
v 1.6421 -8.4000 -0.4400
v 1.7000 -8.4000 -0.0000
v 1.6421 -8.4000 0.4400
v 1.4722 -8.4000 0.8500
v 1.2021 -8.4000 1.2021
v 0.8500 -8.4000 1.4722
v 0.4400 -8.4000 1.6421
v 0.0000 -6.0000 0.0000
v 0.0000 -8.4000 0.0000
v 0.0000 -14.5000 6.4000
v -1.0012 -14.5000 6.3212
v -1.9777 -14.5000 6.0868
v -2.9055 -14.5000 5.7024
v -3.7618 -14.5000 5.1777
v -4.5255 -14.5000 4.5255
v -5.1777 -14.5000 3.7618
v -5.7024 -14.5000 2.9055
v -6.0868 -14.5000 1.9777
v -6.3212 -14.5000 1.0012
v -6.4000 -14.5000 0.0000
v -6.3212 -14.5000 -1.0012
v -6.0868 -14.5000 -1.9777
v -5.7024 -14.5000 -2.9055
v -5.1777 -14.5000 -3.7618
v -4.5255 -14.5000 -4.5255
v -3.7618 -14.5000 -5.1777
v -2.9055 -14.5000 -5.7024
v -1.9777 -14.5000 -6.0868
v -1.0012 -14.5000 -6.3212
v -0.0000 -14.5000 -6.4000
v 1.0012 -14.5000 -6.3212
v 1.9777 -14.5000 -6.0868
v 2.9055 -14.5000 -5.7024
v 3.7618 -14.5000 -5.1777
v 4.5255 -14.5000 -4.5255
v 5.1777 -14.5000 -3.7618
v 5.7024 -14.5000 -2.9055
v 6.0868 -14.5000 -1.9777
v 6.3212 -14.5000 -1.0012
v 6.4000 -14.5000 -0.0000
v 6.3212 -14.5000 1.0012
v 6.0868 -14.5000 1.9777
v 5.7024 -14.5000 2.9055
v 5.1777 -14.5000 3.7618
v 4.5255 -14.5000 4.5255
v 3.7618 -14.5000 5.1777
v 2.9055 -14.5000 5.7024
v 1.9777 -14.5000 6.0868
v 1.0012 -14.5000 6.3212
v 0.0000 -23.5000 3.2000
v -0.5006 -23.5000 3.1606
v -0.9889 -23.5000 3.0434
v -1.4528 -23.5000 2.8512
v -1.8809 -23.5000 2.5889
v -2.2627 -23.5000 2.2627
v -2.5889 -23.5000 1.8809
v -2.8512 -23.5000 1.4528
v -3.0434 -23.5000 0.9889
v -3.1606 -23.5000 0.5006
v -3.2000 -23.5000 0.0000
v -3.1606 -23.5000 -0.5006
v -3.0434 -23.5000 -0.9889
v -2.8512 -23.5000 -1.4528
v -2.5889 -23.5000 -1.8809
v -2.2627 -23.5000 -2.2627
v -1.8809 -23.5000 -2.5889
v -1.4528 -23.5000 -2.8512
v -0.9889 -23.5000 -3.0434
v -0.5006 -23.5000 -3.1606
v -0.0000 -23.5000 -3.2000
v 0.5006 -23.5000 -3.1606
v 0.9889 -23.5000 -3.0434
v 1.4528 -23.5000 -2.8512
v 1.8809 -23.5000 -2.5889
v 2.2627 -23.5000 -2.2627
v 2.5889 -23.5000 -1.8809
v 2.8512 -23.5000 -1.4528
v 3.0434 -23.5000 -0.9889
v 3.1606 -23.5000 -0.5006
v 3.2000 -23.5000 -0.0000
v 3.1606 -23.5000 0.5006
v 3.0434 -23.5000 0.9889
v 2.8512 -23.5000 1.4528
v 2.5889 -23.5000 1.8809
v 2.2627 -23.5000 2.2627
v 1.8809 -23.5000 2.5889
v 1.4528 -23.5000 2.8512
v 0.9889 -23.5000 3.0434
v 0.5006 -23.5000 3.1606
v 0.0000 -14.5000 0.0000
v 0.0000 -23.5000 0.0000
v 0.0000 -14.5000 -6.4000
v -1.0012 -14.5000 -6.3212
v -1.9777 -14.5000 -6.0868
v -2.9055 -14.5000 -5.7024
v -3.7618 -14.5000 -5.1777
v -4.5255 -14.5000 -4.5255
v -5.1777 -14.5000 -3.7618
v -5.7024 -14.5000 -2.9055
v -6.0868 -14.5000 -1.9777
v -6.3212 -14.5000 -1.0012
v -6.4000 -14.5000 -0.0000
v -6.3212 -14.5000 1.0012
v -6.0868 -14.5000 1.9777
v -5.7024 -14.5000 2.9055
v -5.1777 -14.5000 3.7618
v -4.5255 -14.5000 4.5255
v -3.7618 -14.5000 5.1777
v -2.9055 -14.5000 5.7024
v -1.9777 -14.5000 6.0868
v -1.0012 -14.5000 6.3212
v -0.0000 -14.5000 6.4000
v 1.0012 -14.5000 6.3212
v 1.9777 -14.5000 6.0868
v 2.9055 -14.5000 5.7024
v 3.7618 -14.5000 5.1777
v 4.5255 -14.5000 4.5255
v 5.1777 -14.5000 3.7618
v 5.7024 -14.5000 2.9055
v 6.0868 -14.5000 1.9777
v 6.3212 -14.5000 1.0012
v 6.4000 -14.5000 0.0000
v 6.3212 -14.5000 -1.0012
v 6.0868 -14.5000 -1.9777
v 5.7024 -14.5000 -2.9055
v 5.1777 -14.5000 -3.7618
v 4.5255 -14.5000 -4.5255
v 3.7618 -14.5000 -5.1777
v 2.9055 -14.5000 -5.7024
v 1.9777 -14.5000 -6.0868
v 1.0012 -14.5000 -6.3212
v 0.0000 -13.6000 -6.0000
v -0.9386 -13.6000 -5.9261
v -1.8541 -13.6000 -5.7063
v -2.7239 -13.6000 -5.3460
v -3.5267 -13.6000 -4.8541
v -4.2426 -13.6000 -4.2426
v -4.8541 -13.6000 -3.5267
v -5.3460 -13.6000 -2.7239
v -5.7063 -13.6000 -1.8541
v -5.9261 -13.6000 -0.9386
v -6.0000 -13.6000 -0.0000
v -5.9261 -13.6000 0.9386
v -5.7063 -13.6000 1.8541
v -5.3460 -13.6000 2.7239
v -4.8541 -13.6000 3.5267
v -4.2426 -13.6000 4.2426
v -3.5267 -13.6000 4.8541
v -2.7239 -13.6000 5.3460
v -1.8541 -13.6000 5.7063
v -0.9386 -13.6000 5.9261
v -0.0000 -13.6000 6.0000
v 0.9386 -13.6000 5.9261
v 1.8541 -13.6000 5.7063
v 2.7239 -13.6000 5.3460
v 3.5267 -13.6000 4.8541
v 4.2426 -13.6000 4.2426
v 4.8541 -13.6000 3.5267
v 5.3460 -13.6000 2.7239
v 5.7063 -13.6000 1.8541
v 5.9261 -13.6000 0.9386
v 6.0000 -13.6000 0.0000
v 5.9261 -13.6000 -0.9386
v 5.7063 -13.6000 -1.8541
v 5.3460 -13.6000 -2.7239
v 4.8541 -13.6000 -3.5267
v 4.2426 -13.6000 -4.2426
v 3.5267 -13.6000 -4.8541
v 2.7239 -13.6000 -5.3460
v 1.8541 -13.6000 -5.7063
v 0.9386 -13.6000 -5.9261
v 0.0000 -14.5000 0.0000
v 0.0000 -13.6000 0.0000
v 0.0000 -13.6000 -6.0000
v -0.9386 -13.6000 -5.9261
v -1.8541 -13.6000 -5.7063
v -2.7239 -13.6000 -5.3460
v -3.5267 -13.6000 -4.8541
v -4.2426 -13.6000 -4.2426
v -4.8541 -13.6000 -3.5267
v -5.3460 -13.6000 -2.7239
v -5.7063 -13.6000 -1.8541
v -5.9261 -13.6000 -0.9386
v -6.0000 -13.6000 -0.0000
v -5.9261 -13.6000 0.9386
v -5.7063 -13.6000 1.8541
v -5.3460 -13.6000 2.7239
v -4.8541 -13.6000 3.5267
v -4.2426 -13.6000 4.2426
v -3.5267 -13.6000 4.8541
v -2.7239 -13.6000 5.3460
v -1.8541 -13.6000 5.7063
v -0.9386 -13.6000 5.9261
v -0.0000 -13.6000 6.0000
v 0.9386 -13.6000 5.9261
v 1.8541 -13.6000 5.7063
v 2.7239 -13.6000 5.3460
v 3.5267 -13.6000 4.8541
v 4.2426 -13.6000 4.2426
v 4.8541 -13.6000 3.5267
v 5.3460 -13.6000 2.7239
v 5.7063 -13.6000 1.8541
v 5.9261 -13.6000 0.9386
v 6.0000 -13.6000 0.0000
v 5.9261 -13.6000 -0.9386
v 5.7063 -13.6000 -1.8541
v 5.3460 -13.6000 -2.7239
v 4.8541 -13.6000 -3.5267
v 4.2426 -13.6000 -4.2426
v 3.5267 -13.6000 -4.8541
v 2.7239 -13.6000 -5.3460
v 1.8541 -13.6000 -5.7063
v 0.9386 -13.6000 -5.9261
v 0.0000 -12.9000 -5.4000
v -0.8447 -12.9000 -5.3335
v -1.6687 -12.9000 -5.1357
v -2.4515 -12.9000 -4.8114
v -3.1740 -12.9000 -4.3687
v -3.8184 -12.9000 -3.8184
v -4.3687 -12.9000 -3.1740
v -4.8114 -12.9000 -2.4515
v -5.1357 -12.9000 -1.6687
v -5.3335 -12.9000 -0.8447
v -5.4000 -12.9000 -0.0000
v -5.3335 -12.9000 0.8447
v -5.1357 -12.9000 1.6687
v -4.8114 -12.9000 2.4515
v -4.3687 -12.9000 3.1740
v -3.8184 -12.9000 3.8184
v -3.1740 -12.9000 4.3687
v -2.4515 -12.9000 4.8114
v -1.6687 -12.9000 5.1357
v -0.8447 -12.9000 5.3335
v -0.0000 -12.9000 5.4000
v 0.8447 -12.9000 5.3335
v 1.6687 -12.9000 5.1357
v 2.4515 -12.9000 4.8114
v 3.1740 -12.9000 4.3687
v 3.8184 -12.9000 3.8184
v 4.3687 -12.9000 3.1740
v 4.8114 -12.9000 2.4515
v 5.1357 -12.9000 1.6687
v 5.3335 -12.9000 0.8447
v 5.4000 -12.9000 0.0000
v 5.3335 -12.9000 -0.8447
v 5.1357 -12.9000 -1.6687
v 4.8114 -12.9000 -2.4515
v 4.3687 -12.9000 -3.1740
v 3.8184 -12.9000 -3.8184
v 3.1740 -12.9000 -4.3687
v 2.4515 -12.9000 -4.8114
v 1.6687 -12.9000 -5.1357
v 0.8447 -12.9000 -5.3335
v 0.0000 -13.6000 0.0000
v 0.0000 -12.9000 0.0000
v 0.0000 -46.0000 -1.7500
v -0.3414 -46.0000 -1.7164
v -0.6697 -46.0000 -1.6168
v -0.9722 -46.0000 -1.4551
v -1.2374 -46.0000 -1.2374
v -1.4551 -46.0000 -0.9722
v -1.6168 -46.0000 -0.6697
v -1.7164 -46.0000 -0.3414
v -1.7500 -46.0000 -0.0000
v -1.7164 -46.0000 0.3414
v -1.6168 -46.0000 0.6697
v -1.4551 -46.0000 0.9722
v -1.2374 -46.0000 1.2374
v -0.9722 -46.0000 1.4551
v -0.6697 -46.0000 1.6168
v -0.3414 -46.0000 1.7164
v -0.0000 -46.0000 1.7500
v 0.3414 -46.0000 1.7164
v 0.6697 -46.0000 1.6168
v 0.9722 -46.0000 1.4551
v 1.2374 -46.0000 1.2374
v 1.4551 -46.0000 0.9722
v 1.6168 -46.0000 0.6697
v 1.7164 -46.0000 0.3414
v 1.7500 -46.0000 0.0000
v 1.7164 -46.0000 -0.3414
v 1.6168 -46.0000 -0.6697
v 1.4551 -46.0000 -0.9722
v 1.2374 -46.0000 -1.2374
v 0.9722 -46.0000 -1.4551
v 0.6697 -46.0000 -1.6168
v 0.3414 -46.0000 -1.7164
v 0.0000 -35.0000 -1.7500
v -0.3414 -35.0000 -1.7164
v -0.6697 -35.0000 -1.6168
v -0.9722 -35.0000 -1.4551
v -1.2374 -35.0000 -1.2374
v -1.4551 -35.0000 -0.9722
v -1.6168 -35.0000 -0.6697
v -1.7164 -35.0000 -0.3414
v -1.7500 -35.0000 -0.0000
v -1.7164 -35.0000 0.3414
v -1.6168 -35.0000 0.6697
v -1.4551 -35.0000 0.9722
v -1.2374 -35.0000 1.2374
v -0.9722 -35.0000 1.4551
v -0.6697 -35.0000 1.6168
v -0.3414 -35.0000 1.7164
v -0.0000 -35.0000 1.7500
v 0.3414 -35.0000 1.7164
v 0.6697 -35.0000 1.6168
v 0.9722 -35.0000 1.4551
v 1.2374 -35.0000 1.2374
v 1.4551 -35.0000 0.9722
v 1.6168 -35.0000 0.6697
v 1.7164 -35.0000 0.3414
v 1.7500 -35.0000 0.0000
v 1.7164 -35.0000 -0.3414
v 1.6168 -35.0000 -0.6697
v 1.4551 -35.0000 -0.9722
v 1.2374 -35.0000 -1.2374
v 0.9722 -35.0000 -1.4551
v 0.6697 -35.0000 -1.6168
v 0.3414 -35.0000 -1.7164
v 0.0000 -46.0000 0.0000
v 0.0000 -35.0000 0.0000
v 0.0000 -34.8000 -1.6100
v -0.3141 -34.8000 -1.5791
v -0.6161 -34.8000 -1.4874
v -0.8945 -34.8000 -1.3387
v -1.1384 -34.8000 -1.1384
v -1.3387 -34.8000 -0.8945
v -1.4874 -34.8000 -0.6161
v -1.5791 -34.8000 -0.3141
v -1.6100 -34.8000 -0.0000
v -1.5791 -34.8000 0.3141
v -1.4874 -34.8000 0.6161
v -1.3387 -34.8000 0.8945
v -1.1384 -34.8000 1.1384
v -0.8945 -34.8000 1.3387
v -0.6161 -34.8000 1.4874
v -0.3141 -34.8000 1.5791
v -0.0000 -34.8000 1.6100
v 0.3141 -34.8000 1.5791
v 0.6161 -34.8000 1.4874
v 0.8945 -34.8000 1.3387
v 1.1384 -34.8000 1.1384
v 1.3387 -34.8000 0.8945
v 1.4874 -34.8000 0.6161
v 1.5791 -34.8000 0.3141
v 1.6100 -34.8000 0.0000
v 1.5791 -34.8000 -0.3141
v 1.4874 -34.8000 -0.6161
v 1.3387 -34.8000 -0.8945
v 1.1384 -34.8000 -1.1384
v 0.8945 -34.8000 -1.3387
v 0.6161 -34.8000 -1.4874
v 0.3141 -34.8000 -1.5791
v 0.0000 -29.0000 -1.6100
v -0.3141 -29.0000 -1.5791
v -0.6161 -29.0000 -1.4874
v -0.8945 -29.0000 -1.3387
v -1.1384 -29.0000 -1.1384
v -1.3387 -29.0000 -0.8945
v -1.4874 -29.0000 -0.6161
v -1.5791 -29.0000 -0.3141
v -1.6100 -29.0000 -0.0000
v -1.5791 -29.0000 0.3141
v -1.4874 -29.0000 0.6161
v -1.3387 -29.0000 0.8945
v -1.1384 -29.0000 1.1384
v -0.8945 -29.0000 1.3387
v -0.6161 -29.0000 1.4874
v -0.3141 -29.0000 1.5791
v -0.0000 -29.0000 1.6100
v 0.3141 -29.0000 1.5791
v 0.6161 -29.0000 1.4874
v 0.8945 -29.0000 1.3387
v 1.1384 -29.0000 1.1384
v 1.3387 -29.0000 0.8945
v 1.4874 -29.0000 0.6161
v 1.5791 -29.0000 0.3141
v 1.6100 -29.0000 0.0000
v 1.5791 -29.0000 -0.3141
v 1.4874 -29.0000 -0.6161
v 1.3387 -29.0000 -0.8945
v 1.1384 -29.0000 -1.1384
v 0.8945 -29.0000 -1.3387
v 0.6161 -29.0000 -1.4874
v 0.3141 -29.0000 -1.5791
v 0.0000 -34.8000 0.0000
v 0.0000 -29.0000 0.0000
v 0.0000 -29.0000 -1.6100
v -0.3141 -29.0000 -1.5791
v -0.6161 -29.0000 -1.4874
v -0.8945 -29.0000 -1.3387
v -1.1384 -29.0000 -1.1384
v -1.3387 -29.0000 -0.8945
v -1.4874 -29.0000 -0.6161
v -1.5791 -29.0000 -0.3141
v -1.6100 -29.0000 -0.0000
v -1.5791 -29.0000 0.3141
v -1.4874 -29.0000 0.6161
v -1.3387 -29.0000 0.8945
v -1.1384 -29.0000 1.1384
v -0.8945 -29.0000 1.3387
v -0.6161 -29.0000 1.4874
v -0.3141 -29.0000 1.5791
v -0.0000 -29.0000 1.6100
v 0.3141 -29.0000 1.5791
v 0.6161 -29.0000 1.4874
v 0.8945 -29.0000 1.3387
v 1.1384 -29.0000 1.1384
v 1.3387 -29.0000 0.8945
v 1.4874 -29.0000 0.6161
v 1.5791 -29.0000 0.3141
v 1.6100 -29.0000 0.0000
v 1.5791 -29.0000 -0.3141
v 1.4874 -29.0000 -0.6161
v 1.3387 -29.0000 -0.8945
v 1.1384 -29.0000 -1.1384
v 0.8945 -29.0000 -1.3387
v 0.6161 -29.0000 -1.4874
v 0.3141 -29.0000 -1.5791
v 0.0000 -25.8000 -0.4375
v -0.0854 -25.8000 -0.4291
v -0.1674 -25.8000 -0.4042
v -0.2431 -25.8000 -0.3638
v -0.3094 -25.8000 -0.3094
v -0.3638 -25.8000 -0.2431
v -0.4042 -25.8000 -0.1674
v -0.4291 -25.8000 -0.0854
v -0.4375 -25.8000 -0.0000
v -0.4291 -25.8000 0.0854
v -0.4042 -25.8000 0.1674
v -0.3638 -25.8000 0.2431
v -0.3094 -25.8000 0.3094
v -0.2431 -25.8000 0.3638
v -0.1674 -25.8000 0.4042
v -0.0854 -25.8000 0.4291
v -0.0000 -25.8000 0.4375
v 0.0854 -25.8000 0.4291
v 0.1674 -25.8000 0.4042
v 0.2431 -25.8000 0.3638
v 0.3094 -25.8000 0.3094
v 0.3638 -25.8000 0.2431
v 0.4042 -25.8000 0.1674
v 0.4291 -25.8000 0.0854
v 0.4375 -25.8000 0.0000
v 0.4291 -25.8000 -0.0854
v 0.4042 -25.8000 -0.1674
v 0.3638 -25.8000 -0.2431
v 0.3094 -25.8000 -0.3094
v 0.2431 -25.8000 -0.3638
v 0.1674 -25.8000 -0.4042
v 0.0854 -25.8000 -0.4291
v 0.0000 -29.0000 0.0000
v 0.0000 -25.8000 0.0000
v 0.6364 -46.0000 0.9864
v 0.5025 -46.0000 0.9598
v 0.3889 -46.0000 0.8839
v 0.3130 -46.0000 0.7703
v 0.2864 -46.0000 0.6364
v 0.3130 -46.0000 0.5025
v 0.3889 -46.0000 0.3889
v 0.5025 -46.0000 0.3130
v 0.6364 -46.0000 0.2864
v 0.7703 -46.0000 0.3130
v 0.8839 -46.0000 0.3889
v 0.9598 -46.0000 0.5025
v 0.9864 -46.0000 0.6364
v 0.9598 -46.0000 0.7703
v 0.8839 -46.0000 0.8839
v 0.7703 -46.0000 0.9598
v 0.6364 -47.6000 1.2564
v 0.3991 -47.6000 1.2092
v 0.1980 -47.6000 1.0748
v 0.0636 -47.6000 0.8737
v 0.0164 -47.6000 0.6364
v 0.0636 -47.6000 0.3991
v 0.1980 -47.6000 0.1980
v 0.3991 -47.6000 0.0636
v 0.6364 -47.6000 0.0164
v 0.8737 -47.6000 0.0636
v 1.0748 -47.6000 0.1980
v 1.2092 -47.6000 0.3991
v 1.2564 -47.6000 0.6364
v 1.2092 -47.6000 0.8737
v 1.0748 -47.6000 1.0748
v 0.8737 -47.6000 1.2092
v 0.6364 -46.0000 0.6364
v 0.6364 -47.6000 0.6364
v -0.6364 -46.0000 0.9864
v -0.7703 -46.0000 0.9598
v -0.8839 -46.0000 0.8839
v -0.9598 -46.0000 0.7703
v -0.9864 -46.0000 0.6364
v -0.9598 -46.0000 0.5025
v -0.8839 -46.0000 0.3889
v -0.7703 -46.0000 0.3130
v -0.6364 -46.0000 0.2864
v -0.5025 -46.0000 0.3130
v -0.3889 -46.0000 0.3889
v -0.3130 -46.0000 0.5025
v -0.2864 -46.0000 0.6364
v -0.3130 -46.0000 0.7703
v -0.3889 -46.0000 0.8839
v -0.5025 -46.0000 0.9598
v -0.6364 -47.6000 1.2564
v -0.8737 -47.6000 1.2092
v -1.0748 -47.6000 1.0748
v -1.2092 -47.6000 0.8737
v -1.2564 -47.6000 0.6364
v -1.2092 -47.6000 0.3991
v -1.0748 -47.6000 0.1980
v -0.8737 -47.6000 0.0636
v -0.6364 -47.6000 0.0164
v -0.3991 -47.6000 0.0636
v -0.1980 -47.6000 0.1980
v -0.0636 -47.6000 0.3991
v -0.0164 -47.6000 0.6364
v -0.0636 -47.6000 0.8737
v -0.1980 -47.6000 1.0748
v -0.3991 -47.6000 1.2092
v -0.6364 -46.0000 0.6364
v -0.6364 -47.6000 0.6364
v -0.6364 -46.0000 -0.2864
v -0.7703 -46.0000 -0.3130
v -0.8839 -46.0000 -0.3889
v -0.9598 -46.0000 -0.5025
v -0.9864 -46.0000 -0.6364
v -0.9598 -46.0000 -0.7703
v -0.8839 -46.0000 -0.8839
v -0.7703 -46.0000 -0.9598
v -0.6364 -46.0000 -0.9864
v -0.5025 -46.0000 -0.9598
v -0.3889 -46.0000 -0.8839
v -0.3130 -46.0000 -0.7703
v -0.2864 -46.0000 -0.6364
v -0.3130 -46.0000 -0.5025
v -0.3889 -46.0000 -0.3889
v -0.5025 -46.0000 -0.3130
v -0.6364 -47.6000 -0.0164
v -0.8737 -47.6000 -0.0636
v -1.0748 -47.6000 -0.1980
v -1.2092 -47.6000 -0.3991
v -1.2564 -47.6000 -0.6364
v -1.2092 -47.6000 -0.8737
v -1.0748 -47.6000 -1.0748
v -0.8737 -47.6000 -1.2092
v -0.6364 -47.6000 -1.2564
v -0.3991 -47.6000 -1.2092
v -0.1980 -47.6000 -1.0748
v -0.0636 -47.6000 -0.8737
v -0.0164 -47.6000 -0.6364
v -0.0636 -47.6000 -0.3991
v -0.1980 -47.6000 -0.1980
v -0.3991 -47.6000 -0.0636
v -0.6364 -46.0000 -0.6364
v -0.6364 -47.6000 -0.6364
v 0.6364 -46.0000 -0.2864
v 0.5025 -46.0000 -0.3130
v 0.3889 -46.0000 -0.3889
v 0.3130 -46.0000 -0.5025
v 0.2864 -46.0000 -0.6364
v 0.3130 -46.0000 -0.7703
v 0.3889 -46.0000 -0.8839
v 0.5025 -46.0000 -0.9598
v 0.6364 -46.0000 -0.9864
v 0.7703 -46.0000 -0.9598
v 0.8839 -46.0000 -0.8839
v 0.9598 -46.0000 -0.7703
v 0.9864 -46.0000 -0.6364
v 0.9598 -46.0000 -0.5025
v 0.8839 -46.0000 -0.3889
v 0.7703 -46.0000 -0.3130
v 0.6364 -47.6000 -0.0164
v 0.3991 -47.6000 -0.0636
v 0.1980 -47.6000 -0.1980
v 0.0636 -47.6000 -0.3991
v 0.0164 -47.6000 -0.6364
v 0.0636 -47.6000 -0.8737
v 0.1980 -47.6000 -1.0748
v 0.3991 -47.6000 -1.2092
v 0.6364 -47.6000 -1.2564
v 0.8737 -47.6000 -1.2092
v 1.0748 -47.6000 -1.0748
v 1.2092 -47.6000 -0.8737
v 1.2564 -47.6000 -0.6364
v 1.2092 -47.6000 -0.3991
v 1.0748 -47.6000 -0.1980
v 0.8737 -47.6000 -0.0636
v 0.6364 -46.0000 -0.6364
v 0.6364 -47.6000 -0.6364
v 0.0000 -30.0000 -1.8000
v -0.9000 -30.0000 -1.5588
v -1.5588 -30.0000 -0.9000
v -1.8000 -30.0000 -0.0000
v -1.5588 -30.0000 0.9000
v -0.9000 -30.0000 1.5588
v -0.0000 -30.0000 1.8000
v 0.9000 -30.0000 1.5588
v 1.5588 -30.0000 0.9000
v 1.8000 -30.0000 0.0000
v 1.5588 -30.0000 -0.9000
v 0.9000 -30.0000 -1.5588
v 0.0000 -26.0000 -0.7500
v -0.3750 -26.0000 -0.6495
v -0.6495 -26.0000 -0.3750
v -0.7500 -26.0000 -0.0000
v -0.6495 -26.0000 0.3750
v -0.3750 -26.0000 0.6495
v -0.0000 -26.0000 0.7500
v 0.3750 -26.0000 0.6495
v 0.6495 -26.0000 0.3750
v 0.7500 -26.0000 0.0000
v 0.6495 -26.0000 -0.3750
v 0.3750 -26.0000 -0.6495
v 0.0000 -30.0000 0.0000
v 0.0000 -26.0000 0.0000
v 8.8800 -47.6000 -0.0900
v 8.8271 -47.6000 -0.0728
v 8.7944 -47.6000 -0.0278
v 8.7944 -47.6000 0.0278
v 8.8271 -47.6000 0.0728
v 8.8800 -47.6000 0.0900
v 8.9329 -47.6000 0.0728
v 8.9656 -47.6000 0.0278
v 8.9656 -47.6000 -0.0278
v 8.9329 -47.6000 -0.0728
v 8.8800 -46.7500 -0.0900
v 8.8271 -46.7500 -0.0728
v 8.7944 -46.7500 -0.0278
v 8.7944 -46.7500 0.0278
v 8.8271 -46.7500 0.0728
v 8.8800 -46.7500 0.0900
v 8.9329 -46.7500 0.0728
v 8.9656 -46.7500 0.0278
v 8.9656 -46.7500 -0.0278
v 8.9329 -46.7500 -0.0728
v 8.8800 -47.6000 0.0000
v 8.8800 -46.7500 0.0000
v 9.1200 -47.6000 -0.0900
v 9.0671 -47.6000 -0.0728
v 9.0344 -47.6000 -0.0278
v 9.0344 -47.6000 0.0278
v 9.0671 -47.6000 0.0728
v 9.1200 -47.6000 0.0900
v 9.1729 -47.6000 0.0728
v 9.2056 -47.6000 0.0278
v 9.2056 -47.6000 -0.0278
v 9.1729 -47.6000 -0.0728
v 9.1200 -46.7500 -0.0900
v 9.0671 -46.7500 -0.0728
v 9.0344 -46.7500 -0.0278
v 9.0344 -46.7500 0.0278
v 9.0671 -46.7500 0.0728
v 9.1200 -46.7500 0.0900
v 9.1729 -46.7500 0.0728
v 9.2056 -46.7500 0.0278
v 9.2056 -46.7500 -0.0278
v 9.1729 -46.7500 -0.0728
v 9.1200 -47.6000 0.0000
v 9.1200 -46.7500 0.0000
v 9.0000 -46.7500 -0.2000
v 8.9000 -46.7500 -0.1732
v 8.8268 -46.7500 -0.1000
v 8.8000 -46.7500 -0.0000
v 8.8268 -46.7500 0.1000
v 8.9000 -46.7500 0.1732
v 9.0000 -46.7500 0.2000
v 9.1000 -46.7500 0.1732
v 9.1732 -46.7500 0.1000
v 9.2000 -46.7500 0.0000
v 9.1732 -46.7500 -0.1000
v 9.1000 -46.7500 -0.1732
v 9.0000 -46.1000 -0.2000
v 8.9000 -46.1000 -0.1732
v 8.8268 -46.1000 -0.1000
v 8.8000 -46.1000 -0.0000
v 8.8268 -46.1000 0.1000
v 8.9000 -46.1000 0.1732
v 9.0000 -46.1000 0.2000
v 9.1000 -46.1000 0.1732
v 9.1732 -46.1000 0.1000
v 9.2000 -46.1000 0.0000
v 9.1732 -46.1000 -0.1000
v 9.1000 -46.1000 -0.1732
v 9.0000 -46.7500 0.0000
v 9.0000 -46.1000 0.0000
v 9.0000 -45.8100 0.0000
v 9.0000 -45.8100 0.0000
v 9.0000 -45.8100 0.0000
v 9.0000 -45.8100 0.0000
v 9.0000 -45.8100 0.0000
v 9.0000 -45.8100 0.0000
v 9.0000 -45.8100 0.0000
v 9.0000 -45.8100 0.0000
v 9.0000 -45.8100 0.0000
v 9.0000 -45.8100 0.0000
v 9.0000 -45.8100 0.0000
v 9.0000 -45.8100 0.0000
v 9.0421 -45.8199 0.0000
v 9.0365 -45.8199 0.0210
v 9.0210 -45.8199 0.0365
v 9.0000 -45.8199 0.0421
v 8.9790 -45.8199 0.0365
v 8.9635 -45.8199 0.0210
v 8.9579 -45.8199 0.0000
v 8.9635 -45.8199 -0.0210
v 8.9790 -45.8199 -0.0365
v 9.0000 -45.8199 -0.0421
v 9.0210 -45.8199 -0.0365
v 9.0365 -45.8199 -0.0210
v 9.0778 -45.8481 0.0000
v 9.0674 -45.8481 0.0389
v 9.0389 -45.8481 0.0674
v 9.0000 -45.8481 0.0778
v 8.9611 -45.8481 0.0674
v 8.9326 -45.8481 0.0389
v 8.9222 -45.8481 0.0000
v 8.9326 -45.8481 -0.0389
v 8.9611 -45.8481 -0.0674
v 9.0000 -45.8481 -0.0778
v 9.0389 -45.8481 -0.0674
v 9.0674 -45.8481 -0.0389
v 9.1016 -45.8903 0.0000
v 9.0880 -45.8903 0.0508
v 9.0508 -45.8903 0.0880
v 9.0000 -45.8903 0.1016
v 8.9492 -45.8903 0.0880
v 8.9120 -45.8903 0.0508
v 8.8984 -45.8903 0.0000
v 8.9120 -45.8903 -0.0508
v 8.9492 -45.8903 -0.0880
v 9.0000 -45.8903 -0.1016
v 9.0508 -45.8903 -0.0880
v 9.0880 -45.8903 -0.0508
v 9.1100 -45.9400 0.0000
v 9.0953 -45.9400 0.0550
v 9.0550 -45.9400 0.0953
v 9.0000 -45.9400 0.1100
v 8.9450 -45.9400 0.0953
v 8.9047 -45.9400 0.0550
v 8.8900 -45.9400 0.0000
v 8.9047 -45.9400 -0.0550
v 8.9450 -45.9400 -0.0953
v 9.0000 -45.9400 -0.1100
v 9.0550 -45.9400 -0.0953
v 9.0953 -45.9400 -0.0550
v 9.1016 -45.9897 0.0000
v 9.0880 -45.9897 0.0508
v 9.0508 -45.9897 0.0880
v 9.0000 -45.9897 0.1016
v 8.9492 -45.9897 0.0880
v 8.9120 -45.9897 0.0508
v 8.8984 -45.9897 0.0000
v 8.9120 -45.9897 -0.0508
v 8.9492 -45.9897 -0.0880
v 9.0000 -45.9897 -0.1016
v 9.0508 -45.9897 -0.0880
v 9.0880 -45.9897 -0.0508
v 9.0778 -46.0319 0.0000
v 9.0674 -46.0319 0.0389
v 9.0389 -46.0319 0.0674
v 9.0000 -46.0319 0.0778
v 8.9611 -46.0319 0.0674
v 8.9326 -46.0319 0.0389
v 8.9222 -46.0319 0.0000
v 8.9326 -46.0319 -0.0389
v 8.9611 -46.0319 -0.0674
v 9.0000 -46.0319 -0.0778
v 9.0389 -46.0319 -0.0674
v 9.0674 -46.0319 -0.0389
v 9.0421 -46.0601 0.0000
v 9.0365 -46.0601 0.0210
v 9.0210 -46.0601 0.0365
v 9.0000 -46.0601 0.0421
v 8.9790 -46.0601 0.0365
v 8.9635 -46.0601 0.0210
v 8.9579 -46.0601 0.0000
v 8.9635 -46.0601 -0.0210
v 8.9790 -46.0601 -0.0365
v 9.0000 -46.0601 -0.0421
v 9.0210 -46.0601 -0.0365
v 9.0365 -46.0601 -0.0210
v 9.0000 -46.0700 0.0000
v 9.0000 -46.0700 0.0000
v 9.0000 -46.0700 0.0000
v 9.0000 -46.0700 0.0000
v 9.0000 -46.0700 0.0000
v 9.0000 -46.0700 0.0000
v 9.0000 -46.0700 0.0000
v 9.0000 -46.0700 -0.0000
v 9.0000 -46.0700 -0.0000
v 9.0000 -46.0700 -0.0000
v 9.0000 -46.0700 -0.0000
v 9.0000 -46.0700 -0.0000
g spine
usemtl truss
f 1 2 13
f 2 14 13
f 2 3 14
f 3 15 14
f 3 4 15
f 4 16 15
f 4 5 16
f 5 17 16
f 5 6 17
f 6 18 17
f 6 7 18
f 7 19 18
f 7 8 19
f 8 20 19
f 8 9 20
f 9 21 20
f 9 10 21
f 10 22 21
f 10 11 22
f 11 23 22
f 11 12 23
f 12 24 23
f 12 1 24
f 1 13 24
f 25 2 1
f 26 13 14
f 25 3 2
f 26 14 15
f 25 4 3
f 26 15 16
f 25 5 4
f 26 16 17
f 25 6 5
f 26 17 18
f 25 7 6
f 26 18 19
f 25 8 7
f 26 19 20
f 25 9 8
f 26 20 21
f 25 10 9
f 26 21 22
f 25 11 10
f 26 22 23
f 25 12 11
f 26 23 24
f 25 1 12
f 26 24 13
g hesperus_habitat
usemtl crew
f 27 28 67
f 28 68 67
f 28 29 68
f 29 69 68
f 29 30 69
f 30 70 69
f 30 31 70
f 31 71 70
f 31 32 71
f 32 72 71
f 32 33 72
f 33 73 72
f 33 34 73
f 34 74 73
f 34 35 74
f 35 75 74
f 35 36 75
f 36 76 75
f 36 37 76
f 37 77 76
f 37 38 77
f 38 78 77
f 38 39 78
f 39 79 78
f 39 40 79
f 40 80 79
f 40 41 80
f 41 81 80
f 41 42 81
f 42 82 81
f 42 43 82
f 43 83 82
f 43 44 83
f 44 84 83
f 44 45 84
f 45 85 84
f 45 46 85
f 46 86 85
f 46 47 86
f 47 87 86
f 47 48 87
f 48 88 87
f 48 49 88
f 49 89 88
f 49 50 89
f 50 90 89
f 50 51 90
f 51 91 90
f 51 52 91
f 52 92 91
f 52 53 92
f 53 93 92
f 53 54 93
f 54 94 93
f 54 55 94
f 55 95 94
f 55 56 95
f 56 96 95
f 56 57 96
f 57 97 96
f 57 58 97
f 58 98 97
f 58 59 98
f 59 99 98
f 59 60 99
f 60 100 99
f 60 61 100
f 61 101 100
f 61 62 101
f 62 102 101
f 62 63 102
f 63 103 102
f 63 64 103
f 64 104 103
f 64 65 104
f 65 105 104
f 65 66 105
f 66 106 105
f 66 27 106
f 27 67 106
f 107 28 27
f 108 67 68
f 107 29 28
f 108 68 69
f 107 30 29
f 108 69 70
f 107 31 30
f 108 70 71
f 107 32 31
f 108 71 72
f 107 33 32
f 108 72 73
f 107 34 33
f 108 73 74
f 107 35 34
f 108 74 75
f 107 36 35
f 108 75 76
f 107 37 36
f 108 76 77
f 107 38 37
f 108 77 78
f 107 39 38
f 108 78 79
f 107 40 39
f 108 79 80
f 107 41 40
f 108 80 81
f 107 42 41
f 108 81 82
f 107 43 42
f 108 82 83
f 107 44 43
f 108 83 84
f 107 45 44
f 108 84 85
f 107 46 45
f 108 85 86
f 107 47 46
f 108 86 87
f 107 48 47
f 108 87 88
f 107 49 48
f 108 88 89
f 107 50 49
f 108 89 90
f 107 51 50
f 108 90 91
f 107 52 51
f 108 91 92
f 107 53 52
f 108 92 93
f 107 54 53
f 108 93 94
f 107 55 54
f 108 94 95
f 107 56 55
f 108 95 96
f 107 57 56
f 108 96 97
f 107 58 57
f 108 97 98
f 107 59 58
f 108 98 99
f 107 60 59
f 108 99 100
f 107 61 60
f 108 100 101
f 107 62 61
f 108 101 102
f 107 63 62
f 108 102 103
f 107 64 63
f 108 103 104
f 107 65 64
f 108 104 105
f 107 66 65
f 108 105 106
f 107 27 66
f 108 106 67
g hesperus_storm_shelter
usemtl tank
f 109 110 149
f 110 150 149
f 110 111 150
f 111 151 150
f 111 112 151
f 112 152 151
f 112 113 152
f 113 153 152
f 113 114 153
f 114 154 153
f 114 115 154
f 115 155 154
f 115 116 155
f 116 156 155
f 116 117 156
f 117 157 156
f 117 118 157
f 118 158 157
f 118 119 158
f 119 159 158
f 119 120 159
f 120 160 159
f 120 121 160
f 121 161 160
f 121 122 161
f 122 162 161
f 122 123 162
f 123 163 162
f 123 124 163
f 124 164 163
f 124 125 164
f 125 165 164
f 125 126 165
f 126 166 165
f 126 127 166
f 127 167 166
f 127 128 167
f 128 168 167
f 128 129 168
f 129 169 168
f 129 130 169
f 130 170 169
f 130 131 170
f 131 171 170
f 131 132 171
f 132 172 171
f 132 133 172
f 133 173 172
f 133 134 173
f 134 174 173
f 134 135 174
f 135 175 174
f 135 136 175
f 136 176 175
f 136 137 176
f 137 177 176
f 137 138 177
f 138 178 177
f 138 139 178
f 139 179 178
f 139 140 179
f 140 180 179
f 140 141 180
f 141 181 180
f 141 142 181
f 142 182 181
f 142 143 182
f 143 183 182
f 143 144 183
f 144 184 183
f 144 145 184
f 145 185 184
f 145 146 185
f 146 186 185
f 146 147 186
f 147 187 186
f 147 148 187
f 148 188 187
f 148 109 188
f 109 149 188
f 189 110 109
f 190 149 150
f 189 111 110
f 190 150 151
f 189 112 111
f 190 151 152
f 189 113 112
f 190 152 153
f 189 114 113
f 190 153 154
f 189 115 114
f 190 154 155
f 189 116 115
f 190 155 156
f 189 117 116
f 190 156 157
f 189 118 117
f 190 157 158
f 189 119 118
f 190 158 159
f 189 120 119
f 190 159 160
f 189 121 120
f 190 160 161
f 189 122 121
f 190 161 162
f 189 123 122
f 190 162 163
f 189 124 123
f 190 163 164
f 189 125 124
f 190 164 165
f 189 126 125
f 190 165 166
f 189 127 126
f 190 166 167
f 189 128 127
f 190 167 168
f 189 129 128
f 190 168 169
f 189 130 129
f 190 169 170
f 189 131 130
f 190 170 171
f 189 132 131
f 190 171 172
f 189 133 132
f 190 172 173
f 189 134 133
f 190 173 174
f 189 135 134
f 190 174 175
f 189 136 135
f 190 175 176
f 189 137 136
f 190 176 177
f 189 138 137
f 190 177 178
f 189 139 138
f 190 178 179
f 189 140 139
f 190 179 180
f 189 141 140
f 190 180 181
f 189 142 141
f 190 181 182
f 189 143 142
f 190 182 183
f 189 144 143
f 190 183 184
f 189 145 144
f 190 184 185
f 189 146 145
f 190 185 186
f 189 147 146
f 190 186 187
f 189 148 147
f 190 187 188
f 189 109 148
f 190 188 149
g hesperus_docking_node
usemtl truss
f 191 192 215
f 192 216 215
f 192 193 216
f 193 217 216
f 193 194 217
f 194 218 217
f 194 195 218
f 195 219 218
f 195 196 219
f 196 220 219
f 196 197 220
f 197 221 220
f 197 198 221
f 198 222 221
f 198 199 222
f 199 223 222
f 199 200 223
f 200 224 223
f 200 201 224
f 201 225 224
f 201 202 225
f 202 226 225
f 202 203 226
f 203 227 226
f 203 204 227
f 204 228 227
f 204 205 228
f 205 229 228
f 205 206 229
f 206 230 229
f 206 207 230
f 207 231 230
f 207 208 231
f 208 232 231
f 208 209 232
f 209 233 232
f 209 210 233
f 210 234 233
f 210 211 234
f 211 235 234
f 211 212 235
f 212 236 235
f 212 213 236
f 213 237 236
f 213 214 237
f 214 238 237
f 214 191 238
f 191 215 238
f 239 192 191
f 240 215 216
f 239 193 192
f 240 216 217
f 239 194 193
f 240 217 218
f 239 195 194
f 240 218 219
f 239 196 195
f 240 219 220
f 239 197 196
f 240 220 221
f 239 198 197
f 240 221 222
f 239 199 198
f 240 222 223
f 239 200 199
f 240 223 224
f 239 201 200
f 240 224 225
f 239 202 201
f 240 225 226
f 239 203 202
f 240 226 227
f 239 204 203
f 240 227 228
f 239 205 204
f 240 228 229
f 239 206 205
f 240 229 230
f 239 207 206
f 240 230 231
f 239 208 207
f 240 231 232
f 239 209 208
f 240 232 233
f 239 210 209
f 240 233 234
f 239 211 210
f 240 234 235
f 239 212 211
f 240 235 236
f 239 213 212
f 240 236 237
f 239 214 213
f 240 237 238
f 239 191 214
f 240 238 215
g hesperus_solar_wings
usemtl solar
f 241 243 244
f 241 244 242
f 245 246 248
f 245 248 247
f 241 242 246
f 241 246 245
f 243 247 248
f 243 248 244
f 241 245 247
f 241 247 243
f 242 244 248
f 242 248 246
f 249 250 257
f 250 258 257
f 250 251 258
f 251 259 258
f 251 252 259
f 252 260 259
f 252 253 260
f 253 261 260
f 253 254 261
f 254 262 261
f 254 255 262
f 255 263 262
f 255 256 263
f 256 264 263
f 256 249 264
f 249 257 264
f 265 250 249
f 266 257 258
f 265 251 250
f 266 258 259
f 265 252 251
f 266 259 260
f 265 253 252
f 266 260 261
f 265 254 253
f 266 261 262
f 265 255 254
f 266 262 263
f 265 256 255
f 266 263 264
f 265 249 256
f 266 264 257
f 267 269 270
f 267 270 268
f 271 272 274
f 271 274 273
f 267 268 272
f 267 272 271
f 269 273 274
f 269 274 270
f 267 271 273
f 267 273 269
f 268 270 274
f 268 274 272
f 275 276 283
f 276 284 283
f 276 277 284
f 277 285 284
f 277 278 285
f 278 286 285
f 278 279 286
f 279 287 286
f 279 280 287
f 280 288 287
f 280 281 288
f 281 289 288
f 281 282 289
f 282 290 289
f 282 275 290
f 275 283 290
f 291 276 275
f 292 283 284
f 291 277 276
f 292 284 285
f 291 278 277
f 292 285 286
f 291 279 278
f 292 286 287
f 291 280 279
f 292 287 288
f 291 281 280
f 292 288 289
f 291 282 281
f 292 289 290
f 291 275 282
f 292 290 283
g hesperus_propellant
usemtl tank
f 293 294 321
f 294 322 321
f 294 295 322
f 295 323 322
f 295 296 323
f 296 324 323
f 296 297 324
f 297 325 324
f 297 298 325
f 298 326 325
f 298 299 326
f 299 327 326
f 299 300 327
f 300 328 327
f 300 301 328
f 301 329 328
f 301 302 329
f 302 330 329
f 302 303 330
f 303 331 330
f 303 304 331
f 304 332 331
f 304 305 332
f 305 333 332
f 305 306 333
f 306 334 333
f 306 307 334
f 307 335 334
f 307 308 335
f 308 336 335
f 308 309 336
f 309 337 336
f 309 310 337
f 310 338 337
f 310 311 338
f 311 339 338
f 311 312 339
f 312 340 339
f 312 313 340
f 313 341 340
f 313 314 341
f 314 342 341
f 314 315 342
f 315 343 342
f 315 316 343
f 316 344 343
f 316 317 344
f 317 345 344
f 317 318 345
f 318 346 345
f 318 319 346
f 319 347 346
f 319 320 347
f 320 348 347
f 320 293 348
f 293 321 348
f 349 294 293
f 350 321 322
f 349 295 294
f 350 322 323
f 349 296 295
f 350 323 324
f 349 297 296
f 350 324 325
f 349 298 297
f 350 325 326
f 349 299 298
f 350 326 327
f 349 300 299
f 350 327 328
f 349 301 300
f 350 328 329
f 349 302 301
f 350 329 330
f 349 303 302
f 350 330 331
f 349 304 303
f 350 331 332
f 349 305 304
f 350 332 333
f 349 306 305
f 350 333 334
f 349 307 306
f 350 334 335
f 349 308 307
f 350 335 336
f 349 309 308
f 350 336 337
f 349 310 309
f 350 337 338
f 349 311 310
f 350 338 339
f 349 312 311
f 350 339 340
f 349 313 312
f 350 340 341
f 349 314 313
f 350 341 342
f 349 315 314
f 350 342 343
f 349 316 315
f 350 343 344
f 349 317 316
f 350 344 345
f 349 318 317
f 350 345 346
f 349 319 318
f 350 346 347
f 349 320 319
f 350 347 348
f 349 293 320
f 350 348 321
f 351 352 379
f 352 380 379
f 352 353 380
f 353 381 380
f 353 354 381
f 354 382 381
f 354 355 382
f 355 383 382
f 355 356 383
f 356 384 383
f 356 357 384
f 357 385 384
f 357 358 385
f 358 386 385
f 358 359 386
f 359 387 386
f 359 360 387
f 360 388 387
f 360 361 388
f 361 389 388
f 361 362 389
f 362 390 389
f 362 363 390
f 363 391 390
f 363 364 391
f 364 392 391
f 364 365 392
f 365 393 392
f 365 366 393
f 366 394 393
f 366 367 394
f 367 395 394
f 367 368 395
f 368 396 395
f 368 369 396
f 369 397 396
f 369 370 397
f 370 398 397
f 370 371 398
f 371 399 398
f 371 372 399
f 372 400 399
f 372 373 400
f 373 401 400
f 373 374 401
f 374 402 401
f 374 375 402
f 375 403 402
f 375 376 403
f 376 404 403
f 376 377 404
f 377 405 404
f 377 378 405
f 378 406 405
f 378 351 406
f 351 379 406
f 407 352 351
f 408 379 380
f 407 353 352
f 408 380 381
f 407 354 353
f 408 381 382
f 407 355 354
f 408 382 383
f 407 356 355
f 408 383 384
f 407 357 356
f 408 384 385
f 407 358 357
f 408 385 386
f 407 359 358
f 408 386 387
f 407 360 359
f 408 387 388
f 407 361 360
f 408 388 389
f 407 362 361
f 408 389 390
f 407 363 362
f 408 390 391
f 407 364 363
f 408 391 392
f 407 365 364
f 408 392 393
f 407 366 365
f 408 393 394
f 407 367 366
f 408 394 395
f 407 368 367
f 408 395 396
f 407 369 368
f 408 396 397
f 407 370 369
f 408 397 398
f 407 371 370
f 408 398 399
f 407 372 371
f 408 399 400
f 407 373 372
f 408 400 401
f 407 374 373
f 408 401 402
f 407 375 374
f 408 402 403
f 407 376 375
f 408 403 404
f 407 377 376
f 408 404 405
f 407 378 377
f 408 405 406
f 407 351 378
f 408 406 379
g hesperus_truss
usemtl truss
f 409 410 421
f 410 422 421
f 410 411 422
f 411 423 422
f 411 412 423
f 412 424 423
f 412 413 424
f 413 425 424
f 413 414 425
f 414 426 425
f 414 415 426
f 415 427 426
f 415 416 427
f 416 428 427
f 416 417 428
f 417 429 428
f 417 418 429
f 418 430 429
f 418 419 430
f 419 431 430
f 419 420 431
f 420 432 431
f 420 409 432
f 409 421 432
f 433 410 409
f 434 421 422
f 433 411 410
f 434 422 423
f 433 412 411
f 434 423 424
f 433 413 412
f 434 424 425
f 433 414 413
f 434 425 426
f 433 415 414
f 434 426 427
f 433 416 415
f 434 427 428
f 433 417 416
f 434 428 429
f 433 418 417
f 434 429 430
f 433 419 418
f 434 430 431
f 433 420 419
f 434 431 432
f 433 409 420
f 434 432 421
g hesperus_engine
usemtl engine
f 435 436 459
f 436 460 459
f 436 437 460
f 437 461 460
f 437 438 461
f 438 462 461
f 438 439 462
f 439 463 462
f 439 440 463
f 440 464 463
f 440 441 464
f 441 465 464
f 441 442 465
f 442 466 465
f 442 443 466
f 443 467 466
f 443 444 467
f 444 468 467
f 444 445 468
f 445 469 468
f 445 446 469
f 446 470 469
f 446 447 470
f 447 471 470
f 447 448 471
f 448 472 471
f 448 449 472
f 449 473 472
f 449 450 473
f 450 474 473
f 450 451 474
f 451 475 474
f 451 452 475
f 452 476 475
f 452 453 476
f 453 477 476
f 453 454 477
f 454 478 477
f 454 455 478
f 455 479 478
f 455 456 479
f 456 480 479
f 456 457 480
f 457 481 480
f 457 458 481
f 458 482 481
f 458 435 482
f 435 459 482
f 483 436 435
f 484 459 460
f 483 437 436
f 484 460 461
f 483 438 437
f 484 461 462
f 483 439 438
f 484 462 463
f 483 440 439
f 484 463 464
f 483 441 440
f 484 464 465
f 483 442 441
f 484 465 466
f 483 443 442
f 484 466 467
f 483 444 443
f 484 467 468
f 483 445 444
f 484 468 469
f 483 446 445
f 484 469 470
f 483 447 446
f 484 470 471
f 483 448 447
f 484 471 472
f 483 449 448
f 484 472 473
f 483 450 449
f 484 473 474
f 483 451 450
f 484 474 475
f 483 452 451
f 484 475 476
f 483 453 452
f 484 476 477
f 483 454 453
f 484 477 478
f 483 455 454
f 484 478 479
f 483 456 455
f 484 479 480
f 483 457 456
f 484 480 481
f 483 458 457
f 484 481 482
f 483 435 458
f 484 482 459
g aeroshell
usemtl shell
f 485 486 525
f 486 526 525
f 486 487 526
f 487 527 526
f 487 488 527
f 488 528 527
f 488 489 528
f 489 529 528
f 489 490 529
f 490 530 529
f 490 491 530
f 491 531 530
f 491 492 531
f 492 532 531
f 492 493 532
f 493 533 532
f 493 494 533
f 494 534 533
f 494 495 534
f 495 535 534
f 495 496 535
f 496 536 535
f 496 497 536
f 497 537 536
f 497 498 537
f 498 538 537
f 498 499 538
f 499 539 538
f 499 500 539
f 500 540 539
f 500 501 540
f 501 541 540
f 501 502 541
f 502 542 541
f 502 503 542
f 503 543 542
f 503 504 543
f 504 544 543
f 504 505 544
f 505 545 544
f 505 506 545
f 506 546 545
f 506 507 546
f 507 547 546
f 507 508 547
f 508 548 547
f 508 509 548
f 509 549 548
f 509 510 549
f 510 550 549
f 510 511 550
f 511 551 550
f 511 512 551
f 512 552 551
f 512 513 552
f 513 553 552
f 513 514 553
f 514 554 553
f 514 515 554
f 515 555 554
f 515 516 555
f 516 556 555
f 516 517 556
f 517 557 556
f 517 518 557
f 518 558 557
f 518 519 558
f 519 559 558
f 519 520 559
f 520 560 559
f 520 521 560
f 521 561 560
f 521 522 561
f 522 562 561
f 522 523 562
f 523 563 562
f 523 524 563
f 524 564 563
f 524 485 564
f 485 525 564
f 565 486 485
f 566 525 526
f 565 487 486
f 566 526 527
f 565 488 487
f 566 527 528
f 565 489 488
f 566 528 529
f 565 490 489
f 566 529 530
f 565 491 490
f 566 530 531
f 565 492 491
f 566 531 532
f 565 493 492
f 566 532 533
f 565 494 493
f 566 533 534
f 565 495 494
f 566 534 535
f 565 496 495
f 566 535 536
f 565 497 496
f 566 536 537
f 565 498 497
f 566 537 538
f 565 499 498
f 566 538 539
f 565 500 499
f 566 539 540
f 565 501 500
f 566 540 541
f 565 502 501
f 566 541 542
f 565 503 502
f 566 542 543
f 565 504 503
f 566 543 544
f 565 505 504
f 566 544 545
f 565 506 505
f 566 545 546
f 565 507 506
f 566 546 547
f 565 508 507
f 566 547 548
f 565 509 508
f 566 548 549
f 565 510 509
f 566 549 550
f 565 511 510
f 566 550 551
f 565 512 511
f 566 551 552
f 565 513 512
f 566 552 553
f 565 514 513
f 566 553 554
f 565 515 514
f 566 554 555
f 565 516 515
f 566 555 556
f 565 517 516
f 566 556 557
f 565 518 517
f 566 557 558
f 565 519 518
f 566 558 559
f 565 520 519
f 566 559 560
f 565 521 520
f 566 560 561
f 565 522 521
f 566 561 562
f 565 523 522
f 566 562 563
f 565 524 523
f 566 563 564
f 565 485 524
f 566 564 525
f 567 568 607
f 568 608 607
f 568 569 608
f 569 609 608
f 569 570 609
f 570 610 609
f 570 571 610
f 571 611 610
f 571 572 611
f 572 612 611
f 572 573 612
f 573 613 612
f 573 574 613
f 574 614 613
f 574 575 614
f 575 615 614
f 575 576 615
f 576 616 615
f 576 577 616
f 577 617 616
f 577 578 617
f 578 618 617
f 578 579 618
f 579 619 618
f 579 580 619
f 580 620 619
f 580 581 620
f 581 621 620
f 581 582 621
f 582 622 621
f 582 583 622
f 583 623 622
f 583 584 623
f 584 624 623
f 584 585 624
f 585 625 624
f 585 586 625
f 586 626 625
f 586 587 626
f 587 627 626
f 587 588 627
f 588 628 627
f 588 589 628
f 589 629 628
f 589 590 629
f 590 630 629
f 590 591 630
f 591 631 630
f 591 592 631
f 592 632 631
f 592 593 632
f 593 633 632
f 593 594 633
f 594 634 633
f 594 595 634
f 595 635 634
f 595 596 635
f 596 636 635
f 596 597 636
f 597 637 636
f 597 598 637
f 598 638 637
f 598 599 638
f 599 639 638
f 599 600 639
f 600 640 639
f 600 601 640
f 601 641 640
f 601 602 641
f 602 642 641
f 602 603 642
f 603 643 642
f 603 604 643
f 604 644 643
f 604 605 644
f 605 645 644
f 605 606 645
f 606 646 645
f 606 567 646
f 567 607 646
f 647 568 567
f 648 607 608
f 647 569 568
f 648 608 609
f 647 570 569
f 648 609 610
f 647 571 570
f 648 610 611
f 647 572 571
f 648 611 612
f 647 573 572
f 648 612 613
f 647 574 573
f 648 613 614
f 647 575 574
f 648 614 615
f 647 576 575
f 648 615 616
f 647 577 576
f 648 616 617
f 647 578 577
f 648 617 618
f 647 579 578
f 648 618 619
f 647 580 579
f 648 619 620
f 647 581 580
f 648 620 621
f 647 582 581
f 648 621 622
f 647 583 582
f 648 622 623
f 647 584 583
f 648 623 624
f 647 585 584
f 648 624 625
f 647 586 585
f 648 625 626
f 647 587 586
f 648 626 627
f 647 588 587
f 648 627 628
f 647 589 588
f 648 628 629
f 647 590 589
f 648 629 630
f 647 591 590
f 648 630 631
f 647 592 591
f 648 631 632
f 647 593 592
f 648 632 633
f 647 594 593
f 648 633 634
f 647 595 594
f 648 634 635
f 647 596 595
f 648 635 636
f 647 597 596
f 648 636 637
f 647 598 597
f 648 637 638
f 647 599 598
f 648 638 639
f 647 600 599
f 648 639 640
f 647 601 600
f 648 640 641
f 647 602 601
f 648 641 642
f 647 603 602
f 648 642 643
f 647 604 603
f 648 643 644
f 647 605 604
f 648 644 645
f 647 606 605
f 648 645 646
f 647 567 606
f 648 646 607
g shell_backplate
usemtl gondola
f 649 650 689
f 650 690 689
f 650 651 690
f 651 691 690
f 651 652 691
f 652 692 691
f 652 653 692
f 653 693 692
f 653 654 693
f 654 694 693
f 654 655 694
f 655 695 694
f 655 656 695
f 656 696 695
f 656 657 696
f 657 697 696
f 657 658 697
f 658 698 697
f 658 659 698
f 659 699 698
f 659 660 699
f 660 700 699
f 660 661 700
f 661 701 700
f 661 662 701
f 662 702 701
f 662 663 702
f 663 703 702
f 663 664 703
f 664 704 703
f 664 665 704
f 665 705 704
f 665 666 705
f 666 706 705
f 666 667 706
f 667 707 706
f 667 668 707
f 668 708 707
f 668 669 708
f 669 709 708
f 669 670 709
f 670 710 709
f 670 671 710
f 671 711 710
f 671 672 711
f 672 712 711
f 672 673 712
f 673 713 712
f 673 674 713
f 674 714 713
f 674 675 714
f 675 715 714
f 675 676 715
f 676 716 715
f 676 677 716
f 677 717 716
f 677 678 717
f 678 718 717
f 678 679 718
f 679 719 718
f 679 680 719
f 680 720 719
f 680 681 720
f 681 721 720
f 681 682 721
f 682 722 721
f 682 683 722
f 683 723 722
f 683 684 723
f 684 724 723
f 684 685 724
f 685 725 724
f 685 686 725
f 686 726 725
f 686 687 726
f 687 727 726
f 687 688 727
f 688 728 727
f 688 649 728
f 649 689 728
f 729 650 649
f 730 689 690
f 729 651 650
f 730 690 691
f 729 652 651
f 730 691 692
f 729 653 652
f 730 692 693
f 729 654 653
f 730 693 694
f 729 655 654
f 730 694 695
f 729 656 655
f 730 695 696
f 729 657 656
f 730 696 697
f 729 658 657
f 730 697 698
f 729 659 658
f 730 698 699
f 729 660 659
f 730 699 700
f 729 661 660
f 730 700 701
f 729 662 661
f 730 701 702
f 729 663 662
f 730 702 703
f 729 664 663
f 730 703 704
f 729 665 664
f 730 704 705
f 729 666 665
f 730 705 706
f 729 667 666
f 730 706 707
f 729 668 667
f 730 707 708
f 729 669 668
f 730 708 709
f 729 670 669
f 730 709 710
f 729 671 670
f 730 710 711
f 729 672 671
f 730 711 712
f 729 673 672
f 730 712 713
f 729 674 673
f 730 713 714
f 729 675 674
f 730 714 715
f 729 676 675
f 730 715 716
f 729 677 676
f 730 716 717
f 729 678 677
f 730 717 718
f 729 679 678
f 730 718 719
f 729 680 679
f 730 719 720
f 729 681 680
f 730 720 721
f 729 682 681
f 730 721 722
f 729 683 682
f 730 722 723
f 729 684 683
f 730 723 724
f 729 685 684
f 730 724 725
f 729 686 685
f 730 725 726
f 729 687 686
f 730 726 727
f 729 688 687
f 730 727 728
f 729 649 688
f 730 728 689
g vesper_stage_1
usemtl vesper
f 731 732 763
f 732 764 763
f 732 733 764
f 733 765 764
f 733 734 765
f 734 766 765
f 734 735 766
f 735 767 766
f 735 736 767
f 736 768 767
f 736 737 768
f 737 769 768
f 737 738 769
f 738 770 769
f 738 739 770
f 739 771 770
f 739 740 771
f 740 772 771
f 740 741 772
f 741 773 772
f 741 742 773
f 742 774 773
f 742 743 774
f 743 775 774
f 743 744 775
f 744 776 775
f 744 745 776
f 745 777 776
f 745 746 777
f 746 778 777
f 746 747 778
f 747 779 778
f 747 748 779
f 748 780 779
f 748 749 780
f 749 781 780
f 749 750 781
f 750 782 781
f 750 751 782
f 751 783 782
f 751 752 783
f 752 784 783
f 752 753 784
f 753 785 784
f 753 754 785
f 754 786 785
f 754 755 786
f 755 787 786
f 755 756 787
f 756 788 787
f 756 757 788
f 757 789 788
f 757 758 789
f 758 790 789
f 758 759 790
f 759 791 790
f 759 760 791
f 760 792 791
f 760 761 792
f 761 793 792
f 761 762 793
f 762 794 793
f 762 731 794
f 731 763 794
f 795 732 731
f 796 763 764
f 795 733 732
f 796 764 765
f 795 734 733
f 796 765 766
f 795 735 734
f 796 766 767
f 795 736 735
f 796 767 768
f 795 737 736
f 796 768 769
f 795 738 737
f 796 769 770
f 795 739 738
f 796 770 771
f 795 740 739
f 796 771 772
f 795 741 740
f 796 772 773
f 795 742 741
f 796 773 774
f 795 743 742
f 796 774 775
f 795 744 743
f 796 775 776
f 795 745 744
f 796 776 777
f 795 746 745
f 796 777 778
f 795 747 746
f 796 778 779
f 795 748 747
f 796 779 780
f 795 749 748
f 796 780 781
f 795 750 749
f 796 781 782
f 795 751 750
f 796 782 783
f 795 752 751
f 796 783 784
f 795 753 752
f 796 784 785
f 795 754 753
f 796 785 786
f 795 755 754
f 796 786 787
f 795 756 755
f 796 787 788
f 795 757 756
f 796 788 789
f 795 758 757
f 796 789 790
f 795 759 758
f 796 790 791
f 795 760 759
f 796 791 792
f 795 761 760
f 796 792 793
f 795 762 761
f 796 793 794
f 795 731 762
f 796 794 763
g vesper_stage_2
usemtl vesper
f 797 798 829
f 798 830 829
f 798 799 830
f 799 831 830
f 799 800 831
f 800 832 831
f 800 801 832
f 801 833 832
f 801 802 833
f 802 834 833
f 802 803 834
f 803 835 834
f 803 804 835
f 804 836 835
f 804 805 836
f 805 837 836
f 805 806 837
f 806 838 837
f 806 807 838
f 807 839 838
f 807 808 839
f 808 840 839
f 808 809 840
f 809 841 840
f 809 810 841
f 810 842 841
f 810 811 842
f 811 843 842
f 811 812 843
f 812 844 843
f 812 813 844
f 813 845 844
f 813 814 845
f 814 846 845
f 814 815 846
f 815 847 846
f 815 816 847
f 816 848 847
f 816 817 848
f 817 849 848
f 817 818 849
f 818 850 849
f 818 819 850
f 819 851 850
f 819 820 851
f 820 852 851
f 820 821 852
f 821 853 852
f 821 822 853
f 822 854 853
f 822 823 854
f 823 855 854
f 823 824 855
f 824 856 855
f 824 825 856
f 825 857 856
f 825 826 857
f 826 858 857
f 826 827 858
f 827 859 858
f 827 828 859
f 828 860 859
f 828 797 860
f 797 829 860
f 861 798 797
f 862 829 830
f 861 799 798
f 862 830 831
f 861 800 799
f 862 831 832
f 861 801 800
f 862 832 833
f 861 802 801
f 862 833 834
f 861 803 802
f 862 834 835
f 861 804 803
f 862 835 836
f 861 805 804
f 862 836 837
f 861 806 805
f 862 837 838
f 861 807 806
f 862 838 839
f 861 808 807
f 862 839 840
f 861 809 808
f 862 840 841
f 861 810 809
f 862 841 842
f 861 811 810
f 862 842 843
f 861 812 811
f 862 843 844
f 861 813 812
f 862 844 845
f 861 814 813
f 862 845 846
f 861 815 814
f 862 846 847
f 861 816 815
f 862 847 848
f 861 817 816
f 862 848 849
f 861 818 817
f 862 849 850
f 861 819 818
f 862 850 851
f 861 820 819
f 862 851 852
f 861 821 820
f 862 852 853
f 861 822 821
f 862 853 854
f 861 823 822
f 862 854 855
f 861 824 823
f 862 855 856
f 861 825 824
f 862 856 857
f 861 826 825
f 862 857 858
f 861 827 826
f 862 858 859
f 861 828 827
f 862 859 860
f 861 797 828
f 862 860 829
g vesper_capsule
usemtl crew
f 863 864 895
f 864 896 895
f 864 865 896
f 865 897 896
f 865 866 897
f 866 898 897
f 866 867 898
f 867 899 898
f 867 868 899
f 868 900 899
f 868 869 900
f 869 901 900
f 869 870 901
f 870 902 901
f 870 871 902
f 871 903 902
f 871 872 903
f 872 904 903
f 872 873 904
f 873 905 904
f 873 874 905
f 874 906 905
f 874 875 906
f 875 907 906
f 875 876 907
f 876 908 907
f 876 877 908
f 877 909 908
f 877 878 909
f 878 910 909
f 878 879 910
f 879 911 910
f 879 880 911
f 880 912 911
f 880 881 912
f 881 913 912
f 881 882 913
f 882 914 913
f 882 883 914
f 883 915 914
f 883 884 915
f 884 916 915
f 884 885 916
f 885 917 916
f 885 886 917
f 886 918 917
f 886 887 918
f 887 919 918
f 887 888 919
f 888 920 919
f 888 889 920
f 889 921 920
f 889 890 921
f 890 922 921
f 890 891 922
f 891 923 922
f 891 892 923
f 892 924 923
f 892 893 924
f 893 925 924
f 893 894 925
f 894 926 925
f 894 863 926
f 863 895 926
f 927 864 863
f 928 895 896
f 927 865 864
f 928 896 897
f 927 866 865
f 928 897 898
f 927 867 866
f 928 898 899
f 927 868 867
f 928 899 900
f 927 869 868
f 928 900 901
f 927 870 869
f 928 901 902
f 927 871 870
f 928 902 903
f 927 872 871
f 928 903 904
f 927 873 872
f 928 904 905
f 927 874 873
f 928 905 906
f 927 875 874
f 928 906 907
f 927 876 875
f 928 907 908
f 927 877 876
f 928 908 909
f 927 878 877
f 928 909 910
f 927 879 878
f 928 910 911
f 927 880 879
f 928 911 912
f 927 881 880
f 928 912 913
f 927 882 881
f 928 913 914
f 927 883 882
f 928 914 915
f 927 884 883
f 928 915 916
f 927 885 884
f 928 916 917
f 927 886 885
f 928 917 918
f 927 887 886
f 928 918 919
f 927 888 887
f 928 919 920
f 927 889 888
f 928 920 921
f 927 890 889
f 928 921 922
f 927 891 890
f 928 922 923
f 927 892 891
f 928 923 924
f 927 893 892
f 928 924 925
f 927 894 893
f 928 925 926
f 927 863 894
f 928 926 895
g vesper_engines
usemtl engine
f 929 930 945
f 930 946 945
f 930 931 946
f 931 947 946
f 931 932 947
f 932 948 947
f 932 933 948
f 933 949 948
f 933 934 949
f 934 950 949
f 934 935 950
f 935 951 950
f 935 936 951
f 936 952 951
f 936 937 952
f 937 953 952
f 937 938 953
f 938 954 953
f 938 939 954
f 939 955 954
f 939 940 955
f 940 956 955
f 940 941 956
f 941 957 956
f 941 942 957
f 942 958 957
f 942 943 958
f 943 959 958
f 943 944 959
f 944 960 959
f 944 929 960
f 929 945 960
f 961 930 929
f 962 945 946
f 961 931 930
f 962 946 947
f 961 932 931
f 962 947 948
f 961 933 932
f 962 948 949
f 961 934 933
f 962 949 950
f 961 935 934
f 962 950 951
f 961 936 935
f 962 951 952
f 961 937 936
f 962 952 953
f 961 938 937
f 962 953 954
f 961 939 938
f 962 954 955
f 961 940 939
f 962 955 956
f 961 941 940
f 962 956 957
f 961 942 941
f 962 957 958
f 961 943 942
f 962 958 959
f 961 944 943
f 962 959 960
f 961 929 944
f 962 960 945
f 963 964 979
f 964 980 979
f 964 965 980
f 965 981 980
f 965 966 981
f 966 982 981
f 966 967 982
f 967 983 982
f 967 968 983
f 968 984 983
f 968 969 984
f 969 985 984
f 969 970 985
f 970 986 985
f 970 971 986
f 971 987 986
f 971 972 987
f 972 988 987
f 972 973 988
f 973 989 988
f 973 974 989
f 974 990 989
f 974 975 990
f 975 991 990
f 975 976 991
f 976 992 991
f 976 977 992
f 977 993 992
f 977 978 993
f 978 994 993
f 978 963 994
f 963 979 994
f 995 964 963
f 996 979 980
f 995 965 964
f 996 980 981
f 995 966 965
f 996 981 982
f 995 967 966
f 996 982 983
f 995 968 967
f 996 983 984
f 995 969 968
f 996 984 985
f 995 970 969
f 996 985 986
f 995 971 970
f 996 986 987
f 995 972 971
f 996 987 988
f 995 973 972
f 996 988 989
f 995 974 973
f 996 989 990
f 995 975 974
f 996 990 991
f 995 976 975
f 996 991 992
f 995 977 976
f 996 992 993
f 995 978 977
f 996 993 994
f 995 963 978
f 996 994 979
f 997 998 1013
f 998 1014 1013
f 998 999 1014
f 999 1015 1014
f 999 1000 1015
f 1000 1016 1015
f 1000 1001 1016
f 1001 1017 1016
f 1001 1002 1017
f 1002 1018 1017
f 1002 1003 1018
f 1003 1019 1018
f 1003 1004 1019
f 1004 1020 1019
f 1004 1005 1020
f 1005 1021 1020
f 1005 1006 1021
f 1006 1022 1021
f 1006 1007 1022
f 1007 1023 1022
f 1007 1008 1023
f 1008 1024 1023
f 1008 1009 1024
f 1009 1025 1024
f 1009 1010 1025
f 1010 1026 1025
f 1010 1011 1026
f 1011 1027 1026
f 1011 1012 1027
f 1012 1028 1027
f 1012 997 1028
f 997 1013 1028
f 1029 998 997
f 1030 1013 1014
f 1029 999 998
f 1030 1014 1015
f 1029 1000 999
f 1030 1015 1016
f 1029 1001 1000
f 1030 1016 1017
f 1029 1002 1001
f 1030 1017 1018
f 1029 1003 1002
f 1030 1018 1019
f 1029 1004 1003
f 1030 1019 1020
f 1029 1005 1004
f 1030 1020 1021
f 1029 1006 1005
f 1030 1021 1022
f 1029 1007 1006
f 1030 1022 1023
f 1029 1008 1007
f 1030 1023 1024
f 1029 1009 1008
f 1030 1024 1025
f 1029 1010 1009
f 1030 1025 1026
f 1029 1011 1010
f 1030 1026 1027
f 1029 1012 1011
f 1030 1027 1028
f 1029 997 1012
f 1030 1028 1013
f 1031 1032 1047
f 1032 1048 1047
f 1032 1033 1048
f 1033 1049 1048
f 1033 1034 1049
f 1034 1050 1049
f 1034 1035 1050
f 1035 1051 1050
f 1035 1036 1051
f 1036 1052 1051
f 1036 1037 1052
f 1037 1053 1052
f 1037 1038 1053
f 1038 1054 1053
f 1038 1039 1054
f 1039 1055 1054
f 1039 1040 1055
f 1040 1056 1055
f 1040 1041 1056
f 1041 1057 1056
f 1041 1042 1057
f 1042 1058 1057
f 1042 1043 1058
f 1043 1059 1058
f 1043 1044 1059
f 1044 1060 1059
f 1044 1045 1060
f 1045 1061 1060
f 1045 1046 1061
f 1046 1062 1061
f 1046 1031 1062
f 1031 1047 1062
f 1063 1032 1031
f 1064 1047 1048
f 1063 1033 1032
f 1064 1048 1049
f 1063 1034 1033
f 1064 1049 1050
f 1063 1035 1034
f 1064 1050 1051
f 1063 1036 1035
f 1064 1051 1052
f 1063 1037 1036
f 1064 1052 1053
f 1063 1038 1037
f 1064 1053 1054
f 1063 1039 1038
f 1064 1054 1055
f 1063 1040 1039
f 1064 1055 1056
f 1063 1041 1040
f 1064 1056 1057
f 1063 1042 1041
f 1064 1057 1058
f 1063 1043 1042
f 1064 1058 1059
f 1063 1044 1043
f 1064 1059 1060
f 1063 1045 1044
f 1064 1060 1061
f 1063 1046 1045
f 1064 1061 1062
f 1063 1031 1046
f 1064 1062 1047
g vesper_mount
usemtl truss
f 1065 1066 1077
f 1066 1078 1077
f 1066 1067 1078
f 1067 1079 1078
f 1067 1068 1079
f 1068 1080 1079
f 1068 1069 1080
f 1069 1081 1080
f 1069 1070 1081
f 1070 1082 1081
f 1070 1071 1082
f 1071 1083 1082
f 1071 1072 1083
f 1072 1084 1083
f 1072 1073 1084
f 1073 1085 1084
f 1073 1074 1085
f 1074 1086 1085
f 1074 1075 1086
f 1075 1087 1086
f 1075 1076 1087
f 1076 1088 1087
f 1076 1065 1088
f 1065 1077 1088
f 1089 1066 1065
f 1090 1077 1078
f 1089 1067 1066
f 1090 1078 1079
f 1089 1068 1067
f 1090 1079 1080
f 1089 1069 1068
f 1090 1080 1081
f 1089 1070 1069
f 1090 1081 1082
f 1089 1071 1070
f 1090 1082 1083
f 1089 1072 1071
f 1090 1083 1084
f 1089 1073 1072
f 1090 1084 1085
f 1089 1074 1073
f 1090 1085 1086
f 1089 1075 1074
f 1090 1086 1087
f 1089 1076 1075
f 1090 1087 1088
f 1089 1065 1076
f 1090 1088 1077
g person
usemtl human
f 1091 1092 1101
f 1092 1102 1101
f 1092 1093 1102
f 1093 1103 1102
f 1093 1094 1103
f 1094 1104 1103
f 1094 1095 1104
f 1095 1105 1104
f 1095 1096 1105
f 1096 1106 1105
f 1096 1097 1106
f 1097 1107 1106
f 1097 1098 1107
f 1098 1108 1107
f 1098 1099 1108
f 1099 1109 1108
f 1099 1100 1109
f 1100 1110 1109
f 1100 1091 1110
f 1091 1101 1110
f 1111 1092 1091
f 1112 1101 1102
f 1111 1093 1092
f 1112 1102 1103
f 1111 1094 1093
f 1112 1103 1104
f 1111 1095 1094
f 1112 1104 1105
f 1111 1096 1095
f 1112 1105 1106
f 1111 1097 1096
f 1112 1106 1107
f 1111 1098 1097
f 1112 1107 1108
f 1111 1099 1098
f 1112 1108 1109
f 1111 1100 1099
f 1112 1109 1110
f 1111 1091 1100
f 1112 1110 1101
f 1113 1114 1123
f 1114 1124 1123
f 1114 1115 1124
f 1115 1125 1124
f 1115 1116 1125
f 1116 1126 1125
f 1116 1117 1126
f 1117 1127 1126
f 1117 1118 1127
f 1118 1128 1127
f 1118 1119 1128
f 1119 1129 1128
f 1119 1120 1129
f 1120 1130 1129
f 1120 1121 1130
f 1121 1131 1130
f 1121 1122 1131
f 1122 1132 1131
f 1122 1113 1132
f 1113 1123 1132
f 1133 1114 1113
f 1134 1123 1124
f 1133 1115 1114
f 1134 1124 1125
f 1133 1116 1115
f 1134 1125 1126
f 1133 1117 1116
f 1134 1126 1127
f 1133 1118 1117
f 1134 1127 1128
f 1133 1119 1118
f 1134 1128 1129
f 1133 1120 1119
f 1134 1129 1130
f 1133 1121 1120
f 1134 1130 1131
f 1133 1122 1121
f 1134 1131 1132
f 1133 1113 1122
f 1134 1132 1123
f 1135 1136 1147
f 1136 1148 1147
f 1136 1137 1148
f 1137 1149 1148
f 1137 1138 1149
f 1138 1150 1149
f 1138 1139 1150
f 1139 1151 1150
f 1139 1140 1151
f 1140 1152 1151
f 1140 1141 1152
f 1141 1153 1152
f 1141 1142 1153
f 1142 1154 1153
f 1142 1143 1154
f 1143 1155 1154
f 1143 1144 1155
f 1144 1156 1155
f 1144 1145 1156
f 1145 1157 1156
f 1145 1146 1157
f 1146 1158 1157
f 1146 1135 1158
f 1135 1147 1158
f 1159 1136 1135
f 1160 1147 1148
f 1159 1137 1136
f 1160 1148 1149
f 1159 1138 1137
f 1160 1149 1150
f 1159 1139 1138
f 1160 1150 1151
f 1159 1140 1139
f 1160 1151 1152
f 1159 1141 1140
f 1160 1152 1153
f 1159 1142 1141
f 1160 1153 1154
f 1159 1143 1142
f 1160 1154 1155
f 1159 1144 1143
f 1160 1155 1156
f 1159 1145 1144
f 1160 1156 1157
f 1159 1146 1145
f 1160 1157 1158
f 1159 1135 1146
f 1160 1158 1147
f 1162 1173 1174
f 1163 1174 1175
f 1164 1175 1176
f 1165 1176 1177
f 1166 1177 1178
f 1167 1178 1179
f 1168 1179 1180
f 1169 1180 1181
f 1170 1181 1182
f 1171 1182 1183
f 1172 1183 1184
f 1161 1184 1173
f 1173 1185 1174
f 1174 1185 1186
f 1174 1186 1175
f 1175 1186 1187
f 1175 1187 1176
f 1176 1187 1188
f 1176 1188 1177
f 1177 1188 1189
f 1177 1189 1178
f 1178 1189 1190
f 1178 1190 1179
f 1179 1190 1191
f 1179 1191 1180
f 1180 1191 1192
f 1180 1192 1181
f 1181 1192 1193
f 1181 1193 1182
f 1182 1193 1194
f 1182 1194 1183
f 1183 1194 1195
f 1183 1195 1184
f 1184 1195 1196
f 1184 1196 1173
f 1173 1196 1185
f 1185 1197 1186
f 1186 1197 1198
f 1186 1198 1187
f 1187 1198 1199
f 1187 1199 1188
f 1188 1199 1200
f 1188 1200 1189
f 1189 1200 1201
f 1189 1201 1190
f 1190 1201 1202
f 1190 1202 1191
f 1191 1202 1203
f 1191 1203 1192
f 1192 1203 1204
f 1192 1204 1193
f 1193 1204 1205
f 1193 1205 1194
f 1194 1205 1206
f 1194 1206 1195
f 1195 1206 1207
f 1195 1207 1196
f 1196 1207 1208
f 1196 1208 1185
f 1185 1208 1197
f 1197 1209 1198
f 1198 1209 1210
f 1198 1210 1199
f 1199 1210 1211
f 1199 1211 1200
f 1200 1211 1212
f 1200 1212 1201
f 1201 1212 1213
f 1201 1213 1202
f 1202 1213 1214
f 1202 1214 1203
f 1203 1214 1215
f 1203 1215 1204
f 1204 1215 1216
f 1204 1216 1205
f 1205 1216 1217
f 1205 1217 1206
f 1206 1217 1218
f 1206 1218 1207
f 1207 1218 1219
f 1207 1219 1208
f 1208 1219 1220
f 1208 1220 1197
f 1197 1220 1209
f 1209 1221 1210
f 1210 1221 1222
f 1210 1222 1211
f 1211 1222 1223
f 1211 1223 1212
f 1212 1223 1224
f 1212 1224 1213
f 1213 1224 1225
f 1213 1225 1214
f 1214 1225 1226
f 1214 1226 1215
f 1215 1226 1227
f 1215 1227 1216
f 1216 1227 1228
f 1216 1228 1217
f 1217 1228 1229
f 1217 1229 1218
f 1218 1229 1230
f 1218 1230 1219
f 1219 1230 1231
f 1219 1231 1220
f 1220 1231 1232
f 1220 1232 1209
f 1209 1232 1221
f 1221 1233 1222
f 1222 1233 1234
f 1222 1234 1223
f 1223 1234 1235
f 1223 1235 1224
f 1224 1235 1236
f 1224 1236 1225
f 1225 1236 1237
f 1225 1237 1226
f 1226 1237 1238
f 1226 1238 1227
f 1227 1238 1239
f 1227 1239 1228
f 1228 1239 1240
f 1228 1240 1229
f 1229 1240 1241
f 1229 1241 1230
f 1230 1241 1242
f 1230 1242 1231
f 1231 1242 1243
f 1231 1243 1232
f 1232 1243 1244
f 1232 1244 1221
f 1221 1244 1233
f 1233 1245 1234
f 1234 1245 1246
f 1234 1246 1235
f 1235 1246 1247
f 1235 1247 1236
f 1236 1247 1248
f 1236 1248 1237
f 1237 1248 1249
f 1237 1249 1238
f 1238 1249 1250
f 1238 1250 1239
f 1239 1250 1251
f 1239 1251 1240
f 1240 1251 1252
f 1240 1252 1241
f 1241 1252 1253
f 1241 1253 1242
f 1242 1253 1254
f 1242 1254 1243
f 1243 1254 1255
f 1243 1255 1244
f 1244 1255 1256
f 1244 1256 1233
f 1233 1256 1245
f 1245 1257 1246
f 1246 1258 1247
f 1247 1259 1248
f 1248 1260 1249
f 1249 1261 1250
f 1250 1262 1251
f 1251 1263 1252
f 1252 1264 1253
f 1253 1265 1254
f 1254 1266 1255
f 1255 1267 1256
f 1256 1268 1245
