# entry_vehicle — generated by scripts/build_models.py from the Project Phosphorus plan
# units: meters, Y up
mtllib entry_vehicle.mtl
o entry_vehicle
v 0.0000 0.0000 6.4000
v -0.8354 0.0000 6.3452
v -1.6564 0.0000 6.1819
v -2.4492 0.0000 5.9128
v -3.2000 0.0000 5.5426
v -3.8961 0.0000 5.0775
v -4.5255 0.0000 4.5255
v -5.0775 0.0000 3.8961
v -5.5426 0.0000 3.2000
v -5.9128 0.0000 2.4492
v -6.1819 0.0000 1.6564
v -6.3452 0.0000 0.8354
v -6.4000 0.0000 0.0000
v -6.3452 0.0000 -0.8354
v -6.1819 0.0000 -1.6564
v -5.9128 0.0000 -2.4492
v -5.5426 0.0000 -3.2000
v -5.0775 0.0000 -3.8961
v -4.5255 0.0000 -4.5255
v -3.8961 0.0000 -5.0775
v -3.2000 0.0000 -5.5426
v -2.4492 0.0000 -5.9128
v -1.6564 0.0000 -6.1819
v -0.8354 0.0000 -6.3452
v -0.0000 0.0000 -6.4000
v 0.8354 0.0000 -6.3452
v 1.6564 0.0000 -6.1819
v 2.4492 0.0000 -5.9128
v 3.2000 0.0000 -5.5426
v 3.8961 0.0000 -5.0775
v 4.5255 0.0000 -4.5255
v 5.0775 0.0000 -3.8961
v 5.5426 0.0000 -3.2000
v 5.9128 0.0000 -2.4492
v 6.1819 0.0000 -1.6564
v 6.3452 0.0000 -0.8354
v 6.4000 0.0000 -0.0000
v 6.3452 0.0000 0.8354
v 6.1819 0.0000 1.6564
v 5.9128 0.0000 2.4492
v 5.5426 0.0000 3.2000
v 5.0775 0.0000 3.8961
v 4.5255 0.0000 4.5255
v 3.8961 0.0000 5.0775
v 3.2000 0.0000 5.5426
v 2.4492 0.0000 5.9128
v 1.6564 0.0000 6.1819
v 0.8354 0.0000 6.3452
v 0.0000 -1.7500 1.6000
v -0.2088 -1.7500 1.5863
v -0.4141 -1.7500 1.5455
v -0.6123 -1.7500 1.4782
v -0.8000 -1.7500 1.3856
v -0.9740 -1.7500 1.2694
v -1.1314 -1.7500 1.1314
v -1.2694 -1.7500 0.9740
v -1.3856 -1.7500 0.8000
v -1.4782 -1.7500 0.6123
v -1.5455 -1.7500 0.4141
v -1.5863 -1.7500 0.2088
v -1.6000 -1.7500 0.0000
v -1.5863 -1.7500 -0.2088
v -1.5455 -1.7500 -0.4141
v -1.4782 -1.7500 -0.6123
v -1.3856 -1.7500 -0.8000
v -1.2694 -1.7500 -0.9740
v -1.1314 -1.7500 -1.1314
v -0.9740 -1.7500 -1.2694
v -0.8000 -1.7500 -1.3856
v -0.6123 -1.7500 -1.4782
v -0.4141 -1.7500 -1.5455
v -0.2088 -1.7500 -1.5863
v -0.0000 -1.7500 -1.6000
v 0.2088 -1.7500 -1.5863
v 0.4141 -1.7500 -1.5455
v 0.6123 -1.7500 -1.4782
v 0.8000 -1.7500 -1.3856
v 0.9740 -1.7500 -1.2694
v 1.1314 -1.7500 -1.1314
v 1.2694 -1.7500 -0.9740
v 1.3856 -1.7500 -0.8000
v 1.4782 -1.7500 -0.6123
v 1.5455 -1.7500 -0.4141
v 1.5863 -1.7500 -0.2088
v 1.6000 -1.7500 -0.0000
v 1.5863 -1.7500 0.2088
v 1.5455 -1.7500 0.4141
v 1.4782 -1.7500 0.6123
v 1.3856 -1.7500 0.8000
v 1.2694 -1.7500 0.9740
v 1.1314 -1.7500 1.1314
v 0.9740 -1.7500 1.2694
v 0.8000 -1.7500 1.3856
v 0.6123 -1.7500 1.4782
v 0.4141 -1.7500 1.5455
v 0.2088 -1.7500 1.5863
v 0.0000 0.0000 0.0000
v 0.0000 -1.7500 0.0000
v 0.0000 -1.0500 0.0000
v 0.0000 -1.0500 0.0000
v 0.0000 -1.0500 0.0000
v 0.0000 -1.0500 0.0000
v 0.0000 -1.0500 0.0000
v 0.0000 -1.0500 0.0000
v 0.0000 -1.0500 0.0000
v 0.0000 -1.0500 0.0000
v 0.0000 -1.0500 0.0000
v 0.0000 -1.0500 0.0000
v 0.0000 -1.0500 0.0000
v 0.0000 -1.0500 0.0000
v 0.0000 -1.0500 0.0000
v 0.0000 -1.0500 0.0000
v 0.0000 -1.0500 0.0000
v 0.0000 -1.0500 0.0000
v 0.0000 -1.0500 0.0000
v 0.0000 -1.0500 0.0000
v 0.0000 -1.0500 0.0000
v 0.0000 -1.0500 0.0000
v 0.0000 -1.0500 0.0000
v 0.0000 -1.0500 0.0000
v 0.0000 -1.0500 0.0000
v 0.0000 -1.0500 0.0000
v 0.6123 -1.1033 0.0000
v 0.5914 -1.1033 0.1585
v 0.5303 -1.1033 0.3061
v 0.4330 -1.1033 0.4330
v 0.3061 -1.1033 0.5303
v 0.1585 -1.1033 0.5914
v 0.0000 -1.1033 0.6123
v -0.1585 -1.1033 0.5914
v -0.3061 -1.1033 0.5303
v -0.4330 -1.1033 0.4330
v -0.5303 -1.1033 0.3061
v -0.5914 -1.1033 0.1585
v -0.6123 -1.1033 0.0000
v -0.5914 -1.1033 -0.1585
v -0.5303 -1.1033 -0.3061
v -0.4330 -1.1033 -0.4330
v -0.3061 -1.1033 -0.5303
v -0.1585 -1.1033 -0.5914
v -0.0000 -1.1033 -0.6123
v 0.1585 -1.1033 -0.5914
v 0.3061 -1.1033 -0.5303
v 0.4330 -1.1033 -0.4330
v 0.5303 -1.1033 -0.3061
v 0.5914 -1.1033 -0.1585
v 1.1314 -1.2550 0.0000
v 1.0928 -1.2550 0.2928
v 0.9798 -1.2550 0.5657
v 0.8000 -1.2550 0.8000
v 0.5657 -1.2550 0.9798
v 0.2928 -1.2550 1.0928
v 0.0000 -1.2550 1.1314
v -0.2928 -1.2550 1.0928
v -0.5657 -1.2550 0.9798
v -0.8000 -1.2550 0.8000
v -0.9798 -1.2550 0.5657
v -1.0928 -1.2550 0.2928
v -1.1314 -1.2550 0.0000
v -1.0928 -1.2550 -0.2928
v -0.9798 -1.2550 -0.5657
v -0.8000 -1.2550 -0.8000
v -0.5657 -1.2550 -0.9798
v -0.2928 -1.2550 -1.0928
v -0.0000 -1.2550 -1.1314
v 0.2928 -1.2550 -1.0928
v 0.5657 -1.2550 -0.9798
v 0.8000 -1.2550 -0.8000
v 0.9798 -1.2550 -0.5657
v 1.0928 -1.2550 -0.2928
v 1.4782 -1.4821 0.0000
v 1.4278 -1.4821 0.3826
v 1.2802 -1.4821 0.7391
v 1.0453 -1.4821 1.0453
v 0.7391 -1.4821 1.2802
v 0.3826 -1.4821 1.4278
v 0.0000 -1.4821 1.4782
v -0.3826 -1.4821 1.4278
v -0.7391 -1.4821 1.2802
v -1.0453 -1.4821 1.0453
v -1.2802 -1.4821 0.7391
v -1.4278 -1.4821 0.3826
v -1.4782 -1.4821 0.0000
v -1.4278 -1.4821 -0.3826
v -1.2802 -1.4821 -0.7391
v -1.0453 -1.4821 -1.0453
v -0.7391 -1.4821 -1.2802
v -0.3826 -1.4821 -1.4278
v -0.0000 -1.4821 -1.4782
v 0.3826 -1.4821 -1.4278
v 0.7391 -1.4821 -1.2802
v 1.0453 -1.4821 -1.0453
v 1.2802 -1.4821 -0.7391
v 1.4278 -1.4821 -0.3826
v 1.6000 -1.7500 0.0000
v 1.5455 -1.7500 0.4141
v 1.3856 -1.7500 0.8000
v 1.1314 -1.7500 1.1314
v 0.8000 -1.7500 1.3856
v 0.4141 -1.7500 1.5455
v 0.0000 -1.7500 1.6000
v -0.4141 -1.7500 1.5455
v -0.8000 -1.7500 1.3856
v -1.1314 -1.7500 1.1314
v -1.3856 -1.7500 0.8000
v -1.5455 -1.7500 0.4141
v -1.6000 -1.7500 0.0000
v -1.5455 -1.7500 -0.4141
v -1.3856 -1.7500 -0.8000
v -1.1314 -1.7500 -1.1314
v -0.8000 -1.7500 -1.3856
v -0.4141 -1.7500 -1.5455
v -0.0000 -1.7500 -1.6000
v 0.4141 -1.7500 -1.5455
v 0.8000 -1.7500 -1.3856
v 1.1314 -1.7500 -1.1314
v 1.3856 -1.7500 -0.8000
v 1.5455 -1.7500 -0.4141
v 1.4782 -2.0179 0.0000
v 1.4278 -2.0179 0.3826
v 1.2802 -2.0179 0.7391
v 1.0453 -2.0179 1.0453
v 0.7391 -2.0179 1.2802
v 0.3826 -2.0179 1.4278
v 0.0000 -2.0179 1.4782
v -0.3826 -2.0179 1.4278
v -0.7391 -2.0179 1.2802
v -1.0453 -2.0179 1.0453
v -1.2802 -2.0179 0.7391
v -1.4278 -2.0179 0.3826
v -1.4782 -2.0179 0.0000
v -1.4278 -2.0179 -0.3826
v -1.2802 -2.0179 -0.7391
v -1.0453 -2.0179 -1.0453
v -0.7391 -2.0179 -1.2802
v -0.3826 -2.0179 -1.4278
v -0.0000 -2.0179 -1.4782
v 0.3826 -2.0179 -1.4278
v 0.7391 -2.0179 -1.2802
v 1.0453 -2.0179 -1.0453
v 1.2802 -2.0179 -0.7391
v 1.4278 -2.0179 -0.3826
v 1.1314 -2.2450 0.0000
v 1.0928 -2.2450 0.2928
v 0.9798 -2.2450 0.5657
v 0.8000 -2.2450 0.8000
v 0.5657 -2.2450 0.9798
v 0.2928 -2.2450 1.0928
v 0.0000 -2.2450 1.1314
v -0.2928 -2.2450 1.0928
v -0.5657 -2.2450 0.9798
v -0.8000 -2.2450 0.8000
v -0.9798 -2.2450 0.5657
v -1.0928 -2.2450 0.2928
v -1.1314 -2.2450 0.0000
v -1.0928 -2.2450 -0.2928
v -0.9798 -2.2450 -0.5657
v -0.8000 -2.2450 -0.8000
v -0.5657 -2.2450 -0.9798
v -0.2928 -2.2450 -1.0928
v -0.0000 -2.2450 -1.1314
v 0.2928 -2.2450 -1.0928
v 0.5657 -2.2450 -0.9798
v 0.8000 -2.2450 -0.8000
v 0.9798 -2.2450 -0.5657
v 1.0928 -2.2450 -0.2928
v 0.6123 -2.3967 0.0000
v 0.5914 -2.3967 0.1585
v 0.5303 -2.3967 0.3061
v 0.4330 -2.3967 0.4330
v 0.3061 -2.3967 0.5303
v 0.1585 -2.3967 0.5914
v 0.0000 -2.3967 0.6123
v -0.1585 -2.3967 0.5914
v -0.3061 -2.3967 0.5303
v -0.4330 -2.3967 0.4330
v -0.5303 -2.3967 0.3061
v -0.5914 -2.3967 0.1585
v -0.6123 -2.3967 0.0000
v -0.5914 -2.3967 -0.1585
v -0.5303 -2.3967 -0.3061
v -0.4330 -2.3967 -0.4330
v -0.3061 -2.3967 -0.5303
v -0.1585 -2.3967 -0.5914
v -0.0000 -2.3967 -0.6123
v 0.1585 -2.3967 -0.5914
v 0.3061 -2.3967 -0.5303
v 0.4330 -2.3967 -0.4330
v 0.5303 -2.3967 -0.3061
v 0.5914 -2.3967 -0.1585
v 0.0000 -2.4500 0.0000
v 0.0000 -2.4500 0.0000
v 0.0000 -2.4500 0.0000
v 0.0000 -2.4500 0.0000
v 0.0000 -2.4500 0.0000
v 0.0000 -2.4500 0.0000
v 0.0000 -2.4500 0.0000
v -0.0000 -2.4500 0.0000
v -0.0000 -2.4500 0.0000
v -0.0000 -2.4500 0.0000
v -0.0000 -2.4500 0.0000
v -0.0000 -2.4500 0.0000
v -0.0000 -2.4500 0.0000
v -0.0000 -2.4500 -0.0000
v -0.0000 -2.4500 -0.0000
v -0.0000 -2.4500 -0.0000
v -0.0000 -2.4500 -0.0000
v -0.0000 -2.4500 -0.0000
v -0.0000 -2.4500 -0.0000
v 0.0000 -2.4500 -0.0000
v 0.0000 -2.4500 -0.0000
v 0.0000 -2.4500 -0.0000
v 0.0000 -2.4500 -0.0000
v 0.0000 -2.4500 -0.0000
v 0.0000 0.0000 -6.4000
v -0.8354 0.0000 -6.3452
v -1.6564 0.0000 -6.1819
v -2.4492 0.0000 -5.9128
v -3.2000 0.0000 -5.5426
v -3.8961 0.0000 -5.0775
v -4.5255 0.0000 -4.5255
v -5.0775 0.0000 -3.8961
v -5.5426 0.0000 -3.2000
v -5.9128 0.0000 -2.4492
v -6.1819 0.0000 -1.6564
v -6.3452 0.0000 -0.8354
v -6.4000 0.0000 -0.0000
v -6.3452 0.0000 0.8354
v -6.1819 0.0000 1.6564
v -5.9128 0.0000 2.4492
v -5.5426 0.0000 3.2000
v -5.0775 0.0000 3.8961
v -4.5255 0.0000 4.5255
v -3.8961 0.0000 5.0775
v -3.2000 0.0000 5.5426
v -2.4492 0.0000 5.9128
v -1.6564 0.0000 6.1819
v -0.8354 0.0000 6.3452
v -0.0000 0.0000 6.4000
v 0.8354 0.0000 6.3452
v 1.6564 0.0000 6.1819
v 2.4492 0.0000 5.9128
v 3.2000 0.0000 5.5426
v 3.8961 0.0000 5.0775
v 4.5255 0.0000 4.5255
v 5.0775 0.0000 3.8961
v 5.5426 0.0000 3.2000
v 5.9128 0.0000 2.4492
v 6.1819 0.0000 1.6564
v 6.3452 0.0000 0.8354
v 6.4000 0.0000 0.0000
v 6.3452 0.0000 -0.8354
v 6.1819 0.0000 -1.6564
v 5.9128 0.0000 -2.4492
v 5.5426 0.0000 -3.2000
v 5.0775 0.0000 -3.8961
v 4.5255 0.0000 -4.5255
v 3.8961 0.0000 -5.0775
v 3.2000 0.0000 -5.5426
v 2.4492 0.0000 -5.9128
v 1.6564 0.0000 -6.1819
v 0.8354 0.0000 -6.3452
v 0.0000 7.5000 -3.2000
v -0.4177 7.5000 -3.1726
v -0.8282 7.5000 -3.0910
v -1.2246 7.5000 -2.9564
v -1.6000 7.5000 -2.7713
v -1.9480 7.5000 -2.5387
v -2.2627 7.5000 -2.2627
v -2.5387 7.5000 -1.9480
v -2.7713 7.5000 -1.6000
v -2.9564 7.5000 -1.2246
v -3.0910 7.5000 -0.8282
v -3.1726 7.5000 -0.4177
v -3.2000 7.5000 -0.0000
v -3.1726 7.5000 0.4177
v -3.0910 7.5000 0.8282
v -2.9564 7.5000 1.2246
v -2.7713 7.5000 1.6000
v -2.5387 7.5000 1.9480
v -2.2627 7.5000 2.2627
v -1.9480 7.5000 2.5387
v -1.6000 7.5000 2.7713
v -1.2246 7.5000 2.9564
v -0.8282 7.5000 3.0910
v -0.4177 7.5000 3.1726
v -0.0000 7.5000 3.2000
v 0.4177 7.5000 3.1726
v 0.8282 7.5000 3.0910
v 1.2246 7.5000 2.9564
v 1.6000 7.5000 2.7713
v 1.9480 7.5000 2.5387
v 2.2627 7.5000 2.2627
v 2.5387 7.5000 1.9480
v 2.7713 7.5000 1.6000
v 2.9564 7.5000 1.2246
v 3.0910 7.5000 0.8282
v 3.1726 7.5000 0.4177
v 3.2000 7.5000 0.0000
v 3.1726 7.5000 -0.4177
v 3.0910 7.5000 -0.8282
v 2.9564 7.5000 -1.2246
v 2.7713 7.5000 -1.6000
v 2.5387 7.5000 -1.9480
v 2.2627 7.5000 -2.2627
v 1.9480 7.5000 -2.5387
v 1.6000 7.5000 -2.7713
v 1.2246 7.5000 -2.9564
v 0.8282 7.5000 -3.0910
v 0.4177 7.5000 -3.1726
v 0.0000 0.0000 0.0000
v 0.0000 7.5000 0.0000
v 0.0000 7.5000 -3.2000
v -0.5006 7.5000 -3.1606
v -0.9889 7.5000 -3.0434
v -1.4528 7.5000 -2.8512
v -1.8809 7.5000 -2.5889
v -2.2627 7.5000 -2.2627
v -2.5889 7.5000 -1.8809
v -2.8512 7.5000 -1.4528
v -3.0434 7.5000 -0.9889
v -3.1606 7.5000 -0.5006
v -3.2000 7.5000 -0.0000
v -3.1606 7.5000 0.5006
v -3.0434 7.5000 0.9889
v -2.8512 7.5000 1.4528
v -2.5889 7.5000 1.8809
v -2.2627 7.5000 2.2627
v -1.8809 7.5000 2.5889
v -1.4528 7.5000 2.8512
v -0.9889 7.5000 3.0434
v -0.5006 7.5000 3.1606
v -0.0000 7.5000 3.2000
v 0.5006 7.5000 3.1606
v 0.9889 7.5000 3.0434
v 1.4528 7.5000 2.8512
v 1.8809 7.5000 2.5889
v 2.2627 7.5000 2.2627
v 2.5889 7.5000 1.8809
v 2.8512 7.5000 1.4528
v 3.0434 7.5000 0.9889
v 3.1606 7.5000 0.5006
v 3.2000 7.5000 0.0000
v 3.1606 7.5000 -0.5006
v 3.0434 7.5000 -0.9889
v 2.8512 7.5000 -1.4528
v 2.5889 7.5000 -1.8809
v 2.2627 7.5000 -2.2627
v 1.8809 7.5000 -2.5889
v 1.4528 7.5000 -2.8512
v 0.9889 7.5000 -3.0434
v 0.5006 7.5000 -3.1606
v 0.0000 8.2000 -2.4000
v -0.3754 8.2000 -2.3705
v -0.7416 8.2000 -2.2825
v -1.0896 8.2000 -2.1384
v -1.4107 8.2000 -1.9416
v -1.6971 8.2000 -1.6971
v -1.9416 8.2000 -1.4107
v -2.1384 8.2000 -1.0896
v -2.2825 8.2000 -0.7416
v -2.3705 8.2000 -0.3754
v -2.4000 8.2000 -0.0000
v -2.3705 8.2000 0.3754
v -2.2825 8.2000 0.7416
v -2.1384 8.2000 1.0896
v -1.9416 8.2000 1.4107
v -1.6971 8.2000 1.6971
v -1.4107 8.2000 1.9416
v -1.0896 8.2000 2.1384
v -0.7416 8.2000 2.2825
v -0.3754 8.2000 2.3705
v -0.0000 8.2000 2.4000
v 0.3754 8.2000 2.3705
v 0.7416 8.2000 2.2825
v 1.0896 8.2000 2.1384
v 1.4107 8.2000 1.9416
v 1.6971 8.2000 1.6971
v 1.9416 8.2000 1.4107
v 2.1384 8.2000 1.0896
v 2.2825 8.2000 0.7416
v 2.3705 8.2000 0.3754
v 2.4000 8.2000 0.0000
v 2.3705 8.2000 -0.3754
v 2.2825 8.2000 -0.7416
v 2.1384 8.2000 -1.0896
v 1.9416 8.2000 -1.4107
v 1.6971 8.2000 -1.6971
v 1.4107 8.2000 -1.9416
v 1.0896 8.2000 -2.1384
v 0.7416 8.2000 -2.2825
v 0.3754 8.2000 -2.3705
v 0.0000 7.5000 0.0000
v 0.0000 8.2000 0.0000
v 0.0000 0.6000 -2.3000
v -0.5118 0.6000 -2.2423
v -0.9979 0.6000 -2.0722
v -1.4340 0.6000 -1.7982
v -1.7982 0.6000 -1.4340
v -2.0722 0.6000 -0.9979
v -2.2423 0.6000 -0.5118
v -2.3000 0.6000 -0.0000
v -2.2423 0.6000 0.5118
v -2.0722 0.6000 0.9979
v -1.7982 0.6000 1.4340
v -1.4340 0.6000 1.7982
v -0.9979 0.6000 2.0722
v -0.5118 0.6000 2.2423
v -0.0000 0.6000 2.3000
v 0.5118 0.6000 2.2423
v 0.9979 0.6000 2.0722
v 1.4340 0.6000 1.7982
v 1.7982 0.6000 1.4340
v 2.0722 0.6000 0.9979
v 2.2423 0.6000 0.5118
v 2.3000 0.6000 0.0000
v 2.2423 0.6000 -0.5118
v 2.0722 0.6000 -0.9979
v 1.7982 0.6000 -1.4340
v 1.4340 0.6000 -1.7982
v 0.9979 0.6000 -2.0722
v 0.5118 0.6000 -2.2423
v 0.0000 6.8000 -1.8000
v -0.4005 6.8000 -1.7549
v -0.7810 6.8000 -1.6217
v -1.1223 6.8000 -1.4073
v -1.4073 6.8000 -1.1223
v -1.6217 6.8000 -0.7810
v -1.7549 6.8000 -0.4005
v -1.8000 6.8000 -0.0000
v -1.7549 6.8000 0.4005
v -1.6217 6.8000 0.7810
v -1.4073 6.8000 1.1223
v -1.1223 6.8000 1.4073
v -0.7810 6.8000 1.6217
v -0.4005 6.8000 1.7549
v -0.0000 6.8000 1.8000
v 0.4005 6.8000 1.7549
v 0.7810 6.8000 1.6217
v 1.1223 6.8000 1.4073
v 1.4073 6.8000 1.1223
v 1.6217 6.8000 0.7810
v 1.7549 6.8000 0.4005
v 1.8000 6.8000 0.0000
v 1.7549 6.8000 -0.4005
v 1.6217 6.8000 -0.7810
v 1.4073 6.8000 -1.1223
v 1.1223 6.8000 -1.4073
v 0.7810 6.8000 -1.6217
v 0.4005 6.8000 -1.7549
v 0.0000 0.6000 0.0000
v 0.0000 6.8000 0.0000
v -4.0000 0.7000 -2.2000
v -4.0000 0.7000 2.2000
v -4.0000 5.1000 -2.2000
v -4.0000 5.1000 2.2000
v 4.0000 0.7000 -2.2000
v 4.0000 0.7000 2.2000
v 4.0000 5.1000 -2.2000
v 4.0000 5.1000 2.2000
v 8.8800 -1.7500 -0.0900
v 8.8271 -1.7500 -0.0728
v 8.7944 -1.7500 -0.0278
v 8.7944 -1.7500 0.0278
v 8.8271 -1.7500 0.0728
v 8.8800 -1.7500 0.0900
v 8.9329 -1.7500 0.0728
v 8.9656 -1.7500 0.0278
v 8.9656 -1.7500 -0.0278
v 8.9329 -1.7500 -0.0728
v 8.8800 -0.9000 -0.0900
v 8.8271 -0.9000 -0.0728
v 8.7944 -0.9000 -0.0278
v 8.7944 -0.9000 0.0278
v 8.8271 -0.9000 0.0728
v 8.8800 -0.9000 0.0900
v 8.9329 -0.9000 0.0728
v 8.9656 -0.9000 0.0278
v 8.9656 -0.9000 -0.0278
v 8.9329 -0.9000 -0.0728
v 8.8800 -1.7500 0.0000
v 8.8800 -0.9000 0.0000
v 9.1200 -1.7500 -0.0900
v 9.0671 -1.7500 -0.0728
v 9.0344 -1.7500 -0.0278
v 9.0344 -1.7500 0.0278
v 9.0671 -1.7500 0.0728
v 9.1200 -1.7500 0.0900
v 9.1729 -1.7500 0.0728
v 9.2056 -1.7500 0.0278
v 9.2056 -1.7500 -0.0278
v 9.1729 -1.7500 -0.0728
v 9.1200 -0.9000 -0.0900
v 9.0671 -0.9000 -0.0728
v 9.0344 -0.9000 -0.0278
v 9.0344 -0.9000 0.0278
v 9.0671 -0.9000 0.0728
v 9.1200 -0.9000 0.0900
v 9.1729 -0.9000 0.0728
v 9.2056 -0.9000 0.0278
v 9.2056 -0.9000 -0.0278
v 9.1729 -0.9000 -0.0728
v 9.1200 -1.7500 0.0000
v 9.1200 -0.9000 0.0000
v 9.0000 -0.9000 -0.2000
v 8.9000 -0.9000 -0.1732
v 8.8268 -0.9000 -0.1000
v 8.8000 -0.9000 -0.0000
v 8.8268 -0.9000 0.1000
v 8.9000 -0.9000 0.1732
v 9.0000 -0.9000 0.2000
v 9.1000 -0.9000 0.1732
v 9.1732 -0.9000 0.1000
v 9.2000 -0.9000 0.0000
v 9.1732 -0.9000 -0.1000
v 9.1000 -0.9000 -0.1732
v 9.0000 -0.2500 -0.2000
v 8.9000 -0.2500 -0.1732
v 8.8268 -0.2500 -0.1000
v 8.8000 -0.2500 -0.0000
v 8.8268 -0.2500 0.1000
v 8.9000 -0.2500 0.1732
v 9.0000 -0.2500 0.2000
v 9.1000 -0.2500 0.1732
v 9.1732 -0.2500 0.1000
v 9.2000 -0.2500 0.0000
v 9.1732 -0.2500 -0.1000
v 9.1000 -0.2500 -0.1732
v 9.0000 -0.9000 0.0000
v 9.0000 -0.2500 0.0000
v 9.0000 0.0400 0.0000
v 9.0000 0.0400 0.0000
v 9.0000 0.0400 0.0000
v 9.0000 0.0400 0.0000
v 9.0000 0.0400 0.0000
v 9.0000 0.0400 0.0000
v 9.0000 0.0400 0.0000
v 9.0000 0.0400 0.0000
v 9.0000 0.0400 0.0000
v 9.0000 0.0400 0.0000
v 9.0000 0.0400 0.0000
v 9.0000 0.0400 0.0000
v 9.0421 0.0301 0.0000
v 9.0365 0.0301 0.0210
v 9.0210 0.0301 0.0365
v 9.0000 0.0301 0.0421
v 8.9790 0.0301 0.0365
v 8.9635 0.0301 0.0210
v 8.9579 0.0301 0.0000
v 8.9635 0.0301 -0.0210
v 8.9790 0.0301 -0.0365
v 9.0000 0.0301 -0.0421
v 9.0210 0.0301 -0.0365
v 9.0365 0.0301 -0.0210
v 9.0778 0.0019 0.0000
v 9.0674 0.0019 0.0389
v 9.0389 0.0019 0.0674
v 9.0000 0.0019 0.0778
v 8.9611 0.0019 0.0674
v 8.9326 0.0019 0.0389
v 8.9222 0.0019 0.0000
v 8.9326 0.0019 -0.0389
v 8.9611 0.0019 -0.0674
v 9.0000 0.0019 -0.0778
v 9.0389 0.0019 -0.0674
v 9.0674 0.0019 -0.0389
v 9.1016 -0.0403 0.0000
v 9.0880 -0.0403 0.0508
v 9.0508 -0.0403 0.0880
v 9.0000 -0.0403 0.1016
v 8.9492 -0.0403 0.0880
v 8.9120 -0.0403 0.0508
v 8.8984 -0.0403 0.0000
v 8.9120 -0.0403 -0.0508
v 8.9492 -0.0403 -0.0880
v 9.0000 -0.0403 -0.1016
v 9.0508 -0.0403 -0.0880
v 9.0880 -0.0403 -0.0508
v 9.1100 -0.0900 0.0000
v 9.0953 -0.0900 0.0550
v 9.0550 -0.0900 0.0953
v 9.0000 -0.0900 0.1100
v 8.9450 -0.0900 0.0953
v 8.9047 -0.0900 0.0550
v 8.8900 -0.0900 0.0000
v 8.9047 -0.0900 -0.0550
v 8.9450 -0.0900 -0.0953
v 9.0000 -0.0900 -0.1100
v 9.0550 -0.0900 -0.0953
v 9.0953 -0.0900 -0.0550
v 9.1016 -0.1397 0.0000
v 9.0880 -0.1397 0.0508
v 9.0508 -0.1397 0.0880
v 9.0000 -0.1397 0.1016
v 8.9492 -0.1397 0.0880
v 8.9120 -0.1397 0.0508
v 8.8984 -0.1397 0.0000
v 8.9120 -0.1397 -0.0508
v 8.9492 -0.1397 -0.0880
v 9.0000 -0.1397 -0.1016
v 9.0508 -0.1397 -0.0880
v 9.0880 -0.1397 -0.0508
v 9.0778 -0.1819 0.0000
v 9.0674 -0.1819 0.0389
v 9.0389 -0.1819 0.0674
v 9.0000 -0.1819 0.0778
v 8.9611 -0.1819 0.0674
v 8.9326 -0.1819 0.0389
v 8.9222 -0.1819 0.0000
v 8.9326 -0.1819 -0.0389
v 8.9611 -0.1819 -0.0674
v 9.0000 -0.1819 -0.0778
v 9.0389 -0.1819 -0.0674
v 9.0674 -0.1819 -0.0389
v 9.0421 -0.2101 0.0000
v 9.0365 -0.2101 0.0210
v 9.0210 -0.2101 0.0365
v 9.0000 -0.2101 0.0421
v 8.9790 -0.2101 0.0365
v 8.9635 -0.2101 0.0210
v 8.9579 -0.2101 0.0000
v 8.9635 -0.2101 -0.0210
v 8.9790 -0.2101 -0.0365
v 9.0000 -0.2101 -0.0421
v 9.0210 -0.2101 -0.0365
v 9.0365 -0.2101 -0.0210
v 9.0000 -0.2200 0.0000
v 9.0000 -0.2200 0.0000
v 9.0000 -0.2200 0.0000
v 9.0000 -0.2200 0.0000
v 9.0000 -0.2200 0.0000
v 9.0000 -0.2200 0.0000
v 9.0000 -0.2200 0.0000
v 9.0000 -0.2200 -0.0000
v 9.0000 -0.2200 -0.0000
v 9.0000 -0.2200 -0.0000
v 9.0000 -0.2200 -0.0000
v 9.0000 -0.2200 -0.0000
g heatshield
usemtl tile
f 1 2 49
f 2 50 49
f 2 3 50
f 3 51 50
f 3 4 51
f 4 52 51
f 4 5 52
f 5 53 52
f 5 6 53
f 6 54 53
f 6 7 54
f 7 55 54
f 7 8 55
f 8 56 55
f 8 9 56
f 9 57 56
f 9 10 57
f 10 58 57
f 10 11 58
f 11 59 58
f 11 12 59
f 12 60 59
f 12 13 60
f 13 61 60
f 13 14 61
f 14 62 61
f 14 15 62
f 15 63 62
f 15 16 63
f 16 64 63
f 16 17 64
f 17 65 64
f 17 18 65
f 18 66 65
f 18 19 66
f 19 67 66
f 19 20 67
f 20 68 67
f 20 21 68
f 21 69 68
f 21 22 69
f 22 70 69
f 22 23 70
f 23 71 70
f 23 24 71
f 24 72 71
f 24 25 72
f 25 73 72
f 25 26 73
f 26 74 73
f 26 27 74
f 27 75 74
f 27 28 75
f 28 76 75
f 28 29 76
f 29 77 76
f 29 30 77
f 30 78 77
f 30 31 78
f 31 79 78
f 31 32 79
f 32 80 79
f 32 33 80
f 33 81 80
f 33 34 81
f 34 82 81
f 34 35 82
f 35 83 82
f 35 36 83
f 36 84 83
f 36 37 84
f 37 85 84
f 37 38 85
f 38 86 85
f 38 39 86
f 39 87 86
f 39 40 87
f 40 88 87
f 40 41 88
f 41 89 88
f 41 42 89
f 42 90 89
f 42 43 90
f 43 91 90
f 43 44 91
f 44 92 91
f 44 45 92
f 45 93 92
f 45 46 93
f 46 94 93
f 46 47 94
f 47 95 94
f 47 48 95
f 48 96 95
f 48 1 96
f 1 49 96
f 97 2 1
f 98 49 50
f 97 3 2
f 98 50 51
f 97 4 3
f 98 51 52
f 97 5 4
f 98 52 53
f 97 6 5
f 98 53 54
f 97 7 6
f 98 54 55
f 97 8 7
f 98 55 56
f 97 9 8
f 98 56 57
f 97 10 9
f 98 57 58
f 97 11 10
f 98 58 59
f 97 12 11
f 98 59 60
f 97 13 12
f 98 60 61
f 97 14 13
f 98 61 62
f 97 15 14
f 98 62 63
f 97 16 15
f 98 63 64
f 97 17 16
f 98 64 65
f 97 18 17
f 98 65 66
f 97 19 18
f 98 66 67
f 97 20 19
f 98 67 68
f 97 21 20
f 98 68 69
f 97 22 21
f 98 69 70
f 97 23 22
f 98 70 71
f 97 24 23
f 98 71 72
f 97 25 24
f 98 72 73
f 97 26 25
f 98 73 74
f 97 27 26
f 98 74 75
f 97 28 27
f 98 75 76
f 97 29 28
f 98 76 77
f 97 30 29
f 98 77 78
f 97 31 30
f 98 78 79
f 97 32 31
f 98 79 80
f 97 33 32
f 98 80 81
f 97 34 33
f 98 81 82
f 97 35 34
f 98 82 83
f 97 36 35
f 98 83 84
f 97 37 36
f 98 84 85
f 97 38 37
f 98 85 86
f 97 39 38
f 98 86 87
f 97 40 39
f 98 87 88
f 97 41 40
f 98 88 89
f 97 42 41
f 98 89 90
f 97 43 42
f 98 90 91
f 97 44 43
f 98 91 92
f 97 45 44
f 98 92 93
f 97 46 45
f 98 93 94
f 97 47 46
f 98 94 95
f 97 48 47
f 98 95 96
f 97 1 48
f 98 96 49
f 100 123 124
f 101 124 125
f 102 125 126
f 103 126 127
f 104 127 128
f 105 128 129
f 106 129 130
f 107 130 131
f 108 131 132
f 109 132 133
f 110 133 134
f 111 134 135
f 112 135 136
f 113 136 137
f 114 137 138
f 115 138 139
f 116 139 140
f 117 140 141
f 118 141 142
f 119 142 143
f 120 143 144
f 121 144 145
f 122 145 146
f 99 146 123
f 123 147 124
f 124 147 148
f 124 148 125
f 125 148 149
f 125 149 126
f 126 149 150
f 126 150 127
f 127 150 151
f 127 151 128
f 128 151 152
f 128 152 129
f 129 152 153
f 129 153 130
f 130 153 154
f 130 154 131
f 131 154 155
f 131 155 132
f 132 155 156
f 132 156 133
f 133 156 157
f 133 157 134
f 134 157 158
f 134 158 135
f 135 158 159
f 135 159 136
f 136 159 160
f 136 160 137
f 137 160 161
f 137 161 138
f 138 161 162
f 138 162 139
f 139 162 163
f 139 163 140
f 140 163 164
f 140 164 141
f 141 164 165
f 141 165 142
f 142 165 166
f 142 166 143
f 143 166 167
f 143 167 144
f 144 167 168
f 144 168 145
f 145 168 169
f 145 169 146
f 146 169 170
f 146 170 123
f 123 170 147
f 147 171 148
f 148 171 172
f 148 172 149
f 149 172 173
f 149 173 150
f 150 173 174
f 150 174 151
f 151 174 175
f 151 175 152
f 152 175 176
f 152 176 153
f 153 176 177
f 153 177 154
f 154 177 178
f 154 178 155
f 155 178 179
f 155 179 156
f 156 179 180
f 156 180 157
f 157 180 181
f 157 181 158
f 158 181 182
f 158 182 159
f 159 182 183
f 159 183 160
f 160 183 184
f 160 184 161
f 161 184 185
f 161 185 162
f 162 185 186
f 162 186 163
f 163 186 187
f 163 187 164
f 164 187 188
f 164 188 165
f 165 188 189
f 165 189 166
f 166 189 190
f 166 190 167
f 167 190 191
f 167 191 168
f 168 191 192
f 168 192 169
f 169 192 193
f 169 193 170
f 170 193 194
f 170 194 147
f 147 194 171
f 171 195 172
f 172 195 196
f 172 196 173
f 173 196 197
f 173 197 174
f 174 197 198
f 174 198 175
f 175 198 199
f 175 199 176
f 176 199 200
f 176 200 177
f 177 200 201
f 177 201 178
f 178 201 202
f 178 202 179
f 179 202 203
f 179 203 180
f 180 203 204
f 180 204 181
f 181 204 205
f 181 205 182
f 182 205 206
f 182 206 183
f 183 206 207
f 183 207 184
f 184 207 208
f 184 208 185
f 185 208 209
f 185 209 186
f 186 209 210
f 186 210 187
f 187 210 211
f 187 211 188
f 188 211 212
f 188 212 189
f 189 212 213
f 189 213 190
f 190 213 214
f 190 214 191
f 191 214 215
f 191 215 192
f 192 215 216
f 192 216 193
f 193 216 217
f 193 217 194
f 194 217 218
f 194 218 171
f 171 218 195
f 195 219 196
f 196 219 220
f 196 220 197
f 197 220 221
f 197 221 198
f 198 221 222
f 198 222 199
f 199 222 223
f 199 223 200
f 200 223 224
f 200 224 201
f 201 224 225
f 201 225 202
f 202 225 226
f 202 226 203
f 203 226 227
f 203 227 204
f 204 227 228
f 204 228 205
f 205 228 229
f 205 229 206
f 206 229 230
f 206 230 207
f 207 230 231
f 207 231 208
f 208 231 232
f 208 232 209
f 209 232 233
f 209 233 210
f 210 233 234
f 210 234 211
f 211 234 235
f 211 235 212
f 212 235 236
f 212 236 213
f 213 236 237
f 213 237 214
f 214 237 238
f 214 238 215
f 215 238 239
f 215 239 216
f 216 239 240
f 216 240 217
f 217 240 241
f 217 241 218
f 218 241 242
f 218 242 195
f 195 242 219
f 219 243 220
f 220 243 244
f 220 244 221
f 221 244 245
f 221 245 222
f 222 245 246
f 222 246 223
f 223 246 247
f 223 247 224
f 224 247 248
f 224 248 225
f 225 248 249
f 225 249 226
f 226 249 250
f 226 250 227
f 227 250 251
f 227 251 228
f 228 251 252
f 228 252 229
f 229 252 253
f 229 253 230
f 230 253 254
f 230 254 231
f 231 254 255
f 231 255 232
f 232 255 256
f 232 256 233
f 233 256 257
f 233 257 234
f 234 257 258
f 234 258 235
f 235 258 259
f 235 259 236
f 236 259 260
f 236 260 237
f 237 260 261
f 237 261 238
f 238 261 262
f 238 262 239
f 239 262 263
f 239 263 240
f 240 263 264
f 240 264 241
f 241 264 265
f 241 265 242
f 242 265 266
f 242 266 219
f 219 266 243
f 243 267 244
f 244 267 268
f 244 268 245
f 245 268 269
f 245 269 246
f 246 269 270
f 246 270 247
f 247 270 271
f 247 271 248
f 248 271 272
f 248 272 249
f 249 272 273
f 249 273 250
f 250 273 274
f 250 274 251
f 251 274 275
f 251 275 252
f 252 275 276
f 252 276 253
f 253 276 277
f 253 277 254
f 254 277 278
f 254 278 255
f 255 278 279
f 255 279 256
f 256 279 280
f 256 280 257
f 257 280 281
f 257 281 258
f 258 281 282
f 258 282 259
f 259 282 283
f 259 283 260
f 260 283 284
f 260 284 261
f 261 284 285
f 261 285 262
f 262 285 286
f 262 286 263
f 263 286 287
f 263 287 264
f 264 287 288
f 264 288 265
f 265 288 289
f 265 289 266
f 266 289 290
f 266 290 243
f 243 290 267
f 267 291 268
f 268 292 269
f 269 293 270
f 270 294 271
f 271 295 272
f 272 296 273
f 273 297 274
f 274 298 275
f 275 299 276
f 276 300 277
f 277 301 278
f 278 302 279
f 279 303 280
f 280 304 281
f 281 305 282
f 282 306 283
f 283 307 284
f 284 308 285
f 285 309 286
f 286 310 287
f 287 311 288
f 288 312 289
f 289 313 290
f 290 314 267
g backshell
usemtl shell
f 315 316 363
f 316 364 363
f 316 317 364
f 317 365 364
f 317 318 365
f 318 366 365
f 318 319 366
f 319 367 366
f 319 320 367
f 320 368 367
f 320 321 368
f 321 369 368
f 321 322 369
f 322 370 369
f 322 323 370
f 323 371 370
f 323 324 371
f 324 372 371
f 324 325 372
f 325 373 372
f 325 326 373
f 326 374 373
f 326 327 374
f 327 375 374
f 327 328 375
f 328 376 375
f 328 329 376
f 329 377 376
f 329 330 377
f 330 378 377
f 330 331 378
f 331 379 378
f 331 332 379
f 332 380 379
f 332 333 380
f 333 381 380
f 333 334 381
f 334 382 381
f 334 335 382
f 335 383 382
f 335 336 383
f 336 384 383
f 336 337 384
f 337 385 384
f 337 338 385
f 338 386 385
f 338 339 386
f 339 387 386
f 339 340 387
f 340 388 387
f 340 341 388
f 341 389 388
f 341 342 389
f 342 390 389
f 342 343 390
f 343 391 390
f 343 344 391
f 344 392 391
f 344 345 392
f 345 393 392
f 345 346 393
f 346 394 393
f 346 347 394
f 347 395 394
f 347 348 395
f 348 396 395
f 348 349 396
f 349 397 396
f 349 350 397
f 350 398 397
f 350 351 398
f 351 399 398
f 351 352 399
f 352 400 399
f 352 353 400
f 353 401 400
f 353 354 401
f 354 402 401
f 354 355 402
f 355 403 402
f 355 356 403
f 356 404 403
f 356 357 404
f 357 405 404
f 357 358 405
f 358 406 405
f 358 359 406
f 359 407 406
f 359 360 407
f 360 408 407
f 360 361 408
f 361 409 408
f 361 362 409
f 362 410 409
f 362 315 410
f 315 363 410
f 411 316 315
f 412 363 364
f 411 317 316
f 412 364 365
f 411 318 317
f 412 365 366
f 411 319 318
f 412 366 367
f 411 320 319
f 412 367 368
f 411 321 320
f 412 368 369
f 411 322 321
f 412 369 370
f 411 323 322
f 412 370 371
f 411 324 323
f 412 371 372
f 411 325 324
f 412 372 373
f 411 326 325
f 412 373 374
f 411 327 326
f 412 374 375
f 411 328 327
f 412 375 376
f 411 329 328
f 412 376 377
f 411 330 329
f 412 377 378
f 411 331 330
f 412 378 379
f 411 332 331
f 412 379 380
f 411 333 332
f 412 380 381
f 411 334 333
f 412 381 382
f 411 335 334
f 412 382 383
f 411 336 335
f 412 383 384
f 411 337 336
f 412 384 385
f 411 338 337
f 412 385 386
f 411 339 338
f 412 386 387
f 411 340 339
f 412 387 388
f 411 341 340
f 412 388 389
f 411 342 341
f 412 389 390
f 411 343 342
f 412 390 391
f 411 344 343
f 412 391 392
f 411 345 344
f 412 392 393
f 411 346 345
f 412 393 394
f 411 347 346
f 412 394 395
f 411 348 347
f 412 395 396
f 411 349 348
f 412 396 397
f 411 350 349
f 412 397 398
f 411 351 350
f 412 398 399
f 411 352 351
f 412 399 400
f 411 353 352
f 412 400 401
f 411 354 353
f 412 401 402
f 411 355 354
f 412 402 403
f 411 356 355
f 412 403 404
f 411 357 356
f 412 404 405
f 411 358 357
f 412 405 406
f 411 359 358
f 412 406 407
f 411 360 359
f 412 407 408
f 411 361 360
f 412 408 409
f 411 362 361
f 412 409 410
f 411 315 362
f 412 410 363
f 413 414 453
f 414 454 453
f 414 415 454
f 415 455 454
f 415 416 455
f 416 456 455
f 416 417 456
f 417 457 456
f 417 418 457
f 418 458 457
f 418 419 458
f 419 459 458
f 419 420 459
f 420 460 459
f 420 421 460
f 421 461 460
f 421 422 461
f 422 462 461
f 422 423 462
f 423 463 462
f 423 424 463
f 424 464 463
f 424 425 464
f 425 465 464
f 425 426 465
f 426 466 465
f 426 427 466
f 427 467 466
f 427 428 467
f 428 468 467
f 428 429 468
f 429 469 468
f 429 430 469
f 430 470 469
f 430 431 470
f 431 471 470
f 431 432 471
f 432 472 471
f 432 433 472
f 433 473 472
f 433 434 473
f 434 474 473
f 434 435 474
f 435 475 474
f 435 436 475
f 436 476 475
f 436 437 476
f 437 477 476
f 437 438 477
f 438 478 477
f 438 439 478
f 439 479 478
f 439 440 479
f 440 480 479
f 440 441 480
f 441 481 480
f 441 442 481
f 442 482 481
f 442 443 482
f 443 483 482
f 443 444 483
f 444 484 483
f 444 445 484
f 445 485 484
f 445 446 485
f 446 486 485
f 446 447 486
f 447 487 486
f 447 448 487
f 448 488 487
f 448 449 488
f 449 489 488
f 449 450 489
f 450 490 489
f 450 451 490
f 451 491 490
f 451 452 491
f 452 492 491
f 452 413 492
f 413 453 492
f 493 414 413
f 494 453 454
f 493 415 414
f 494 454 455
f 493 416 415
f 494 455 456
f 493 417 416
f 494 456 457
f 493 418 417
f 494 457 458
f 493 419 418
f 494 458 459
f 493 420 419
f 494 459 460
f 493 421 420
f 494 460 461
f 493 422 421
f 494 461 462
f 493 423 422
f 494 462 463
f 493 424 423
f 494 463 464
f 493 425 424
f 494 464 465
f 493 426 425
f 494 465 466
f 493 427 426
f 494 466 467
f 493 428 427
f 494 467 468
f 493 429 428
f 494 468 469
f 493 430 429
f 494 469 470
f 493 431 430
f 494 470 471
f 493 432 431
f 494 471 472
f 493 433 432
f 494 472 473
f 493 434 433
f 494 473 474
f 493 435 434
f 494 474 475
f 493 436 435
f 494 475 476
f 493 437 436
f 494 476 477
f 493 438 437
f 494 477 478
f 493 439 438
f 494 478 479
f 493 440 439
f 494 479 480
f 493 441 440
f 494 480 481
f 493 442 441
f 494 481 482
f 493 443 442
f 494 482 483
f 493 444 443
f 494 483 484
f 493 445 444
f 494 484 485
f 493 446 445
f 494 485 486
f 493 447 446
f 494 486 487
f 493 448 447
f 494 487 488
f 493 449 448
f 494 488 489
f 493 450 449
f 494 489 490
f 493 451 450
f 494 490 491
f 493 452 451
f 494 491 492
f 493 413 452
f 494 492 453
g packed_hull
usemtl hull
f 495 496 523
f 496 524 523
f 496 497 524
f 497 525 524
f 497 498 525
f 498 526 525
f 498 499 526
f 499 527 526
f 499 500 527
f 500 528 527
f 500 501 528
f 501 529 528
f 501 502 529
f 502 530 529
f 502 503 530
f 503 531 530
f 503 504 531
f 504 532 531
f 504 505 532
f 505 533 532
f 505 506 533
f 506 534 533
f 506 507 534
f 507 535 534
f 507 508 535
f 508 536 535
f 508 509 536
f 509 537 536
f 509 510 537
f 510 538 537
f 510 511 538
f 511 539 538
f 511 512 539
f 512 540 539
f 512 513 540
f 513 541 540
f 513 514 541
f 514 542 541
f 514 515 542
f 515 543 542
f 515 516 543
f 516 544 543
f 516 517 544
f 517 545 544
f 517 518 545
f 518 546 545
f 518 519 546
f 519 547 546
f 519 520 547
f 520 548 547
f 520 521 548
f 521 549 548
f 521 522 549
f 522 550 549
f 522 495 550
f 495 523 550
f 551 496 495
f 552 523 524
f 551 497 496
f 552 524 525
f 551 498 497
f 552 525 526
f 551 499 498
f 552 526 527
f 551 500 499
f 552 527 528
f 551 501 500
f 552 528 529
f 551 502 501
f 552 529 530
f 551 503 502
f 552 530 531
f 551 504 503
f 552 531 532
f 551 505 504
f 552 532 533
f 551 506 505
f 552 533 534
f 551 507 506
f 552 534 535
f 551 508 507
f 552 535 536
f 551 509 508
f 552 536 537
f 551 510 509
f 552 537 538
f 551 511 510
f 552 538 539
f 551 512 511
f 552 539 540
f 551 513 512
f 552 540 541
f 551 514 513
f 552 541 542
f 551 515 514
f 552 542 543
f 551 516 515
f 552 543 544
f 551 517 516
f 552 544 545
f 551 518 517
f 552 545 546
f 551 519 518
f 552 546 547
f 551 520 519
f 552 547 548
f 551 521 520
f 552 548 549
f 551 522 521
f 552 549 550
f 551 495 522
f 552 550 523
g crew_module
usemtl crew
f 553 555 556
f 553 556 554
f 557 558 560
f 557 560 559
f 553 554 558
f 553 558 557
f 555 559 560
f 555 560 556
f 553 557 559
f 553 559 555
f 554 556 560
f 554 560 558
g person
usemtl human
f 561 562 571
f 562 572 571
f 562 563 572
f 563 573 572
f 563 564 573
f 564 574 573
f 564 565 574
f 565 575 574
f 565 566 575
f 566 576 575
f 566 567 576
f 567 577 576
f 567 568 577
f 568 578 577
f 568 569 578
f 569 579 578
f 569 570 579
f 570 580 579
f 570 561 580
f 561 571 580
f 581 562 561
f 582 571 572
f 581 563 562
f 582 572 573
f 581 564 563
f 582 573 574
f 581 565 564
f 582 574 575
f 581 566 565
f 582 575 576
f 581 567 566
f 582 576 577
f 581 568 567
f 582 577 578
f 581 569 568
f 582 578 579
f 581 570 569
f 582 579 580
f 581 561 570
f 582 580 571
f 583 584 593
f 584 594 593
f 584 585 594
f 585 595 594
f 585 586 595
f 586 596 595
f 586 587 596
f 587 597 596
f 587 588 597
f 588 598 597
f 588 589 598
f 589 599 598
f 589 590 599
f 590 600 599
f 590 591 600
f 591 601 600
f 591 592 601
f 592 602 601
f 592 583 602
f 583 593 602
f 603 584 583
f 604 593 594
f 603 585 584
f 604 594 595
f 603 586 585
f 604 595 596
f 603 587 586
f 604 596 597
f 603 588 587
f 604 597 598
f 603 589 588
f 604 598 599
f 603 590 589
f 604 599 600
f 603 591 590
f 604 600 601
f 603 592 591
f 604 601 602
f 603 583 592
f 604 602 593
f 605 606 617
f 606 618 617
f 606 607 618
f 607 619 618
f 607 608 619
f 608 620 619
f 608 609 620
f 609 621 620
f 609 610 621
f 610 622 621
f 610 611 622
f 611 623 622
f 611 612 623
f 612 624 623
f 612 613 624
f 613 625 624
f 613 614 625
f 614 626 625
f 614 615 626
f 615 627 626
f 615 616 627
f 616 628 627
f 616 605 628
f 605 617 628
f 629 606 605
f 630 617 618
f 629 607 606
f 630 618 619
f 629 608 607
f 630 619 620
f 629 609 608
f 630 620 621
f 629 610 609
f 630 621 622
f 629 611 610
f 630 622 623
f 629 612 611
f 630 623 624
f 629 613 612
f 630 624 625
f 629 614 613
f 630 625 626
f 629 615 614
f 630 626 627
f 629 616 615
f 630 627 628
f 629 605 616
f 630 628 617
f 632 643 644
f 633 644 645
f 634 645 646
f 635 646 647
f 636 647 648
f 637 648 649
f 638 649 650
f 639 650 651
f 640 651 652
f 641 652 653
f 642 653 654
f 631 654 643
f 643 655 644
f 644 655 656
f 644 656 645
f 645 656 657
f 645 657 646
f 646 657 658
f 646 658 647
f 647 658 659
f 647 659 648
f 648 659 660
f 648 660 649
f 649 660 661
f 649 661 650
f 650 661 662
f 650 662 651
f 651 662 663
f 651 663 652
f 652 663 664
f 652 664 653
f 653 664 665
f 653 665 654
f 654 665 666
f 654 666 643
f 643 666 655
f 655 667 656
f 656 667 668
f 656 668 657
f 657 668 669
f 657 669 658
f 658 669 670
f 658 670 659
f 659 670 671
f 659 671 660
f 660 671 672
f 660 672 661
f 661 672 673
f 661 673 662
f 662 673 674
f 662 674 663
f 663 674 675
f 663 675 664
f 664 675 676
f 664 676 665
f 665 676 677
f 665 677 666
f 666 677 678
f 666 678 655
f 655 678 667
f 667 679 668
f 668 679 680
f 668 680 669
f 669 680 681
f 669 681 670
f 670 681 682
f 670 682 671
f 671 682 683
f 671 683 672
f 672 683 684
f 672 684 673
f 673 684 685
f 673 685 674
f 674 685 686
f 674 686 675
f 675 686 687
f 675 687 676
f 676 687 688
f 676 688 677
f 677 688 689
f 677 689 678
f 678 689 690
f 678 690 667
f 667 690 679
f 679 691 680
f 680 691 692
f 680 692 681
f 681 692 693
f 681 693 682
f 682 693 694
f 682 694 683
f 683 694 695
f 683 695 684
f 684 695 696
f 684 696 685
f 685 696 697
f 685 697 686
f 686 697 698
f 686 698 687
f 687 698 699
f 687 699 688
f 688 699 700
f 688 700 689
f 689 700 701
f 689 701 690
f 690 701 702
f 690 702 679
f 679 702 691
f 691 703 692
f 692 703 704
f 692 704 693
f 693 704 705
f 693 705 694
f 694 705 706
f 694 706 695
f 695 706 707
f 695 707 696
f 696 707 708
f 696 708 697
f 697 708 709
f 697 709 698
f 698 709 710
f 698 710 699
f 699 710 711
f 699 711 700
f 700 711 712
f 700 712 701
f 701 712 713
f 701 713 702
f 702 713 714
f 702 714 691
f 691 714 703
f 703 715 704
f 704 715 716
f 704 716 705
f 705 716 717
f 705 717 706
f 706 717 718
f 706 718 707
f 707 718 719
f 707 719 708
f 708 719 720
f 708 720 709
f 709 720 721
f 709 721 710
f 710 721 722
f 710 722 711
f 711 722 723
f 711 723 712
f 712 723 724
f 712 724 713
f 713 724 725
f 713 725 714
f 714 725 726
f 714 726 703
f 703 726 715
f 715 727 716
f 716 728 717
f 717 729 718
f 718 730 719
f 719 731 720
f 720 732 721
f 721 733 722
f 722 734 723
f 723 735 724
f 724 736 725
f 725 737 726
f 726 738 715
