# hesperus_transit_habitat — generated by scripts/build_models.py from the Project Phosphorus plan
# units: meters, Y up
mtllib hesperus_transit_habitat.mtl
o hesperus_transit_habitat
v 0.0000 0.0000 -2.2500
v -0.3520 0.0000 -2.2223
v -0.6953 0.0000 -2.1399
v -1.0215 0.0000 -2.0048
v -1.3225 0.0000 -1.8203
v -1.5910 0.0000 -1.5910
v -1.8203 0.0000 -1.3225
v -2.0048 0.0000 -1.0215
v -2.1399 0.0000 -0.6953
v -2.2223 0.0000 -0.3520
v -2.2500 0.0000 -0.0000
v -2.2223 0.0000 0.3520
v -2.1399 0.0000 0.6953
v -2.0048 0.0000 1.0215
v -1.8203 0.0000 1.3225
v -1.5910 0.0000 1.5910
v -1.3225 0.0000 1.8203
v -1.0215 0.0000 2.0048
v -0.6953 0.0000 2.1399
v -0.3520 0.0000 2.2223
v -0.0000 0.0000 2.2500
v 0.3520 0.0000 2.2223
v 0.6953 0.0000 2.1399
v 1.0215 0.0000 2.0048
v 1.3225 0.0000 1.8203
v 1.5910 0.0000 1.5910
v 1.8203 0.0000 1.3225
v 2.0048 0.0000 1.0215
v 2.1399 0.0000 0.6953
v 2.2223 0.0000 0.3520
v 2.2500 0.0000 0.0000
v 2.2223 0.0000 -0.3520
v 2.1399 0.0000 -0.6953
v 2.0048 0.0000 -1.0215
v 1.8203 0.0000 -1.3225
v 1.5910 0.0000 -1.5910
v 1.3225 0.0000 -1.8203
v 1.0215 0.0000 -2.0048
v 0.6953 0.0000 -2.1399
v 0.3520 0.0000 -2.2223
v 0.0000 11.3000 -2.2500
v -0.3520 11.3000 -2.2223
v -0.6953 11.3000 -2.1399
v -1.0215 11.3000 -2.0048
v -1.3225 11.3000 -1.8203
v -1.5910 11.3000 -1.5910
v -1.8203 11.3000 -1.3225
v -2.0048 11.3000 -1.0215
v -2.1399 11.3000 -0.6953
v -2.2223 11.3000 -0.3520
v -2.2500 11.3000 -0.0000
v -2.2223 11.3000 0.3520
v -2.1399 11.3000 0.6953
v -2.0048 11.3000 1.0215
v -1.8203 11.3000 1.3225
v -1.5910 11.3000 1.5910
v -1.3225 11.3000 1.8203
v -1.0215 11.3000 2.0048
v -0.6953 11.3000 2.1399
v -0.3520 11.3000 2.2223
v -0.0000 11.3000 2.2500
v 0.3520 11.3000 2.2223
v 0.6953 11.3000 2.1399
v 1.0215 11.3000 2.0048
v 1.3225 11.3000 1.8203
v 1.5910 11.3000 1.5910
v 1.8203 11.3000 1.3225
v 2.0048 11.3000 1.0215
v 2.1399 11.3000 0.6953
v 2.2223 11.3000 0.3520
v 2.2500 11.3000 0.0000
v 2.2223 11.3000 -0.3520
v 2.1399 11.3000 -0.6953
v 2.0048 11.3000 -1.0215
v 1.8203 11.3000 -1.3225
v 1.5910 11.3000 -1.5910
v 1.3225 11.3000 -1.8203
v 1.0215 11.3000 -2.0048
v 0.6953 11.3000 -2.1399
v 0.3520 11.3000 -2.2223
v 0.0000 0.0000 0.0000
v 0.0000 11.3000 0.0000
v 0.0000 4.2000 -2.5200
v -0.3942 4.2000 -2.4890
v -0.7787 4.2000 -2.3967
v -1.1441 4.2000 -2.2453
v -1.4812 4.2000 -2.0387
v -1.7819 4.2000 -1.7819
v -2.0387 4.2000 -1.4812
v -2.2453 4.2000 -1.1441
v -2.3967 4.2000 -0.7787
v -2.4890 4.2000 -0.3942
v -2.5200 4.2000 -0.0000
v -2.4890 4.2000 0.3942
v -2.3967 4.2000 0.7787
v -2.2453 4.2000 1.1441
v -2.0387 4.2000 1.4812
v -1.7819 4.2000 1.7819
v -1.4812 4.2000 2.0387
v -1.1441 4.2000 2.2453
v -0.7787 4.2000 2.3967
v -0.3942 4.2000 2.4890
v -0.0000 4.2000 2.5200
v 0.3942 4.2000 2.4890
v 0.7787 4.2000 2.3967
v 1.1441 4.2000 2.2453
v 1.4812 4.2000 2.0387
v 1.7819 4.2000 1.7819
v 2.0387 4.2000 1.4812
v 2.2453 4.2000 1.1441
v 2.3967 4.2000 0.7787
v 2.4890 4.2000 0.3942
v 2.5200 4.2000 0.0000
v 2.4890 4.2000 -0.3942
v 2.3967 4.2000 -0.7787
v 2.2453 4.2000 -1.1441
v 2.0387 4.2000 -1.4812
v 1.7819 4.2000 -1.7819
v 1.4812 4.2000 -2.0387
v 1.1441 4.2000 -2.2453
v 0.7787 4.2000 -2.3967
v 0.3942 4.2000 -2.4890
v 0.0000 7.1000 -2.5200
v -0.3942 7.1000 -2.4890
v -0.7787 7.1000 -2.3967
v -1.1441 7.1000 -2.2453
v -1.4812 7.1000 -2.0387
v -1.7819 7.1000 -1.7819
v -2.0387 7.1000 -1.4812
v -2.2453 7.1000 -1.1441
v -2.3967 7.1000 -0.7787
v -2.4890 7.1000 -0.3942
v -2.5200 7.1000 -0.0000
v -2.4890 7.1000 0.3942
v -2.3967 7.1000 0.7787
v -2.2453 7.1000 1.1441
v -2.0387 7.1000 1.4812
v -1.7819 7.1000 1.7819
v -1.4812 7.1000 2.0387
v -1.1441 7.1000 2.2453
v -0.7787 7.1000 2.3967
v -0.3942 7.1000 2.4890
v -0.0000 7.1000 2.5200
v 0.3942 7.1000 2.4890
v 0.7787 7.1000 2.3967
v 1.1441 7.1000 2.2453
v 1.4812 7.1000 2.0387
v 1.7819 7.1000 1.7819
v 2.0387 7.1000 1.4812
v 2.2453 7.1000 1.1441
v 2.3967 7.1000 0.7787
v 2.4890 7.1000 0.3942
v 2.5200 7.1000 0.0000
v 2.4890 7.1000 -0.3942
v 2.3967 7.1000 -0.7787
v 2.2453 7.1000 -1.1441
v 2.0387 7.1000 -1.4812
v 1.7819 7.1000 -1.7819
v 1.4812 7.1000 -2.0387
v 1.1441 7.1000 -2.2453
v 0.7787 7.1000 -2.3967
v 0.3942 7.1000 -2.4890
v 0.0000 4.2000 0.0000
v 0.0000 7.1000 0.0000
v 0.0000 11.3000 -1.1000
v -0.2847 11.3000 -1.0625
v -0.5500 11.3000 -0.9526
v -0.7778 11.3000 -0.7778
v -0.9526 11.3000 -0.5500
v -1.0625 11.3000 -0.2847
v -1.1000 11.3000 -0.0000
v -1.0625 11.3000 0.2847
v -0.9526 11.3000 0.5500
v -0.7778 11.3000 0.7778
v -0.5500 11.3000 0.9526
v -0.2847 11.3000 1.0625
v -0.0000 11.3000 1.1000
v 0.2847 11.3000 1.0625
v 0.5500 11.3000 0.9526
v 0.7778 11.3000 0.7778
v 0.9526 11.3000 0.5500
v 1.0625 11.3000 0.2847
v 1.1000 11.3000 0.0000
v 1.0625 11.3000 -0.2847
v 0.9526 11.3000 -0.5500
v 0.7778 11.3000 -0.7778
v 0.5500 11.3000 -0.9526
v 0.2847 11.3000 -1.0625
v 0.0000 13.0000 -1.1000
v -0.2847 13.0000 -1.0625
v -0.5500 13.0000 -0.9526
v -0.7778 13.0000 -0.7778
v -0.9526 13.0000 -0.5500
v -1.0625 13.0000 -0.2847
v -1.1000 13.0000 -0.0000
v -1.0625 13.0000 0.2847
v -0.9526 13.0000 0.5500
v -0.7778 13.0000 0.7778
v -0.5500 13.0000 0.9526
v -0.2847 13.0000 1.0625
v -0.0000 13.0000 1.1000
v 0.2847 13.0000 1.0625
v 0.5500 13.0000 0.9526
v 0.7778 13.0000 0.7778
v 0.9526 13.0000 0.5500
v 1.0625 13.0000 0.2847
v 1.1000 13.0000 0.0000
v 1.0625 13.0000 -0.2847
v 0.9526 13.0000 -0.5500
v 0.7778 13.0000 -0.7778
v 0.5500 13.0000 -0.9526
v 0.2847 13.0000 -1.0625
v 0.0000 11.3000 0.0000
v 0.0000 13.0000 0.0000
v -15.9500 8.5400 -2.1000
v -15.9500 8.5400 2.1000
v -15.9500 8.6600 -2.1000
v -15.9500 8.6600 2.1000
v -2.9500 8.5400 -2.1000
v -2.9500 8.5400 2.1000
v -2.9500 8.6600 -2.1000
v -2.9500 8.6600 2.1000
v -2.2500 8.6000 -0.2500
v -2.2500 8.4232 -0.1768
v -2.2500 8.3500 -0.0000
v -2.2500 8.4232 0.1768
v -2.2500 8.6000 0.2500
v -2.2500 8.7768 0.1768
v -2.2500 8.8500 0.0000
v -2.2500 8.7768 -0.1768
v -2.9500 8.6000 -0.2500
v -2.9500 8.4232 -0.1768
v -2.9500 8.3500 -0.0000
v -2.9500 8.4232 0.1768
v -2.9500 8.6000 0.2500
v -2.9500 8.7768 0.1768
v -2.9500 8.8500 0.0000
v -2.9500 8.7768 -0.1768
v -2.2500 8.6000 0.0000
v -2.9500 8.6000 0.0000
v 2.9500 8.5400 -2.1000
v 2.9500 8.5400 2.1000
v 2.9500 8.6600 -2.1000
v 2.9500 8.6600 2.1000
v 15.9500 8.5400 -2.1000
v 15.9500 8.5400 2.1000
v 15.9500 8.6600 -2.1000
v 15.9500 8.6600 2.1000
v 2.2500 8.6000 0.2500
v 2.2500 8.4232 0.1768
v 2.2500 8.3500 0.0000
v 2.2500 8.4232 -0.1768
v 2.2500 8.6000 -0.2500
v 2.2500 8.7768 -0.1768
v 2.2500 8.8500 -0.0000
v 2.2500 8.7768 0.1768
v 2.9500 8.6000 0.2500
v 2.9500 8.4232 0.1768
v 2.9500 8.3500 0.0000
v 2.9500 8.4232 -0.1768
v 2.9500 8.6000 -0.2500
v 2.9500 8.7768 -0.1768
v 2.9500 8.8500 -0.0000
v 2.9500 8.7768 0.1768
v 2.2500 8.6000 0.0000
v 2.9500 8.6000 0.0000
v 0.0000 -0.6000 -1.8500
v -0.3449 -0.6000 -1.8889
v -0.6725 -0.6000 -2.0035
v -0.9664 -0.6000 -2.1882
v -1.2118 -0.6000 -2.4336
v -1.3965 -0.6000 -2.7275
v -1.5111 -0.6000 -3.0551
v -1.5500 -0.6000 -3.4000
v -1.5111 -0.6000 -3.7449
v -1.3965 -0.6000 -4.0725
v -1.2118 -0.6000 -4.3664
v -0.9664 -0.6000 -4.6118
v -0.6725 -0.6000 -4.7965
v -0.3449 -0.6000 -4.9111
v -0.0000 -0.6000 -4.9500
v 0.3449 -0.6000 -4.9111
v 0.6725 -0.6000 -4.7965
v 0.9664 -0.6000 -4.6118
v 1.2118 -0.6000 -4.3664
v 1.3965 -0.6000 -4.0725
v 1.5111 -0.6000 -3.7449
v 1.5500 -0.6000 -3.4000
v 1.5111 -0.6000 -3.0551
v 1.3965 -0.6000 -2.7275
v 1.2118 -0.6000 -2.4336
v 0.9664 -0.6000 -2.1882
v 0.6725 -0.6000 -2.0035
v 0.3449 -0.6000 -1.8889
v 0.0000 -7.2000 -1.8500
v -0.3449 -7.2000 -1.8889
v -0.6725 -7.2000 -2.0035
v -0.9664 -7.2000 -2.1882
v -1.2118 -7.2000 -2.4336
v -1.3965 -7.2000 -2.7275
v -1.5111 -7.2000 -3.0551
v -1.5500 -7.2000 -3.4000
v -1.5111 -7.2000 -3.7449
v -1.3965 -7.2000 -4.0725
v -1.2118 -7.2000 -4.3664
v -0.9664 -7.2000 -4.6118
v -0.6725 -7.2000 -4.7965
v -0.3449 -7.2000 -4.9111
v -0.0000 -7.2000 -4.9500
v 0.3449 -7.2000 -4.9111
v 0.6725 -7.2000 -4.7965
v 0.9664 -7.2000 -4.6118
v 1.2118 -7.2000 -4.3664
v 1.3965 -7.2000 -4.0725
v 1.5111 -7.2000 -3.7449
v 1.5500 -7.2000 -3.4000
v 1.5111 -7.2000 -3.0551
v 1.3965 -7.2000 -2.7275
v 1.2118 -7.2000 -2.4336
v 0.9664 -7.2000 -2.1882
v 0.6725 -7.2000 -2.0035
v 0.3449 -7.2000 -1.8889
v 0.0000 -0.6000 -3.4000
v 0.0000 -7.2000 -3.4000
v 0.0000 -0.6000 4.9500
v -0.3449 -0.6000 4.9111
v -0.6725 -0.6000 4.7965
v -0.9664 -0.6000 4.6118
v -1.2118 -0.6000 4.3664
v -1.3965 -0.6000 4.0725
v -1.5111 -0.6000 3.7449
v -1.5500 -0.6000 3.4000
v -1.5111 -0.6000 3.0551
v -1.3965 -0.6000 2.7275
v -1.2118 -0.6000 2.4336
v -0.9664 -0.6000 2.1882
v -0.6725 -0.6000 2.0035
v -0.3449 -0.6000 1.8889
v -0.0000 -0.6000 1.8500
v 0.3449 -0.6000 1.8889
v 0.6725 -0.6000 2.0035
v 0.9664 -0.6000 2.1882
v 1.2118 -0.6000 2.4336
v 1.3965 -0.6000 2.7275
v 1.5111 -0.6000 3.0551
v 1.5500 -0.6000 3.4000
v 1.5111 -0.6000 3.7449
v 1.3965 -0.6000 4.0725
v 1.2118 -0.6000 4.3664
v 0.9664 -0.6000 4.6118
v 0.6725 -0.6000 4.7965
v 0.3449 -0.6000 4.9111
v 0.0000 -7.2000 4.9500
v -0.3449 -7.2000 4.9111
v -0.6725 -7.2000 4.7965
v -0.9664 -7.2000 4.6118
v -1.2118 -7.2000 4.3664
v -1.3965 -7.2000 4.0725
v -1.5111 -7.2000 3.7449
v -1.5500 -7.2000 3.4000
v -1.5111 -7.2000 3.0551
v -1.3965 -7.2000 2.7275
v -1.2118 -7.2000 2.4336
v -0.9664 -7.2000 2.1882
v -0.6725 -7.2000 2.0035
v -0.3449 -7.2000 1.8889
v -0.0000 -7.2000 1.8500
v 0.3449 -7.2000 1.8889
v 0.6725 -7.2000 2.0035
v 0.9664 -7.2000 2.1882
v 1.2118 -7.2000 2.4336
v 1.3965 -7.2000 2.7275
v 1.5111 -7.2000 3.0551
v 1.5500 -7.2000 3.4000
v 1.5111 -7.2000 3.7449
v 1.3965 -7.2000 4.0725
v 1.2118 -7.2000 4.3664
v 0.9664 -7.2000 4.6118
v 0.6725 -7.2000 4.7965
v 0.3449 -7.2000 4.9111
v 0.0000 -0.6000 3.4000
v 0.0000 -7.2000 3.4000
v 0.0000 0.0000 0.9000
v -0.4500 0.0000 0.7794
v -0.7794 0.0000 0.4500
v -0.9000 0.0000 0.0000
v -0.7794 0.0000 -0.4500
v -0.4500 0.0000 -0.7794
v -0.0000 0.0000 -0.9000
v 0.4500 0.0000 -0.7794
v 0.7794 0.0000 -0.4500
v 0.9000 0.0000 -0.0000
v 0.7794 0.0000 0.4500
v 0.4500 0.0000 0.7794
v 0.0000 -8.0000 0.9000
v -0.4500 -8.0000 0.7794
v -0.7794 -8.0000 0.4500
v -0.9000 -8.0000 0.0000
v -0.7794 -8.0000 -0.4500
v -0.4500 -8.0000 -0.7794
v -0.0000 -8.0000 -0.9000
v 0.4500 -8.0000 -0.7794
v 0.7794 -8.0000 -0.4500
v 0.9000 -8.0000 -0.0000
v 0.7794 -8.0000 0.4500
v 0.4500 -8.0000 0.7794
v 0.0000 0.0000 0.0000
v 0.0000 -8.0000 0.0000
v 0.0000 -8.0000 0.9000
v -0.2329 -8.0000 0.8693
v -0.4500 -8.0000 0.7794
v -0.6364 -8.0000 0.6364
v -0.7794 -8.0000 0.4500
v -0.8693 -8.0000 0.2329
v -0.9000 -8.0000 0.0000
v -0.8693 -8.0000 -0.2329
v -0.7794 -8.0000 -0.4500
v -0.6364 -8.0000 -0.6364
v -0.4500 -8.0000 -0.7794
v -0.2329 -8.0000 -0.8693
v -0.0000 -8.0000 -0.9000
v 0.2329 -8.0000 -0.8693
v 0.4500 -8.0000 -0.7794
v 0.6364 -8.0000 -0.6364
v 0.7794 -8.0000 -0.4500
v 0.8693 -8.0000 -0.2329
v 0.9000 -8.0000 -0.0000
v 0.8693 -8.0000 0.2329
v 0.7794 -8.0000 0.4500
v 0.6364 -8.0000 0.6364
v 0.4500 -8.0000 0.7794
v 0.2329 -8.0000 0.8693
v 0.0000 -10.4000 1.7000
v -0.4400 -10.4000 1.6421
v -0.8500 -10.4000 1.4722
v -1.2021 -10.4000 1.2021
v -1.4722 -10.4000 0.8500
v -1.6421 -10.4000 0.4400
v -1.7000 -10.4000 0.0000
v -1.6421 -10.4000 -0.4400
v -1.4722 -10.4000 -0.8500
v -1.2021 -10.4000 -1.2021
v -0.8500 -10.4000 -1.4722
v -0.4400 -10.4000 -1.6421
v -0.0000 -10.4000 -1.7000
v 0.4400 -10.4000 -1.6421
v 0.8500 -10.4000 -1.4722
v 1.2021 -10.4000 -1.2021
v 1.4722 -10.4000 -0.8500
v 1.6421 -10.4000 -0.4400
v 1.7000 -10.4000 -0.0000
v 1.6421 -10.4000 0.4400
v 1.4722 -10.4000 0.8500
v 1.2021 -10.4000 1.2021
v 0.8500 -10.4000 1.4722
v 0.4400 -10.4000 1.6421
v 0.0000 -8.0000 0.0000
v 0.0000 -10.4000 0.0000
v 4.8800 -10.4000 -0.0900
v 4.8271 -10.4000 -0.0728
v 4.7944 -10.4000 -0.0278
v 4.7944 -10.4000 0.0278
v 4.8271 -10.4000 0.0728
v 4.8800 -10.4000 0.0900
v 4.9329 -10.4000 0.0728
v 4.9656 -10.4000 0.0278
v 4.9656 -10.4000 -0.0278
v 4.9329 -10.4000 -0.0728
v 4.8800 -9.5500 -0.0900
v 4.8271 -9.5500 -0.0728
v 4.7944 -9.5500 -0.0278
v 4.7944 -9.5500 0.0278
v 4.8271 -9.5500 0.0728
v 4.8800 -9.5500 0.0900
v 4.9329 -9.5500 0.0728
v 4.9656 -9.5500 0.0278
v 4.9656 -9.5500 -0.0278
v 4.9329 -9.5500 -0.0728
v 4.8800 -10.4000 0.0000
v 4.8800 -9.5500 0.0000
v 5.1200 -10.4000 -0.0900
v 5.0671 -10.4000 -0.0728
v 5.0344 -10.4000 -0.0278
v 5.0344 -10.4000 0.0278
v 5.0671 -10.4000 0.0728
v 5.1200 -10.4000 0.0900
v 5.1729 -10.4000 0.0728
v 5.2056 -10.4000 0.0278
v 5.2056 -10.4000 -0.0278
v 5.1729 -10.4000 -0.0728
v 5.1200 -9.5500 -0.0900
v 5.0671 -9.5500 -0.0728
v 5.0344 -9.5500 -0.0278
v 5.0344 -9.5500 0.0278
v 5.0671 -9.5500 0.0728
v 5.1200 -9.5500 0.0900
v 5.1729 -9.5500 0.0728
v 5.2056 -9.5500 0.0278
v 5.2056 -9.5500 -0.0278
v 5.1729 -9.5500 -0.0728
v 5.1200 -10.4000 0.0000
v 5.1200 -9.5500 0.0000
v 5.0000 -9.5500 -0.2000
v 4.9000 -9.5500 -0.1732
v 4.8268 -9.5500 -0.1000
v 4.8000 -9.5500 -0.0000
v 4.8268 -9.5500 0.1000
v 4.9000 -9.5500 0.1732
v 5.0000 -9.5500 0.2000
v 5.1000 -9.5500 0.1732
v 5.1732 -9.5500 0.1000
v 5.2000 -9.5500 0.0000
v 5.1732 -9.5500 -0.1000
v 5.1000 -9.5500 -0.1732
v 5.0000 -8.9000 -0.2000
v 4.9000 -8.9000 -0.1732
v 4.8268 -8.9000 -0.1000
v 4.8000 -8.9000 -0.0000
v 4.8268 -8.9000 0.1000
v 4.9000 -8.9000 0.1732
v 5.0000 -8.9000 0.2000
v 5.1000 -8.9000 0.1732
v 5.1732 -8.9000 0.1000
v 5.2000 -8.9000 0.0000
v 5.1732 -8.9000 -0.1000
v 5.1000 -8.9000 -0.1732
v 5.0000 -9.5500 0.0000
v 5.0000 -8.9000 0.0000
v 5.0000 -8.6100 0.0000
v 5.0000 -8.6100 0.0000
v 5.0000 -8.6100 0.0000
v 5.0000 -8.6100 0.0000
v 5.0000 -8.6100 0.0000
v 5.0000 -8.6100 0.0000
v 5.0000 -8.6100 0.0000
v 5.0000 -8.6100 0.0000
v 5.0000 -8.6100 0.0000
v 5.0000 -8.6100 0.0000
v 5.0000 -8.6100 0.0000
v 5.0000 -8.6100 0.0000
v 5.0421 -8.6199 0.0000
v 5.0365 -8.6199 0.0210
v 5.0210 -8.6199 0.0365
v 5.0000 -8.6199 0.0421
v 4.9790 -8.6199 0.0365
v 4.9635 -8.6199 0.0210
v 4.9579 -8.6199 0.0000
v 4.9635 -8.6199 -0.0210
v 4.9790 -8.6199 -0.0365
v 5.0000 -8.6199 -0.0421
v 5.0210 -8.6199 -0.0365
v 5.0365 -8.6199 -0.0210
v 5.0778 -8.6481 0.0000
v 5.0674 -8.6481 0.0389
v 5.0389 -8.6481 0.0674
v 5.0000 -8.6481 0.0778
v 4.9611 -8.6481 0.0674
v 4.9326 -8.6481 0.0389
v 4.9222 -8.6481 0.0000
v 4.9326 -8.6481 -0.0389
v 4.9611 -8.6481 -0.0674
v 5.0000 -8.6481 -0.0778
v 5.0389 -8.6481 -0.0674
v 5.0674 -8.6481 -0.0389
v 5.1016 -8.6903 0.0000
v 5.0880 -8.6903 0.0508
v 5.0508 -8.6903 0.0880
v 5.0000 -8.6903 0.1016
v 4.9492 -8.6903 0.0880
v 4.9120 -8.6903 0.0508
v 4.8984 -8.6903 0.0000
v 4.9120 -8.6903 -0.0508
v 4.9492 -8.6903 -0.0880
v 5.0000 -8.6903 -0.1016
v 5.0508 -8.6903 -0.0880
v 5.0880 -8.6903 -0.0508
v 5.1100 -8.7400 0.0000
v 5.0953 -8.7400 0.0550
v 5.0550 -8.7400 0.0953
v 5.0000 -8.7400 0.1100
v 4.9450 -8.7400 0.0953
v 4.9047 -8.7400 0.0550
v 4.8900 -8.7400 0.0000
v 4.9047 -8.7400 -0.0550
v 4.9450 -8.7400 -0.0953
v 5.0000 -8.7400 -0.1100
v 5.0550 -8.7400 -0.0953
v 5.0953 -8.7400 -0.0550
v 5.1016 -8.7897 0.0000
v 5.0880 -8.7897 0.0508
v 5.0508 -8.7897 0.0880
v 5.0000 -8.7897 0.1016
v 4.9492 -8.7897 0.0880
v 4.9120 -8.7897 0.0508
v 4.8984 -8.7897 0.0000
v 4.9120 -8.7897 -0.0508
v 4.9492 -8.7897 -0.0880
v 5.0000 -8.7897 -0.1016
v 5.0508 -8.7897 -0.0880
v 5.0880 -8.7897 -0.0508
v 5.0778 -8.8319 0.0000
v 5.0674 -8.8319 0.0389
v 5.0389 -8.8319 0.0674
v 5.0000 -8.8319 0.0778
v 4.9611 -8.8319 0.0674
v 4.9326 -8.8319 0.0389
v 4.9222 -8.8319 0.0000
v 4.9326 -8.8319 -0.0389
v 4.9611 -8.8319 -0.0674
v 5.0000 -8.8319 -0.0778
v 5.0389 -8.8319 -0.0674
v 5.0674 -8.8319 -0.0389
v 5.0421 -8.8601 0.0000
v 5.0365 -8.8601 0.0210
v 5.0210 -8.8601 0.0365
v 5.0000 -8.8601 0.0421
v 4.9790 -8.8601 0.0365
v 4.9635 -8.8601 0.0210
v 4.9579 -8.8601 0.0000
v 4.9635 -8.8601 -0.0210
v 4.9790 -8.8601 -0.0365
v 5.0000 -8.8601 -0.0421
v 5.0210 -8.8601 -0.0365
v 5.0365 -8.8601 -0.0210
v 5.0000 -8.8700 0.0000
v 5.0000 -8.8700 0.0000
v 5.0000 -8.8700 0.0000
v 5.0000 -8.8700 0.0000
v 5.0000 -8.8700 0.0000
v 5.0000 -8.8700 0.0000
v 5.0000 -8.8700 0.0000
v 5.0000 -8.8700 -0.0000
v 5.0000 -8.8700 -0.0000
v 5.0000 -8.8700 -0.0000
v 5.0000 -8.8700 -0.0000
v 5.0000 -8.8700 -0.0000
g habitat
usemtl crew
f 1 2 41
f 2 42 41
f 2 3 42
f 3 43 42
f 3 4 43
f 4 44 43
f 4 5 44
f 5 45 44
f 5 6 45
f 6 46 45
f 6 7 46
f 7 47 46
f 7 8 47
f 8 48 47
f 8 9 48
f 9 49 48
f 9 10 49
f 10 50 49
f 10 11 50
f 11 51 50
f 11 12 51
f 12 52 51
f 12 13 52
f 13 53 52
f 13 14 53
f 14 54 53
f 14 15 54
f 15 55 54
f 15 16 55
f 16 56 55
f 16 17 56
f 17 57 56
f 17 18 57
f 18 58 57
f 18 19 58
f 19 59 58
f 19 20 59
f 20 60 59
f 20 21 60
f 21 61 60
f 21 22 61
f 22 62 61
f 22 23 62
f 23 63 62
f 23 24 63
f 24 64 63
f 24 25 64
f 25 65 64
f 25 26 65
f 26 66 65
f 26 27 66
f 27 67 66
f 27 28 67
f 28 68 67
f 28 29 68
f 29 69 68
f 29 30 69
f 30 70 69
f 30 31 70
f 31 71 70
f 31 32 71
f 32 72 71
f 32 33 72
f 33 73 72
f 33 34 73
f 34 74 73
f 34 35 74
f 35 75 74
f 35 36 75
f 36 76 75
f 36 37 76
f 37 77 76
f 37 38 77
f 38 78 77
f 38 39 78
f 39 79 78
f 39 40 79
f 40 80 79
f 40 1 80
f 1 41 80
f 81 2 1
f 82 41 42
f 81 3 2
f 82 42 43
f 81 4 3
f 82 43 44
f 81 5 4
f 82 44 45
f 81 6 5
f 82 45 46
f 81 7 6
f 82 46 47
f 81 8 7
f 82 47 48
f 81 9 8
f 82 48 49
f 81 10 9
f 82 49 50
f 81 11 10
f 82 50 51
f 81 12 11
f 82 51 52
f 81 13 12
f 82 52 53
f 81 14 13
f 82 53 54
f 81 15 14
f 82 54 55
f 81 16 15
f 82 55 56
f 81 17 16
f 82 56 57
f 81 18 17
f 82 57 58
f 81 19 18
f 82 58 59
f 81 20 19
f 82 59 60
f 81 21 20
f 82 60 61
f 81 22 21
f 82 61 62
f 81 23 22
f 82 62 63
f 81 24 23
f 82 63 64
f 81 25 24
f 82 64 65
f 81 26 25
f 82 65 66
f 81 27 26
f 82 66 67
f 81 28 27
f 82 67 68
f 81 29 28
f 82 68 69
f 81 30 29
f 82 69 70
f 81 31 30
f 82 70 71
f 81 32 31
f 82 71 72
f 81 33 32
f 82 72 73
f 81 34 33
f 82 73 74
f 81 35 34
f 82 74 75
f 81 36 35
f 82 75 76
f 81 37 36
f 82 76 77
f 81 38 37
f 82 77 78
f 81 39 38
f 82 78 79
f 81 40 39
f 82 79 80
f 81 1 40
f 82 80 41
g storm_shelter
usemtl tank
f 83 84 123
f 84 124 123
f 84 85 124
f 85 125 124
f 85 86 125
f 86 126 125
f 86 87 126
f 87 127 126
f 87 88 127
f 88 128 127
f 88 89 128
f 89 129 128
f 89 90 129
f 90 130 129
f 90 91 130
f 91 131 130
f 91 92 131
f 92 132 131
f 92 93 132
f 93 133 132
f 93 94 133
f 94 134 133
f 94 95 134
f 95 135 134
f 95 96 135
f 96 136 135
f 96 97 136
f 97 137 136
f 97 98 137
f 98 138 137
f 98 99 138
f 99 139 138
f 99 100 139
f 100 140 139
f 100 101 140
f 101 141 140
f 101 102 141
f 102 142 141
f 102 103 142
f 103 143 142
f 103 104 143
f 104 144 143
f 104 105 144
f 105 145 144
f 105 106 145
f 106 146 145
f 106 107 146
f 107 147 146
f 107 108 147
f 108 148 147
f 108 109 148
f 109 149 148
f 109 110 149
f 110 150 149
f 110 111 150
f 111 151 150
f 111 112 151
f 112 152 151
f 112 113 152
f 113 153 152
f 113 114 153
f 114 154 153
f 114 115 154
f 115 155 154
f 115 116 155
f 116 156 155
f 116 117 156
f 117 157 156
f 117 118 157
f 118 158 157
f 118 119 158
f 119 159 158
f 119 120 159
f 120 160 159
f 120 121 160
f 121 161 160
f 121 122 161
f 122 162 161
f 122 83 162
f 83 123 162
f 163 84 83
f 164 123 124
f 163 85 84
f 164 124 125
f 163 86 85
f 164 125 126
f 163 87 86
f 164 126 127
f 163 88 87
f 164 127 128
f 163 89 88
f 164 128 129
f 163 90 89
f 164 129 130
f 163 91 90
f 164 130 131
f 163 92 91
f 164 131 132
f 163 93 92
f 164 132 133
f 163 94 93
f 164 133 134
f 163 95 94
f 164 134 135
f 163 96 95
f 164 135 136
f 163 97 96
f 164 136 137
f 163 98 97
f 164 137 138
f 163 99 98
f 164 138 139
f 163 100 99
f 164 139 140
f 163 101 100
f 164 140 141
f 163 102 101
f 164 141 142
f 163 103 102
f 164 142 143
f 163 104 103
f 164 143 144
f 163 105 104
f 164 144 145
f 163 106 105
f 164 145 146
f 163 107 106
f 164 146 147
f 163 108 107
f 164 147 148
f 163 109 108
f 164 148 149
f 163 110 109
f 164 149 150
f 163 111 110
f 164 150 151
f 163 112 111
f 164 151 152
f 163 113 112
f 164 152 153
f 163 114 113
f 164 153 154
f 163 115 114
f 164 154 155
f 163 116 115
f 164 155 156
f 163 117 116
f 164 156 157
f 163 118 117
f 164 157 158
f 163 119 118
f 164 158 159
f 163 120 119
f 164 159 160
f 163 121 120
f 164 160 161
f 163 122 121
f 164 161 162
f 163 83 122
f 164 162 123
g docking_node
usemtl truss
f 165 166 189
f 166 190 189
f 166 167 190
f 167 191 190
f 167 168 191
f 168 192 191
f 168 169 192
f 169 193 192
f 169 170 193
f 170 194 193
f 170 171 194
f 171 195 194
f 171 172 195
f 172 196 195
f 172 173 196
f 173 197 196
f 173 174 197
f 174 198 197
f 174 175 198
f 175 199 198
f 175 176 199
f 176 200 199
f 176 177 200
f 177 201 200
f 177 178 201
f 178 202 201
f 178 179 202
f 179 203 202
f 179 180 203
f 180 204 203
f 180 181 204
f 181 205 204
f 181 182 205
f 182 206 205
f 182 183 206
f 183 207 206
f 183 184 207
f 184 208 207
f 184 185 208
f 185 209 208
f 185 186 209
f 186 210 209
f 186 187 210
f 187 211 210
f 187 188 211
f 188 212 211
f 188 165 212
f 165 189 212
f 213 166 165
f 214 189 190
f 213 167 166
f 214 190 191
f 213 168 167
f 214 191 192
f 213 169 168
f 214 192 193
f 213 170 169
f 214 193 194
f 213 171 170
f 214 194 195
f 213 172 171
f 214 195 196
f 213 173 172
f 214 196 197
f 213 174 173
f 214 197 198
f 213 175 174
f 214 198 199
f 213 176 175
f 214 199 200
f 213 177 176
f 214 200 201
f 213 178 177
f 214 201 202
f 213 179 178
f 214 202 203
f 213 180 179
f 214 203 204
f 213 181 180
f 214 204 205
f 213 182 181
f 214 205 206
f 213 183 182
f 214 206 207
f 213 184 183
f 214 207 208
f 213 185 184
f 214 208 209
f 213 186 185
f 214 209 210
f 213 187 186
f 214 210 211
f 213 188 187
f 214 211 212
f 213 165 188
f 214 212 189
g solar_wings
usemtl solar
f 215 217 218
f 215 218 216
f 219 220 222
f 219 222 221
f 215 216 220
f 215 220 219
f 217 221 222
f 217 222 218
f 215 219 221
f 215 221 217
f 216 218 222
f 216 222 220
f 223 224 231
f 224 232 231
f 224 225 232
f 225 233 232
f 225 226 233
f 226 234 233
f 226 227 234
f 227 235 234
f 227 228 235
f 228 236 235
f 228 229 236
f 229 237 236
f 229 230 237
f 230 238 237
f 230 223 238
f 223 231 238
f 239 224 223
f 240 231 232
f 239 225 224
f 240 232 233
f 239 226 225
f 240 233 234
f 239 227 226
f 240 234 235
f 239 228 227
f 240 235 236
f 239 229 228
f 240 236 237
f 239 230 229
f 240 237 238
f 239 223 230
f 240 238 231
f 241 243 244
f 241 244 242
f 245 246 248
f 245 248 247
f 241 242 246
f 241 246 245
f 243 247 248
f 243 248 244
f 241 245 247
f 241 247 243
f 242 244 248
f 242 248 246
f 249 250 257
f 250 258 257
f 250 251 258
f 251 259 258
f 251 252 259
f 252 260 259
f 252 253 260
f 253 261 260
f 253 254 261
f 254 262 261
f 254 255 262
f 255 263 262
f 255 256 263
f 256 264 263
f 256 249 264
f 249 257 264
f 265 250 249
f 266 257 258
f 265 251 250
f 266 258 259
f 265 252 251
f 266 259 260
f 265 253 252
f 266 260 261
f 265 254 253
f 266 261 262
f 265 255 254
f 266 262 263
f 265 256 255
f 266 263 264
f 265 249 256
f 266 264 257
g propellant
usemtl tank
f 267 268 295
f 268 296 295
f 268 269 296
f 269 297 296
f 269 270 297
f 270 298 297
f 270 271 298
f 271 299 298
f 271 272 299
f 272 300 299
f 272 273 300
f 273 301 300
f 273 274 301
f 274 302 301
f 274 275 302
f 275 303 302
f 275 276 303
f 276 304 303
f 276 277 304
f 277 305 304
f 277 278 305
f 278 306 305
f 278 279 306
f 279 307 306
f 279 280 307
f 280 308 307
f 280 281 308
f 281 309 308
f 281 282 309
f 282 310 309
f 282 283 310
f 283 311 310
f 283 284 311
f 284 312 311
f 284 285 312
f 285 313 312
f 285 286 313
f 286 314 313
f 286 287 314
f 287 315 314
f 287 288 315
f 288 316 315
f 288 289 316
f 289 317 316
f 289 290 317
f 290 318 317
f 290 291 318
f 291 319 318
f 291 292 319
f 292 320 319
f 292 293 320
f 293 321 320
f 293 294 321
f 294 322 321
f 294 267 322
f 267 295 322
f 323 268 267
f 324 295 296
f 323 269 268
f 324 296 297
f 323 270 269
f 324 297 298
f 323 271 270
f 324 298 299
f 323 272 271
f 324 299 300
f 323 273 272
f 324 300 301
f 323 274 273
f 324 301 302
f 323 275 274
f 324 302 303
f 323 276 275
f 324 303 304
f 323 277 276
f 324 304 305
f 323 278 277
f 324 305 306
f 323 279 278
f 324 306 307
f 323 280 279
f 324 307 308
f 323 281 280
f 324 308 309
f 323 282 281
f 324 309 310
f 323 283 282
f 324 310 311
f 323 284 283
f 324 311 312
f 323 285 284
f 324 312 313
f 323 286 285
f 324 313 314
f 323 287 286
f 324 314 315
f 323 288 287
f 324 315 316
f 323 289 288
f 324 316 317
f 323 290 289
f 324 317 318
f 323 291 290
f 324 318 319
f 323 292 291
f 324 319 320
f 323 293 292
f 324 320 321
f 323 294 293
f 324 321 322
f 323 267 294
f 324 322 295
f 325 326 353
f 326 354 353
f 326 327 354
f 327 355 354
f 327 328 355
f 328 356 355
f 328 329 356
f 329 357 356
f 329 330 357
f 330 358 357
f 330 331 358
f 331 359 358
f 331 332 359
f 332 360 359
f 332 333 360
f 333 361 360
f 333 334 361
f 334 362 361
f 334 335 362
f 335 363 362
f 335 336 363
f 336 364 363
f 336 337 364
f 337 365 364
f 337 338 365
f 338 366 365
f 338 339 366
f 339 367 366
f 339 340 367
f 340 368 367
f 340 341 368
f 341 369 368
f 341 342 369
f 342 370 369
f 342 343 370
f 343 371 370
f 343 344 371
f 344 372 371
f 344 345 372
f 345 373 372
f 345 346 373
f 346 374 373
f 346 347 374
f 347 375 374
f 347 348 375
f 348 376 375
f 348 349 376
f 349 377 376
f 349 350 377
f 350 378 377
f 350 351 378
f 351 379 378
f 351 352 379
f 352 380 379
f 352 325 380
f 325 353 380
f 381 326 325
f 382 353 354
f 381 327 326
f 382 354 355
f 381 328 327
f 382 355 356
f 381 329 328
f 382 356 357
f 381 330 329
f 382 357 358
f 381 331 330
f 382 358 359
f 381 332 331
f 382 359 360
f 381 333 332
f 382 360 361
f 381 334 333
f 382 361 362
f 381 335 334
f 382 362 363
f 381 336 335
f 382 363 364
f 381 337 336
f 382 364 365
f 381 338 337
f 382 365 366
f 381 339 338
f 382 366 367
f 381 340 339
f 382 367 368
f 381 341 340
f 382 368 369
f 381 342 341
f 382 369 370
f 381 343 342
f 382 370 371
f 381 344 343
f 382 371 372
f 381 345 344
f 382 372 373
f 381 346 345
f 382 373 374
f 381 347 346
f 382 374 375
f 381 348 347
f 382 375 376
f 381 349 348
f 382 376 377
f 381 350 349
f 382 377 378
f 381 351 350
f 382 378 379
f 381 352 351
f 382 379 380
f 381 325 352
f 382 380 353
g truss
usemtl truss
f 383 384 395
f 384 396 395
f 384 385 396
f 385 397 396
f 385 386 397
f 386 398 397
f 386 387 398
f 387 399 398
f 387 388 399
f 388 400 399
f 388 389 400
f 389 401 400
f 389 390 401
f 390 402 401
f 390 391 402
f 391 403 402
f 391 392 403
f 392 404 403
f 392 393 404
f 393 405 404
f 393 394 405
f 394 406 405
f 394 383 406
f 383 395 406
f 407 384 383
f 408 395 396
f 407 385 384
f 408 396 397
f 407 386 385
f 408 397 398
f 407 387 386
f 408 398 399
f 407 388 387
f 408 399 400
f 407 389 388
f 408 400 401
f 407 390 389
f 408 401 402
f 407 391 390
f 408 402 403
f 407 392 391
f 408 403 404
f 407 393 392
f 408 404 405
f 407 394 393
f 408 405 406
f 407 383 394
f 408 406 395
g engine
usemtl engine
f 409 410 433
f 410 434 433
f 410 411 434
f 411 435 434
f 411 412 435
f 412 436 435
f 412 413 436
f 413 437 436
f 413 414 437
f 414 438 437
f 414 415 438
f 415 439 438
f 415 416 439
f 416 440 439
f 416 417 440
f 417 441 440
f 417 418 441
f 418 442 441
f 418 419 442
f 419 443 442
f 419 420 443
f 420 444 443
f 420 421 444
f 421 445 444
f 421 422 445
f 422 446 445
f 422 423 446
f 423 447 446
f 423 424 447
f 424 448 447
f 424 425 448
f 425 449 448
f 425 426 449
f 426 450 449
f 426 427 450
f 427 451 450
f 427 428 451
f 428 452 451
f 428 429 452
f 429 453 452
f 429 430 453
f 430 454 453
f 430 431 454
f 431 455 454
f 431 432 455
f 432 456 455
f 432 409 456
f 409 433 456
f 457 410 409
f 458 433 434
f 457 411 410
f 458 434 435
f 457 412 411
f 458 435 436
f 457 413 412
f 458 436 437
f 457 414 413
f 458 437 438
f 457 415 414
f 458 438 439
f 457 416 415
f 458 439 440
f 457 417 416
f 458 440 441
f 457 418 417
f 458 441 442
f 457 419 418
f 458 442 443
f 457 420 419
f 458 443 444
f 457 421 420
f 458 444 445
f 457 422 421
f 458 445 446
f 457 423 422
f 458 446 447
f 457 424 423
f 458 447 448
f 457 425 424
f 458 448 449
f 457 426 425
f 458 449 450
f 457 427 426
f 458 450 451
f 457 428 427
f 458 451 452
f 457 429 428
f 458 452 453
f 457 430 429
f 458 453 454
f 457 431 430
f 458 454 455
f 457 432 431
f 458 455 456
f 457 409 432
f 458 456 433
g person
usemtl human
f 459 460 469
f 460 470 469
f 460 461 470
f 461 471 470
f 461 462 471
f 462 472 471
f 462 463 472
f 463 473 472
f 463 464 473
f 464 474 473
f 464 465 474
f 465 475 474
f 465 466 475
f 466 476 475
f 466 467 476
f 467 477 476
f 467 468 477
f 468 478 477
f 468 459 478
f 459 469 478
f 479 460 459
f 480 469 470
f 479 461 460
f 480 470 471
f 479 462 461
f 480 471 472
f 479 463 462
f 480 472 473
f 479 464 463
f 480 473 474
f 479 465 464
f 480 474 475
f 479 466 465
f 480 475 476
f 479 467 466
f 480 476 477
f 479 468 467
f 480 477 478
f 479 459 468
f 480 478 469
f 481 482 491
f 482 492 491
f 482 483 492
f 483 493 492
f 483 484 493
f 484 494 493
f 484 485 494
f 485 495 494
f 485 486 495
f 486 496 495
f 486 487 496
f 487 497 496
f 487 488 497
f 488 498 497
f 488 489 498
f 489 499 498
f 489 490 499
f 490 500 499
f 490 481 500
f 481 491 500
f 501 482 481
f 502 491 492
f 501 483 482
f 502 492 493
f 501 484 483
f 502 493 494
f 501 485 484
f 502 494 495
f 501 486 485
f 502 495 496
f 501 487 486
f 502 496 497
f 501 488 487
f 502 497 498
f 501 489 488
f 502 498 499
f 501 490 489
f 502 499 500
f 501 481 490
f 502 500 491
f 503 504 515
f 504 516 515
f 504 505 516
f 505 517 516
f 505 506 517
f 506 518 517
f 506 507 518
f 507 519 518
f 507 508 519
f 508 520 519
f 508 509 520
f 509 521 520
f 509 510 521
f 510 522 521
f 510 511 522
f 511 523 522
f 511 512 523
f 512 524 523
f 512 513 524
f 513 525 524
f 513 514 525
f 514 526 525
f 514 503 526
f 503 515 526
f 527 504 503
f 528 515 516
f 527 505 504
f 528 516 517
f 527 506 505
f 528 517 518
f 527 507 506
f 528 518 519
f 527 508 507
f 528 519 520
f 527 509 508
f 528 520 521
f 527 510 509
f 528 521 522
f 527 511 510
f 528 522 523
f 527 512 511
f 528 523 524
f 527 513 512
f 528 524 525
f 527 514 513
f 528 525 526
f 527 503 514
f 528 526 515
f 530 541 542
f 531 542 543
f 532 543 544
f 533 544 545
f 534 545 546
f 535 546 547
f 536 547 548
f 537 548 549
f 538 549 550
f 539 550 551
f 540 551 552
f 529 552 541
f 541 553 542
f 542 553 554
f 542 554 543
f 543 554 555
f 543 555 544
f 544 555 556
f 544 556 545
f 545 556 557
f 545 557 546
f 546 557 558
f 546 558 547
f 547 558 559
f 547 559 548
f 548 559 560
f 548 560 549
f 549 560 561
f 549 561 550
f 550 561 562
f 550 562 551
f 551 562 563
f 551 563 552
f 552 563 564
f 552 564 541
f 541 564 553
f 553 565 554
f 554 565 566
f 554 566 555
f 555 566 567
f 555 567 556
f 556 567 568
f 556 568 557
f 557 568 569
f 557 569 558
f 558 569 570
f 558 570 559
f 559 570 571
f 559 571 560
f 560 571 572
f 560 572 561
f 561 572 573
f 561 573 562
f 562 573 574
f 562 574 563
f 563 574 575
f 563 575 564
f 564 575 576
f 564 576 553
f 553 576 565
f 565 577 566
f 566 577 578
f 566 578 567
f 567 578 579
f 567 579 568
f 568 579 580
f 568 580 569
f 569 580 581
f 569 581 570
f 570 581 582
f 570 582 571
f 571 582 583
f 571 583 572
f 572 583 584
f 572 584 573
f 573 584 585
f 573 585 574
f 574 585 586
f 574 586 575
f 575 586 587
f 575 587 576
f 576 587 588
f 576 588 565
f 565 588 577
f 577 589 578
f 578 589 590
f 578 590 579
f 579 590 591
f 579 591 580
f 580 591 592
f 580 592 581
f 581 592 593
f 581 593 582
f 582 593 594
f 582 594 583
f 583 594 595
f 583 595 584
f 584 595 596
f 584 596 585
f 585 596 597
f 585 597 586
f 586 597 598
f 586 598 587
f 587 598 599
f 587 599 588
f 588 599 600
f 588 600 577
f 577 600 589
f 589 601 590
f 590 601 602
f 590 602 591
f 591 602 603
f 591 603 592
f 592 603 604
f 592 604 593
f 593 604 605
f 593 605 594
f 594 605 606
f 594 606 595
f 595 606 607
f 595 607 596
f 596 607 608
f 596 608 597
f 597 608 609
f 597 609 598
f 598 609 610
f 598 610 599
f 599 610 611
f 599 611 600
f 600 611 612
f 600 612 589
f 589 612 601
f 601 613 602
f 602 613 614
f 602 614 603
f 603 614 615
f 603 615 604
f 604 615 616
f 604 616 605
f 605 616 617
f 605 617 606
f 606 617 618
f 606 618 607
f 607 618 619
f 607 619 608
f 608 619 620
f 608 620 609
f 609 620 621
f 609 621 610
f 610 621 622
f 610 622 611
f 611 622 623
f 611 623 612
f 612 623 624
f 612 624 601
f 601 624 613
f 613 625 614
f 614 626 615
f 615 627 616
f 616 628 617
f 617 629 618
f 618 630 619
f 619 631 620
f 620 632 621
f 621 633 622
f 622 634 623
f 623 635 624
f 624 636 613
