# lucifer_return_capsule — generated by scripts/build_models.py from the Project Phosphorus plan
# units: meters, Y up
mtllib lucifer_return_capsule.mtl
o lucifer_return_capsule
v 0.0000 1.1000 0.0000
v 0.0000 1.1000 0.0000
v 0.0000 1.1000 0.0000
v 0.0000 1.1000 0.0000
v 0.0000 1.1000 0.0000
v 0.0000 1.1000 0.0000
v 0.0000 1.1000 0.0000
v 0.0000 1.1000 0.0000
v 0.0000 1.1000 0.0000
v 0.0000 1.1000 0.0000
v 0.0000 1.1000 0.0000
v 0.0000 1.1000 0.0000
v 0.0000 1.1000 0.0000
v 0.0000 1.1000 0.0000
v 0.0000 1.1000 0.0000
v 0.0000 1.1000 0.0000
v 0.0000 1.1000 0.0000
v 0.0000 1.1000 0.0000
v 0.0000 1.1000 0.0000
v 0.0000 1.1000 0.0000
v 0.0000 1.1000 0.0000
v 0.0000 1.1000 0.0000
v 0.0000 1.1000 0.0000
v 0.0000 1.1000 0.0000
v 0.0000 1.1000 0.0000
v 0.0000 1.1000 0.0000
v 0.0000 1.1000 0.0000
v 0.0000 1.1000 0.0000
v 0.0000 1.1000 0.0000
v 0.0000 1.1000 0.0000
v 0.0000 1.1000 0.0000
v 0.0000 1.1000 0.0000
v 0.0000 1.1000 0.0000
v 0.0000 1.1000 0.0000
v 0.0000 1.1000 0.0000
v 0.0000 1.1000 0.0000
v 0.0000 1.1000 0.0000
v 0.0000 1.1000 0.0000
v 0.0000 1.1000 0.0000
v 0.0000 1.1000 0.0000
v 0.9567 1.0581 0.0000
v 0.9449 1.0581 0.1497
v 0.9099 1.0581 0.2956
v 0.8524 1.0581 0.4343
v 0.7740 1.0581 0.5623
v 0.6765 1.0581 0.6765
v 0.5623 1.0581 0.7740
v 0.4343 1.0581 0.8524
v 0.2956 1.0581 0.9099
v 0.1497 1.0581 0.9449
v 0.0000 1.0581 0.9567
v -0.1497 1.0581 0.9449
v -0.2956 1.0581 0.9099
v -0.4343 1.0581 0.8524
v -0.5623 1.0581 0.7740
v -0.6765 1.0581 0.6765
v -0.7740 1.0581 0.5623
v -0.8524 1.0581 0.4343
v -0.9099 1.0581 0.2956
v -0.9449 1.0581 0.1497
v -0.9567 1.0581 0.0000
v -0.9449 1.0581 -0.1497
v -0.9099 1.0581 -0.2956
v -0.8524 1.0581 -0.4343
v -0.7740 1.0581 -0.5623
v -0.6765 1.0581 -0.6765
v -0.5623 1.0581 -0.7740
v -0.4343 1.0581 -0.8524
v -0.2956 1.0581 -0.9099
v -0.1497 1.0581 -0.9449
v -0.0000 1.0581 -0.9567
v 0.1497 1.0581 -0.9449
v 0.2956 1.0581 -0.9099
v 0.4343 1.0581 -0.8524
v 0.5623 1.0581 -0.7740
v 0.6765 1.0581 -0.6765
v 0.7740 1.0581 -0.5623
v 0.8524 1.0581 -0.4343
v 0.9099 1.0581 -0.2956
v 0.9449 1.0581 -0.1497
v 1.7678 0.9389 0.0000
v 1.7460 0.9389 0.2765
v 1.6812 0.9389 0.5463
v 1.5751 0.9389 0.8025
v 1.4302 0.9389 1.0391
v 1.2500 0.9389 1.2500
v 1.0391 0.9389 1.4302
v 0.8025 0.9389 1.5751
v 0.5463 0.9389 1.6812
v 0.2765 0.9389 1.7460
v 0.0000 0.9389 1.7678
v -0.2765 0.9389 1.7460
v -0.5463 0.9389 1.6812
v -0.8025 0.9389 1.5751
v -1.0391 0.9389 1.4302
v -1.2500 0.9389 1.2500
v -1.4302 0.9389 1.0391
v -1.5751 0.9389 0.8025
v -1.6812 0.9389 0.5463
v -1.7460 0.9389 0.2765
v -1.7678 0.9389 0.0000
v -1.7460 0.9389 -0.2765
v -1.6812 0.9389 -0.5463
v -1.5751 0.9389 -0.8025
v -1.4302 0.9389 -1.0391
v -1.2500 0.9389 -1.2500
v -1.0391 0.9389 -1.4302
v -0.8025 0.9389 -1.5751
v -0.5463 0.9389 -1.6812
v -0.2765 0.9389 -1.7460
v -0.0000 0.9389 -1.7678
v 0.2765 0.9389 -1.7460
v 0.5463 0.9389 -1.6812
v 0.8025 0.9389 -1.5751
v 1.0391 0.9389 -1.4302
v 1.2500 0.9389 -1.2500
v 1.4302 0.9389 -1.0391
v 1.5751 0.9389 -0.8025
v 1.6812 0.9389 -0.5463
v 1.7460 0.9389 -0.2765
v 2.3097 0.7605 0.0000
v 2.2813 0.7605 0.3613
v 2.1967 0.7605 0.7137
v 2.0580 0.7605 1.0486
v 1.8686 0.7605 1.3576
v 1.6332 0.7605 1.6332
v 1.3576 0.7605 1.8686
v 1.0486 0.7605 2.0580
v 0.7137 0.7605 2.1967
v 0.3613 0.7605 2.2813
v 0.0000 0.7605 2.3097
v -0.3613 0.7605 2.2813
v -0.7137 0.7605 2.1967
v -1.0486 0.7605 2.0580
v -1.3576 0.7605 1.8686
v -1.6332 0.7605 1.6332
v -1.8686 0.7605 1.3576
v -2.0580 0.7605 1.0486
v -2.1967 0.7605 0.7137
v -2.2813 0.7605 0.3613
v -2.3097 0.7605 0.0000
v -2.2813 0.7605 -0.3613
v -2.1967 0.7605 -0.7137
v -2.0580 0.7605 -1.0486
v -1.8686 0.7605 -1.3576
v -1.6332 0.7605 -1.6332
v -1.3576 0.7605 -1.8686
v -1.0486 0.7605 -2.0580
v -0.7137 0.7605 -2.1967
v -0.3613 0.7605 -2.2813
v -0.0000 0.7605 -2.3097
v 0.3613 0.7605 -2.2813
v 0.7137 0.7605 -2.1967
v 1.0486 0.7605 -2.0580
v 1.3576 0.7605 -1.8686
v 1.6332 0.7605 -1.6332
v 1.8686 0.7605 -1.3576
v 2.0580 0.7605 -1.0486
v 2.1967 0.7605 -0.7137
v 2.2813 0.7605 -0.3613
v 2.5000 0.5500 0.0000
v 2.4692 0.5500 0.3911
v 2.3776 0.5500 0.7725
v 2.2275 0.5500 1.1350
v 2.0225 0.5500 1.4695
v 1.7678 0.5500 1.7678
v 1.4695 0.5500 2.0225
v 1.1350 0.5500 2.2275
v 0.7725 0.5500 2.3776
v 0.3911 0.5500 2.4692
v 0.0000 0.5500 2.5000
v -0.3911 0.5500 2.4692
v -0.7725 0.5500 2.3776
v -1.1350 0.5500 2.2275
v -1.4695 0.5500 2.0225
v -1.7678 0.5500 1.7678
v -2.0225 0.5500 1.4695
v -2.2275 0.5500 1.1350
v -2.3776 0.5500 0.7725
v -2.4692 0.5500 0.3911
v -2.5000 0.5500 0.0000
v -2.4692 0.5500 -0.3911
v -2.3776 0.5500 -0.7725
v -2.2275 0.5500 -1.1350
v -2.0225 0.5500 -1.4695
v -1.7678 0.5500 -1.7678
v -1.4695 0.5500 -2.0225
v -1.1350 0.5500 -2.2275
v -0.7725 0.5500 -2.3776
v -0.3911 0.5500 -2.4692
v -0.0000 0.5500 -2.5000
v 0.3911 0.5500 -2.4692
v 0.7725 0.5500 -2.3776
v 1.1350 0.5500 -2.2275
v 1.4695 0.5500 -2.0225
v 1.7678 0.5500 -1.7678
v 2.0225 0.5500 -1.4695
v 2.2275 0.5500 -1.1350
v 2.3776 0.5500 -0.7725
v 2.4692 0.5500 -0.3911
v 2.3097 0.3395 0.0000
v 2.2813 0.3395 0.3613
v 2.1967 0.3395 0.7137
v 2.0580 0.3395 1.0486
v 1.8686 0.3395 1.3576
v 1.6332 0.3395 1.6332
v 1.3576 0.3395 1.8686
v 1.0486 0.3395 2.0580
v 0.7137 0.3395 2.1967
v 0.3613 0.3395 2.2813
v 0.0000 0.3395 2.3097
v -0.3613 0.3395 2.2813
v -0.7137 0.3395 2.1967
v -1.0486 0.3395 2.0580
v -1.3576 0.3395 1.8686
v -1.6332 0.3395 1.6332
v -1.8686 0.3395 1.3576
v -2.0580 0.3395 1.0486
v -2.1967 0.3395 0.7137
v -2.2813 0.3395 0.3613
v -2.3097 0.3395 0.0000
v -2.2813 0.3395 -0.3613
v -2.1967 0.3395 -0.7137
v -2.0580 0.3395 -1.0486
v -1.8686 0.3395 -1.3576
v -1.6332 0.3395 -1.6332
v -1.3576 0.3395 -1.8686
v -1.0486 0.3395 -2.0580
v -0.7137 0.3395 -2.1967
v -0.3613 0.3395 -2.2813
v -0.0000 0.3395 -2.3097
v 0.3613 0.3395 -2.2813
v 0.7137 0.3395 -2.1967
v 1.0486 0.3395 -2.0580
v 1.3576 0.3395 -1.8686
v 1.6332 0.3395 -1.6332
v 1.8686 0.3395 -1.3576
v 2.0580 0.3395 -1.0486
v 2.1967 0.3395 -0.7137
v 2.2813 0.3395 -0.3613
v 1.7678 0.1611 0.0000
v 1.7460 0.1611 0.2765
v 1.6812 0.1611 0.5463
v 1.5751 0.1611 0.8025
v 1.4302 0.1611 1.0391
v 1.2500 0.1611 1.2500
v 1.0391 0.1611 1.4302
v 0.8025 0.1611 1.5751
v 0.5463 0.1611 1.6812
v 0.2765 0.1611 1.7460
v 0.0000 0.1611 1.7678
v -0.2765 0.1611 1.7460
v -0.5463 0.1611 1.6812
v -0.8025 0.1611 1.5751
v -1.0391 0.1611 1.4302
v -1.2500 0.1611 1.2500
v -1.4302 0.1611 1.0391
v -1.5751 0.1611 0.8025
v -1.6812 0.1611 0.5463
v -1.7460 0.1611 0.2765
v -1.7678 0.1611 0.0000
v -1.7460 0.1611 -0.2765
v -1.6812 0.1611 -0.5463
v -1.5751 0.1611 -0.8025
v -1.4302 0.1611 -1.0391
v -1.2500 0.1611 -1.2500
v -1.0391 0.1611 -1.4302
v -0.8025 0.1611 -1.5751
v -0.5463 0.1611 -1.6812
v -0.2765 0.1611 -1.7460
v -0.0000 0.1611 -1.7678
v 0.2765 0.1611 -1.7460
v 0.5463 0.1611 -1.6812
v 0.8025 0.1611 -1.5751
v 1.0391 0.1611 -1.4302
v 1.2500 0.1611 -1.2500
v 1.4302 0.1611 -1.0391
v 1.5751 0.1611 -0.8025
v 1.6812 0.1611 -0.5463
v 1.7460 0.1611 -0.2765
v 0.9567 0.0419 0.0000
v 0.9449 0.0419 0.1497
v 0.9099 0.0419 0.2956
v 0.8524 0.0419 0.4343
v 0.7740 0.0419 0.5623
v 0.6765 0.0419 0.6765
v 0.5623 0.0419 0.7740
v 0.4343 0.0419 0.8524
v 0.2956 0.0419 0.9099
v 0.1497 0.0419 0.9449
v 0.0000 0.0419 0.9567
v -0.1497 0.0419 0.9449
v -0.2956 0.0419 0.9099
v -0.4343 0.0419 0.8524
v -0.5623 0.0419 0.7740
v -0.6765 0.0419 0.6765
v -0.7740 0.0419 0.5623
v -0.8524 0.0419 0.4343
v -0.9099 0.0419 0.2956
v -0.9449 0.0419 0.1497
v -0.9567 0.0419 0.0000
v -0.9449 0.0419 -0.1497
v -0.9099 0.0419 -0.2956
v -0.8524 0.0419 -0.4343
v -0.7740 0.0419 -0.5623
v -0.6765 0.0419 -0.6765
v -0.5623 0.0419 -0.7740
v -0.4343 0.0419 -0.8524
v -0.2956 0.0419 -0.9099
v -0.1497 0.0419 -0.9449
v -0.0000 0.0419 -0.9567
v 0.1497 0.0419 -0.9449
v 0.2956 0.0419 -0.9099
v 0.4343 0.0419 -0.8524
v 0.5623 0.0419 -0.7740
v 0.6765 0.0419 -0.6765
v 0.7740 0.0419 -0.5623
v 0.8524 0.0419 -0.4343
v 0.9099 0.0419 -0.2956
v 0.9449 0.0419 -0.1497
v 0.0000 0.0000 0.0000
v 0.0000 0.0000 0.0000
v 0.0000 0.0000 0.0000
v 0.0000 0.0000 0.0000
v 0.0000 0.0000 0.0000
v 0.0000 0.0000 0.0000
v 0.0000 0.0000 0.0000
v 0.0000 0.0000 0.0000
v 0.0000 0.0000 0.0000
v 0.0000 0.0000 0.0000
v 0.0000 0.0000 0.0000
v -0.0000 0.0000 0.0000
v -0.0000 0.0000 0.0000
v -0.0000 0.0000 0.0000
v -0.0000 0.0000 0.0000
v -0.0000 0.0000 0.0000
v -0.0000 0.0000 0.0000
v -0.0000 0.0000 0.0000
v -0.0000 0.0000 0.0000
v -0.0000 0.0000 0.0000
v -0.0000 0.0000 0.0000
v -0.0000 0.0000 -0.0000
v -0.0000 0.0000 -0.0000
v -0.0000 0.0000 -0.0000
v -0.0000 0.0000 -0.0000
v -0.0000 0.0000 -0.0000
v -0.0000 0.0000 -0.0000
v -0.0000 0.0000 -0.0000
v -0.0000 0.0000 -0.0000
v -0.0000 0.0000 -0.0000
v -0.0000 0.0000 -0.0000
v 0.0000 0.0000 -0.0000
v 0.0000 0.0000 -0.0000
v 0.0000 0.0000 -0.0000
v 0.0000 0.0000 -0.0000
v 0.0000 0.0000 -0.0000
v 0.0000 0.0000 -0.0000
v 0.0000 0.0000 -0.0000
v 0.0000 0.0000 -0.0000
v 0.0000 0.0000 -0.0000
v 0.0000 0.5500 -2.5000
v -0.3911 0.5500 -2.4692
v -0.7725 0.5500 -2.3776
v -1.1350 0.5500 -2.2275
v -1.4695 0.5500 -2.0225
v -1.7678 0.5500 -1.7678
v -2.0225 0.5500 -1.4695
v -2.2275 0.5500 -1.1350
v -2.3776 0.5500 -0.7725
v -2.4692 0.5500 -0.3911
v -2.5000 0.5500 -0.0000
v -2.4692 0.5500 0.3911
v -2.3776 0.5500 0.7725
v -2.2275 0.5500 1.1350
v -2.0225 0.5500 1.4695
v -1.7678 0.5500 1.7678
v -1.4695 0.5500 2.0225
v -1.1350 0.5500 2.2275
v -0.7725 0.5500 2.3776
v -0.3911 0.5500 2.4692
v -0.0000 0.5500 2.5000
v 0.3911 0.5500 2.4692
v 0.7725 0.5500 2.3776
v 1.1350 0.5500 2.2275
v 1.4695 0.5500 2.0225
v 1.7678 0.5500 1.7678
v 2.0225 0.5500 1.4695
v 2.2275 0.5500 1.1350
v 2.3776 0.5500 0.7725
v 2.4692 0.5500 0.3911
v 2.5000 0.5500 0.0000
v 2.4692 0.5500 -0.3911
v 2.3776 0.5500 -0.7725
v 2.2275 0.5500 -1.1350
v 2.0225 0.5500 -1.4695
v 1.7678 0.5500 -1.7678
v 1.4695 0.5500 -2.0225
v 1.1350 0.5500 -2.2275
v 0.7725 0.5500 -2.3776
v 0.3911 0.5500 -2.4692
v 0.0000 3.6000 -1.0000
v -0.1564 3.6000 -0.9877
v -0.3090 3.6000 -0.9511
v -0.4540 3.6000 -0.8910
v -0.5878 3.6000 -0.8090
v -0.7071 3.6000 -0.7071
v -0.8090 3.6000 -0.5878
v -0.8910 3.6000 -0.4540
v -0.9511 3.6000 -0.3090
v -0.9877 3.6000 -0.1564
v -1.0000 3.6000 -0.0000
v -0.9877 3.6000 0.1564
v -0.9511 3.6000 0.3090
v -0.8910 3.6000 0.4540
v -0.8090 3.6000 0.5878
v -0.7071 3.6000 0.7071
v -0.5878 3.6000 0.8090
v -0.4540 3.6000 0.8910
v -0.3090 3.6000 0.9511
v -0.1564 3.6000 0.9877
v -0.0000 3.6000 1.0000
v 0.1564 3.6000 0.9877
v 0.3090 3.6000 0.9511
v 0.4540 3.6000 0.8910
v 0.5878 3.6000 0.8090
v 0.7071 3.6000 0.7071
v 0.8090 3.6000 0.5878
v 0.8910 3.6000 0.4540
v 0.9511 3.6000 0.3090
v 0.9877 3.6000 0.1564
v 1.0000 3.6000 0.0000
v 0.9877 3.6000 -0.1564
v 0.9511 3.6000 -0.3090
v 0.8910 3.6000 -0.4540
v 0.8090 3.6000 -0.5878
v 0.7071 3.6000 -0.7071
v 0.5878 3.6000 -0.8090
v 0.4540 3.6000 -0.8910
v 0.3090 3.6000 -0.9511
v 0.1564 3.6000 -0.9877
v 0.0000 0.5500 0.0000
v 0.0000 3.6000 0.0000
v 0.0000 3.6000 -0.8000
v -0.2071 3.6000 -0.7727
v -0.4000 3.6000 -0.6928
v -0.5657 3.6000 -0.5657
v -0.6928 3.6000 -0.4000
v -0.7727 3.6000 -0.2071
v -0.8000 3.6000 -0.0000
v -0.7727 3.6000 0.2071
v -0.6928 3.6000 0.4000
v -0.5657 3.6000 0.5657
v -0.4000 3.6000 0.6928
v -0.2071 3.6000 0.7727
v -0.0000 3.6000 0.8000
v 0.2071 3.6000 0.7727
v 0.4000 3.6000 0.6928
v 0.5657 3.6000 0.5657
v 0.6928 3.6000 0.4000
v 0.7727 3.6000 0.2071
v 0.8000 3.6000 0.0000
v 0.7727 3.6000 -0.2071
v 0.6928 3.6000 -0.4000
v 0.5657 3.6000 -0.5657
v 0.4000 3.6000 -0.6928
v 0.2071 3.6000 -0.7727
v 0.0000 4.1000 -0.8000
v -0.2071 4.1000 -0.7727
v -0.4000 4.1000 -0.6928
v -0.5657 4.1000 -0.5657
v -0.6928 4.1000 -0.4000
v -0.7727 4.1000 -0.2071
v -0.8000 4.1000 -0.0000
v -0.7727 4.1000 0.2071
v -0.6928 4.1000 0.4000
v -0.5657 4.1000 0.5657
v -0.4000 4.1000 0.6928
v -0.2071 4.1000 0.7727
v -0.0000 4.1000 0.8000
v 0.2071 4.1000 0.7727
v 0.4000 4.1000 0.6928
v 0.5657 4.1000 0.5657
v 0.6928 4.1000 0.4000
v 0.7727 4.1000 0.2071
v 0.8000 4.1000 0.0000
v 0.7727 4.1000 -0.2071
v 0.6928 4.1000 -0.4000
v 0.5657 4.1000 -0.5657
v 0.4000 4.1000 -0.6928
v 0.2071 4.1000 -0.7727
v 0.0000 3.6000 0.0000
v 0.0000 4.1000 0.0000
v 0.8460 2.0250 0.8460
v 0.8460 2.0250 1.3460
v 0.8460 2.3750 0.8460
v 0.8460 2.3750 1.3460
v 1.3460 2.0250 0.8460
v 1.3460 2.0250 1.3460
v 1.3460 2.3750 0.8460
v 1.3460 2.3750 1.3460
v -1.3460 2.0250 0.8460
v -1.3460 2.0250 1.3460
v -1.3460 2.3750 0.8460
v -1.3460 2.3750 1.3460
v -0.8460 2.0250 0.8460
v -0.8460 2.0250 1.3460
v -0.8460 2.3750 0.8460
v -0.8460 2.3750 1.3460
v -1.3460 2.0250 -1.3460
v -1.3460 2.0250 -0.8460
v -1.3460 2.3750 -1.3460
v -1.3460 2.3750 -0.8460
v -0.8460 2.0250 -1.3460
v -0.8460 2.0250 -0.8460
v -0.8460 2.3750 -1.3460
v -0.8460 2.3750 -0.8460
v 0.8460 2.0250 -1.3460
v 0.8460 2.0250 -0.8460
v 0.8460 2.3750 -1.3460
v 0.8460 2.3750 -0.8460
v 1.3460 2.0250 -1.3460
v 1.3460 2.0250 -0.8460
v 1.3460 2.3750 -1.3460
v 1.3460 2.3750 -0.8460
v 3.8800 0.0000 -0.0900
v 3.8271 0.0000 -0.0728
v 3.7944 0.0000 -0.0278
v 3.7944 0.0000 0.0278
v 3.8271 0.0000 0.0728
v 3.8800 0.0000 0.0900
v 3.9329 0.0000 0.0728
v 3.9656 0.0000 0.0278
v 3.9656 0.0000 -0.0278
v 3.9329 0.0000 -0.0728
v 3.8800 0.8500 -0.0900
v 3.8271 0.8500 -0.0728
v 3.7944 0.8500 -0.0278
v 3.7944 0.8500 0.0278
v 3.8271 0.8500 0.0728
v 3.8800 0.8500 0.0900
v 3.9329 0.8500 0.0728
v 3.9656 0.8500 0.0278
v 3.9656 0.8500 -0.0278
v 3.9329 0.8500 -0.0728
v 3.8800 0.0000 0.0000
v 3.8800 0.8500 0.0000
v 4.1200 0.0000 -0.0900
v 4.0671 0.0000 -0.0728
v 4.0344 0.0000 -0.0278
v 4.0344 0.0000 0.0278
v 4.0671 0.0000 0.0728
v 4.1200 0.0000 0.0900
v 4.1729 0.0000 0.0728
v 4.2056 0.0000 0.0278
v 4.2056 0.0000 -0.0278
v 4.1729 0.0000 -0.0728
v 4.1200 0.8500 -0.0900
v 4.0671 0.8500 -0.0728
v 4.0344 0.8500 -0.0278
v 4.0344 0.8500 0.0278
v 4.0671 0.8500 0.0728
v 4.1200 0.8500 0.0900
v 4.1729 0.8500 0.0728
v 4.2056 0.8500 0.0278
v 4.2056 0.8500 -0.0278
v 4.1729 0.8500 -0.0728
v 4.1200 0.0000 0.0000
v 4.1200 0.8500 0.0000
v 4.0000 0.8500 -0.2000
v 3.9000 0.8500 -0.1732
v 3.8268 0.8500 -0.1000
v 3.8000 0.8500 -0.0000
v 3.8268 0.8500 0.1000
v 3.9000 0.8500 0.1732
v 4.0000 0.8500 0.2000
v 4.1000 0.8500 0.1732
v 4.1732 0.8500 0.1000
v 4.2000 0.8500 0.0000
v 4.1732 0.8500 -0.1000
v 4.1000 0.8500 -0.1732
v 4.0000 1.5000 -0.2000
v 3.9000 1.5000 -0.1732
v 3.8268 1.5000 -0.1000
v 3.8000 1.5000 -0.0000
v 3.8268 1.5000 0.1000
v 3.9000 1.5000 0.1732
v 4.0000 1.5000 0.2000
v 4.1000 1.5000 0.1732
v 4.1732 1.5000 0.1000
v 4.2000 1.5000 0.0000
v 4.1732 1.5000 -0.1000
v 4.1000 1.5000 -0.1732
v 4.0000 0.8500 0.0000
v 4.0000 1.5000 0.0000
v 4.0000 1.7900 0.0000
v 4.0000 1.7900 0.0000
v 4.0000 1.7900 0.0000
v 4.0000 1.7900 0.0000
v 4.0000 1.7900 0.0000
v 4.0000 1.7900 0.0000
v 4.0000 1.7900 0.0000
v 4.0000 1.7900 0.0000
v 4.0000 1.7900 0.0000
v 4.0000 1.7900 0.0000
v 4.0000 1.7900 0.0000
v 4.0000 1.7900 0.0000
v 4.0421 1.7801 0.0000
v 4.0365 1.7801 0.0210
v 4.0210 1.7801 0.0365
v 4.0000 1.7801 0.0421
v 3.9790 1.7801 0.0365
v 3.9635 1.7801 0.0210
v 3.9579 1.7801 0.0000
v 3.9635 1.7801 -0.0210
v 3.9790 1.7801 -0.0365
v 4.0000 1.7801 -0.0421
v 4.0210 1.7801 -0.0365
v 4.0365 1.7801 -0.0210
v 4.0778 1.7519 0.0000
v 4.0674 1.7519 0.0389
v 4.0389 1.7519 0.0674
v 4.0000 1.7519 0.0778
v 3.9611 1.7519 0.0674
v 3.9326 1.7519 0.0389
v 3.9222 1.7519 0.0000
v 3.9326 1.7519 -0.0389
v 3.9611 1.7519 -0.0674
v 4.0000 1.7519 -0.0778
v 4.0389 1.7519 -0.0674
v 4.0674 1.7519 -0.0389
v 4.1016 1.7097 0.0000
v 4.0880 1.7097 0.0508
v 4.0508 1.7097 0.0880
v 4.0000 1.7097 0.1016
v 3.9492 1.7097 0.0880
v 3.9120 1.7097 0.0508
v 3.8984 1.7097 0.0000
v 3.9120 1.7097 -0.0508
v 3.9492 1.7097 -0.0880
v 4.0000 1.7097 -0.1016
v 4.0508 1.7097 -0.0880
v 4.0880 1.7097 -0.0508
v 4.1100 1.6600 0.0000
v 4.0953 1.6600 0.0550
v 4.0550 1.6600 0.0953
v 4.0000 1.6600 0.1100
v 3.9450 1.6600 0.0953
v 3.9047 1.6600 0.0550
v 3.8900 1.6600 0.0000
v 3.9047 1.6600 -0.0550
v 3.9450 1.6600 -0.0953
v 4.0000 1.6600 -0.1100
v 4.0550 1.6600 -0.0953
v 4.0953 1.6600 -0.0550
v 4.1016 1.6103 0.0000
v 4.0880 1.6103 0.0508
v 4.0508 1.6103 0.0880
v 4.0000 1.6103 0.1016
v 3.9492 1.6103 0.0880
v 3.9120 1.6103 0.0508
v 3.8984 1.6103 0.0000
v 3.9120 1.6103 -0.0508
v 3.9492 1.6103 -0.0880
v 4.0000 1.6103 -0.1016
v 4.0508 1.6103 -0.0880
v 4.0880 1.6103 -0.0508
v 4.0778 1.5681 0.0000
v 4.0674 1.5681 0.0389
v 4.0389 1.5681 0.0674
v 4.0000 1.5681 0.0778
v 3.9611 1.5681 0.0674
v 3.9326 1.5681 0.0389
v 3.9222 1.5681 0.0000
v 3.9326 1.5681 -0.0389
v 3.9611 1.5681 -0.0674
v 4.0000 1.5681 -0.0778
v 4.0389 1.5681 -0.0674
v 4.0674 1.5681 -0.0389
v 4.0421 1.5399 0.0000
v 4.0365 1.5399 0.0210
v 4.0210 1.5399 0.0365
v 4.0000 1.5399 0.0421
v 3.9790 1.5399 0.0365
v 3.9635 1.5399 0.0210
v 3.9579 1.5399 0.0000
v 3.9635 1.5399 -0.0210
v 3.9790 1.5399 -0.0365
v 4.0000 1.5399 -0.0421
v 4.0210 1.5399 -0.0365
v 4.0365 1.5399 -0.0210
v 4.0000 1.5300 0.0000
v 4.0000 1.5300 0.0000
v 4.0000 1.5300 0.0000
v 4.0000 1.5300 0.0000
v 4.0000 1.5300 0.0000
v 4.0000 1.5300 0.0000
v 4.0000 1.5300 0.0000
v 4.0000 1.5300 -0.0000
v 4.0000 1.5300 -0.0000
v 4.0000 1.5300 -0.0000
v 4.0000 1.5300 -0.0000
v 4.0000 1.5300 -0.0000
g heatshield
usemtl tile
f 2 41 42
f 3 42 43
f 4 43 44
f 5 44 45
f 6 45 46
f 7 46 47
f 8 47 48
f 9 48 49
f 10 49 50
f 11 50 51
f 12 51 52
f 13 52 53
f 14 53 54
f 15 54 55
f 16 55 56
f 17 56 57
f 18 57 58
f 19 58 59
f 20 59 60
f 21 60 61
f 22 61 62
f 23 62 63
f 24 63 64
f 25 64 65
f 26 65 66
f 27 66 67
f 28 67 68
f 29 68 69
f 30 69 70
f 31 70 71
f 32 71 72
f 33 72 73
f 34 73 74
f 35 74 75
f 36 75 76
f 37 76 77
f 38 77 78
f 39 78 79
f 40 79 80
f 1 80 41
f 41 81 42
f 42 81 82
f 42 82 43
f 43 82 83
f 43 83 44
f 44 83 84
f 44 84 45
f 45 84 85
f 45 85 46
f 46 85 86
f 46 86 47
f 47 86 87
f 47 87 48
f 48 87 88
f 48 88 49
f 49 88 89
f 49 89 50
f 50 89 90
f 50 90 51
f 51 90 91
f 51 91 52
f 52 91 92
f 52 92 53
f 53 92 93
f 53 93 54
f 54 93 94
f 54 94 55
f 55 94 95
f 55 95 56
f 56 95 96
f 56 96 57
f 57 96 97
f 57 97 58
f 58 97 98
f 58 98 59
f 59 98 99
f 59 99 60
f 60 99 100
f 60 100 61
f 61 100 101
f 61 101 62
f 62 101 102
f 62 102 63
f 63 102 103
f 63 103 64
f 64 103 104
f 64 104 65
f 65 104 105
f 65 105 66
f 66 105 106
f 66 106 67
f 67 106 107
f 67 107 68
f 68 107 108
f 68 108 69
f 69 108 109
f 69 109 70
f 70 109 110
f 70 110 71
f 71 110 111
f 71 111 72
f 72 111 112
f 72 112 73
f 73 112 113
f 73 113 74
f 74 113 114
f 74 114 75
f 75 114 115
f 75 115 76
f 76 115 116
f 76 116 77
f 77 116 117
f 77 117 78
f 78 117 118
f 78 118 79
f 79 118 119
f 79 119 80
f 80 119 120
f 80 120 41
f 41 120 81
f 81 121 82
f 82 121 122
f 82 122 83
f 83 122 123
f 83 123 84
f 84 123 124
f 84 124 85
f 85 124 125
f 85 125 86
f 86 125 126
f 86 126 87
f 87 126 127
f 87 127 88
f 88 127 128
f 88 128 89
f 89 128 129
f 89 129 90
f 90 129 130
f 90 130 91
f 91 130 131
f 91 131 92
f 92 131 132
f 92 132 93
f 93 132 133
f 93 133 94
f 94 133 134
f 94 134 95
f 95 134 135
f 95 135 96
f 96 135 136
f 96 136 97
f 97 136 137
f 97 137 98
f 98 137 138
f 98 138 99
f 99 138 139
f 99 139 100
f 100 139 140
f 100 140 101
f 101 140 141
f 101 141 102
f 102 141 142
f 102 142 103
f 103 142 143
f 103 143 104
f 104 143 144
f 104 144 105
f 105 144 145
f 105 145 106
f 106 145 146
f 106 146 107
f 107 146 147
f 107 147 108
f 108 147 148
f 108 148 109
f 109 148 149
f 109 149 110
f 110 149 150
f 110 150 111
f 111 150 151
f 111 151 112
f 112 151 152
f 112 152 113
f 113 152 153
f 113 153 114
f 114 153 154
f 114 154 115
f 115 154 155
f 115 155 116
f 116 155 156
f 116 156 117
f 117 156 157
f 117 157 118
f 118 157 158
f 118 158 119
f 119 158 159
f 119 159 120
f 120 159 160
f 120 160 81
f 81 160 121
f 121 161 122
f 122 161 162
f 122 162 123
f 123 162 163
f 123 163 124
f 124 163 164
f 124 164 125
f 125 164 165
f 125 165 126
f 126 165 166
f 126 166 127
f 127 166 167
f 127 167 128
f 128 167 168
f 128 168 129
f 129 168 169
f 129 169 130
f 130 169 170
f 130 170 131
f 131 170 171
f 131 171 132
f 132 171 172
f 132 172 133
f 133 172 173
f 133 173 134
f 134 173 174
f 134 174 135
f 135 174 175
f 135 175 136
f 136 175 176
f 136 176 137
f 137 176 177
f 137 177 138
f 138 177 178
f 138 178 139
f 139 178 179
f 139 179 140
f 140 179 180
f 140 180 141
f 141 180 181
f 141 181 142
f 142 181 182
f 142 182 143
f 143 182 183
f 143 183 144
f 144 183 184
f 144 184 145
f 145 184 185
f 145 185 146
f 146 185 186
f 146 186 147
f 147 186 187
f 147 187 148
f 148 187 188
f 148 188 149
f 149 188 189
f 149 189 150
f 150 189 190
f 150 190 151
f 151 190 191
f 151 191 152
f 152 191 192
f 152 192 153
f 153 192 193
f 153 193 154
f 154 193 194
f 154 194 155
f 155 194 195
f 155 195 156
f 156 195 196
f 156 196 157
f 157 196 197
f 157 197 158
f 158 197 198
f 158 198 159
f 159 198 199
f 159 199 160
f 160 199 200
f 160 200 121
f 121 200 161
f 161 201 162
f 162 201 202
f 162 202 163
f 163 202 203
f 163 203 164
f 164 203 204
f 164 204 165
f 165 204 205
f 165 205 166
f 166 205 206
f 166 206 167
f 167 206 207
f 167 207 168
f 168 207 208
f 168 208 169
f 169 208 209
f 169 209 170
f 170 209 210
f 170 210 171
f 171 210 211
f 171 211 172
f 172 211 212
f 172 212 173
f 173 212 213
f 173 213 174
f 174 213 214
f 174 214 175
f 175 214 215
f 175 215 176
f 176 215 216
f 176 216 177
f 177 216 217
f 177 217 178
f 178 217 218
f 178 218 179
f 179 218 219
f 179 219 180
f 180 219 220
f 180 220 181
f 181 220 221
f 181 221 182
f 182 221 222
f 182 222 183
f 183 222 223
f 183 223 184
f 184 223 224
f 184 224 185
f 185 224 225
f 185 225 186
f 186 225 226
f 186 226 187
f 187 226 227
f 187 227 188
f 188 227 228
f 188 228 189
f 189 228 229
f 189 229 190
f 190 229 230
f 190 230 191
f 191 230 231
f 191 231 192
f 192 231 232
f 192 232 193
f 193 232 233
f 193 233 194
f 194 233 234
f 194 234 195
f 195 234 235
f 195 235 196
f 196 235 236
f 196 236 197
f 197 236 237
f 197 237 198
f 198 237 238
f 198 238 199
f 199 238 239
f 199 239 200
f 200 239 240
f 200 240 161
f 161 240 201
f 201 241 202
f 202 241 242
f 202 242 203
f 203 242 243
f 203 243 204
f 204 243 244
f 204 244 205
f 205 244 245
f 205 245 206
f 206 245 246
f 206 246 207
f 207 246 247
f 207 247 208
f 208 247 248
f 208 248 209
f 209 248 249
f 209 249 210
f 210 249 250
f 210 250 211
f 211 250 251
f 211 251 212
f 212 251 252
f 212 252 213
f 213 252 253
f 213 253 214
f 214 253 254
f 214 254 215
f 215 254 255
f 215 255 216
f 216 255 256
f 216 256 217
f 217 256 257
f 217 257 218
f 218 257 258
f 218 258 219
f 219 258 259
f 219 259 220
f 220 259 260
f 220 260 221
f 221 260 261
f 221 261 222
f 222 261 262
f 222 262 223
f 223 262 263
f 223 263 224
f 224 263 264
f 224 264 225
f 225 264 265
f 225 265 226
f 226 265 266
f 226 266 227
f 227 266 267
f 227 267 228
f 228 267 268
f 228 268 229
f 229 268 269
f 229 269 230
f 230 269 270
f 230 270 231
f 231 270 271
f 231 271 232
f 232 271 272
f 232 272 233
f 233 272 273
f 233 273 234
f 234 273 274
f 234 274 235
f 235 274 275
f 235 275 236
f 236 275 276
f 236 276 237
f 237 276 277
f 237 277 238
f 238 277 278
f 238 278 239
f 239 278 279
f 239 279 240
f 240 279 280
f 240 280 201
f 201 280 241
f 241 281 242
f 242 281 282
f 242 282 243
f 243 282 283
f 243 283 244
f 244 283 284
f 244 284 245
f 245 284 285
f 245 285 246
f 246 285 286
f 246 286 247
f 247 286 287
f 247 287 248
f 248 287 288
f 248 288 249
f 249 288 289
f 249 289 250
f 250 289 290
f 250 290 251
f 251 290 291
f 251 291 252
f 252 291 292
f 252 292 253
f 253 292 293
f 253 293 254
f 254 293 294
f 254 294 255
f 255 294 295
f 255 295 256
f 256 295 296
f 256 296 257
f 257 296 297
f 257 297 258
f 258 297 298
f 258 298 259
f 259 298 299
f 259 299 260
f 260 299 300
f 260 300 261
f 261 300 301
f 261 301 262
f 262 301 302
f 262 302 263
f 263 302 303
f 263 303 264
f 264 303 304
f 264 304 265
f 265 304 305
f 265 305 266
f 266 305 306
f 266 306 267
f 267 306 307
f 267 307 268
f 268 307 308
f 268 308 269
f 269 308 309
f 269 309 270
f 270 309 310
f 270 310 271
f 271 310 311
f 271 311 272
f 272 311 312
f 272 312 273
f 273 312 313
f 273 313 274
f 274 313 314
f 274 314 275
f 275 314 315
f 275 315 276
f 276 315 316
f 276 316 277
f 277 316 317
f 277 317 278
f 278 317 318
f 278 318 279
f 279 318 319
f 279 319 280
f 280 319 320
f 280 320 241
f 241 320 281
f 281 321 282
f 282 322 283
f 283 323 284
f 284 324 285
f 285 325 286
f 286 326 287
f 287 327 288
f 288 328 289
f 289 329 290
f 290 330 291
f 291 331 292
f 292 332 293
f 293 333 294
f 294 334 295
f 295 335 296
f 296 336 297
f 297 337 298
f 298 338 299
f 299 339 300
f 300 340 301
f 301 341 302
f 302 342 303
f 303 343 304
f 304 344 305
f 305 345 306
f 306 346 307
f 307 347 308
f 308 348 309
f 309 349 310
f 310 350 311
f 311 351 312
f 312 352 313
f 313 353 314
f 314 354 315
f 315 355 316
f 316 356 317
f 317 357 318
f 318 358 319
f 319 359 320
f 320 360 281
g capsule
usemtl crew
f 361 362 401
f 362 402 401
f 362 363 402
f 363 403 402
f 363 364 403
f 364 404 403
f 364 365 404
f 365 405 404
f 365 366 405
f 366 406 405
f 366 367 406
f 367 407 406
f 367 368 407
f 368 408 407
f 368 369 408
f 369 409 408
f 369 370 409
f 370 410 409
f 370 371 410
f 371 411 410
f 371 372 411
f 372 412 411
f 372 373 412
f 373 413 412
f 373 374 413
f 374 414 413
f 374 375 414
f 375 415 414
f 375 376 415
f 376 416 415
f 376 377 416
f 377 417 416
f 377 378 417
f 378 418 417
f 378 379 418
f 379 419 418
f 379 380 419
f 380 420 419
f 380 381 420
f 381 421 420
f 381 382 421
f 382 422 421
f 382 383 422
f 383 423 422
f 383 384 423
f 384 424 423
f 384 385 424
f 385 425 424
f 385 386 425
f 386 426 425
f 386 387 426
f 387 427 426
f 387 388 427
f 388 428 427
f 388 389 428
f 389 429 428
f 389 390 429
f 390 430 429
f 390 391 430
f 391 431 430
f 391 392 431
f 392 432 431
f 392 393 432
f 393 433 432
f 393 394 433
f 394 434 433
f 394 395 434
f 395 435 434
f 395 396 435
f 396 436 435
f 396 397 436
f 397 437 436
f 397 398 437
f 398 438 437
f 398 399 438
f 399 439 438
f 399 400 439
f 400 440 439
f 400 361 440
f 361 401 440
f 441 362 361
f 442 401 402
f 441 363 362
f 442 402 403
f 441 364 363
f 442 403 404
f 441 365 364
f 442 404 405
f 441 366 365
f 442 405 406
f 441 367 366
f 442 406 407
f 441 368 367
f 442 407 408
f 441 369 368
f 442 408 409
f 441 370 369
f 442 409 410
f 441 371 370
f 442 410 411
f 441 372 371
f 442 411 412
f 441 373 372
f 442 412 413
f 441 374 373
f 442 413 414
f 441 375 374
f 442 414 415
f 441 376 375
f 442 415 416
f 441 377 376
f 442 416 417
f 441 378 377
f 442 417 418
f 441 379 378
f 442 418 419
f 441 380 379
f 442 419 420
f 441 381 380
f 442 420 421
f 441 382 381
f 442 421 422
f 441 383 382
f 442 422 423
f 441 384 383
f 442 423 424
f 441 385 384
f 442 424 425
f 441 386 385
f 442 425 426
f 441 387 386
f 442 426 427
f 441 388 387
f 442 427 428
f 441 389 388
f 442 428 429
f 441 390 389
f 442 429 430
f 441 391 390
f 442 430 431
f 441 392 391
f 442 431 432
f 441 393 392
f 442 432 433
f 441 394 393
f 442 433 434
f 441 395 394
f 442 434 435
f 441 396 395
f 442 435 436
f 441 397 396
f 442 436 437
f 441 398 397
f 442 437 438
f 441 399 398
f 442 438 439
f 441 400 399
f 442 439 440
f 441 361 400
f 442 440 401
g docking_ring
usemtl truss
f 443 444 467
f 444 468 467
f 444 445 468
f 445 469 468
f 445 446 469
f 446 470 469
f 446 447 470
f 447 471 470
f 447 448 471
f 448 472 471
f 448 449 472
f 449 473 472
f 449 450 473
f 450 474 473
f 450 451 474
f 451 475 474
f 451 452 475
f 452 476 475
f 452 453 476
f 453 477 476
f 453 454 477
f 454 478 477
f 454 455 478
f 455 479 478
f 455 456 479
f 456 480 479
f 456 457 480
f 457 481 480
f 457 458 481
f 458 482 481
f 458 459 482
f 459 483 482
f 459 460 483
f 460 484 483
f 460 461 484
f 461 485 484
f 461 462 485
f 462 486 485
f 462 463 486
f 463 487 486
f 463 464 487
f 464 488 487
f 464 465 488
f 465 489 488
f 465 466 489
f 466 490 489
f 466 443 490
f 443 467 490
f 491 444 443
f 492 467 468
f 491 445 444
f 492 468 469
f 491 446 445
f 492 469 470
f 491 447 446
f 492 470 471
f 491 448 447
f 492 471 472
f 491 449 448
f 492 472 473
f 491 450 449
f 492 473 474
f 491 451 450
f 492 474 475
f 491 452 451
f 492 475 476
f 491 453 452
f 492 476 477
f 491 454 453
f 492 477 478
f 491 455 454
f 492 478 479
f 491 456 455
f 492 479 480
f 491 457 456
f 492 480 481
f 491 458 457
f 492 481 482
f 491 459 458
f 492 482 483
f 491 460 459
f 492 483 484
f 491 461 460
f 492 484 485
f 491 462 461
f 492 485 486
f 491 463 462
f 492 486 487
f 491 464 463
f 492 487 488
f 491 465 464
f 492 488 489
f 491 466 465
f 492 489 490
f 491 443 466
f 492 490 467
g windows
usemtl gondola
f 493 495 496
f 493 496 494
f 497 498 500
f 497 500 499
f 493 494 498
f 493 498 497
f 495 499 500
f 495 500 496
f 493 497 499
f 493 499 495
f 494 496 500
f 494 500 498
f 501 503 504
f 501 504 502
f 505 506 508
f 505 508 507
f 501 502 506
f 501 506 505
f 503 507 508
f 503 508 504
f 501 505 507
f 501 507 503
f 502 504 508
f 502 508 506
f 509 511 512
f 509 512 510
f 513 514 516
f 513 516 515
f 509 510 514
f 509 514 513
f 511 515 516
f 511 516 512
f 509 513 515
f 509 515 511
f 510 512 516
f 510 516 514
f 517 519 520
f 517 520 518
f 521 522 524
f 521 524 523
f 517 518 522
f 517 522 521
f 519 523 524
f 519 524 520
f 517 521 523
f 517 523 519
f 518 520 524
f 518 524 522
g person
usemtl human
f 525 526 535
f 526 536 535
f 526 527 536
f 527 537 536
f 527 528 537
f 528 538 537
f 528 529 538
f 529 539 538
f 529 530 539
f 530 540 539
f 530 531 540
f 531 541 540
f 531 532 541
f 532 542 541
f 532 533 542
f 533 543 542
f 533 534 543
f 534 544 543
f 534 525 544
f 525 535 544
f 545 526 525
f 546 535 536
f 545 527 526
f 546 536 537
f 545 528 527
f 546 537 538
f 545 529 528
f 546 538 539
f 545 530 529
f 546 539 540
f 545 531 530
f 546 540 541
f 545 532 531
f 546 541 542
f 545 533 532
f 546 542 543
f 545 534 533
f 546 543 544
f 545 525 534
f 546 544 535
f 547 548 557
f 548 558 557
f 548 549 558
f 549 559 558
f 549 550 559
f 550 560 559
f 550 551 560
f 551 561 560
f 551 552 561
f 552 562 561
f 552 553 562
f 553 563 562
f 553 554 563
f 554 564 563
f 554 555 564
f 555 565 564
f 555 556 565
f 556 566 565
f 556 547 566
f 547 557 566
f 567 548 547
f 568 557 558
f 567 549 548
f 568 558 559
f 567 550 549
f 568 559 560
f 567 551 550
f 568 560 561
f 567 552 551
f 568 561 562
f 567 553 552
f 568 562 563
f 567 554 553
f 568 563 564
f 567 555 554
f 568 564 565
f 567 556 555
f 568 565 566
f 567 547 556
f 568 566 557
f 569 570 581
f 570 582 581
f 570 571 582
f 571 583 582
f 571 572 583
f 572 584 583
f 572 573 584
f 573 585 584
f 573 574 585
f 574 586 585
f 574 575 586
f 575 587 586
f 575 576 587
f 576 588 587
f 576 577 588
f 577 589 588
f 577 578 589
f 578 590 589
f 578 579 590
f 579 591 590
f 579 580 591
f 580 592 591
f 580 569 592
f 569 581 592
f 593 570 569
f 594 581 582
f 593 571 570
f 594 582 583
f 593 572 571
f 594 583 584
f 593 573 572
f 594 584 585
f 593 574 573
f 594 585 586
f 593 575 574
f 594 586 587
f 593 576 575
f 594 587 588
f 593 577 576
f 594 588 589
f 593 578 577
f 594 589 590
f 593 579 578
f 594 590 591
f 593 580 579
f 594 591 592
f 593 569 580
f 594 592 581
f 596 607 608
f 597 608 609
f 598 609 610
f 599 610 611
f 600 611 612
f 601 612 613
f 602 613 614
f 603 614 615
f 604 615 616
f 605 616 617
f 606 617 618
f 595 618 607
f 607 619 608
f 608 619 620
f 608 620 609
f 609 620 621
f 609 621 610
f 610 621 622
f 610 622 611
f 611 622 623
f 611 623 612
f 612 623 624
f 612 624 613
f 613 624 625
f 613 625 614
f 614 625 626
f 614 626 615
f 615 626 627
f 615 627 616
f 616 627 628
f 616 628 617
f 617 628 629
f 617 629 618
f 618 629 630
f 618 630 607
f 607 630 619
f 619 631 620
f 620 631 632
f 620 632 621
f 621 632 633
f 621 633 622
f 622 633 634
f 622 634 623
f 623 634 635
f 623 635 624
f 624 635 636
f 624 636 625
f 625 636 637
f 625 637 626
f 626 637 638
f 626 638 627
f 627 638 639
f 627 639 628
f 628 639 640
f 628 640 629
f 629 640 641
f 629 641 630
f 630 641 642
f 630 642 619
f 619 642 631
f 631 643 632
f 632 643 644
f 632 644 633
f 633 644 645
f 633 645 634
f 634 645 646
f 634 646 635
f 635 646 647
f 635 647 636
f 636 647 648
f 636 648 637
f 637 648 649
f 637 649 638
f 638 649 650
f 638 650 639
f 639 650 651
f 639 651 640
f 640 651 652
f 640 652 641
f 641 652 653
f 641 653 642
f 642 653 654
f 642 654 631
f 631 654 643
f 643 655 644
f 644 655 656
f 644 656 645
f 645 656 657
f 645 657 646
f 646 657 658
f 646 658 647
f 647 658 659
f 647 659 648
f 648 659 660
f 648 660 649
f 649 660 661
f 649 661 650
f 650 661 662
f 650 662 651
f 651 662 663
f 651 663 652
f 652 663 664
f 652 664 653
f 653 664 665
f 653 665 654
f 654 665 666
f 654 666 643
f 643 666 655
f 655 667 656
f 656 667 668
f 656 668 657
f 657 668 669
f 657 669 658
f 658 669 670
f 658 670 659
f 659 670 671
f 659 671 660
f 660 671 672
f 660 672 661
f 661 672 673
f 661 673 662
f 662 673 674
f 662 674 663
f 663 674 675
f 663 675 664
f 664 675 676
f 664 676 665
f 665 676 677
f 665 677 666
f 666 677 678
f 666 678 655
f 655 678 667
f 667 679 668
f 668 679 680
f 668 680 669
f 669 680 681
f 669 681 670
f 670 681 682
f 670 682 671
f 671 682 683
f 671 683 672
f 672 683 684
f 672 684 673
f 673 684 685
f 673 685 674
f 674 685 686
f 674 686 675
f 675 686 687
f 675 687 676
f 676 687 688
f 676 688 677
f 677 688 689
f 677 689 678
f 678 689 690
f 678 690 667
f 667 690 679
f 679 691 680
f 680 692 681
f 681 693 682
f 682 694 683
f 683 695 684
f 684 696 685
f 685 697 686
f 686 698 687
f 687 699 688
f 688 700 689
f 689 701 690
f 690 702 679
