# starship — generated by scripts/build_models.py from the Project Phosphorus plan
# units: meters, Y up
mtllib starship.mtl
o starship
v 0.0000 0.0000 -4.5000
v -0.7040 0.0000 -4.4446
v -1.3906 0.0000 -4.2798
v -2.0430 0.0000 -4.0095
v -2.6450 0.0000 -3.6406
v -3.1820 0.0000 -3.1820
v -3.6406 0.0000 -2.6450
v -4.0095 0.0000 -2.0430
v -4.2798 0.0000 -1.3906
v -4.4446 0.0000 -0.7040
v -4.5000 0.0000 -0.0000
v -4.4446 0.0000 0.7040
v -4.2798 0.0000 1.3906
v -4.0095 0.0000 2.0430
v -3.6406 0.0000 2.6450
v -3.1820 0.0000 3.1820
v -2.6450 0.0000 3.6406
v -2.0430 0.0000 4.0095
v -1.3906 0.0000 4.2798
v -0.7040 0.0000 4.4446
v -0.0000 0.0000 4.5000
v 0.7040 0.0000 4.4446
v 1.3906 0.0000 4.2798
v 2.0430 0.0000 4.0095
v 2.6450 0.0000 3.6406
v 3.1820 0.0000 3.1820
v 3.6406 0.0000 2.6450
v 4.0095 0.0000 2.0430
v 4.2798 0.0000 1.3906
v 4.4446 0.0000 0.7040
v 4.5000 0.0000 0.0000
v 4.4446 0.0000 -0.7040
v 4.2798 0.0000 -1.3906
v 4.0095 0.0000 -2.0430
v 3.6406 0.0000 -2.6450
v 3.1820 0.0000 -3.1820
v 2.6450 0.0000 -3.6406
v 2.0430 0.0000 -4.0095
v 1.3906 0.0000 -4.2798
v 0.7040 0.0000 -4.4446
v 0.0000 71.0000 -4.5000
v -0.7040 71.0000 -4.4446
v -1.3906 71.0000 -4.2798
v -2.0430 71.0000 -4.0095
v -2.6450 71.0000 -3.6406
v -3.1820 71.0000 -3.1820
v -3.6406 71.0000 -2.6450
v -4.0095 71.0000 -2.0430
v -4.2798 71.0000 -1.3906
v -4.4446 71.0000 -0.7040
v -4.5000 71.0000 -0.0000
v -4.4446 71.0000 0.7040
v -4.2798 71.0000 1.3906
v -4.0095 71.0000 2.0430
v -3.6406 71.0000 2.6450
v -3.1820 71.0000 3.1820
v -2.6450 71.0000 3.6406
v -2.0430 71.0000 4.0095
v -1.3906 71.0000 4.2798
v -0.7040 71.0000 4.4446
v -0.0000 71.0000 4.5000
v 0.7040 71.0000 4.4446
v 1.3906 71.0000 4.2798
v 2.0430 71.0000 4.0095
v 2.6450 71.0000 3.6406
v 3.1820 71.0000 3.1820
v 3.6406 71.0000 2.6450
v 4.0095 71.0000 2.0430
v 4.2798 71.0000 1.3906
v 4.4446 71.0000 0.7040
v 4.5000 71.0000 0.0000
v 4.4446 71.0000 -0.7040
v 4.2798 71.0000 -1.3906
v 4.0095 71.0000 -2.0430
v 3.6406 71.0000 -2.6450
v 3.1820 71.0000 -3.1820
v 2.6450 71.0000 -3.6406
v 2.0430 71.0000 -4.0095
v 1.3906 71.0000 -4.2798
v 0.7040 71.0000 -4.4446
v 0.0000 0.0000 0.0000
v 0.0000 71.0000 0.0000
v 0.0000 71.0000 -4.5000
v -0.7040 71.0000 -4.4446
v -1.3906 71.0000 -4.2798
v -2.0430 71.0000 -4.0095
v -2.6450 71.0000 -3.6406
v -3.1820 71.0000 -3.1820
v -3.6406 71.0000 -2.6450
v -4.0095 71.0000 -2.0430
v -4.2798 71.0000 -1.3906
v -4.4446 71.0000 -0.7040
v -4.5000 71.0000 -0.0000
v -4.4446 71.0000 0.7040
v -4.2798 71.0000 1.3906
v -4.0095 71.0000 2.0430
v -3.6406 71.0000 2.6450
v -3.1820 71.0000 3.1820
v -2.6450 71.0000 3.6406
v -2.0430 71.0000 4.0095
v -1.3906 71.0000 4.2798
v -0.7040 71.0000 4.4446
v -0.0000 71.0000 4.5000
v 0.7040 71.0000 4.4446
v 1.3906 71.0000 4.2798
v 2.0430 71.0000 4.0095
v 2.6450 71.0000 3.6406
v 3.1820 71.0000 3.1820
v 3.6406 71.0000 2.6450
v 4.0095 71.0000 2.0430
v 4.2798 71.0000 1.3906
v 4.4446 71.0000 0.7040
v 4.5000 71.0000 0.0000
v 4.4446 71.0000 -0.7040
v 4.2798 71.0000 -1.3906
v 4.0095 71.0000 -2.0430
v 3.6406 71.0000 -2.6450
v 3.1820 71.0000 -3.1820
v 2.6450 71.0000 -3.6406
v 2.0430 71.0000 -4.0095
v 1.3906 71.0000 -4.2798
v 0.7040 71.0000 -4.4446
v 0.0000 72.8000 -4.5000
v -0.7040 72.8000 -4.4446
v -1.3906 72.8000 -4.2798
v -2.0430 72.8000 -4.0095
v -2.6450 72.8000 -3.6406
v -3.1820 72.8000 -3.1820
v -3.6406 72.8000 -2.6450
v -4.0095 72.8000 -2.0430
v -4.2798 72.8000 -1.3906
v -4.4446 72.8000 -0.7040
v -4.5000 72.8000 -0.0000
v -4.4446 72.8000 0.7040
v -4.2798 72.8000 1.3906
v -4.0095 72.8000 2.0430
v -3.6406 72.8000 2.6450
v -3.1820 72.8000 3.1820
v -2.6450 72.8000 3.6406
v -2.0430 72.8000 4.0095
v -1.3906 72.8000 4.2798
v -0.7040 72.8000 4.4446
v -0.0000 72.8000 4.5000
v 0.7040 72.8000 4.4446
v 1.3906 72.8000 4.2798
v 2.0430 72.8000 4.0095
v 2.6450 72.8000 3.6406
v 3.1820 72.8000 3.1820
v 3.6406 72.8000 2.6450
v 4.0095 72.8000 2.0430
v 4.2798 72.8000 1.3906
v 4.4446 72.8000 0.7040
v 4.5000 72.8000 0.0000
v 4.4446 72.8000 -0.7040
v 4.2798 72.8000 -1.3906
v 4.0095 72.8000 -2.0430
v 3.6406 72.8000 -2.6450
v 3.1820 72.8000 -3.1820
v 2.6450 72.8000 -3.6406
v 2.0430 72.8000 -4.0095
v 1.3906 72.8000 -4.2798
v 0.7040 72.8000 -4.4446
v 0.0000 71.0000 0.0000
v 0.0000 72.8000 0.0000
v 4.5000 65.9000 -0.1500
v 4.5000 65.9000 0.1500
v 4.5000 69.1000 -0.1500
v 4.5000 69.1000 0.1500
v 6.5000 65.9000 -0.1500
v 6.5000 65.9000 0.1500
v 6.5000 69.1000 -0.1500
v 6.5000 69.1000 0.1500
v -6.5000 65.9000 -0.1500
v -6.5000 65.9000 0.1500
v -6.5000 69.1000 -0.1500
v -6.5000 69.1000 0.1500
v -4.5000 65.9000 -0.1500
v -4.5000 65.9000 0.1500
v -4.5000 69.1000 -0.1500
v -4.5000 69.1000 0.1500
v -0.1500 65.9000 4.5000
v -0.1500 65.9000 6.5000
v -0.1500 69.1000 4.5000
v -0.1500 69.1000 6.5000
v 0.1500 65.9000 4.5000
v 0.1500 65.9000 6.5000
v 0.1500 69.1000 4.5000
v 0.1500 69.1000 6.5000
v -0.1500 65.9000 -6.5000
v -0.1500 65.9000 -4.5000
v -0.1500 69.1000 -6.5000
v -0.1500 69.1000 -4.5000
v 0.1500 65.9000 -6.5000
v 0.1500 65.9000 -4.5000
v 0.1500 69.1000 -6.5000
v 0.1500 69.1000 -4.5000
v 1.2500 0.0000 0.4200
v 1.0031 0.0000 0.3398
v 0.8506 0.0000 0.1298
v 0.8506 0.0000 -0.1298
v 1.0031 0.0000 -0.3398
v 1.2500 0.0000 -0.4200
v 1.4969 0.0000 -0.3398
v 1.6494 0.0000 -0.1298
v 1.6494 0.0000 0.1298
v 1.4969 0.0000 0.3398
v 1.2500 -1.8000 0.6200
v 0.8856 -1.8000 0.5016
v 0.6603 -1.8000 0.1916
v 0.6603 -1.8000 -0.1916
v 0.8856 -1.8000 -0.5016
v 1.2500 -1.8000 -0.6200
v 1.6144 -1.8000 -0.5016
v 1.8397 -1.8000 -0.1916
v 1.8397 -1.8000 0.1916
v 1.6144 -1.8000 0.5016
v 1.2500 0.0000 0.0000
v 1.2500 -1.8000 0.0000
v -0.6250 0.0000 1.5025
v -0.8719 0.0000 1.4223
v -1.0244 0.0000 1.2123
v -1.0244 0.0000 0.9527
v -0.8719 0.0000 0.7427
v -0.6250 0.0000 0.6625
v -0.3781 0.0000 0.7427
v -0.2256 0.0000 0.9527
v -0.2256 0.0000 1.2123
v -0.3781 0.0000 1.4223
v -0.6250 -1.8000 1.7025
v -0.9894 -1.8000 1.5841
v -1.2147 -1.8000 1.2741
v -1.2147 -1.8000 0.8909
v -0.9894 -1.8000 0.5809
v -0.6250 -1.8000 0.4625
v -0.2606 -1.8000 0.5809
v -0.0353 -1.8000 0.8909
v -0.0353 -1.8000 1.2741
v -0.2606 -1.8000 1.5841
v -0.6250 0.0000 1.0825
v -0.6250 -1.8000 1.0825
v -0.6250 0.0000 -0.6625
v -0.8719 0.0000 -0.7427
v -1.0244 0.0000 -0.9527
v -1.0244 0.0000 -1.2123
v -0.8719 0.0000 -1.4223
v -0.6250 0.0000 -1.5025
v -0.3781 0.0000 -1.4223
v -0.2256 0.0000 -1.2123
v -0.2256 0.0000 -0.9527
v -0.3781 0.0000 -0.7427
v -0.6250 -1.8000 -0.4625
v -0.9894 -1.8000 -0.5809
v -1.2147 -1.8000 -0.8909
v -1.2147 -1.8000 -1.2741
v -0.9894 -1.8000 -1.5841
v -0.6250 -1.8000 -1.7025
v -0.2606 -1.8000 -1.5841
v -0.0353 -1.8000 -1.2741
v -0.0353 -1.8000 -0.8909
v -0.2606 -1.8000 -0.5809
v -0.6250 0.0000 -1.0825
v -0.6250 -1.8000 -1.0825
v 2.6500 0.0000 0.4200
v 2.4031 0.0000 0.3398
v 2.2506 0.0000 0.1298
v 2.2506 0.0000 -0.1298
v 2.4031 0.0000 -0.3398
v 2.6500 0.0000 -0.4200
v 2.8969 0.0000 -0.3398
v 3.0494 0.0000 -0.1298
v 3.0494 0.0000 0.1298
v 2.8969 0.0000 0.3398
v 2.6500 -1.8000 0.6200
v 2.2856 -1.8000 0.5016
v 2.0603 -1.8000 0.1916
v 2.0603 -1.8000 -0.1916
v 2.2856 -1.8000 -0.5016
v 2.6500 -1.8000 -0.6200
v 3.0144 -1.8000 -0.5016
v 3.2397 -1.8000 -0.1916
v 3.2397 -1.8000 0.1916
v 3.0144 -1.8000 0.5016
v 2.6500 0.0000 0.0000
v 2.6500 -1.8000 0.0000
v 2.1439 0.0000 1.9776
v 1.8970 0.0000 1.8974
v 1.7445 0.0000 1.6874
v 1.7445 0.0000 1.4278
v 1.8970 0.0000 1.2178
v 2.1439 0.0000 1.1376
v 2.3908 0.0000 1.2178
v 2.5433 0.0000 1.4278
v 2.5433 0.0000 1.6874
v 2.3908 0.0000 1.8974
v 2.1439 -1.8000 2.1776
v 1.7795 -1.8000 2.0592
v 1.5542 -1.8000 1.7492
v 1.5542 -1.8000 1.3660
v 1.7795 -1.8000 1.0560
v 2.1439 -1.8000 0.9376
v 2.5083 -1.8000 1.0560
v 2.7336 -1.8000 1.3660
v 2.7336 -1.8000 1.7492
v 2.5083 -1.8000 2.0592
v 2.1439 0.0000 1.5576
v 2.1439 -1.8000 1.5576
v 0.8189 0.0000 2.9403
v 0.5720 0.0000 2.8601
v 0.4195 0.0000 2.6501
v 0.4195 0.0000 2.3905
v 0.5720 0.0000 2.1805
v 0.8189 0.0000 2.1003
v 1.0658 0.0000 2.1805
v 1.2183 0.0000 2.3905
v 1.2183 0.0000 2.6501
v 1.0658 0.0000 2.8601
v 0.8189 -1.8000 3.1403
v 0.4545 -1.8000 3.0219
v 0.2292 -1.8000 2.7119
v 0.2292 -1.8000 2.3287
v 0.4545 -1.8000 2.0187
v 0.8189 -1.8000 1.9003
v 1.1833 -1.8000 2.0187
v 1.4086 -1.8000 2.3287
v 1.4086 -1.8000 2.7119
v 1.1833 -1.8000 3.0219
v 0.8189 0.0000 2.5203
v 0.8189 -1.8000 2.5203
v -0.8189 0.0000 2.9403
v -1.0658 0.0000 2.8601
v -1.2183 0.0000 2.6501
v -1.2183 0.0000 2.3905
v -1.0658 0.0000 2.1805
v -0.8189 0.0000 2.1003
v -0.5720 0.0000 2.1805
v -0.4195 0.0000 2.3905
v -0.4195 0.0000 2.6501
v -0.5720 0.0000 2.8601
v -0.8189 -1.8000 3.1403
v -1.1833 -1.8000 3.0219
v -1.4086 -1.8000 2.7119
v -1.4086 -1.8000 2.3287
v -1.1833 -1.8000 2.0187
v -0.8189 -1.8000 1.9003
v -0.4545 -1.8000 2.0187
v -0.2292 -1.8000 2.3287
v -0.2292 -1.8000 2.7119
v -0.4545 -1.8000 3.0219
v -0.8189 0.0000 2.5203
v -0.8189 -1.8000 2.5203
v -2.1439 0.0000 1.9776
v -2.3908 0.0000 1.8974
v -2.5433 0.0000 1.6874
v -2.5433 0.0000 1.4278
v -2.3908 0.0000 1.2178
v -2.1439 0.0000 1.1376
v -1.8970 0.0000 1.2178
v -1.7445 0.0000 1.4278
v -1.7445 0.0000 1.6874
v -1.8970 0.0000 1.8974
v -2.1439 -1.8000 2.1776
v -2.5083 -1.8000 2.0592
v -2.7336 -1.8000 1.7492
v -2.7336 -1.8000 1.3660
v -2.5083 -1.8000 1.0560
v -2.1439 -1.8000 0.9376
v -1.7795 -1.8000 1.0560
v -1.5542 -1.8000 1.3660
v -1.5542 -1.8000 1.7492
v -1.7795 -1.8000 2.0592
v -2.1439 0.0000 1.5576
v -2.1439 -1.8000 1.5576
v -2.6500 0.0000 0.4200
v -2.8969 0.0000 0.3398
v -3.0494 0.0000 0.1298
v -3.0494 0.0000 -0.1298
v -2.8969 0.0000 -0.3398
v -2.6500 0.0000 -0.4200
v -2.4031 0.0000 -0.3398
v -2.2506 0.0000 -0.1298
v -2.2506 0.0000 0.1298
v -2.4031 0.0000 0.3398
v -2.6500 -1.8000 0.6200
v -3.0144 -1.8000 0.5016
v -3.2397 -1.8000 0.1916
v -3.2397 -1.8000 -0.1916
v -3.0144 -1.8000 -0.5016
v -2.6500 -1.8000 -0.6200
v -2.2856 -1.8000 -0.5016
v -2.0603 -1.8000 -0.1916
v -2.0603 -1.8000 0.1916
v -2.2856 -1.8000 0.5016
v -2.6500 0.0000 0.0000
v -2.6500 -1.8000 0.0000
v -2.1439 0.0000 -1.1376
v -2.3908 0.0000 -1.2178
v -2.5433 0.0000 -1.4278
v -2.5433 0.0000 -1.6874
v -2.3908 0.0000 -1.8974
v -2.1439 0.0000 -1.9776
v -1.8970 0.0000 -1.8974
v -1.7445 0.0000 -1.6874
v -1.7445 0.0000 -1.4278
v -1.8970 0.0000 -1.2178
v -2.1439 -1.8000 -0.9376
v -2.5083 -1.8000 -1.0560
v -2.7336 -1.8000 -1.3660
v -2.7336 -1.8000 -1.7492
v -2.5083 -1.8000 -2.0592
v -2.1439 -1.8000 -2.1776
v -1.7795 -1.8000 -2.0592
v -1.5542 -1.8000 -1.7492
v -1.5542 -1.8000 -1.3660
v -1.7795 -1.8000 -1.0560
v -2.1439 0.0000 -1.5576
v -2.1439 -1.8000 -1.5576
v -0.8189 0.0000 -2.1003
v -1.0658 0.0000 -2.1805
v -1.2183 0.0000 -2.3905
v -1.2183 0.0000 -2.6501
v -1.0658 0.0000 -2.8601
v -0.8189 0.0000 -2.9403
v -0.5720 0.0000 -2.8601
v -0.4195 0.0000 -2.6501
v -0.4195 0.0000 -2.3905
v -0.5720 0.0000 -2.1805
v -0.8189 -1.8000 -1.9003
v -1.1833 -1.8000 -2.0187
v -1.4086 -1.8000 -2.3287
v -1.4086 -1.8000 -2.7119
v -1.1833 -1.8000 -3.0219
v -0.8189 -1.8000 -3.1403
v -0.4545 -1.8000 -3.0219
v -0.2292 -1.8000 -2.7119
v -0.2292 -1.8000 -2.3287
v -0.4545 -1.8000 -2.0187
v -0.8189 0.0000 -2.5203
v -0.8189 -1.8000 -2.5203
v 0.8189 0.0000 -2.1003
v 0.5720 0.0000 -2.1805
v 0.4195 0.0000 -2.3905
v 0.4195 0.0000 -2.6501
v 0.5720 0.0000 -2.8601
v 0.8189 0.0000 -2.9403
v 1.0658 0.0000 -2.8601
v 1.2183 0.0000 -2.6501
v 1.2183 0.0000 -2.3905
v 1.0658 0.0000 -2.1805
v 0.8189 -1.8000 -1.9003
v 0.4545 -1.8000 -2.0187
v 0.2292 -1.8000 -2.3287
v 0.2292 -1.8000 -2.7119
v 0.4545 -1.8000 -3.0219
v 0.8189 -1.8000 -3.1403
v 1.1833 -1.8000 -3.0219
v 1.4086 -1.8000 -2.7119
v 1.4086 -1.8000 -2.3287
v 1.1833 -1.8000 -2.0187
v 0.8189 0.0000 -2.5203
v 0.8189 -1.8000 -2.5203
v 2.1439 0.0000 -1.1376
v 1.8970 0.0000 -1.2178
v 1.7445 0.0000 -1.4278
v 1.7445 0.0000 -1.6874
v 1.8970 0.0000 -1.8974
v 2.1439 0.0000 -1.9776
v 2.3908 0.0000 -1.8974
v 2.5433 0.0000 -1.6874
v 2.5433 0.0000 -1.4278
v 2.3908 0.0000 -1.2178
v 2.1439 -1.8000 -0.9376
v 1.7795 -1.8000 -1.0560
v 1.5542 -1.8000 -1.3660
v 1.5542 -1.8000 -1.7492
v 1.7795 -1.8000 -2.0592
v 2.1439 -1.8000 -2.1776
v 2.5083 -1.8000 -2.0592
v 2.7336 -1.8000 -1.7492
v 2.7336 -1.8000 -1.3660
v 2.5083 -1.8000 -1.0560
v 2.1439 0.0000 -1.5576
v 2.1439 -1.8000 -1.5576
v 3.9500 0.0000 0.4200
v 3.7031 0.0000 0.3398
v 3.5506 0.0000 0.1298
v 3.5506 0.0000 -0.1298
v 3.7031 0.0000 -0.3398
v 3.9500 0.0000 -0.4200
v 4.1969 0.0000 -0.3398
v 4.3494 0.0000 -0.1298
v 4.3494 0.0000 0.1298
v 4.1969 0.0000 0.3398
v 3.9500 -1.8000 0.6200
v 3.5856 -1.8000 0.5016
v 3.3603 -1.8000 0.1916
v 3.3603 -1.8000 -0.1916
v 3.5856 -1.8000 -0.5016
v 3.9500 -1.8000 -0.6200
v 4.3144 -1.8000 -0.5016
v 4.5397 -1.8000 -0.1916
v 4.5397 -1.8000 0.1916
v 4.3144 -1.8000 0.5016
v 3.9500 0.0000 0.0000
v 3.9500 -1.8000 0.0000
v 3.7567 0.0000 1.6406
v 3.5098 0.0000 1.5604
v 3.3572 0.0000 1.3504
v 3.3572 0.0000 1.0908
v 3.5098 0.0000 0.8808
v 3.7567 0.0000 0.8006
v 4.0035 0.0000 0.8808
v 4.1561 0.0000 1.0908
v 4.1561 0.0000 1.3504
v 4.0035 0.0000 1.5604
v 3.7567 -1.8000 1.8406
v 3.3922 -1.8000 1.7222
v 3.1670 -1.8000 1.4122
v 3.1670 -1.8000 1.0290
v 3.3922 -1.8000 0.7190
v 3.7567 -1.8000 0.6006
v 4.1211 -1.8000 0.7190
v 4.3463 -1.8000 1.0290
v 4.3463 -1.8000 1.4122
v 4.1211 -1.8000 1.7222
v 3.7567 0.0000 1.2206
v 3.7567 -1.8000 1.2206
v 3.1956 0.0000 2.7418
v 2.9487 0.0000 2.6615
v 2.7962 0.0000 2.4515
v 2.7962 0.0000 2.1920
v 2.9487 0.0000 1.9820
v 3.1956 0.0000 1.9018
v 3.4425 0.0000 1.9820
v 3.5951 0.0000 2.1920
v 3.5951 0.0000 2.4515
v 3.4425 0.0000 2.6615
v 3.1956 -1.8000 2.9418
v 2.8312 -1.8000 2.8233
v 2.6060 -1.8000 2.5133
v 2.6060 -1.8000 2.1302
v 2.8312 -1.8000 1.8202
v 3.1956 -1.8000 1.7018
v 3.5600 -1.8000 1.8202
v 3.7853 -1.8000 2.1302
v 3.7853 -1.8000 2.5133
v 3.5600 -1.8000 2.8233
v 3.1956 0.0000 2.3218
v 3.1956 -1.8000 2.3218
v 2.3218 0.0000 3.6156
v 2.0749 0.0000 3.5354
v 1.9223 0.0000 3.3254
v 1.9223 0.0000 3.0658
v 2.0749 0.0000 2.8558
v 2.3218 0.0000 2.7756
v 2.5686 0.0000 2.8558
v 2.7212 0.0000 3.0658
v 2.7212 0.0000 3.3254
v 2.5686 0.0000 3.5354
v 2.3218 -1.8000 3.8156
v 1.9573 -1.8000 3.6972
v 1.7321 -1.8000 3.3872
v 1.7321 -1.8000 3.0040
v 1.9573 -1.8000 2.6940
v 2.3218 -1.8000 2.5756
v 2.6862 -1.8000 2.6940
v 2.9114 -1.8000 3.0040
v 2.9114 -1.8000 3.3872
v 2.6862 -1.8000 3.6972
v 2.3218 0.0000 3.1956
v 2.3218 -1.8000 3.1956
v 1.2206 0.0000 4.1767
v 0.9737 0.0000 4.0965
v 0.8212 0.0000 3.8865
v 0.8212 0.0000 3.6269
v 0.9737 0.0000 3.4169
v 1.2206 0.0000 3.3367
v 1.4675 0.0000 3.4169
v 1.6201 0.0000 3.6269
v 1.6201 0.0000 3.8865
v 1.4675 0.0000 4.0965
v 1.2206 -1.8000 4.3767
v 0.8562 -1.8000 4.2583
v 0.6310 -1.8000 3.9483
v 0.6310 -1.8000 3.5651
v 0.8562 -1.8000 3.2551
v 1.2206 -1.8000 3.1367
v 1.5850 -1.8000 3.2551
v 1.8103 -1.8000 3.5651
v 1.8103 -1.8000 3.9483
v 1.5850 -1.8000 4.2583
v 1.2206 0.0000 3.7567
v 1.2206 -1.8000 3.7567
v 0.0000 0.0000 4.3700
v -0.2469 0.0000 4.2898
v -0.3994 0.0000 4.0798
v -0.3994 0.0000 3.8202
v -0.2469 0.0000 3.6102
v 0.0000 0.0000 3.5300
v 0.2469 0.0000 3.6102
v 0.3994 0.0000 3.8202
v 0.3994 0.0000 4.0798
v 0.2469 0.0000 4.2898
v 0.0000 -1.8000 4.5700
v -0.3644 -1.8000 4.4516
v -0.5897 -1.8000 4.1416
v -0.5897 -1.8000 3.7584
v -0.3644 -1.8000 3.4484
v 0.0000 -1.8000 3.3300
v 0.3644 -1.8000 3.4484
v 0.5897 -1.8000 3.7584
v 0.5897 -1.8000 4.1416
v 0.3644 -1.8000 4.4516
v 0.0000 0.0000 3.9500
v 0.0000 -1.8000 3.9500
v -1.2206 0.0000 4.1767
v -1.4675 0.0000 4.0965
v -1.6201 0.0000 3.8865
v -1.6201 0.0000 3.6269
v -1.4675 0.0000 3.4169
v -1.2206 0.0000 3.3367
v -0.9737 0.0000 3.4169
v -0.8212 0.0000 3.6269
v -0.8212 0.0000 3.8865
v -0.9737 0.0000 4.0965
v -1.2206 -1.8000 4.3767
v -1.5850 -1.8000 4.2583
v -1.8103 -1.8000 3.9483
v -1.8103 -1.8000 3.5651
v -1.5850 -1.8000 3.2551
v -1.2206 -1.8000 3.1367
v -0.8562 -1.8000 3.2551
v -0.6310 -1.8000 3.5651
v -0.6310 -1.8000 3.9483
v -0.8562 -1.8000 4.2583
v -1.2206 0.0000 3.7567
v -1.2206 -1.8000 3.7567
v -2.3218 0.0000 3.6156
v -2.5686 0.0000 3.5354
v -2.7212 0.0000 3.3254
v -2.7212 0.0000 3.0658
v -2.5686 0.0000 2.8558
v -2.3218 0.0000 2.7756
v -2.0749 0.0000 2.8558
v -1.9223 0.0000 3.0658
v -1.9223 0.0000 3.3254
v -2.0749 0.0000 3.5354
v -2.3218 -1.8000 3.8156
v -2.6862 -1.8000 3.6972
v -2.9114 -1.8000 3.3872
v -2.9114 -1.8000 3.0040
v -2.6862 -1.8000 2.6940
v -2.3218 -1.8000 2.5756
v -1.9573 -1.8000 2.6940
v -1.7321 -1.8000 3.0040
v -1.7321 -1.8000 3.3872
v -1.9573 -1.8000 3.6972
v -2.3218 0.0000 3.1956
v -2.3218 -1.8000 3.1956
v -3.1956 0.0000 2.7418
v -3.4425 0.0000 2.6615
v -3.5951 0.0000 2.4515
v -3.5951 0.0000 2.1920
v -3.4425 0.0000 1.9820
v -3.1956 0.0000 1.9018
v -2.9487 0.0000 1.9820
v -2.7962 0.0000 2.1920
v -2.7962 0.0000 2.4515
v -2.9487 0.0000 2.6615
v -3.1956 -1.8000 2.9418
v -3.5600 -1.8000 2.8233
v -3.7853 -1.8000 2.5133
v -3.7853 -1.8000 2.1302
v -3.5600 -1.8000 1.8202
v -3.1956 -1.8000 1.7018
v -2.8312 -1.8000 1.8202
v -2.6060 -1.8000 2.1302
v -2.6060 -1.8000 2.5133
v -2.8312 -1.8000 2.8233
v -3.1956 0.0000 2.3218
v -3.1956 -1.8000 2.3218
v -3.7567 0.0000 1.6406
v -4.0035 0.0000 1.5604
v -4.1561 0.0000 1.3504
v -4.1561 0.0000 1.0908
v -4.0035 0.0000 0.8808
v -3.7567 0.0000 0.8006
v -3.5098 0.0000 0.8808
v -3.3572 0.0000 1.0908
v -3.3572 0.0000 1.3504
v -3.5098 0.0000 1.5604
v -3.7567 -1.8000 1.8406
v -4.1211 -1.8000 1.7222
v -4.3463 -1.8000 1.4122
v -4.3463 -1.8000 1.0290
v -4.1211 -1.8000 0.7190
v -3.7567 -1.8000 0.6006
v -3.3922 -1.8000 0.7190
v -3.1670 -1.8000 1.0290
v -3.1670 -1.8000 1.4122
v -3.3922 -1.8000 1.7222
v -3.7567 0.0000 1.2206
v -3.7567 -1.8000 1.2206
v -3.9500 0.0000 0.4200
v -4.1969 0.0000 0.3398
v -4.3494 0.0000 0.1298
v -4.3494 0.0000 -0.1298
v -4.1969 0.0000 -0.3398
v -3.9500 0.0000 -0.4200
v -3.7031 0.0000 -0.3398
v -3.5506 0.0000 -0.1298
v -3.5506 0.0000 0.1298
v -3.7031 0.0000 0.3398
v -3.9500 -1.8000 0.6200
v -4.3144 -1.8000 0.5016
v -4.5397 -1.8000 0.1916
v -4.5397 -1.8000 -0.1916
v -4.3144 -1.8000 -0.5016
v -3.9500 -1.8000 -0.6200
v -3.5856 -1.8000 -0.5016
v -3.3603 -1.8000 -0.1916
v -3.3603 -1.8000 0.1916
v -3.5856 -1.8000 0.5016
v -3.9500 0.0000 0.0000
v -3.9500 -1.8000 0.0000
v -3.7567 0.0000 -0.8006
v -4.0035 0.0000 -0.8808
v -4.1561 0.0000 -1.0908
v -4.1561 0.0000 -1.3504
v -4.0035 0.0000 -1.5604
v -3.7567 0.0000 -1.6406
v -3.5098 0.0000 -1.5604
v -3.3572 0.0000 -1.3504
v -3.3572 0.0000 -1.0908
v -3.5098 0.0000 -0.8808
v -3.7567 -1.8000 -0.6006
v -4.1211 -1.8000 -0.7190
v -4.3463 -1.8000 -1.0290
v -4.3463 -1.8000 -1.4122
v -4.1211 -1.8000 -1.7222
v -3.7567 -1.8000 -1.8406
v -3.3922 -1.8000 -1.7222
v -3.1670 -1.8000 -1.4122
v -3.1670 -1.8000 -1.0290
v -3.3922 -1.8000 -0.7190
v -3.7567 0.0000 -1.2206
v -3.7567 -1.8000 -1.2206
v -3.1956 0.0000 -1.9018
v -3.4425 0.0000 -1.9820
v -3.5951 0.0000 -2.1920
v -3.5951 0.0000 -2.4515
v -3.4425 0.0000 -2.6615
v -3.1956 0.0000 -2.7418
v -2.9487 0.0000 -2.6615
v -2.7962 0.0000 -2.4515
v -2.7962 0.0000 -2.1920
v -2.9487 0.0000 -1.9820
v -3.1956 -1.8000 -1.7018
v -3.5600 -1.8000 -1.8202
v -3.7853 -1.8000 -2.1302
v -3.7853 -1.8000 -2.5133
v -3.5600 -1.8000 -2.8233
v -3.1956 -1.8000 -2.9418
v -2.8312 -1.8000 -2.8233
v -2.6060 -1.8000 -2.5133
v -2.6060 -1.8000 -2.1302
v -2.8312 -1.8000 -1.8202
v -3.1956 0.0000 -2.3218
v -3.1956 -1.8000 -2.3218
v -2.3218 0.0000 -2.7756
v -2.5686 0.0000 -2.8558
v -2.7212 0.0000 -3.0658
v -2.7212 0.0000 -3.3254
v -2.5686 0.0000 -3.5354
v -2.3218 0.0000 -3.6156
v -2.0749 0.0000 -3.5354
v -1.9223 0.0000 -3.3254
v -1.9223 0.0000 -3.0658
v -2.0749 0.0000 -2.8558
v -2.3218 -1.8000 -2.5756
v -2.6862 -1.8000 -2.6940
v -2.9114 -1.8000 -3.0040
v -2.9114 -1.8000 -3.3872
v -2.6862 -1.8000 -3.6972
v -2.3218 -1.8000 -3.8156
v -1.9573 -1.8000 -3.6972
v -1.7321 -1.8000 -3.3872
v -1.7321 -1.8000 -3.0040
v -1.9573 -1.8000 -2.6940
v -2.3218 0.0000 -3.1956
v -2.3218 -1.8000 -3.1956
v -1.2206 0.0000 -3.3367
v -1.4675 0.0000 -3.4169
v -1.6201 0.0000 -3.6269
v -1.6201 0.0000 -3.8865
v -1.4675 0.0000 -4.0965
v -1.2206 0.0000 -4.1767
v -0.9737 0.0000 -4.0965
v -0.8212 0.0000 -3.8865
v -0.8212 0.0000 -3.6269
v -0.9737 0.0000 -3.4169
v -1.2206 -1.8000 -3.1367
v -1.5850 -1.8000 -3.2551
v -1.8103 -1.8000 -3.5651
v -1.8103 -1.8000 -3.9483
v -1.5850 -1.8000 -4.2583
v -1.2206 -1.8000 -4.3767
v -0.8562 -1.8000 -4.2583
v -0.6310 -1.8000 -3.9483
v -0.6310 -1.8000 -3.5651
v -0.8562 -1.8000 -3.2551
v -1.2206 0.0000 -3.7567
v -1.2206 -1.8000 -3.7567
v -0.0000 0.0000 -3.5300
v -0.2469 0.0000 -3.6102
v -0.3994 0.0000 -3.8202
v -0.3994 0.0000 -4.0798
v -0.2469 0.0000 -4.2898
v -0.0000 0.0000 -4.3700
v 0.2469 0.0000 -4.2898
v 0.3994 0.0000 -4.0798
v 0.3994 0.0000 -3.8202
v 0.2469 0.0000 -3.6102
v -0.0000 -1.8000 -3.3300
v -0.3644 -1.8000 -3.4484
v -0.5897 -1.8000 -3.7584
v -0.5897 -1.8000 -4.1416
v -0.3644 -1.8000 -4.4516
v -0.0000 -1.8000 -4.5700
v 0.3644 -1.8000 -4.4516
v 0.5897 -1.8000 -4.1416
v 0.5897 -1.8000 -3.7584
v 0.3644 -1.8000 -3.4484
v -0.0000 0.0000 -3.9500
v -0.0000 -1.8000 -3.9500
v 1.2206 0.0000 -3.3367
v 0.9737 0.0000 -3.4169
v 0.8212 0.0000 -3.6269
v 0.8212 0.0000 -3.8865
v 0.9737 0.0000 -4.0965
v 1.2206 0.0000 -4.1767
v 1.4675 0.0000 -4.0965
v 1.6201 0.0000 -3.8865
v 1.6201 0.0000 -3.6269
v 1.4675 0.0000 -3.4169
v 1.2206 -1.8000 -3.1367
v 0.8562 -1.8000 -3.2551
v 0.6310 -1.8000 -3.5651
v 0.6310 -1.8000 -3.9483
v 0.8562 -1.8000 -4.2583
v 1.2206 -1.8000 -4.3767
v 1.5850 -1.8000 -4.2583
v 1.8103 -1.8000 -3.9483
v 1.8103 -1.8000 -3.5651
v 1.5850 -1.8000 -3.2551
v 1.2206 0.0000 -3.7567
v 1.2206 -1.8000 -3.7567
v 2.3218 0.0000 -2.7756
v 2.0749 0.0000 -2.8558
v 1.9223 0.0000 -3.0658
v 1.9223 0.0000 -3.3254
v 2.0749 0.0000 -3.5354
v 2.3218 0.0000 -3.6156
v 2.5686 0.0000 -3.5354
v 2.7212 0.0000 -3.3254
v 2.7212 0.0000 -3.0658
v 2.5686 0.0000 -2.8558
v 2.3218 -1.8000 -2.5756
v 1.9573 -1.8000 -2.6940
v 1.7321 -1.8000 -3.0040
v 1.7321 -1.8000 -3.3872
v 1.9573 -1.8000 -3.6972
v 2.3218 -1.8000 -3.8156
v 2.6862 -1.8000 -3.6972
v 2.9114 -1.8000 -3.3872
v 2.9114 -1.8000 -3.0040
v 2.6862 -1.8000 -2.6940
v 2.3218 0.0000 -3.1956
v 2.3218 -1.8000 -3.1956
v 3.1956 0.0000 -1.9018
v 2.9487 0.0000 -1.9820
v 2.7962 0.0000 -2.1920
v 2.7962 0.0000 -2.4515
v 2.9487 0.0000 -2.6615
v 3.1956 0.0000 -2.7418
v 3.4425 0.0000 -2.6615
v 3.5951 0.0000 -2.4515
v 3.5951 0.0000 -2.1920
v 3.4425 0.0000 -1.9820
v 3.1956 -1.8000 -1.7018
v 2.8312 -1.8000 -1.8202
v 2.6060 -1.8000 -2.1302
v 2.6060 -1.8000 -2.5133
v 2.8312 -1.8000 -2.8233
v 3.1956 -1.8000 -2.9418
v 3.5600 -1.8000 -2.8233
v 3.7853 -1.8000 -2.5133
v 3.7853 -1.8000 -2.1302
v 3.5600 -1.8000 -1.8202
v 3.1956 0.0000 -2.3218
v 3.1956 -1.8000 -2.3218
v 3.7567 0.0000 -0.8006
v 3.5098 0.0000 -0.8808
v 3.3572 0.0000 -1.0908
v 3.3572 0.0000 -1.3504
v 3.5098 0.0000 -1.5604
v 3.7567 0.0000 -1.6406
v 4.0035 0.0000 -1.5604
v 4.1561 0.0000 -1.3504
v 4.1561 0.0000 -1.0908
v 4.0035 0.0000 -0.8808
v 3.7567 -1.8000 -0.6006
v 3.3922 -1.8000 -0.7190
v 3.1670 -1.8000 -1.0290
v 3.1670 -1.8000 -1.4122
v 3.3922 -1.8000 -1.7222
v 3.7567 -1.8000 -1.8406
v 4.1211 -1.8000 -1.7222
v 4.3463 -1.8000 -1.4122
v 4.3463 -1.8000 -1.0290
v 4.1211 -1.8000 -0.7190
v 3.7567 0.0000 -1.2206
v 3.7567 -1.8000 -1.2206
v 0.0000 72.8000 -4.5000
v -0.7040 72.8000 -4.4446
v -1.3906 72.8000 -4.2798
v -2.0430 72.8000 -4.0095
v -2.6450 72.8000 -3.6406
v -3.1820 72.8000 -3.1820
v -3.6406 72.8000 -2.6450
v -4.0095 72.8000 -2.0430
v -4.2798 72.8000 -1.3906
v -4.4446 72.8000 -0.7040
v -4.5000 72.8000 -0.0000
v -4.4446 72.8000 0.7040
v -4.2798 72.8000 1.3906
v -4.0095 72.8000 2.0430
v -3.6406 72.8000 2.6450
v -3.1820 72.8000 3.1820
v -2.6450 72.8000 3.6406
v -2.0430 72.8000 4.0095
v -1.3906 72.8000 4.2798
v -0.7040 72.8000 4.4446
v -0.0000 72.8000 4.5000
v 0.7040 72.8000 4.4446
v 1.3906 72.8000 4.2798
v 2.0430 72.8000 4.0095
v 2.6450 72.8000 3.6406
v 3.1820 72.8000 3.1820
v 3.6406 72.8000 2.6450
v 4.0095 72.8000 2.0430
v 4.2798 72.8000 1.3906
v 4.4446 72.8000 0.7040
v 4.5000 72.8000 0.0000
v 4.4446 72.8000 -0.7040
v 4.2798 72.8000 -1.3906
v 4.0095 72.8000 -2.0430
v 3.6406 72.8000 -2.6450
v 3.1820 72.8000 -3.1820
v 2.6450 72.8000 -3.6406
v 2.0430 72.8000 -4.0095
v 1.3906 72.8000 -4.2798
v 0.7040 72.8000 -4.4446
v 0.0000 108.8000 -4.5000
v -0.7040 108.8000 -4.4446
v -1.3906 108.8000 -4.2798
v -2.0430 108.8000 -4.0095
v -2.6450 108.8000 -3.6406
v -3.1820 108.8000 -3.1820
v -3.6406 108.8000 -2.6450
v -4.0095 108.8000 -2.0430
v -4.2798 108.8000 -1.3906
v -4.4446 108.8000 -0.7040
v -4.5000 108.8000 -0.0000
v -4.4446 108.8000 0.7040
v -4.2798 108.8000 1.3906
v -4.0095 108.8000 2.0430
v -3.6406 108.8000 2.6450
v -3.1820 108.8000 3.1820
v -2.6450 108.8000 3.6406
v -2.0430 108.8000 4.0095
v -1.3906 108.8000 4.2798
v -0.7040 108.8000 4.4446
v -0.0000 108.8000 4.5000
v 0.7040 108.8000 4.4446
v 1.3906 108.8000 4.2798
v 2.0430 108.8000 4.0095
v 2.6450 108.8000 3.6406
v 3.1820 108.8000 3.1820
v 3.6406 108.8000 2.6450
v 4.0095 108.8000 2.0430
v 4.2798 108.8000 1.3906
v 4.4446 108.8000 0.7040
v 4.5000 108.8000 0.0000
v 4.4446 108.8000 -0.7040
v 4.2798 108.8000 -1.3906
v 4.0095 108.8000 -2.0430
v 3.6406 108.8000 -2.6450
v 3.1820 108.8000 -3.1820
v 2.6450 108.8000 -3.6406
v 2.0430 108.8000 -4.0095
v 1.3906 108.8000 -4.2798
v 0.7040 108.8000 -4.4446
v 0.0000 72.8000 0.0000
v 0.0000 108.8000 0.0000
v 0.0000 108.8000 -4.5000
v -0.7040 108.8000 -4.4446
v -1.3906 108.8000 -4.2798
v -2.0430 108.8000 -4.0095
v -2.6450 108.8000 -3.6406
v -3.1820 108.8000 -3.1820
v -3.6406 108.8000 -2.6450
v -4.0095 108.8000 -2.0430
v -4.2798 108.8000 -1.3906
v -4.4446 108.8000 -0.7040
v -4.5000 108.8000 -0.0000
v -4.4446 108.8000 0.7040
v -4.2798 108.8000 1.3906
v -4.0095 108.8000 2.0430
v -3.6406 108.8000 2.6450
v -3.1820 108.8000 3.1820
v -2.6450 108.8000 3.6406
v -2.0430 108.8000 4.0095
v -1.3906 108.8000 4.2798
v -0.7040 108.8000 4.4446
v -0.0000 108.8000 4.5000
v 0.7040 108.8000 4.4446
v 1.3906 108.8000 4.2798
v 2.0430 108.8000 4.0095
v 2.6450 108.8000 3.6406
v 3.1820 108.8000 3.1820
v 3.6406 108.8000 2.6450
v 4.0095 108.8000 2.0430
v 4.2798 108.8000 1.3906
v 4.4446 108.8000 0.7040
v 4.5000 108.8000 0.0000
v 4.4446 108.8000 -0.7040
v 4.2798 108.8000 -1.3906
v 4.0095 108.8000 -2.0430
v 3.6406 108.8000 -2.6450
v 3.1820 108.8000 -3.1820
v 2.6450 108.8000 -3.6406
v 2.0430 108.8000 -4.0095
v 1.3906 108.8000 -4.2798
v 0.7040 108.8000 -4.4446
v 0.0000 112.8000 -4.2500
v -0.6648 112.8000 -4.1977
v -1.3133 112.8000 -4.0420
v -1.9295 112.8000 -3.7868
v -2.4981 112.8000 -3.4383
v -3.0052 112.8000 -3.0052
v -3.4383 112.8000 -2.4981
v -3.7868 112.8000 -1.9295
v -4.0420 112.8000 -1.3133
v -4.1977 112.8000 -0.6648
v -4.2500 112.8000 -0.0000
v -4.1977 112.8000 0.6648
v -4.0420 112.8000 1.3133
v -3.7868 112.8000 1.9295
v -3.4383 112.8000 2.4981
v -3.0052 112.8000 3.0052
v -2.4981 112.8000 3.4383
v -1.9295 112.8000 3.7868
v -1.3133 112.8000 4.0420
v -0.6648 112.8000 4.1977
v -0.0000 112.8000 4.2500
v 0.6648 112.8000 4.1977
v 1.3133 112.8000 4.0420
v 1.9295 112.8000 3.7868
v 2.4981 112.8000 3.4383
v 3.0052 112.8000 3.0052
v 3.4383 112.8000 2.4981
v 3.7868 112.8000 1.9295
v 4.0420 112.8000 1.3133
v 4.1977 112.8000 0.6648
v 4.2500 112.8000 0.0000
v 4.1977 112.8000 -0.6648
v 4.0420 112.8000 -1.3133
v 3.7868 112.8000 -1.9295
v 3.4383 112.8000 -2.4981
v 3.0052 112.8000 -3.0052
v 2.4981 112.8000 -3.4383
v 1.9295 112.8000 -3.7868
v 1.3133 112.8000 -4.0420
v 0.6648 112.8000 -4.1977
v 0.0000 108.8000 0.0000
v 0.0000 112.8000 0.0000
v 0.0000 112.8000 -4.2500
v -0.6648 112.8000 -4.1977
v -1.3133 112.8000 -4.0420
v -1.9295 112.8000 -3.7868
v -2.4981 112.8000 -3.4383
v -3.0052 112.8000 -3.0052
v -3.4383 112.8000 -2.4981
v -3.7868 112.8000 -1.9295
v -4.0420 112.8000 -1.3133
v -4.1977 112.8000 -0.6648
v -4.2500 112.8000 -0.0000
v -4.1977 112.8000 0.6648
v -4.0420 112.8000 1.3133
v -3.7868 112.8000 1.9295
v -3.4383 112.8000 2.4981
v -3.0052 112.8000 3.0052
v -2.4981 112.8000 3.4383
v -1.9295 112.8000 3.7868
v -1.3133 112.8000 4.0420
v -0.6648 112.8000 4.1977
v -0.0000 112.8000 4.2500
v 0.6648 112.8000 4.1977
v 1.3133 112.8000 4.0420
v 1.9295 112.8000 3.7868
v 2.4981 112.8000 3.4383
v 3.0052 112.8000 3.0052
v 3.4383 112.8000 2.4981
v 3.7868 112.8000 1.9295
v 4.0420 112.8000 1.3133
v 4.1977 112.8000 0.6648
v 4.2500 112.8000 0.0000
v 4.1977 112.8000 -0.6648
v 4.0420 112.8000 -1.3133
v 3.7868 112.8000 -1.9295
v 3.4383 112.8000 -2.4981
v 3.0052 112.8000 -3.0052
v 2.4981 112.8000 -3.4383
v 1.9295 112.8000 -3.7868
v 1.3133 112.8000 -4.0420
v 0.6648 112.8000 -4.1977
v 0.0000 117.8000 -3.4500
v -0.5397 117.8000 -3.4075
v -1.0661 117.8000 -3.2811
v -1.5663 117.8000 -3.0740
v -2.0279 117.8000 -2.7911
v -2.4395 117.8000 -2.4395
v -2.7911 117.8000 -2.0279
v -3.0740 117.8000 -1.5663
v -3.2811 117.8000 -1.0661
v -3.4075 117.8000 -0.5397
v -3.4500 117.8000 -0.0000
v -3.4075 117.8000 0.5397
v -3.2811 117.8000 1.0661
v -3.0740 117.8000 1.5663
v -2.7911 117.8000 2.0279
v -2.4395 117.8000 2.4395
v -2.0279 117.8000 2.7911
v -1.5663 117.8000 3.0740
v -1.0661 117.8000 3.2811
v -0.5397 117.8000 3.4075
v -0.0000 117.8000 3.4500
v 0.5397 117.8000 3.4075
v 1.0661 117.8000 3.2811
v 1.5663 117.8000 3.0740
v 2.0279 117.8000 2.7911
v 2.4395 117.8000 2.4395
v 2.7911 117.8000 2.0279
v 3.0740 117.8000 1.5663
v 3.2811 117.8000 1.0661
v 3.4075 117.8000 0.5397
v 3.4500 117.8000 0.0000
v 3.4075 117.8000 -0.5397
v 3.2811 117.8000 -1.0661
v 3.0740 117.8000 -1.5663
v 2.7911 117.8000 -2.0279
v 2.4395 117.8000 -2.4395
v 2.0279 117.8000 -2.7911
v 1.5663 117.8000 -3.0740
v 1.0661 117.8000 -3.2811
v 0.5397 117.8000 -3.4075
v 0.0000 112.8000 0.0000
v 0.0000 117.8000 0.0000
v 0.0000 117.8000 -3.4500
v -0.5397 117.8000 -3.4075
v -1.0661 117.8000 -3.2811
v -1.5663 117.8000 -3.0740
v -2.0279 117.8000 -2.7911
v -2.4395 117.8000 -2.4395
v -2.7911 117.8000 -2.0279
v -3.0740 117.8000 -1.5663
v -3.2811 117.8000 -1.0661
v -3.4075 117.8000 -0.5397
v -3.4500 117.8000 -0.0000
v -3.4075 117.8000 0.5397
v -3.2811 117.8000 1.0661
v -3.0740 117.8000 1.5663
v -2.7911 117.8000 2.0279
v -2.4395 117.8000 2.4395
v -2.0279 117.8000 2.7911
v -1.5663 117.8000 3.0740
v -1.0661 117.8000 3.2811
v -0.5397 117.8000 3.4075
v -0.0000 117.8000 3.4500
v 0.5397 117.8000 3.4075
v 1.0661 117.8000 3.2811
v 1.5663 117.8000 3.0740
v 2.0279 117.8000 2.7911
v 2.4395 117.8000 2.4395
v 2.7911 117.8000 2.0279
v 3.0740 117.8000 1.5663
v 3.2811 117.8000 1.0661
v 3.4075 117.8000 0.5397
v 3.4500 117.8000 0.0000
v 3.4075 117.8000 -0.5397
v 3.2811 117.8000 -1.0661
v 3.0740 117.8000 -1.5663
v 2.7911 117.8000 -2.0279
v 2.4395 117.8000 -2.4395
v 2.0279 117.8000 -2.7911
v 1.5663 117.8000 -3.0740
v 1.0661 117.8000 -3.2811
v 0.5397 117.8000 -3.4075
v 0.0000 121.8000 -2.1500
v -0.3363 121.8000 -2.1235
v -0.6644 121.8000 -2.0448
v -0.9761 121.8000 -1.9157
v -1.2637 121.8000 -1.7394
v -1.5203 121.8000 -1.5203
v -1.7394 121.8000 -1.2637
v -1.9157 121.8000 -0.9761
v -2.0448 121.8000 -0.6644
v -2.1235 121.8000 -0.3363
v -2.1500 121.8000 -0.0000
v -2.1235 121.8000 0.3363
v -2.0448 121.8000 0.6644
v -1.9157 121.8000 0.9761
v -1.7394 121.8000 1.2637
v -1.5203 121.8000 1.5203
v -1.2637 121.8000 1.7394
v -0.9761 121.8000 1.9157
v -0.6644 121.8000 2.0448
v -0.3363 121.8000 2.1235
v -0.0000 121.8000 2.1500
v 0.3363 121.8000 2.1235
v 0.6644 121.8000 2.0448
v 0.9761 121.8000 1.9157
v 1.2637 121.8000 1.7394
v 1.5203 121.8000 1.5203
v 1.7394 121.8000 1.2637
v 1.9157 121.8000 0.9761
v 2.0448 121.8000 0.6644
v 2.1235 121.8000 0.3363
v 2.1500 121.8000 0.0000
v 2.1235 121.8000 -0.3363
v 2.0448 121.8000 -0.6644
v 1.9157 121.8000 -0.9761
v 1.7394 121.8000 -1.2637
v 1.5203 121.8000 -1.5203
v 1.2637 121.8000 -1.7394
v 0.9761 121.8000 -1.9157
v 0.6644 121.8000 -2.0448
v 0.3363 121.8000 -2.1235
v 0.0000 117.8000 0.0000
v 0.0000 121.8000 0.0000
v 0.0000 121.8000 -2.1500
v -0.3363 121.8000 -2.1235
v -0.6644 121.8000 -2.0448
v -0.9761 121.8000 -1.9157
v -1.2637 121.8000 -1.7394
v -1.5203 121.8000 -1.5203
v -1.7394 121.8000 -1.2637
v -1.9157 121.8000 -0.9761
v -2.0448 121.8000 -0.6644
v -2.1235 121.8000 -0.3363
v -2.1500 121.8000 -0.0000
v -2.1235 121.8000 0.3363
v -2.0448 121.8000 0.6644
v -1.9157 121.8000 0.9761
v -1.7394 121.8000 1.2637
v -1.5203 121.8000 1.5203
v -1.2637 121.8000 1.7394
v -0.9761 121.8000 1.9157
v -0.6644 121.8000 2.0448
v -0.3363 121.8000 2.1235
v -0.0000 121.8000 2.1500
v 0.3363 121.8000 2.1235
v 0.6644 121.8000 2.0448
v 0.9761 121.8000 1.9157
v 1.2637 121.8000 1.7394
v 1.5203 121.8000 1.5203
v 1.7394 121.8000 1.2637
v 1.9157 121.8000 0.9761
v 2.0448 121.8000 0.6644
v 2.1235 121.8000 0.3363
v 2.1500 121.8000 0.0000
v 2.1235 121.8000 -0.3363
v 2.0448 121.8000 -0.6644
v 1.9157 121.8000 -0.9761
v 1.7394 121.8000 -1.2637
v 1.5203 121.8000 -1.5203
v 1.2637 121.8000 -1.7394
v 0.9761 121.8000 -1.9157
v 0.6644 121.8000 -2.0448
v 0.3363 121.8000 -2.1235
v 0.0000 124.8000 -0.3500
v -0.0548 124.8000 -0.3457
v -0.1082 124.8000 -0.3329
v -0.1589 124.8000 -0.3119
v -0.2057 124.8000 -0.2832
v -0.2475 124.8000 -0.2475
v -0.2832 124.8000 -0.2057
v -0.3119 124.8000 -0.1589
v -0.3329 124.8000 -0.1082
v -0.3457 124.8000 -0.0548
v -0.3500 124.8000 -0.0000
v -0.3457 124.8000 0.0548
v -0.3329 124.8000 0.1082
v -0.3119 124.8000 0.1589
v -0.2832 124.8000 0.2057
v -0.2475 124.8000 0.2475
v -0.2057 124.8000 0.2832
v -0.1589 124.8000 0.3119
v -0.1082 124.8000 0.3329
v -0.0548 124.8000 0.3457
v -0.0000 124.8000 0.3500
v 0.0548 124.8000 0.3457
v 0.1082 124.8000 0.3329
v 0.1589 124.8000 0.3119
v 0.2057 124.8000 0.2832
v 0.2475 124.8000 0.2475
v 0.2832 124.8000 0.2057
v 0.3119 124.8000 0.1589
v 0.3329 124.8000 0.1082
v 0.3457 124.8000 0.0548
v 0.3500 124.8000 0.0000
v 0.3457 124.8000 -0.0548
v 0.3329 124.8000 -0.1082
v 0.3119 124.8000 -0.1589
v 0.2832 124.8000 -0.2057
v 0.2475 124.8000 -0.2475
v 0.2057 124.8000 -0.2832
v 0.1589 124.8000 -0.3119
v 0.1082 124.8000 -0.3329
v 0.0548 124.8000 -0.3457
v 0.0000 121.8000 0.0000
v 0.0000 124.8000 0.0000
v -0.2500 73.8000 -7.9000
v -0.2500 73.8000 -4.5000
v -0.2500 86.8000 -7.9000
v -0.2500 86.8000 -4.5000
v 0.2500 73.8000 -7.9000
v 0.2500 73.8000 -4.5000
v 0.2500 86.8000 -7.9000
v 0.2500 86.8000 -4.5000
v -0.2500 73.8000 4.5000
v -0.2500 73.8000 7.9000
v -0.2500 86.8000 4.5000
v -0.2500 86.8000 7.9000
v 0.2500 73.8000 4.5000
v 0.2500 73.8000 7.9000
v 0.2500 86.8000 4.5000
v 0.2500 86.8000 7.9000
v -0.2000 112.8000 -6.0000
v -0.2000 112.8000 -3.6000
v -0.2000 119.8000 -6.0000
v -0.2000 119.8000 -3.6000
v 0.2000 112.8000 -6.0000
v 0.2000 112.8000 -3.6000
v 0.2000 119.8000 -6.0000
v 0.2000 119.8000 -3.6000
v -0.2000 112.8000 3.6000
v -0.2000 112.8000 6.0000
v -0.2000 119.8000 3.6000
v -0.2000 119.8000 6.0000
v 0.2000 112.8000 3.6000
v 0.2000 112.8000 6.0000
v 0.2000 119.8000 3.6000
v 0.2000 119.8000 6.0000
v 0.0000 72.8000 1.8500
v -0.2386 72.8000 1.7955
v -0.4300 72.8000 1.6429
v -0.5362 72.8000 1.4224
v -0.5362 72.8000 1.1776
v -0.4300 72.8000 0.9571
v -0.2386 72.8000 0.8045
v 0.0000 72.8000 0.7500
v 0.2386 72.8000 0.8045
v 0.4300 72.8000 0.9571
v 0.5362 72.8000 1.1776
v 0.5362 72.8000 1.4224
v 0.4300 72.8000 1.6429
v 0.2386 72.8000 1.7955
v 0.0000 70.5000 2.0800
v -0.3384 70.5000 2.0028
v -0.6098 70.5000 1.7863
v -0.7604 70.5000 1.4736
v -0.7604 70.5000 1.1264
v -0.6098 70.5000 0.8137
v -0.3384 70.5000 0.5972
v -0.0000 70.5000 0.5200
v 0.3384 70.5000 0.5972
v 0.6098 70.5000 0.8137
v 0.7604 70.5000 1.1264
v 0.7604 70.5000 1.4736
v 0.6098 70.5000 1.7863
v 0.3384 70.5000 2.0028
v 0.0000 72.8000 1.3000
v 0.0000 70.5000 1.3000
v -1.1258 72.8000 -0.1000
v -1.3645 72.8000 -0.1545
v -1.5558 72.8000 -0.3071
v -1.6620 72.8000 -0.5276
v -1.6620 72.8000 -0.7724
v -1.5558 72.8000 -0.9929
v -1.3645 72.8000 -1.1455
v -1.1258 72.8000 -1.2000
v -0.8872 72.8000 -1.1455
v -0.6958 72.8000 -0.9929
v -0.5896 72.8000 -0.7724
v -0.5896 72.8000 -0.5276
v -0.6958 72.8000 -0.3071
v -0.8872 72.8000 -0.1545
v -1.1258 70.5000 0.1300
v -1.4643 70.5000 0.0528
v -1.7357 70.5000 -0.1637
v -1.8863 70.5000 -0.4764
v -1.8863 70.5000 -0.8236
v -1.7357 70.5000 -1.1363
v -1.4643 70.5000 -1.3528
v -1.1258 70.5000 -1.4300
v -0.7874 70.5000 -1.3528
v -0.5160 70.5000 -1.1363
v -0.3654 70.5000 -0.8236
v -0.3654 70.5000 -0.4764
v -0.5160 70.5000 -0.1637
v -0.7874 70.5000 0.0528
v -1.1258 72.8000 -0.6500
v -1.1258 70.5000 -0.6500
v 1.1258 72.8000 -0.1000
v 0.8872 72.8000 -0.1545
v 0.6958 72.8000 -0.3071
v 0.5896 72.8000 -0.5276
v 0.5896 72.8000 -0.7724
v 0.6958 72.8000 -0.9929
v 0.8872 72.8000 -1.1455
v 1.1258 72.8000 -1.2000
v 1.3645 72.8000 -1.1455
v 1.5558 72.8000 -0.9929
v 1.6620 72.8000 -0.7724
v 1.6620 72.8000 -0.5276
v 1.5558 72.8000 -0.3071
v 1.3645 72.8000 -0.1545
v 1.1258 70.5000 0.1300
v 0.7874 70.5000 0.0528
v 0.5160 70.5000 -0.1637
v 0.3654 70.5000 -0.4764
v 0.3654 70.5000 -0.8236
v 0.5160 70.5000 -1.1363
v 0.7874 70.5000 -1.3528
v 1.1258 70.5000 -1.4300
v 1.4643 70.5000 -1.3528
v 1.7357 70.5000 -1.1363
v 1.8863 70.5000 -0.8236
v 1.8863 70.5000 -0.4764
v 1.7357 70.5000 -0.1637
v 1.4643 70.5000 0.0528
v 1.1258 72.8000 -0.6500
v 1.1258 70.5000 -0.6500
v 2.6847 72.8000 2.3500
v 2.3376 72.8000 2.2708
v 2.0592 72.8000 2.0488
v 1.9047 72.8000 1.7280
v 1.9047 72.8000 1.3720
v 2.0592 72.8000 1.0512
v 2.3376 72.8000 0.8292
v 2.6847 72.8000 0.7500
v 3.0318 72.8000 0.8292
v 3.3101 72.8000 1.0512
v 3.4646 72.8000 1.3720
v 3.4646 72.8000 1.7280
v 3.3101 72.8000 2.0488
v 3.0318 72.8000 2.2708
v 2.6847 69.6000 2.8000
v 2.1423 69.6000 2.6762
v 1.7074 69.6000 2.3294
v 1.4660 69.6000 1.8282
v 1.4660 69.6000 1.2718
v 1.7074 69.6000 0.7706
v 2.1423 69.6000 0.4238
v 2.6847 69.6000 0.3000
v 3.2270 69.6000 0.4238
v 3.6620 69.6000 0.7706
v 3.9033 69.6000 1.2718
v 3.9033 69.6000 1.8282
v 3.6620 69.6000 2.3294
v 3.2270 69.6000 2.6762
v 2.6847 72.8000 1.5500
v 2.6847 69.6000 1.5500
v -2.6847 72.8000 2.3500
v -3.0318 72.8000 2.2708
v -3.3101 72.8000 2.0488
v -3.4646 72.8000 1.7280
v -3.4646 72.8000 1.3720
v -3.3101 72.8000 1.0512
v -3.0318 72.8000 0.8292
v -2.6847 72.8000 0.7500
v -2.3376 72.8000 0.8292
v -2.0592 72.8000 1.0512
v -1.9047 72.8000 1.3720
v -1.9047 72.8000 1.7280
v -2.0592 72.8000 2.0488
v -2.3376 72.8000 2.2708
v -2.6847 69.6000 2.8000
v -3.2270 69.6000 2.6762
v -3.6620 69.6000 2.3294
v -3.9033 69.6000 1.8282
v -3.9033 69.6000 1.2718
v -3.6620 69.6000 0.7706
v -3.2270 69.6000 0.4238
v -2.6847 69.6000 0.3000
v -2.1423 69.6000 0.4238
v -1.7074 69.6000 0.7706
v -1.4660 69.6000 1.2718
v -1.4660 69.6000 1.8282
v -1.7074 69.6000 2.3294
v -2.1423 69.6000 2.6762
v -2.6847 72.8000 1.5500
v -2.6847 69.6000 1.5500
v -0.0000 72.8000 -2.3000
v -0.3471 72.8000 -2.3792
v -0.6255 72.8000 -2.6012
v -0.7799 72.8000 -2.9220
v -0.7799 72.8000 -3.2780
v -0.6255 72.8000 -3.5988
v -0.3471 72.8000 -3.8208
v -0.0000 72.8000 -3.9000
v 0.3471 72.8000 -3.8208
v 0.6255 72.8000 -3.5988
v 0.7799 72.8000 -3.2780
v 0.7799 72.8000 -2.9220
v 0.6255 72.8000 -2.6012
v 0.3471 72.8000 -2.3792
v -0.0000 69.6000 -1.8500
v -0.5424 69.6000 -1.9738
v -0.9773 69.6000 -2.3206
v -1.2187 69.6000 -2.8218
v -1.2187 69.6000 -3.3782
v -0.9773 69.6000 -3.8794
v -0.5424 69.6000 -4.2262
v -0.0000 69.6000 -4.3500
v 0.5424 69.6000 -4.2262
v 0.9773 69.6000 -3.8794
v 1.2187 69.6000 -3.3782
v 1.2187 69.6000 -2.8218
v 0.9773 69.6000 -2.3206
v 0.5424 69.6000 -1.9738
v -0.0000 72.8000 -3.1000
v -0.0000 69.6000 -3.1000
v 8.8800 0.0000 -0.0900
v 8.8271 0.0000 -0.0728
v 8.7944 0.0000 -0.0278
v 8.7944 0.0000 0.0278
v 8.8271 0.0000 0.0728
v 8.8800 0.0000 0.0900
v 8.9329 0.0000 0.0728
v 8.9656 0.0000 0.0278
v 8.9656 0.0000 -0.0278
v 8.9329 0.0000 -0.0728
v 8.8800 0.8500 -0.0900
v 8.8271 0.8500 -0.0728
v 8.7944 0.8500 -0.0278
v 8.7944 0.8500 0.0278
v 8.8271 0.8500 0.0728
v 8.8800 0.8500 0.0900
v 8.9329 0.8500 0.0728
v 8.9656 0.8500 0.0278
v 8.9656 0.8500 -0.0278
v 8.9329 0.8500 -0.0728
v 8.8800 0.0000 0.0000
v 8.8800 0.8500 0.0000
v 9.1200 0.0000 -0.0900
v 9.0671 0.0000 -0.0728
v 9.0344 0.0000 -0.0278
v 9.0344 0.0000 0.0278
v 9.0671 0.0000 0.0728
v 9.1200 0.0000 0.0900
v 9.1729 0.0000 0.0728
v 9.2056 0.0000 0.0278
v 9.2056 0.0000 -0.0278
v 9.1729 0.0000 -0.0728
v 9.1200 0.8500 -0.0900
v 9.0671 0.8500 -0.0728
v 9.0344 0.8500 -0.0278
v 9.0344 0.8500 0.0278
v 9.0671 0.8500 0.0728
v 9.1200 0.8500 0.0900
v 9.1729 0.8500 0.0728
v 9.2056 0.8500 0.0278
v 9.2056 0.8500 -0.0278
v 9.1729 0.8500 -0.0728
v 9.1200 0.0000 0.0000
v 9.1200 0.8500 0.0000
v 9.0000 0.8500 -0.2000
v 8.9000 0.8500 -0.1732
v 8.8268 0.8500 -0.1000
v 8.8000 0.8500 -0.0000
v 8.8268 0.8500 0.1000
v 8.9000 0.8500 0.1732
v 9.0000 0.8500 0.2000
v 9.1000 0.8500 0.1732
v 9.1732 0.8500 0.1000
v 9.2000 0.8500 0.0000
v 9.1732 0.8500 -0.1000
v 9.1000 0.8500 -0.1732
v 9.0000 1.5000 -0.2000
v 8.9000 1.5000 -0.1732
v 8.8268 1.5000 -0.1000
v 8.8000 1.5000 -0.0000
v 8.8268 1.5000 0.1000
v 8.9000 1.5000 0.1732
v 9.0000 1.5000 0.2000
v 9.1000 1.5000 0.1732
v 9.1732 1.5000 0.1000
v 9.2000 1.5000 0.0000
v 9.1732 1.5000 -0.1000
v 9.1000 1.5000 -0.1732
v 9.0000 0.8500 0.0000
v 9.0000 1.5000 0.0000
v 9.0000 1.7900 0.0000
v 9.0000 1.7900 0.0000
v 9.0000 1.7900 0.0000
v 9.0000 1.7900 0.0000
v 9.0000 1.7900 0.0000
v 9.0000 1.7900 0.0000
v 9.0000 1.7900 0.0000
v 9.0000 1.7900 0.0000
v 9.0000 1.7900 0.0000
v 9.0000 1.7900 0.0000
v 9.0000 1.7900 0.0000
v 9.0000 1.7900 0.0000
v 9.0421 1.7801 0.0000
v 9.0365 1.7801 0.0210
v 9.0210 1.7801 0.0365
v 9.0000 1.7801 0.0421
v 8.9790 1.7801 0.0365
v 8.9635 1.7801 0.0210
v 8.9579 1.7801 0.0000
v 8.9635 1.7801 -0.0210
v 8.9790 1.7801 -0.0365
v 9.0000 1.7801 -0.0421
v 9.0210 1.7801 -0.0365
v 9.0365 1.7801 -0.0210
v 9.0778 1.7519 0.0000
v 9.0674 1.7519 0.0389
v 9.0389 1.7519 0.0674
v 9.0000 1.7519 0.0778
v 8.9611 1.7519 0.0674
v 8.9326 1.7519 0.0389
v 8.9222 1.7519 0.0000
v 8.9326 1.7519 -0.0389
v 8.9611 1.7519 -0.0674
v 9.0000 1.7519 -0.0778
v 9.0389 1.7519 -0.0674
v 9.0674 1.7519 -0.0389
v 9.1016 1.7097 0.0000
v 9.0880 1.7097 0.0508
v 9.0508 1.7097 0.0880
v 9.0000 1.7097 0.1016
v 8.9492 1.7097 0.0880
v 8.9120 1.7097 0.0508
v 8.8984 1.7097 0.0000
v 8.9120 1.7097 -0.0508
v 8.9492 1.7097 -0.0880
v 9.0000 1.7097 -0.1016
v 9.0508 1.7097 -0.0880
v 9.0880 1.7097 -0.0508
v 9.1100 1.6600 0.0000
v 9.0953 1.6600 0.0550
v 9.0550 1.6600 0.0953
v 9.0000 1.6600 0.1100
v 8.9450 1.6600 0.0953
v 8.9047 1.6600 0.0550
v 8.8900 1.6600 0.0000
v 8.9047 1.6600 -0.0550
v 8.9450 1.6600 -0.0953
v 9.0000 1.6600 -0.1100
v 9.0550 1.6600 -0.0953
v 9.0953 1.6600 -0.0550
v 9.1016 1.6103 0.0000
v 9.0880 1.6103 0.0508
v 9.0508 1.6103 0.0880
v 9.0000 1.6103 0.1016
v 8.9492 1.6103 0.0880
v 8.9120 1.6103 0.0508
v 8.8984 1.6103 0.0000
v 8.9120 1.6103 -0.0508
v 8.9492 1.6103 -0.0880
v 9.0000 1.6103 -0.1016
v 9.0508 1.6103 -0.0880
v 9.0880 1.6103 -0.0508
v 9.0778 1.5681 0.0000
v 9.0674 1.5681 0.0389
v 9.0389 1.5681 0.0674
v 9.0000 1.5681 0.0778
v 8.9611 1.5681 0.0674
v 8.9326 1.5681 0.0389
v 8.9222 1.5681 0.0000
v 8.9326 1.5681 -0.0389
v 8.9611 1.5681 -0.0674
v 9.0000 1.5681 -0.0778
v 9.0389 1.5681 -0.0674
v 9.0674 1.5681 -0.0389
v 9.0421 1.5399 0.0000
v 9.0365 1.5399 0.0210
v 9.0210 1.5399 0.0365
v 9.0000 1.5399 0.0421
v 8.9790 1.5399 0.0365
v 8.9635 1.5399 0.0210
v 8.9579 1.5399 0.0000
v 8.9635 1.5399 -0.0210
v 8.9790 1.5399 -0.0365
v 9.0000 1.5399 -0.0421
v 9.0210 1.5399 -0.0365
v 9.0365 1.5399 -0.0210
v 9.0000 1.5300 0.0000
v 9.0000 1.5300 0.0000
v 9.0000 1.5300 0.0000
v 9.0000 1.5300 0.0000
v 9.0000 1.5300 0.0000
v 9.0000 1.5300 0.0000
v 9.0000 1.5300 0.0000
v 9.0000 1.5300 -0.0000
v 9.0000 1.5300 -0.0000
v 9.0000 1.5300 -0.0000
v 9.0000 1.5300 -0.0000
v 9.0000 1.5300 -0.0000
g booster
usemtl steel
f 1 2 41
f 2 42 41
f 2 3 42
f 3 43 42
f 3 4 43
f 4 44 43
f 4 5 44
f 5 45 44
f 5 6 45
f 6 46 45
f 6 7 46
f 7 47 46
f 7 8 47
f 8 48 47
f 8 9 48
f 9 49 48
f 9 10 49
f 10 50 49
f 10 11 50
f 11 51 50
f 11 12 51
f 12 52 51
f 12 13 52
f 13 53 52
f 13 14 53
f 14 54 53
f 14 15 54
f 15 55 54
f 15 16 55
f 16 56 55
f 16 17 56
f 17 57 56
f 17 18 57
f 18 58 57
f 18 19 58
f 19 59 58
f 19 20 59
f 20 60 59
f 20 21 60
f 21 61 60
f 21 22 61
f 22 62 61
f 22 23 62
f 23 63 62
f 23 24 63
f 24 64 63
f 24 25 64
f 25 65 64
f 25 26 65
f 26 66 65
f 26 27 66
f 27 67 66
f 27 28 67
f 28 68 67
f 28 29 68
f 29 69 68
f 29 30 69
f 30 70 69
f 30 31 70
f 31 71 70
f 31 32 71
f 32 72 71
f 32 33 72
f 33 73 72
f 33 34 73
f 34 74 73
f 34 35 74
f 35 75 74
f 35 36 75
f 36 76 75
f 36 37 76
f 37 77 76
f 37 38 77
f 38 78 77
f 38 39 78
f 39 79 78
f 39 40 79
f 40 80 79
f 40 1 80
f 1 41 80
f 81 2 1
f 82 41 42
f 81 3 2
f 82 42 43
f 81 4 3
f 82 43 44
f 81 5 4
f 82 44 45
f 81 6 5
f 82 45 46
f 81 7 6
f 82 46 47
f 81 8 7
f 82 47 48
f 81 9 8
f 82 48 49
f 81 10 9
f 82 49 50
f 81 11 10
f 82 50 51
f 81 12 11
f 82 51 52
f 81 13 12
f 82 52 53
f 81 14 13
f 82 53 54
f 81 15 14
f 82 54 55
f 81 16 15
f 82 55 56
f 81 17 16
f 82 56 57
f 81 18 17
f 82 57 58
f 81 19 18
f 82 58 59
f 81 20 19
f 82 59 60
f 81 21 20
f 82 60 61
f 81 22 21
f 82 61 62
f 81 23 22
f 82 62 63
f 81 24 23
f 82 63 64
f 81 25 24
f 82 64 65
f 81 26 25
f 82 65 66
f 81 27 26
f 82 66 67
f 81 28 27
f 82 67 68
f 81 29 28
f 82 68 69
f 81 30 29
f 82 69 70
f 81 31 30
f 82 70 71
f 81 32 31
f 82 71 72
f 81 33 32
f 82 72 73
f 81 34 33
f 82 73 74
f 81 35 34
f 82 74 75
f 81 36 35
f 82 75 76
f 81 37 36
f 82 76 77
f 81 38 37
f 82 77 78
f 81 39 38
f 82 78 79
f 81 40 39
f 82 79 80
f 81 1 40
f 82 80 41
g hot_stage_ring
usemtl truss
f 83 84 123
f 84 124 123
f 84 85 124
f 85 125 124
f 85 86 125
f 86 126 125
f 86 87 126
f 87 127 126
f 87 88 127
f 88 128 127
f 88 89 128
f 89 129 128
f 89 90 129
f 90 130 129
f 90 91 130
f 91 131 130
f 91 92 131
f 92 132 131
f 92 93 132
f 93 133 132
f 93 94 133
f 94 134 133
f 94 95 134
f 95 135 134
f 95 96 135
f 96 136 135
f 96 97 136
f 97 137 136
f 97 98 137
f 98 138 137
f 98 99 138
f 99 139 138
f 99 100 139
f 100 140 139
f 100 101 140
f 101 141 140
f 101 102 141
f 102 142 141
f 102 103 142
f 103 143 142
f 103 104 143
f 104 144 143
f 104 105 144
f 105 145 144
f 105 106 145
f 106 146 145
f 106 107 146
f 107 147 146
f 107 108 147
f 108 148 147
f 108 109 148
f 109 149 148
f 109 110 149
f 110 150 149
f 110 111 150
f 111 151 150
f 111 112 151
f 112 152 151
f 112 113 152
f 113 153 152
f 113 114 153
f 114 154 153
f 114 115 154
f 115 155 154
f 115 116 155
f 116 156 155
f 116 117 156
f 117 157 156
f 117 118 157
f 118 158 157
f 118 119 158
f 119 159 158
f 119 120 159
f 120 160 159
f 120 121 160
f 121 161 160
f 121 122 161
f 122 162 161
f 122 83 162
f 83 123 162
f 163 84 83
f 164 123 124
f 163 85 84
f 164 124 125
f 163 86 85
f 164 125 126
f 163 87 86
f 164 126 127
f 163 88 87
f 164 127 128
f 163 89 88
f 164 128 129
f 163 90 89
f 164 129 130
f 163 91 90
f 164 130 131
f 163 92 91
f 164 131 132
f 163 93 92
f 164 132 133
f 163 94 93
f 164 133 134
f 163 95 94
f 164 134 135
f 163 96 95
f 164 135 136
f 163 97 96
f 164 136 137
f 163 98 97
f 164 137 138
f 163 99 98
f 164 138 139
f 163 100 99
f 164 139 140
f 163 101 100
f 164 140 141
f 163 102 101
f 164 141 142
f 163 103 102
f 164 142 143
f 163 104 103
f 164 143 144
f 163 105 104
f 164 144 145
f 163 106 105
f 164 145 146
f 163 107 106
f 164 146 147
f 163 108 107
f 164 147 148
f 163 109 108
f 164 148 149
f 163 110 109
f 164 149 150
f 163 111 110
f 164 150 151
f 163 112 111
f 164 151 152
f 163 113 112
f 164 152 153
f 163 114 113
f 164 153 154
f 163 115 114
f 164 154 155
f 163 116 115
f 164 155 156
f 163 117 116
f 164 156 157
f 163 118 117
f 164 157 158
f 163 119 118
f 164 158 159
f 163 120 119
f 164 159 160
f 163 121 120
f 164 160 161
f 163 122 121
f 164 161 162
f 163 83 122
f 164 162 123
g grid_fins
usemtl truss
f 165 167 168
f 165 168 166
f 169 170 172
f 169 172 171
f 165 166 170
f 165 170 169
f 167 171 172
f 167 172 168
f 165 169 171
f 165 171 167
f 166 168 172
f 166 172 170
f 173 175 176
f 173 176 174
f 177 178 180
f 177 180 179
f 173 174 178
f 173 178 177
f 175 179 180
f 175 180 176
f 173 177 179
f 173 179 175
f 174 176 180
f 174 180 178
f 181 183 184
f 181 184 182
f 185 186 188
f 185 188 187
f 181 182 186
f 181 186 185
f 183 187 188
f 183 188 184
f 181 185 187
f 181 187 183
f 182 184 188
f 182 188 186
f 189 191 192
f 189 192 190
f 193 194 196
f 193 196 195
f 189 190 194
f 189 194 193
f 191 195 196
f 191 196 192
f 189 193 195
f 189 195 191
f 190 192 196
f 190 196 194
g booster_engines
usemtl engine
f 197 198 207
f 198 208 207
f 198 199 208
f 199 209 208
f 199 200 209
f 200 210 209
f 200 201 210
f 201 211 210
f 201 202 211
f 202 212 211
f 202 203 212
f 203 213 212
f 203 204 213
f 204 214 213
f 204 205 214
f 205 215 214
f 205 206 215
f 206 216 215
f 206 197 216
f 197 207 216
f 217 198 197
f 218 207 208
f 217 199 198
f 218 208 209
f 217 200 199
f 218 209 210
f 217 201 200
f 218 210 211
f 217 202 201
f 218 211 212
f 217 203 202
f 218 212 213
f 217 204 203
f 218 213 214
f 217 205 204
f 218 214 215
f 217 206 205
f 218 215 216
f 217 197 206
f 218 216 207
f 219 220 229
f 220 230 229
f 220 221 230
f 221 231 230
f 221 222 231
f 222 232 231
f 222 223 232
f 223 233 232
f 223 224 233
f 224 234 233
f 224 225 234
f 225 235 234
f 225 226 235
f 226 236 235
f 226 227 236
f 227 237 236
f 227 228 237
f 228 238 237
f 228 219 238
f 219 229 238
f 239 220 219
f 240 229 230
f 239 221 220
f 240 230 231
f 239 222 221
f 240 231 232
f 239 223 222
f 240 232 233
f 239 224 223
f 240 233 234
f 239 225 224
f 240 234 235
f 239 226 225
f 240 235 236
f 239 227 226
f 240 236 237
f 239 228 227
f 240 237 238
f 239 219 228
f 240 238 229
f 241 242 251
f 242 252 251
f 242 243 252
f 243 253 252
f 243 244 253
f 244 254 253
f 244 245 254
f 245 255 254
f 245 246 255
f 246 256 255
f 246 247 256
f 247 257 256
f 247 248 257
f 248 258 257
f 248 249 258
f 249 259 258
f 249 250 259
f 250 260 259
f 250 241 260
f 241 251 260
f 261 242 241
f 262 251 252
f 261 243 242
f 262 252 253
f 261 244 243
f 262 253 254
f 261 245 244
f 262 254 255
f 261 246 245
f 262 255 256
f 261 247 246
f 262 256 257
f 261 248 247
f 262 257 258
f 261 249 248
f 262 258 259
f 261 250 249
f 262 259 260
f 261 241 250
f 262 260 251
f 263 264 273
f 264 274 273
f 264 265 274
f 265 275 274
f 265 266 275
f 266 276 275
f 266 267 276
f 267 277 276
f 267 268 277
f 268 278 277
f 268 269 278
f 269 279 278
f 269 270 279
f 270 280 279
f 270 271 280
f 271 281 280
f 271 272 281
f 272 282 281
f 272 263 282
f 263 273 282
f 283 264 263
f 284 273 274
f 283 265 264
f 284 274 275
f 283 266 265
f 284 275 276
f 283 267 266
f 284 276 277
f 283 268 267
f 284 277 278
f 283 269 268
f 284 278 279
f 283 270 269
f 284 279 280
f 283 271 270
f 284 280 281
f 283 272 271
f 284 281 282
f 283 263 272
f 284 282 273
f 285 286 295
f 286 296 295
f 286 287 296
f 287 297 296
f 287 288 297
f 288 298 297
f 288 289 298
f 289 299 298
f 289 290 299
f 290 300 299
f 290 291 300
f 291 301 300
f 291 292 301
f 292 302 301
f 292 293 302
f 293 303 302
f 293 294 303
f 294 304 303
f 294 285 304
f 285 295 304
f 305 286 285
f 306 295 296
f 305 287 286
f 306 296 297
f 305 288 287
f 306 297 298
f 305 289 288
f 306 298 299
f 305 290 289
f 306 299 300
f 305 291 290
f 306 300 301
f 305 292 291
f 306 301 302
f 305 293 292
f 306 302 303
f 305 294 293
f 306 303 304
f 305 285 294
f 306 304 295
f 307 308 317
f 308 318 317
f 308 309 318
f 309 319 318
f 309 310 319
f 310 320 319
f 310 311 320
f 311 321 320
f 311 312 321
f 312 322 321
f 312 313 322
f 313 323 322
f 313 314 323
f 314 324 323
f 314 315 324
f 315 325 324
f 315 316 325
f 316 326 325
f 316 307 326
f 307 317 326
f 327 308 307
f 328 317 318
f 327 309 308
f 328 318 319
f 327 310 309
f 328 319 320
f 327 311 310
f 328 320 321
f 327 312 311
f 328 321 322
f 327 313 312
f 328 322 323
f 327 314 313
f 328 323 324
f 327 315 314
f 328 324 325
f 327 316 315
f 328 325 326
f 327 307 316
f 328 326 317
f 329 330 339
f 330 340 339
f 330 331 340
f 331 341 340
f 331 332 341
f 332 342 341
f 332 333 342
f 333 343 342
f 333 334 343
f 334 344 343
f 334 335 344
f 335 345 344
f 335 336 345
f 336 346 345
f 336 337 346
f 337 347 346
f 337 338 347
f 338 348 347
f 338 329 348
f 329 339 348
f 349 330 329
f 350 339 340
f 349 331 330
f 350 340 341
f 349 332 331
f 350 341 342
f 349 333 332
f 350 342 343
f 349 334 333
f 350 343 344
f 349 335 334
f 350 344 345
f 349 336 335
f 350 345 346
f 349 337 336
f 350 346 347
f 349 338 337
f 350 347 348
f 349 329 338
f 350 348 339
f 351 352 361
f 352 362 361
f 352 353 362
f 353 363 362
f 353 354 363
f 354 364 363
f 354 355 364
f 355 365 364
f 355 356 365
f 356 366 365
f 356 357 366
f 357 367 366
f 357 358 367
f 358 368 367
f 358 359 368
f 359 369 368
f 359 360 369
f 360 370 369
f 360 351 370
f 351 361 370
f 371 352 351
f 372 361 362
f 371 353 352
f 372 362 363
f 371 354 353
f 372 363 364
f 371 355 354
f 372 364 365
f 371 356 355
f 372 365 366
f 371 357 356
f 372 366 367
f 371 358 357
f 372 367 368
f 371 359 358
f 372 368 369
f 371 360 359
f 372 369 370
f 371 351 360
f 372 370 361
f 373 374 383
f 374 384 383
f 374 375 384
f 375 385 384
f 375 376 385
f 376 386 385
f 376 377 386
f 377 387 386
f 377 378 387
f 378 388 387
f 378 379 388
f 379 389 388
f 379 380 389
f 380 390 389
f 380 381 390
f 381 391 390
f 381 382 391
f 382 392 391
f 382 373 392
f 373 383 392
f 393 374 373
f 394 383 384
f 393 375 374
f 394 384 385
f 393 376 375
f 394 385 386
f 393 377 376
f 394 386 387
f 393 378 377
f 394 387 388
f 393 379 378
f 394 388 389
f 393 380 379
f 394 389 390
f 393 381 380
f 394 390 391
f 393 382 381
f 394 391 392
f 393 373 382
f 394 392 383
f 395 396 405
f 396 406 405
f 396 397 406
f 397 407 406
f 397 398 407
f 398 408 407
f 398 399 408
f 399 409 408
f 399 400 409
f 400 410 409
f 400 401 410
f 401 411 410
f 401 402 411
f 402 412 411
f 402 403 412
f 403 413 412
f 403 404 413
f 404 414 413
f 404 395 414
f 395 405 414
f 415 396 395
f 416 405 406
f 415 397 396
f 416 406 407
f 415 398 397
f 416 407 408
f 415 399 398
f 416 408 409
f 415 400 399
f 416 409 410
f 415 401 400
f 416 410 411
f 415 402 401
f 416 411 412
f 415 403 402
f 416 412 413
f 415 404 403
f 416 413 414
f 415 395 404
f 416 414 405
f 417 418 427
f 418 428 427
f 418 419 428
f 419 429 428
f 419 420 429
f 420 430 429
f 420 421 430
f 421 431 430
f 421 422 431
f 422 432 431
f 422 423 432
f 423 433 432
f 423 424 433
f 424 434 433
f 424 425 434
f 425 435 434
f 425 426 435
f 426 436 435
f 426 417 436
f 417 427 436
f 437 418 417
f 438 427 428
f 437 419 418
f 438 428 429
f 437 420 419
f 438 429 430
f 437 421 420
f 438 430 431
f 437 422 421
f 438 431 432
f 437 423 422
f 438 432 433
f 437 424 423
f 438 433 434
f 437 425 424
f 438 434 435
f 437 426 425
f 438 435 436
f 437 417 426
f 438 436 427
f 439 440 449
f 440 450 449
f 440 441 450
f 441 451 450
f 441 442 451
f 442 452 451
f 442 443 452
f 443 453 452
f 443 444 453
f 444 454 453
f 444 445 454
f 445 455 454
f 445 446 455
f 446 456 455
f 446 447 456
f 447 457 456
f 447 448 457
f 448 458 457
f 448 439 458
f 439 449 458
f 459 440 439
f 460 449 450
f 459 441 440
f 460 450 451
f 459 442 441
f 460 451 452
f 459 443 442
f 460 452 453
f 459 444 443
f 460 453 454
f 459 445 444
f 460 454 455
f 459 446 445
f 460 455 456
f 459 447 446
f 460 456 457
f 459 448 447
f 460 457 458
f 459 439 448
f 460 458 449
f 461 462 471
f 462 472 471
f 462 463 472
f 463 473 472
f 463 464 473
f 464 474 473
f 464 465 474
f 465 475 474
f 465 466 475
f 466 476 475
f 466 467 476
f 467 477 476
f 467 468 477
f 468 478 477
f 468 469 478
f 469 479 478
f 469 470 479
f 470 480 479
f 470 461 480
f 461 471 480
f 481 462 461
f 482 471 472
f 481 463 462
f 482 472 473
f 481 464 463
f 482 473 474
f 481 465 464
f 482 474 475
f 481 466 465
f 482 475 476
f 481 467 466
f 482 476 477
f 481 468 467
f 482 477 478
f 481 469 468
f 482 478 479
f 481 470 469
f 482 479 480
f 481 461 470
f 482 480 471
f 483 484 493
f 484 494 493
f 484 485 494
f 485 495 494
f 485 486 495
f 486 496 495
f 486 487 496
f 487 497 496
f 487 488 497
f 488 498 497
f 488 489 498
f 489 499 498
f 489 490 499
f 490 500 499
f 490 491 500
f 491 501 500
f 491 492 501
f 492 502 501
f 492 483 502
f 483 493 502
f 503 484 483
f 504 493 494
f 503 485 484
f 504 494 495
f 503 486 485
f 504 495 496
f 503 487 486
f 504 496 497
f 503 488 487
f 504 497 498
f 503 489 488
f 504 498 499
f 503 490 489
f 504 499 500
f 503 491 490
f 504 500 501
f 503 492 491
f 504 501 502
f 503 483 492
f 504 502 493
f 505 506 515
f 506 516 515
f 506 507 516
f 507 517 516
f 507 508 517
f 508 518 517
f 508 509 518
f 509 519 518
f 509 510 519
f 510 520 519
f 510 511 520
f 511 521 520
f 511 512 521
f 512 522 521
f 512 513 522
f 513 523 522
f 513 514 523
f 514 524 523
f 514 505 524
f 505 515 524
f 525 506 505
f 526 515 516
f 525 507 506
f 526 516 517
f 525 508 507
f 526 517 518
f 525 509 508
f 526 518 519
f 525 510 509
f 526 519 520
f 525 511 510
f 526 520 521
f 525 512 511
f 526 521 522
f 525 513 512
f 526 522 523
f 525 514 513
f 526 523 524
f 525 505 514
f 526 524 515
f 527 528 537
f 528 538 537
f 528 529 538
f 529 539 538
f 529 530 539
f 530 540 539
f 530 531 540
f 531 541 540
f 531 532 541
f 532 542 541
f 532 533 542
f 533 543 542
f 533 534 543
f 534 544 543
f 534 535 544
f 535 545 544
f 535 536 545
f 536 546 545
f 536 527 546
f 527 537 546
f 547 528 527
f 548 537 538
f 547 529 528
f 548 538 539
f 547 530 529
f 548 539 540
f 547 531 530
f 548 540 541
f 547 532 531
f 548 541 542
f 547 533 532
f 548 542 543
f 547 534 533
f 548 543 544
f 547 535 534
f 548 544 545
f 547 536 535
f 548 545 546
f 547 527 536
f 548 546 537
f 549 550 559
f 550 560 559
f 550 551 560
f 551 561 560
f 551 552 561
f 552 562 561
f 552 553 562
f 553 563 562
f 553 554 563
f 554 564 563
f 554 555 564
f 555 565 564
f 555 556 565
f 556 566 565
f 556 557 566
f 557 567 566
f 557 558 567
f 558 568 567
f 558 549 568
f 549 559 568
f 569 550 549
f 570 559 560
f 569 551 550
f 570 560 561
f 569 552 551
f 570 561 562
f 569 553 552
f 570 562 563
f 569 554 553
f 570 563 564
f 569 555 554
f 570 564 565
f 569 556 555
f 570 565 566
f 569 557 556
f 570 566 567
f 569 558 557
f 570 567 568
f 569 549 558
f 570 568 559
f 571 572 581
f 572 582 581
f 572 573 582
f 573 583 582
f 573 574 583
f 574 584 583
f 574 575 584
f 575 585 584
f 575 576 585
f 576 586 585
f 576 577 586
f 577 587 586
f 577 578 587
f 578 588 587
f 578 579 588
f 579 589 588
f 579 580 589
f 580 590 589
f 580 571 590
f 571 581 590
f 591 572 571
f 592 581 582
f 591 573 572
f 592 582 583
f 591 574 573
f 592 583 584
f 591 575 574
f 592 584 585
f 591 576 575
f 592 585 586
f 591 577 576
f 592 586 587
f 591 578 577
f 592 587 588
f 591 579 578
f 592 588 589
f 591 580 579
f 592 589 590
f 591 571 580
f 592 590 581
f 593 594 603
f 594 604 603
f 594 595 604
f 595 605 604
f 595 596 605
f 596 606 605
f 596 597 606
f 597 607 606
f 597 598 607
f 598 608 607
f 598 599 608
f 599 609 608
f 599 600 609
f 600 610 609
f 600 601 610
f 601 611 610
f 601 602 611
f 602 612 611
f 602 593 612
f 593 603 612
f 613 594 593
f 614 603 604
f 613 595 594
f 614 604 605
f 613 596 595
f 614 605 606
f 613 597 596
f 614 606 607
f 613 598 597
f 614 607 608
f 613 599 598
f 614 608 609
f 613 600 599
f 614 609 610
f 613 601 600
f 614 610 611
f 613 602 601
f 614 611 612
f 613 593 602
f 614 612 603
f 615 616 625
f 616 626 625
f 616 617 626
f 617 627 626
f 617 618 627
f 618 628 627
f 618 619 628
f 619 629 628
f 619 620 629
f 620 630 629
f 620 621 630
f 621 631 630
f 621 622 631
f 622 632 631
f 622 623 632
f 623 633 632
f 623 624 633
f 624 634 633
f 624 615 634
f 615 625 634
f 635 616 615
f 636 625 626
f 635 617 616
f 636 626 627
f 635 618 617
f 636 627 628
f 635 619 618
f 636 628 629
f 635 620 619
f 636 629 630
f 635 621 620
f 636 630 631
f 635 622 621
f 636 631 632
f 635 623 622
f 636 632 633
f 635 624 623
f 636 633 634
f 635 615 624
f 636 634 625
f 637 638 647
f 638 648 647
f 638 639 648
f 639 649 648
f 639 640 649
f 640 650 649
f 640 641 650
f 641 651 650
f 641 642 651
f 642 652 651
f 642 643 652
f 643 653 652
f 643 644 653
f 644 654 653
f 644 645 654
f 645 655 654
f 645 646 655
f 646 656 655
f 646 637 656
f 637 647 656
f 657 638 637
f 658 647 648
f 657 639 638
f 658 648 649
f 657 640 639
f 658 649 650
f 657 641 640
f 658 650 651
f 657 642 641
f 658 651 652
f 657 643 642
f 658 652 653
f 657 644 643
f 658 653 654
f 657 645 644
f 658 654 655
f 657 646 645
f 658 655 656
f 657 637 646
f 658 656 647
f 659 660 669
f 660 670 669
f 660 661 670
f 661 671 670
f 661 662 671
f 662 672 671
f 662 663 672
f 663 673 672
f 663 664 673
f 664 674 673
f 664 665 674
f 665 675 674
f 665 666 675
f 666 676 675
f 666 667 676
f 667 677 676
f 667 668 677
f 668 678 677
f 668 659 678
f 659 669 678
f 679 660 659
f 680 669 670
f 679 661 660
f 680 670 671
f 679 662 661
f 680 671 672
f 679 663 662
f 680 672 673
f 679 664 663
f 680 673 674
f 679 665 664
f 680 674 675
f 679 666 665
f 680 675 676
f 679 667 666
f 680 676 677
f 679 668 667
f 680 677 678
f 679 659 668
f 680 678 669
f 681 682 691
f 682 692 691
f 682 683 692
f 683 693 692
f 683 684 693
f 684 694 693
f 684 685 694
f 685 695 694
f 685 686 695
f 686 696 695
f 686 687 696
f 687 697 696
f 687 688 697
f 688 698 697
f 688 689 698
f 689 699 698
f 689 690 699
f 690 700 699
f 690 681 700
f 681 691 700
f 701 682 681
f 702 691 692
f 701 683 682
f 702 692 693
f 701 684 683
f 702 693 694
f 701 685 684
f 702 694 695
f 701 686 685
f 702 695 696
f 701 687 686
f 702 696 697
f 701 688 687
f 702 697 698
f 701 689 688
f 702 698 699
f 701 690 689
f 702 699 700
f 701 681 690
f 702 700 691
f 703 704 713
f 704 714 713
f 704 705 714
f 705 715 714
f 705 706 715
f 706 716 715
f 706 707 716
f 707 717 716
f 707 708 717
f 708 718 717
f 708 709 718
f 709 719 718
f 709 710 719
f 710 720 719
f 710 711 720
f 711 721 720
f 711 712 721
f 712 722 721
f 712 703 722
f 703 713 722
f 723 704 703
f 724 713 714
f 723 705 704
f 724 714 715
f 723 706 705
f 724 715 716
f 723 707 706
f 724 716 717
f 723 708 707
f 724 717 718
f 723 709 708
f 724 718 719
f 723 710 709
f 724 719 720
f 723 711 710
f 724 720 721
f 723 712 711
f 724 721 722
f 723 703 712
f 724 722 713
f 725 726 735
f 726 736 735
f 726 727 736
f 727 737 736
f 727 728 737
f 728 738 737
f 728 729 738
f 729 739 738
f 729 730 739
f 730 740 739
f 730 731 740
f 731 741 740
f 731 732 741
f 732 742 741
f 732 733 742
f 733 743 742
f 733 734 743
f 734 744 743
f 734 725 744
f 725 735 744
f 745 726 725
f 746 735 736
f 745 727 726
f 746 736 737
f 745 728 727
f 746 737 738
f 745 729 728
f 746 738 739
f 745 730 729
f 746 739 740
f 745 731 730
f 746 740 741
f 745 732 731
f 746 741 742
f 745 733 732
f 746 742 743
f 745 734 733
f 746 743 744
f 745 725 734
f 746 744 735
f 747 748 757
f 748 758 757
f 748 749 758
f 749 759 758
f 749 750 759
f 750 760 759
f 750 751 760
f 751 761 760
f 751 752 761
f 752 762 761
f 752 753 762
f 753 763 762
f 753 754 763
f 754 764 763
f 754 755 764
f 755 765 764
f 755 756 765
f 756 766 765
f 756 747 766
f 747 757 766
f 767 748 747
f 768 757 758
f 767 749 748
f 768 758 759
f 767 750 749
f 768 759 760
f 767 751 750
f 768 760 761
f 767 752 751
f 768 761 762
f 767 753 752
f 768 762 763
f 767 754 753
f 768 763 764
f 767 755 754
f 768 764 765
f 767 756 755
f 768 765 766
f 767 747 756
f 768 766 757
f 769 770 779
f 770 780 779
f 770 771 780
f 771 781 780
f 771 772 781
f 772 782 781
f 772 773 782
f 773 783 782
f 773 774 783
f 774 784 783
f 774 775 784
f 775 785 784
f 775 776 785
f 776 786 785
f 776 777 786
f 777 787 786
f 777 778 787
f 778 788 787
f 778 769 788
f 769 779 788
f 789 770 769
f 790 779 780
f 789 771 770
f 790 780 781
f 789 772 771
f 790 781 782
f 789 773 772
f 790 782 783
f 789 774 773
f 790 783 784
f 789 775 774
f 790 784 785
f 789 776 775
f 790 785 786
f 789 777 776
f 790 786 787
f 789 778 777
f 790 787 788
f 789 769 778
f 790 788 779
f 791 792 801
f 792 802 801
f 792 793 802
f 793 803 802
f 793 794 803
f 794 804 803
f 794 795 804
f 795 805 804
f 795 796 805
f 796 806 805
f 796 797 806
f 797 807 806
f 797 798 807
f 798 808 807
f 798 799 808
f 799 809 808
f 799 800 809
f 800 810 809
f 800 791 810
f 791 801 810
f 811 792 791
f 812 801 802
f 811 793 792
f 812 802 803
f 811 794 793
f 812 803 804
f 811 795 794
f 812 804 805
f 811 796 795
f 812 805 806
f 811 797 796
f 812 806 807
f 811 798 797
f 812 807 808
f 811 799 798
f 812 808 809
f 811 800 799
f 812 809 810
f 811 791 800
f 812 810 801
f 813 814 823
f 814 824 823
f 814 815 824
f 815 825 824
f 815 816 825
f 816 826 825
f 816 817 826
f 817 827 826
f 817 818 827
f 818 828 827
f 818 819 828
f 819 829 828
f 819 820 829
f 820 830 829
f 820 821 830
f 821 831 830
f 821 822 831
f 822 832 831
f 822 813 832
f 813 823 832
f 833 814 813
f 834 823 824
f 833 815 814
f 834 824 825
f 833 816 815
f 834 825 826
f 833 817 816
f 834 826 827
f 833 818 817
f 834 827 828
f 833 819 818
f 834 828 829
f 833 820 819
f 834 829 830
f 833 821 820
f 834 830 831
f 833 822 821
f 834 831 832
f 833 813 822
f 834 832 823
f 835 836 845
f 836 846 845
f 836 837 846
f 837 847 846
f 837 838 847
f 838 848 847
f 838 839 848
f 839 849 848
f 839 840 849
f 840 850 849
f 840 841 850
f 841 851 850
f 841 842 851
f 842 852 851
f 842 843 852
f 843 853 852
f 843 844 853
f 844 854 853
f 844 835 854
f 835 845 854
f 855 836 835
f 856 845 846
f 855 837 836
f 856 846 847
f 855 838 837
f 856 847 848
f 855 839 838
f 856 848 849
f 855 840 839
f 856 849 850
f 855 841 840
f 856 850 851
f 855 842 841
f 856 851 852
f 855 843 842
f 856 852 853
f 855 844 843
f 856 853 854
f 855 835 844
f 856 854 845
f 857 858 867
f 858 868 867
f 858 859 868
f 859 869 868
f 859 860 869
f 860 870 869
f 860 861 870
f 861 871 870
f 861 862 871
f 862 872 871
f 862 863 872
f 863 873 872
f 863 864 873
f 864 874 873
f 864 865 874
f 865 875 874
f 865 866 875
f 866 876 875
f 866 857 876
f 857 867 876
f 877 858 857
f 878 867 868
f 877 859 858
f 878 868 869
f 877 860 859
f 878 869 870
f 877 861 860
f 878 870 871
f 877 862 861
f 878 871 872
f 877 863 862
f 878 872 873
f 877 864 863
f 878 873 874
f 877 865 864
f 878 874 875
f 877 866 865
f 878 875 876
f 877 857 866
f 878 876 867
f 879 880 889
f 880 890 889
f 880 881 890
f 881 891 890
f 881 882 891
f 882 892 891
f 882 883 892
f 883 893 892
f 883 884 893
f 884 894 893
f 884 885 894
f 885 895 894
f 885 886 895
f 886 896 895
f 886 887 896
f 887 897 896
f 887 888 897
f 888 898 897
f 888 879 898
f 879 889 898
f 899 880 879
f 900 889 890
f 899 881 880
f 900 890 891
f 899 882 881
f 900 891 892
f 899 883 882
f 900 892 893
f 899 884 883
f 900 893 894
f 899 885 884
f 900 894 895
f 899 886 885
f 900 895 896
f 899 887 886
f 900 896 897
f 899 888 887
f 900 897 898
f 899 879 888
f 900 898 889
f 901 902 911
f 902 912 911
f 902 903 912
f 903 913 912
f 903 904 913
f 904 914 913
f 904 905 914
f 905 915 914
f 905 906 915
f 906 916 915
f 906 907 916
f 907 917 916
f 907 908 917
f 908 918 917
f 908 909 918
f 909 919 918
f 909 910 919
f 910 920 919
f 910 901 920
f 901 911 920
f 921 902 901
f 922 911 912
f 921 903 902
f 922 912 913
f 921 904 903
f 922 913 914
f 921 905 904
f 922 914 915
f 921 906 905
f 922 915 916
f 921 907 906
f 922 916 917
f 921 908 907
f 922 917 918
f 921 909 908
f 922 918 919
f 921 910 909
f 922 919 920
f 921 901 910
f 922 920 911
g ship
usemtl steel
f 923 924 963
f 924 964 963
f 924 925 964
f 925 965 964
f 925 926 965
f 926 966 965
f 926 927 966
f 927 967 966
f 927 928 967
f 928 968 967
f 928 929 968
f 929 969 968
f 929 930 969
f 930 970 969
f 930 931 970
f 931 971 970
f 931 932 971
f 932 972 971
f 932 933 972
f 933 973 972
f 933 934 973
f 934 974 973
f 934 935 974
f 935 975 974
f 935 936 975
f 936 976 975
f 936 937 976
f 937 977 976
f 937 938 977
f 938 978 977
f 938 939 978
f 939 979 978
f 939 940 979
f 940 980 979
f 940 941 980
f 941 981 980
f 941 942 981
f 942 982 981
f 942 943 982
f 943 983 982
f 943 944 983
f 944 984 983
f 944 945 984
f 945 985 984
f 945 946 985
f 946 986 985
f 946 947 986
f 947 987 986
f 947 948 987
f 948 988 987
f 948 949 988
f 949 989 988
f 949 950 989
f 950 990 989
f 950 951 990
f 951 991 990
f 951 952 991
f 952 992 991
f 952 953 992
f 953 993 992
f 953 954 993
f 954 994 993
f 954 955 994
f 955 995 994
f 955 956 995
f 956 996 995
f 956 957 996
f 957 997 996
f 957 958 997
f 958 998 997
f 958 959 998
f 959 999 998
f 959 960 999
f 960 1000 999
f 960 961 1000
f 961 1001 1000
f 961 962 1001
f 962 1002 1001
f 962 923 1002
f 923 963 1002
f 1003 924 923
f 1004 963 964
f 1003 925 924
f 1004 964 965
f 1003 926 925
f 1004 965 966
f 1003 927 926
f 1004 966 967
f 1003 928 927
f 1004 967 968
f 1003 929 928
f 1004 968 969
f 1003 930 929
f 1004 969 970
f 1003 931 930
f 1004 970 971
f 1003 932 931
f 1004 971 972
f 1003 933 932
f 1004 972 973
f 1003 934 933
f 1004 973 974
f 1003 935 934
f 1004 974 975
f 1003 936 935
f 1004 975 976
f 1003 937 936
f 1004 976 977
f 1003 938 937
f 1004 977 978
f 1003 939 938
f 1004 978 979
f 1003 940 939
f 1004 979 980
f 1003 941 940
f 1004 980 981
f 1003 942 941
f 1004 981 982
f 1003 943 942
f 1004 982 983
f 1003 944 943
f 1004 983 984
f 1003 945 944
f 1004 984 985
f 1003 946 945
f 1004 985 986
f 1003 947 946
f 1004 986 987
f 1003 948 947
f 1004 987 988
f 1003 949 948
f 1004 988 989
f 1003 950 949
f 1004 989 990
f 1003 951 950
f 1004 990 991
f 1003 952 951
f 1004 991 992
f 1003 953 952
f 1004 992 993
f 1003 954 953
f 1004 993 994
f 1003 955 954
f 1004 994 995
f 1003 956 955
f 1004 995 996
f 1003 957 956
f 1004 996 997
f 1003 958 957
f 1004 997 998
f 1003 959 958
f 1004 998 999
f 1003 960 959
f 1004 999 1000
f 1003 961 960
f 1004 1000 1001
f 1003 962 961
f 1004 1001 1002
f 1003 923 962
f 1004 1002 963
g nose
usemtl steel
f 1005 1006 1045
f 1006 1046 1045
f 1006 1007 1046
f 1007 1047 1046
f 1007 1008 1047
f 1008 1048 1047
f 1008 1009 1048
f 1009 1049 1048
f 1009 1010 1049
f 1010 1050 1049
f 1010 1011 1050
f 1011 1051 1050
f 1011 1012 1051
f 1012 1052 1051
f 1012 1013 1052
f 1013 1053 1052
f 1013 1014 1053
f 1014 1054 1053
f 1014 1015 1054
f 1015 1055 1054
f 1015 1016 1055
f 1016 1056 1055
f 1016 1017 1056
f 1017 1057 1056
f 1017 1018 1057
f 1018 1058 1057
f 1018 1019 1058
f 1019 1059 1058
f 1019 1020 1059
f 1020 1060 1059
f 1020 1021 1060
f 1021 1061 1060
f 1021 1022 1061
f 1022 1062 1061
f 1022 1023 1062
f 1023 1063 1062
f 1023 1024 1063
f 1024 1064 1063
f 1024 1025 1064
f 1025 1065 1064
f 1025 1026 1065
f 1026 1066 1065
f 1026 1027 1066
f 1027 1067 1066
f 1027 1028 1067
f 1028 1068 1067
f 1028 1029 1068
f 1029 1069 1068
f 1029 1030 1069
f 1030 1070 1069
f 1030 1031 1070
f 1031 1071 1070
f 1031 1032 1071
f 1032 1072 1071
f 1032 1033 1072
f 1033 1073 1072
f 1033 1034 1073
f 1034 1074 1073
f 1034 1035 1074
f 1035 1075 1074
f 1035 1036 1075
f 1036 1076 1075
f 1036 1037 1076
f 1037 1077 1076
f 1037 1038 1077
f 1038 1078 1077
f 1038 1039 1078
f 1039 1079 1078
f 1039 1040 1079
f 1040 1080 1079
f 1040 1041 1080
f 1041 1081 1080
f 1041 1042 1081
f 1042 1082 1081
f 1042 1043 1082
f 1043 1083 1082
f 1043 1044 1083
f 1044 1084 1083
f 1044 1005 1084
f 1005 1045 1084
f 1085 1006 1005
f 1086 1045 1046
f 1085 1007 1006
f 1086 1046 1047
f 1085 1008 1007
f 1086 1047 1048
f 1085 1009 1008
f 1086 1048 1049
f 1085 1010 1009
f 1086 1049 1050
f 1085 1011 1010
f 1086 1050 1051
f 1085 1012 1011
f 1086 1051 1052
f 1085 1013 1012
f 1086 1052 1053
f 1085 1014 1013
f 1086 1053 1054
f 1085 1015 1014
f 1086 1054 1055
f 1085 1016 1015
f 1086 1055 1056
f 1085 1017 1016
f 1086 1056 1057
f 1085 1018 1017
f 1086 1057 1058
f 1085 1019 1018
f 1086 1058 1059
f 1085 1020 1019
f 1086 1059 1060
f 1085 1021 1020
f 1086 1060 1061
f 1085 1022 1021
f 1086 1061 1062
f 1085 1023 1022
f 1086 1062 1063
f 1085 1024 1023
f 1086 1063 1064
f 1085 1025 1024
f 1086 1064 1065
f 1085 1026 1025
f 1086 1065 1066
f 1085 1027 1026
f 1086 1066 1067
f 1085 1028 1027
f 1086 1067 1068
f 1085 1029 1028
f 1086 1068 1069
f 1085 1030 1029
f 1086 1069 1070
f 1085 1031 1030
f 1086 1070 1071
f 1085 1032 1031
f 1086 1071 1072
f 1085 1033 1032
f 1086 1072 1073
f 1085 1034 1033
f 1086 1073 1074
f 1085 1035 1034
f 1086 1074 1075
f 1085 1036 1035
f 1086 1075 1076
f 1085 1037 1036
f 1086 1076 1077
f 1085 1038 1037
f 1086 1077 1078
f 1085 1039 1038
f 1086 1078 1079
f 1085 1040 1039
f 1086 1079 1080
f 1085 1041 1040
f 1086 1080 1081
f 1085 1042 1041
f 1086 1081 1082
f 1085 1043 1042
f 1086 1082 1083
f 1085 1044 1043
f 1086 1083 1084
f 1085 1005 1044
f 1086 1084 1045
f 1087 1088 1127
f 1088 1128 1127
f 1088 1089 1128
f 1089 1129 1128
f 1089 1090 1129
f 1090 1130 1129
f 1090 1091 1130
f 1091 1131 1130
f 1091 1092 1131
f 1092 1132 1131
f 1092 1093 1132
f 1093 1133 1132
f 1093 1094 1133
f 1094 1134 1133
f 1094 1095 1134
f 1095 1135 1134
f 1095 1096 1135
f 1096 1136 1135
f 1096 1097 1136
f 1097 1137 1136
f 1097 1098 1137
f 1098 1138 1137
f 1098 1099 1138
f 1099 1139 1138
f 1099 1100 1139
f 1100 1140 1139
f 1100 1101 1140
f 1101 1141 1140
f 1101 1102 1141
f 1102 1142 1141
f 1102 1103 1142
f 1103 1143 1142
f 1103 1104 1143
f 1104 1144 1143
f 1104 1105 1144
f 1105 1145 1144
f 1105 1106 1145
f 1106 1146 1145
f 1106 1107 1146
f 1107 1147 1146
f 1107 1108 1147
f 1108 1148 1147
f 1108 1109 1148
f 1109 1149 1148
f 1109 1110 1149
f 1110 1150 1149
f 1110 1111 1150
f 1111 1151 1150
f 1111 1112 1151
f 1112 1152 1151
f 1112 1113 1152
f 1113 1153 1152
f 1113 1114 1153
f 1114 1154 1153
f 1114 1115 1154
f 1115 1155 1154
f 1115 1116 1155
f 1116 1156 1155
f 1116 1117 1156
f 1117 1157 1156
f 1117 1118 1157
f 1118 1158 1157
f 1118 1119 1158
f 1119 1159 1158
f 1119 1120 1159
f 1120 1160 1159
f 1120 1121 1160
f 1121 1161 1160
f 1121 1122 1161
f 1122 1162 1161
f 1122 1123 1162
f 1123 1163 1162
f 1123 1124 1163
f 1124 1164 1163
f 1124 1125 1164
f 1125 1165 1164
f 1125 1126 1165
f 1126 1166 1165
f 1126 1087 1166
f 1087 1127 1166
f 1167 1088 1087
f 1168 1127 1128
f 1167 1089 1088
f 1168 1128 1129
f 1167 1090 1089
f 1168 1129 1130
f 1167 1091 1090
f 1168 1130 1131
f 1167 1092 1091
f 1168 1131 1132
f 1167 1093 1092
f 1168 1132 1133
f 1167 1094 1093
f 1168 1133 1134
f 1167 1095 1094
f 1168 1134 1135
f 1167 1096 1095
f 1168 1135 1136
f 1167 1097 1096
f 1168 1136 1137
f 1167 1098 1097
f 1168 1137 1138
f 1167 1099 1098
f 1168 1138 1139
f 1167 1100 1099
f 1168 1139 1140
f 1167 1101 1100
f 1168 1140 1141
f 1167 1102 1101
f 1168 1141 1142
f 1167 1103 1102
f 1168 1142 1143
f 1167 1104 1103
f 1168 1143 1144
f 1167 1105 1104
f 1168 1144 1145
f 1167 1106 1105
f 1168 1145 1146
f 1167 1107 1106
f 1168 1146 1147
f 1167 1108 1107
f 1168 1147 1148
f 1167 1109 1108
f 1168 1148 1149
f 1167 1110 1109
f 1168 1149 1150
f 1167 1111 1110
f 1168 1150 1151
f 1167 1112 1111
f 1168 1151 1152
f 1167 1113 1112
f 1168 1152 1153
f 1167 1114 1113
f 1168 1153 1154
f 1167 1115 1114
f 1168 1154 1155
f 1167 1116 1115
f 1168 1155 1156
f 1167 1117 1116
f 1168 1156 1157
f 1167 1118 1117
f 1168 1157 1158
f 1167 1119 1118
f 1168 1158 1159
f 1167 1120 1119
f 1168 1159 1160
f 1167 1121 1120
f 1168 1160 1161
f 1167 1122 1121
f 1168 1161 1162
f 1167 1123 1122
f 1168 1162 1163
f 1167 1124 1123
f 1168 1163 1164
f 1167 1125 1124
f 1168 1164 1165
f 1167 1126 1125
f 1168 1165 1166
f 1167 1087 1126
f 1168 1166 1127
f 1169 1170 1209
f 1170 1210 1209
f 1170 1171 1210
f 1171 1211 1210
f 1171 1172 1211
f 1172 1212 1211
f 1172 1173 1212
f 1173 1213 1212
f 1173 1174 1213
f 1174 1214 1213
f 1174 1175 1214
f 1175 1215 1214
f 1175 1176 1215
f 1176 1216 1215
f 1176 1177 1216
f 1177 1217 1216
f 1177 1178 1217
f 1178 1218 1217
f 1178 1179 1218
f 1179 1219 1218
f 1179 1180 1219
f 1180 1220 1219
f 1180 1181 1220
f 1181 1221 1220
f 1181 1182 1221
f 1182 1222 1221
f 1182 1183 1222
f 1183 1223 1222
f 1183 1184 1223
f 1184 1224 1223
f 1184 1185 1224
f 1185 1225 1224
f 1185 1186 1225
f 1186 1226 1225
f 1186 1187 1226
f 1187 1227 1226
f 1187 1188 1227
f 1188 1228 1227
f 1188 1189 1228
f 1189 1229 1228
f 1189 1190 1229
f 1190 1230 1229
f 1190 1191 1230
f 1191 1231 1230
f 1191 1192 1231
f 1192 1232 1231
f 1192 1193 1232
f 1193 1233 1232
f 1193 1194 1233
f 1194 1234 1233
f 1194 1195 1234
f 1195 1235 1234
f 1195 1196 1235
f 1196 1236 1235
f 1196 1197 1236
f 1197 1237 1236
f 1197 1198 1237
f 1198 1238 1237
f 1198 1199 1238
f 1199 1239 1238
f 1199 1200 1239
f 1200 1240 1239
f 1200 1201 1240
f 1201 1241 1240
f 1201 1202 1241
f 1202 1242 1241
f 1202 1203 1242
f 1203 1243 1242
f 1203 1204 1243
f 1204 1244 1243
f 1204 1205 1244
f 1205 1245 1244
f 1205 1206 1245
f 1206 1246 1245
f 1206 1207 1246
f 1207 1247 1246
f 1207 1208 1247
f 1208 1248 1247
f 1208 1169 1248
f 1169 1209 1248
f 1249 1170 1169
f 1250 1209 1210
f 1249 1171 1170
f 1250 1210 1211
f 1249 1172 1171
f 1250 1211 1212
f 1249 1173 1172
f 1250 1212 1213
f 1249 1174 1173
f 1250 1213 1214
f 1249 1175 1174
f 1250 1214 1215
f 1249 1176 1175
f 1250 1215 1216
f 1249 1177 1176
f 1250 1216 1217
f 1249 1178 1177
f 1250 1217 1218
f 1249 1179 1178
f 1250 1218 1219
f 1249 1180 1179
f 1250 1219 1220
f 1249 1181 1180
f 1250 1220 1221
f 1249 1182 1181
f 1250 1221 1222
f 1249 1183 1182
f 1250 1222 1223
f 1249 1184 1183
f 1250 1223 1224
f 1249 1185 1184
f 1250 1224 1225
f 1249 1186 1185
f 1250 1225 1226
f 1249 1187 1186
f 1250 1226 1227
f 1249 1188 1187
f 1250 1227 1228
f 1249 1189 1188
f 1250 1228 1229
f 1249 1190 1189
f 1250 1229 1230
f 1249 1191 1190
f 1250 1230 1231
f 1249 1192 1191
f 1250 1231 1232
f 1249 1193 1192
f 1250 1232 1233
f 1249 1194 1193
f 1250 1233 1234
f 1249 1195 1194
f 1250 1234 1235
f 1249 1196 1195
f 1250 1235 1236
f 1249 1197 1196
f 1250 1236 1237
f 1249 1198 1197
f 1250 1237 1238
f 1249 1199 1198
f 1250 1238 1239
f 1249 1200 1199
f 1250 1239 1240
f 1249 1201 1200
f 1250 1240 1241
f 1249 1202 1201
f 1250 1241 1242
f 1249 1203 1202
f 1250 1242 1243
f 1249 1204 1203
f 1250 1243 1244
f 1249 1205 1204
f 1250 1244 1245
f 1249 1206 1205
f 1250 1245 1246
f 1249 1207 1206
f 1250 1246 1247
f 1249 1208 1207
f 1250 1247 1248
f 1249 1169 1208
f 1250 1248 1209
f 1251 1252 1291
f 1252 1292 1291
f 1252 1253 1292
f 1253 1293 1292
f 1253 1254 1293
f 1254 1294 1293
f 1254 1255 1294
f 1255 1295 1294
f 1255 1256 1295
f 1256 1296 1295
f 1256 1257 1296
f 1257 1297 1296
f 1257 1258 1297
f 1258 1298 1297
f 1258 1259 1298
f 1259 1299 1298
f 1259 1260 1299
f 1260 1300 1299
f 1260 1261 1300
f 1261 1301 1300
f 1261 1262 1301
f 1262 1302 1301
f 1262 1263 1302
f 1263 1303 1302
f 1263 1264 1303
f 1264 1304 1303
f 1264 1265 1304
f 1265 1305 1304
f 1265 1266 1305
f 1266 1306 1305
f 1266 1267 1306
f 1267 1307 1306
f 1267 1268 1307
f 1268 1308 1307
f 1268 1269 1308
f 1269 1309 1308
f 1269 1270 1309
f 1270 1310 1309
f 1270 1271 1310
f 1271 1311 1310
f 1271 1272 1311
f 1272 1312 1311
f 1272 1273 1312
f 1273 1313 1312
f 1273 1274 1313
f 1274 1314 1313
f 1274 1275 1314
f 1275 1315 1314
f 1275 1276 1315
f 1276 1316 1315
f 1276 1277 1316
f 1277 1317 1316
f 1277 1278 1317
f 1278 1318 1317
f 1278 1279 1318
f 1279 1319 1318
f 1279 1280 1319
f 1280 1320 1319
f 1280 1281 1320
f 1281 1321 1320
f 1281 1282 1321
f 1282 1322 1321
f 1282 1283 1322
f 1283 1323 1322
f 1283 1284 1323
f 1284 1324 1323
f 1284 1285 1324
f 1285 1325 1324
f 1285 1286 1325
f 1286 1326 1325
f 1286 1287 1326
f 1287 1327 1326
f 1287 1288 1327
f 1288 1328 1327
f 1288 1289 1328
f 1289 1329 1328
f 1289 1290 1329
f 1290 1330 1329
f 1290 1251 1330
f 1251 1291 1330
f 1331 1252 1251
f 1332 1291 1292
f 1331 1253 1252
f 1332 1292 1293
f 1331 1254 1253
f 1332 1293 1294
f 1331 1255 1254
f 1332 1294 1295
f 1331 1256 1255
f 1332 1295 1296
f 1331 1257 1256
f 1332 1296 1297
f 1331 1258 1257
f 1332 1297 1298
f 1331 1259 1258
f 1332 1298 1299
f 1331 1260 1259
f 1332 1299 1300
f 1331 1261 1260
f 1332 1300 1301
f 1331 1262 1261
f 1332 1301 1302
f 1331 1263 1262
f 1332 1302 1303
f 1331 1264 1263
f 1332 1303 1304
f 1331 1265 1264
f 1332 1304 1305
f 1331 1266 1265
f 1332 1305 1306
f 1331 1267 1266
f 1332 1306 1307
f 1331 1268 1267
f 1332 1307 1308
f 1331 1269 1268
f 1332 1308 1309
f 1331 1270 1269
f 1332 1309 1310
f 1331 1271 1270
f 1332 1310 1311
f 1331 1272 1271
f 1332 1311 1312
f 1331 1273 1272
f 1332 1312 1313
f 1331 1274 1273
f 1332 1313 1314
f 1331 1275 1274
f 1332 1314 1315
f 1331 1276 1275
f 1332 1315 1316
f 1331 1277 1276
f 1332 1316 1317
f 1331 1278 1277
f 1332 1317 1318
f 1331 1279 1278
f 1332 1318 1319
f 1331 1280 1279
f 1332 1319 1320
f 1331 1281 1280
f 1332 1320 1321
f 1331 1282 1281
f 1332 1321 1322
f 1331 1283 1282
f 1332 1322 1323
f 1331 1284 1283
f 1332 1323 1324
f 1331 1285 1284
f 1332 1324 1325
f 1331 1286 1285
f 1332 1325 1326
f 1331 1287 1286
f 1332 1326 1327
f 1331 1288 1287
f 1332 1327 1328
f 1331 1289 1288
f 1332 1328 1329
f 1331 1290 1289
f 1332 1329 1330
f 1331 1251 1290
f 1332 1330 1291
g aft_flaps
usemtl steel
f 1333 1335 1336
f 1333 1336 1334
f 1337 1338 1340
f 1337 1340 1339
f 1333 1334 1338
f 1333 1338 1337
f 1335 1339 1340
f 1335 1340 1336
f 1333 1337 1339
f 1333 1339 1335
f 1334 1336 1340
f 1334 1340 1338
f 1341 1343 1344
f 1341 1344 1342
f 1345 1346 1348
f 1345 1348 1347
f 1341 1342 1346
f 1341 1346 1345
f 1343 1347 1348
f 1343 1348 1344
f 1341 1345 1347
f 1341 1347 1343
f 1342 1344 1348
f 1342 1348 1346
g forward_flaps
usemtl steel
f 1349 1351 1352
f 1349 1352 1350
f 1353 1354 1356
f 1353 1356 1355
f 1349 1350 1354
f 1349 1354 1353
f 1351 1355 1356
f 1351 1356 1352
f 1349 1353 1355
f 1349 1355 1351
f 1350 1352 1356
f 1350 1356 1354
f 1357 1359 1360
f 1357 1360 1358
f 1361 1362 1364
f 1361 1364 1363
f 1357 1358 1362
f 1357 1362 1361
f 1359 1363 1364
f 1359 1364 1360
f 1357 1361 1363
f 1357 1363 1359
f 1358 1360 1364
f 1358 1364 1362
g raptors
usemtl engine
f 1365 1366 1379
f 1366 1380 1379
f 1366 1367 1380
f 1367 1381 1380
f 1367 1368 1381
f 1368 1382 1381
f 1368 1369 1382
f 1369 1383 1382
f 1369 1370 1383
f 1370 1384 1383
f 1370 1371 1384
f 1371 1385 1384
f 1371 1372 1385
f 1372 1386 1385
f 1372 1373 1386
f 1373 1387 1386
f 1373 1374 1387
f 1374 1388 1387
f 1374 1375 1388
f 1375 1389 1388
f 1375 1376 1389
f 1376 1390 1389
f 1376 1377 1390
f 1377 1391 1390
f 1377 1378 1391
f 1378 1392 1391
f 1378 1365 1392
f 1365 1379 1392
f 1393 1366 1365
f 1394 1379 1380
f 1393 1367 1366
f 1394 1380 1381
f 1393 1368 1367
f 1394 1381 1382
f 1393 1369 1368
f 1394 1382 1383
f 1393 1370 1369
f 1394 1383 1384
f 1393 1371 1370
f 1394 1384 1385
f 1393 1372 1371
f 1394 1385 1386
f 1393 1373 1372
f 1394 1386 1387
f 1393 1374 1373
f 1394 1387 1388
f 1393 1375 1374
f 1394 1388 1389
f 1393 1376 1375
f 1394 1389 1390
f 1393 1377 1376
f 1394 1390 1391
f 1393 1378 1377
f 1394 1391 1392
f 1393 1365 1378
f 1394 1392 1379
f 1395 1396 1409
f 1396 1410 1409
f 1396 1397 1410
f 1397 1411 1410
f 1397 1398 1411
f 1398 1412 1411
f 1398 1399 1412
f 1399 1413 1412
f 1399 1400 1413
f 1400 1414 1413
f 1400 1401 1414
f 1401 1415 1414
f 1401 1402 1415
f 1402 1416 1415
f 1402 1403 1416
f 1403 1417 1416
f 1403 1404 1417
f 1404 1418 1417
f 1404 1405 1418
f 1405 1419 1418
f 1405 1406 1419
f 1406 1420 1419
f 1406 1407 1420
f 1407 1421 1420
f 1407 1408 1421
f 1408 1422 1421
f 1408 1395 1422
f 1395 1409 1422
f 1423 1396 1395
f 1424 1409 1410
f 1423 1397 1396
f 1424 1410 1411
f 1423 1398 1397
f 1424 1411 1412
f 1423 1399 1398
f 1424 1412 1413
f 1423 1400 1399
f 1424 1413 1414
f 1423 1401 1400
f 1424 1414 1415
f 1423 1402 1401
f 1424 1415 1416
f 1423 1403 1402
f 1424 1416 1417
f 1423 1404 1403
f 1424 1417 1418
f 1423 1405 1404
f 1424 1418 1419
f 1423 1406 1405
f 1424 1419 1420
f 1423 1407 1406
f 1424 1420 1421
f 1423 1408 1407
f 1424 1421 1422
f 1423 1395 1408
f 1424 1422 1409
f 1425 1426 1439
f 1426 1440 1439
f 1426 1427 1440
f 1427 1441 1440
f 1427 1428 1441
f 1428 1442 1441
f 1428 1429 1442
f 1429 1443 1442
f 1429 1430 1443
f 1430 1444 1443
f 1430 1431 1444
f 1431 1445 1444
f 1431 1432 1445
f 1432 1446 1445
f 1432 1433 1446
f 1433 1447 1446
f 1433 1434 1447
f 1434 1448 1447
f 1434 1435 1448
f 1435 1449 1448
f 1435 1436 1449
f 1436 1450 1449
f 1436 1437 1450
f 1437 1451 1450
f 1437 1438 1451
f 1438 1452 1451
f 1438 1425 1452
f 1425 1439 1452
f 1453 1426 1425
f 1454 1439 1440
f 1453 1427 1426
f 1454 1440 1441
f 1453 1428 1427
f 1454 1441 1442
f 1453 1429 1428
f 1454 1442 1443
f 1453 1430 1429
f 1454 1443 1444
f 1453 1431 1430
f 1454 1444 1445
f 1453 1432 1431
f 1454 1445 1446
f 1453 1433 1432
f 1454 1446 1447
f 1453 1434 1433
f 1454 1447 1448
f 1453 1435 1434
f 1454 1448 1449
f 1453 1436 1435
f 1454 1449 1450
f 1453 1437 1436
f 1454 1450 1451
f 1453 1438 1437
f 1454 1451 1452
f 1453 1425 1438
f 1454 1452 1439
f 1455 1456 1469
f 1456 1470 1469
f 1456 1457 1470
f 1457 1471 1470
f 1457 1458 1471
f 1458 1472 1471
f 1458 1459 1472
f 1459 1473 1472
f 1459 1460 1473
f 1460 1474 1473
f 1460 1461 1474
f 1461 1475 1474
f 1461 1462 1475
f 1462 1476 1475
f 1462 1463 1476
f 1463 1477 1476
f 1463 1464 1477
f 1464 1478 1477
f 1464 1465 1478
f 1465 1479 1478
f 1465 1466 1479
f 1466 1480 1479
f 1466 1467 1480
f 1467 1481 1480
f 1467 1468 1481
f 1468 1482 1481
f 1468 1455 1482
f 1455 1469 1482
f 1483 1456 1455
f 1484 1469 1470
f 1483 1457 1456
f 1484 1470 1471
f 1483 1458 1457
f 1484 1471 1472
f 1483 1459 1458
f 1484 1472 1473
f 1483 1460 1459
f 1484 1473 1474
f 1483 1461 1460
f 1484 1474 1475
f 1483 1462 1461
f 1484 1475 1476
f 1483 1463 1462
f 1484 1476 1477
f 1483 1464 1463
f 1484 1477 1478
f 1483 1465 1464
f 1484 1478 1479
f 1483 1466 1465
f 1484 1479 1480
f 1483 1467 1466
f 1484 1480 1481
f 1483 1468 1467
f 1484 1481 1482
f 1483 1455 1468
f 1484 1482 1469
f 1485 1486 1499
f 1486 1500 1499
f 1486 1487 1500
f 1487 1501 1500
f 1487 1488 1501
f 1488 1502 1501
f 1488 1489 1502
f 1489 1503 1502
f 1489 1490 1503
f 1490 1504 1503
f 1490 1491 1504
f 1491 1505 1504
f 1491 1492 1505
f 1492 1506 1505
f 1492 1493 1506
f 1493 1507 1506
f 1493 1494 1507
f 1494 1508 1507
f 1494 1495 1508
f 1495 1509 1508
f 1495 1496 1509
f 1496 1510 1509
f 1496 1497 1510
f 1497 1511 1510
f 1497 1498 1511
f 1498 1512 1511
f 1498 1485 1512
f 1485 1499 1512
f 1513 1486 1485
f 1514 1499 1500
f 1513 1487 1486
f 1514 1500 1501
f 1513 1488 1487
f 1514 1501 1502
f 1513 1489 1488
f 1514 1502 1503
f 1513 1490 1489
f 1514 1503 1504
f 1513 1491 1490
f 1514 1504 1505
f 1513 1492 1491
f 1514 1505 1506
f 1513 1493 1492
f 1514 1506 1507
f 1513 1494 1493
f 1514 1507 1508
f 1513 1495 1494
f 1514 1508 1509
f 1513 1496 1495
f 1514 1509 1510
f 1513 1497 1496
f 1514 1510 1511
f 1513 1498 1497
f 1514 1511 1512
f 1513 1485 1498
f 1514 1512 1499
f 1515 1516 1529
f 1516 1530 1529
f 1516 1517 1530
f 1517 1531 1530
f 1517 1518 1531
f 1518 1532 1531
f 1518 1519 1532
f 1519 1533 1532
f 1519 1520 1533
f 1520 1534 1533
f 1520 1521 1534
f 1521 1535 1534
f 1521 1522 1535
f 1522 1536 1535
f 1522 1523 1536
f 1523 1537 1536
f 1523 1524 1537
f 1524 1538 1537
f 1524 1525 1538
f 1525 1539 1538
f 1525 1526 1539
f 1526 1540 1539
f 1526 1527 1540
f 1527 1541 1540
f 1527 1528 1541
f 1528 1542 1541
f 1528 1515 1542
f 1515 1529 1542
f 1543 1516 1515
f 1544 1529 1530
f 1543 1517 1516
f 1544 1530 1531
f 1543 1518 1517
f 1544 1531 1532
f 1543 1519 1518
f 1544 1532 1533
f 1543 1520 1519
f 1544 1533 1534
f 1543 1521 1520
f 1544 1534 1535
f 1543 1522 1521
f 1544 1535 1536
f 1543 1523 1522
f 1544 1536 1537
f 1543 1524 1523
f 1544 1537 1538
f 1543 1525 1524
f 1544 1538 1539
f 1543 1526 1525
f 1544 1539 1540
f 1543 1527 1526
f 1544 1540 1541
f 1543 1528 1527
f 1544 1541 1542
f 1543 1515 1528
f 1544 1542 1529
g person
usemtl human
f 1545 1546 1555
f 1546 1556 1555
f 1546 1547 1556
f 1547 1557 1556
f 1547 1548 1557
f 1548 1558 1557
f 1548 1549 1558
f 1549 1559 1558
f 1549 1550 1559
f 1550 1560 1559
f 1550 1551 1560
f 1551 1561 1560
f 1551 1552 1561
f 1552 1562 1561
f 1552 1553 1562
f 1553 1563 1562
f 1553 1554 1563
f 1554 1564 1563
f 1554 1545 1564
f 1545 1555 1564
f 1565 1546 1545
f 1566 1555 1556
f 1565 1547 1546
f 1566 1556 1557
f 1565 1548 1547
f 1566 1557 1558
f 1565 1549 1548
f 1566 1558 1559
f 1565 1550 1549
f 1566 1559 1560
f 1565 1551 1550
f 1566 1560 1561
f 1565 1552 1551
f 1566 1561 1562
f 1565 1553 1552
f 1566 1562 1563
f 1565 1554 1553
f 1566 1563 1564
f 1565 1545 1554
f 1566 1564 1555
f 1567 1568 1577
f 1568 1578 1577
f 1568 1569 1578
f 1569 1579 1578
f 1569 1570 1579
f 1570 1580 1579
f 1570 1571 1580
f 1571 1581 1580
f 1571 1572 1581
f 1572 1582 1581
f 1572 1573 1582
f 1573 1583 1582
f 1573 1574 1583
f 1574 1584 1583
f 1574 1575 1584
f 1575 1585 1584
f 1575 1576 1585
f 1576 1586 1585
f 1576 1567 1586
f 1567 1577 1586
f 1587 1568 1567
f 1588 1577 1578
f 1587 1569 1568
f 1588 1578 1579
f 1587 1570 1569
f 1588 1579 1580
f 1587 1571 1570
f 1588 1580 1581
f 1587 1572 1571
f 1588 1581 1582
f 1587 1573 1572
f 1588 1582 1583
f 1587 1574 1573
f 1588 1583 1584
f 1587 1575 1574
f 1588 1584 1585
f 1587 1576 1575
f 1588 1585 1586
f 1587 1567 1576
f 1588 1586 1577
f 1589 1590 1601
f 1590 1602 1601
f 1590 1591 1602
f 1591 1603 1602
f 1591 1592 1603
f 1592 1604 1603
f 1592 1593 1604
f 1593 1605 1604
f 1593 1594 1605
f 1594 1606 1605
f 1594 1595 1606
f 1595 1607 1606
f 1595 1596 1607
f 1596 1608 1607
f 1596 1597 1608
f 1597 1609 1608
f 1597 1598 1609
f 1598 1610 1609
f 1598 1599 1610
f 1599 1611 1610
f 1599 1600 1611
f 1600 1612 1611
f 1600 1589 1612
f 1589 1601 1612
f 1613 1590 1589
f 1614 1601 1602
f 1613 1591 1590
f 1614 1602 1603
f 1613 1592 1591
f 1614 1603 1604
f 1613 1593 1592
f 1614 1604 1605
f 1613 1594 1593
f 1614 1605 1606
f 1613 1595 1594
f 1614 1606 1607
f 1613 1596 1595
f 1614 1607 1608
f 1613 1597 1596
f 1614 1608 1609
f 1613 1598 1597
f 1614 1609 1610
f 1613 1599 1598
f 1614 1610 1611
f 1613 1600 1599
f 1614 1611 1612
f 1613 1589 1600
f 1614 1612 1601
f 1616 1627 1628
f 1617 1628 1629
f 1618 1629 1630
f 1619 1630 1631
f 1620 1631 1632
f 1621 1632 1633
f 1622 1633 1634
f 1623 1634 1635
f 1624 1635 1636
f 1625 1636 1637
f 1626 1637 1638
f 1615 1638 1627
f 1627 1639 1628
f 1628 1639 1640
f 1628 1640 1629
f 1629 1640 1641
f 1629 1641 1630
f 1630 1641 1642
f 1630 1642 1631
f 1631 1642 1643
f 1631 1643 1632
f 1632 1643 1644
f 1632 1644 1633
f 1633 1644 1645
f 1633 1645 1634
f 1634 1645 1646
f 1634 1646 1635
f 1635 1646 1647
f 1635 1647 1636
f 1636 1647 1648
f 1636 1648 1637
f 1637 1648 1649
f 1637 1649 1638
f 1638 1649 1650
f 1638 1650 1627
f 1627 1650 1639
f 1639 1651 1640
f 1640 1651 1652
f 1640 1652 1641
f 1641 1652 1653
f 1641 1653 1642
f 1642 1653 1654
f 1642 1654 1643
f 1643 1654 1655
f 1643 1655 1644
f 1644 1655 1656
f 1644 1656 1645
f 1645 1656 1657
f 1645 1657 1646
f 1646 1657 1658
f 1646 1658 1647
f 1647 1658 1659
f 1647 1659 1648
f 1648 1659 1660
f 1648 1660 1649
f 1649 1660 1661
f 1649 1661 1650
f 1650 1661 1662
f 1650 1662 1639
f 1639 1662 1651
f 1651 1663 1652
f 1652 1663 1664
f 1652 1664 1653
f 1653 1664 1665
f 1653 1665 1654
f 1654 1665 1666
f 1654 1666 1655
f 1655 1666 1667
f 1655 1667 1656
f 1656 1667 1668
f 1656 1668 1657
f 1657 1668 1669
f 1657 1669 1658
f 1658 1669 1670
f 1658 1670 1659
f 1659 1670 1671
f 1659 1671 1660
f 1660 1671 1672
f 1660 1672 1661
f 1661 1672 1673
f 1661 1673 1662
f 1662 1673 1674
f 1662 1674 1651
f 1651 1674 1663
f 1663 1675 1664
f 1664 1675 1676
f 1664 1676 1665
f 1665 1676 1677
f 1665 1677 1666
f 1666 1677 1678
f 1666 1678 1667
f 1667 1678 1679
f 1667 1679 1668
f 1668 1679 1680
f 1668 1680 1669
f 1669 1680 1681
f 1669 1681 1670
f 1670 1681 1682
f 1670 1682 1671
f 1671 1682 1683
f 1671 1683 1672
f 1672 1683 1684
f 1672 1684 1673
f 1673 1684 1685
f 1673 1685 1674
f 1674 1685 1686
f 1674 1686 1663
f 1663 1686 1675
f 1675 1687 1676
f 1676 1687 1688
f 1676 1688 1677
f 1677 1688 1689
f 1677 1689 1678
f 1678 1689 1690
f 1678 1690 1679
f 1679 1690 1691
f 1679 1691 1680
f 1680 1691 1692
f 1680 1692 1681
f 1681 1692 1693
f 1681 1693 1682
f 1682 1693 1694
f 1682 1694 1683
f 1683 1694 1695
f 1683 1695 1684
f 1684 1695 1696
f 1684 1696 1685
f 1685 1696 1697
f 1685 1697 1686
f 1686 1697 1698
f 1686 1698 1675
f 1675 1698 1687
f 1687 1699 1688
f 1688 1699 1700
f 1688 1700 1689
f 1689 1700 1701
f 1689 1701 1690
f 1690 1701 1702
f 1690 1702 1691
f 1691 1702 1703
f 1691 1703 1692
f 1692 1703 1704
f 1692 1704 1693
f 1693 1704 1705
f 1693 1705 1694
f 1694 1705 1706
f 1694 1706 1695
f 1695 1706 1707
f 1695 1707 1696
f 1696 1707 1708
f 1696 1708 1697
f 1697 1708 1709
f 1697 1709 1698
f 1698 1709 1710
f 1698 1710 1687
f 1687 1710 1699
f 1699 1711 1700
f 1700 1712 1701
f 1701 1713 1702
f 1702 1714 1703
f 1703 1715 1704
f 1704 1716 1705
f 1705 1717 1706
f 1706 1718 1707
f 1707 1719 1708
f 1708 1720 1709
f 1709 1721 1710
f 1710 1722 1699
