# vesper_ascent_vehicle — generated by scripts/build_models.py from the Project Phosphorus plan
# units: meters, Y up
mtllib vesper_ascent_vehicle.mtl
o vesper_ascent_vehicle
v 0.0000 0.0000 -1.7500
v -0.3414 0.0000 -1.7164
v -0.6697 0.0000 -1.6168
v -0.9722 0.0000 -1.4551
v -1.2374 0.0000 -1.2374
v -1.4551 0.0000 -0.9722
v -1.6168 0.0000 -0.6697
v -1.7164 0.0000 -0.3414
v -1.7500 0.0000 -0.0000
v -1.7164 0.0000 0.3414
v -1.6168 0.0000 0.6697
v -1.4551 0.0000 0.9722
v -1.2374 0.0000 1.2374
v -0.9722 0.0000 1.4551
v -0.6697 0.0000 1.6168
v -0.3414 0.0000 1.7164
v -0.0000 0.0000 1.7500
v 0.3414 0.0000 1.7164
v 0.6697 0.0000 1.6168
v 0.9722 0.0000 1.4551
v 1.2374 0.0000 1.2374
v 1.4551 0.0000 0.9722
v 1.6168 0.0000 0.6697
v 1.7164 0.0000 0.3414
v 1.7500 0.0000 0.0000
v 1.7164 0.0000 -0.3414
v 1.6168 0.0000 -0.6697
v 1.4551 0.0000 -0.9722
v 1.2374 0.0000 -1.2374
v 0.9722 0.0000 -1.4551
v 0.6697 0.0000 -1.6168
v 0.3414 0.0000 -1.7164
v 0.0000 11.0000 -1.7500
v -0.3414 11.0000 -1.7164
v -0.6697 11.0000 -1.6168
v -0.9722 11.0000 -1.4551
v -1.2374 11.0000 -1.2374
v -1.4551 11.0000 -0.9722
v -1.6168 11.0000 -0.6697
v -1.7164 11.0000 -0.3414
v -1.7500 11.0000 -0.0000
v -1.7164 11.0000 0.3414
v -1.6168 11.0000 0.6697
v -1.4551 11.0000 0.9722
v -1.2374 11.0000 1.2374
v -0.9722 11.0000 1.4551
v -0.6697 11.0000 1.6168
v -0.3414 11.0000 1.7164
v -0.0000 11.0000 1.7500
v 0.3414 11.0000 1.7164
v 0.6697 11.0000 1.6168
v 0.9722 11.0000 1.4551
v 1.2374 11.0000 1.2374
v 1.4551 11.0000 0.9722
v 1.6168 11.0000 0.6697
v 1.7164 11.0000 0.3414
v 1.7500 11.0000 0.0000
v 1.7164 11.0000 -0.3414
v 1.6168 11.0000 -0.6697
v 1.4551 11.0000 -0.9722
v 1.2374 11.0000 -1.2374
v 0.9722 11.0000 -1.4551
v 0.6697 11.0000 -1.6168
v 0.3414 11.0000 -1.7164
v 0.0000 0.0000 0.0000
v 0.0000 11.0000 0.0000
v 0.0000 11.2000 -1.6100
v -0.3141 11.2000 -1.5791
v -0.6161 11.2000 -1.4874
v -0.8945 11.2000 -1.3387
v -1.1384 11.2000 -1.1384
v -1.3387 11.2000 -0.8945
v -1.4874 11.2000 -0.6161
v -1.5791 11.2000 -0.3141
v -1.6100 11.2000 -0.0000
v -1.5791 11.2000 0.3141
v -1.4874 11.2000 0.6161
v -1.3387 11.2000 0.8945
v -1.1384 11.2000 1.1384
v -0.8945 11.2000 1.3387
v -0.6161 11.2000 1.4874
v -0.3141 11.2000 1.5791
v -0.0000 11.2000 1.6100
v 0.3141 11.2000 1.5791
v 0.6161 11.2000 1.4874
v 0.8945 11.2000 1.3387
v 1.1384 11.2000 1.1384
v 1.3387 11.2000 0.8945
v 1.4874 11.2000 0.6161
v 1.5791 11.2000 0.3141
v 1.6100 11.2000 0.0000
v 1.5791 11.2000 -0.3141
v 1.4874 11.2000 -0.6161
v 1.3387 11.2000 -0.8945
v 1.1384 11.2000 -1.1384
v 0.8945 11.2000 -1.3387
v 0.6161 11.2000 -1.4874
v 0.3141 11.2000 -1.5791
v 0.0000 17.0000 -1.6100
v -0.3141 17.0000 -1.5791
v -0.6161 17.0000 -1.4874
v -0.8945 17.0000 -1.3387
v -1.1384 17.0000 -1.1384
v -1.3387 17.0000 -0.8945
v -1.4874 17.0000 -0.6161
v -1.5791 17.0000 -0.3141
v -1.6100 17.0000 -0.0000
v -1.5791 17.0000 0.3141
v -1.4874 17.0000 0.6161
v -1.3387 17.0000 0.8945
v -1.1384 17.0000 1.1384
v -0.8945 17.0000 1.3387
v -0.6161 17.0000 1.4874
v -0.3141 17.0000 1.5791
v -0.0000 17.0000 1.6100
v 0.3141 17.0000 1.5791
v 0.6161 17.0000 1.4874
v 0.8945 17.0000 1.3387
v 1.1384 17.0000 1.1384
v 1.3387 17.0000 0.8945
v 1.4874 17.0000 0.6161
v 1.5791 17.0000 0.3141
v 1.6100 17.0000 0.0000
v 1.5791 17.0000 -0.3141
v 1.4874 17.0000 -0.6161
v 1.3387 17.0000 -0.8945
v 1.1384 17.0000 -1.1384
v 0.8945 17.0000 -1.3387
v 0.6161 17.0000 -1.4874
v 0.3141 17.0000 -1.5791
v 0.0000 11.2000 0.0000
v 0.0000 17.0000 0.0000
v 0.0000 17.0000 -1.6100
v -0.3141 17.0000 -1.5791
v -0.6161 17.0000 -1.4874
v -0.8945 17.0000 -1.3387
v -1.1384 17.0000 -1.1384
v -1.3387 17.0000 -0.8945
v -1.4874 17.0000 -0.6161
v -1.5791 17.0000 -0.3141
v -1.6100 17.0000 -0.0000
v -1.5791 17.0000 0.3141
v -1.4874 17.0000 0.6161
v -1.3387 17.0000 0.8945
v -1.1384 17.0000 1.1384
v -0.8945 17.0000 1.3387
v -0.6161 17.0000 1.4874
v -0.3141 17.0000 1.5791
v -0.0000 17.0000 1.6100
v 0.3141 17.0000 1.5791
v 0.6161 17.0000 1.4874
v 0.8945 17.0000 1.3387
v 1.1384 17.0000 1.1384
v 1.3387 17.0000 0.8945
v 1.4874 17.0000 0.6161
v 1.5791 17.0000 0.3141
v 1.6100 17.0000 0.0000
v 1.5791 17.0000 -0.3141
v 1.4874 17.0000 -0.6161
v 1.3387 17.0000 -0.8945
v 1.1384 17.0000 -1.1384
v 0.8945 17.0000 -1.3387
v 0.6161 17.0000 -1.4874
v 0.3141 17.0000 -1.5791
v 0.0000 20.2000 -0.4375
v -0.0854 20.2000 -0.4291
v -0.1674 20.2000 -0.4042
v -0.2431 20.2000 -0.3638
v -0.3094 20.2000 -0.3094
v -0.3638 20.2000 -0.2431
v -0.4042 20.2000 -0.1674
v -0.4291 20.2000 -0.0854
v -0.4375 20.2000 -0.0000
v -0.4291 20.2000 0.0854
v -0.4042 20.2000 0.1674
v -0.3638 20.2000 0.2431
v -0.3094 20.2000 0.3094
v -0.2431 20.2000 0.3638
v -0.1674 20.2000 0.4042
v -0.0854 20.2000 0.4291
v -0.0000 20.2000 0.4375
v 0.0854 20.2000 0.4291
v 0.1674 20.2000 0.4042
v 0.2431 20.2000 0.3638
v 0.3094 20.2000 0.3094
v 0.3638 20.2000 0.2431
v 0.4042 20.2000 0.1674
v 0.4291 20.2000 0.0854
v 0.4375 20.2000 0.0000
v 0.4291 20.2000 -0.0854
v 0.4042 20.2000 -0.1674
v 0.3638 20.2000 -0.2431
v 0.3094 20.2000 -0.3094
v 0.2431 20.2000 -0.3638
v 0.1674 20.2000 -0.4042
v 0.0854 20.2000 -0.4291
v 0.0000 17.0000 0.0000
v 0.0000 20.2000 0.0000
v 0.6364 0.0000 0.9864
v 0.5025 0.0000 0.9598
v 0.3889 0.0000 0.8839
v 0.3130 0.0000 0.7703
v 0.2864 0.0000 0.6364
v 0.3130 0.0000 0.5025
v 0.3889 0.0000 0.3889
v 0.5025 0.0000 0.3130
v 0.6364 0.0000 0.2864
v 0.7703 0.0000 0.3130
v 0.8839 0.0000 0.3889
v 0.9598 0.0000 0.5025
v 0.9864 0.0000 0.6364
v 0.9598 0.0000 0.7703
v 0.8839 0.0000 0.8839
v 0.7703 0.0000 0.9598
v 0.6364 -1.6000 1.2564
v 0.3991 -1.6000 1.2092
v 0.1980 -1.6000 1.0748
v 0.0636 -1.6000 0.8737
v 0.0164 -1.6000 0.6364
v 0.0636 -1.6000 0.3991
v 0.1980 -1.6000 0.1980
v 0.3991 -1.6000 0.0636
v 0.6364 -1.6000 0.0164
v 0.8737 -1.6000 0.0636
v 1.0748 -1.6000 0.1980
v 1.2092 -1.6000 0.3991
v 1.2564 -1.6000 0.6364
v 1.2092 -1.6000 0.8737
v 1.0748 -1.6000 1.0748
v 0.8737 -1.6000 1.2092
v 0.6364 0.0000 0.6364
v 0.6364 -1.6000 0.6364
v -0.6364 0.0000 0.9864
v -0.7703 0.0000 0.9598
v -0.8839 0.0000 0.8839
v -0.9598 0.0000 0.7703
v -0.9864 0.0000 0.6364
v -0.9598 0.0000 0.5025
v -0.8839 0.0000 0.3889
v -0.7703 0.0000 0.3130
v -0.6364 0.0000 0.2864
v -0.5025 0.0000 0.3130
v -0.3889 0.0000 0.3889
v -0.3130 0.0000 0.5025
v -0.2864 0.0000 0.6364
v -0.3130 0.0000 0.7703
v -0.3889 0.0000 0.8839
v -0.5025 0.0000 0.9598
v -0.6364 -1.6000 1.2564
v -0.8737 -1.6000 1.2092
v -1.0748 -1.6000 1.0748
v -1.2092 -1.6000 0.8737
v -1.2564 -1.6000 0.6364
v -1.2092 -1.6000 0.3991
v -1.0748 -1.6000 0.1980
v -0.8737 -1.6000 0.0636
v -0.6364 -1.6000 0.0164
v -0.3991 -1.6000 0.0636
v -0.1980 -1.6000 0.1980
v -0.0636 -1.6000 0.3991
v -0.0164 -1.6000 0.6364
v -0.0636 -1.6000 0.8737
v -0.1980 -1.6000 1.0748
v -0.3991 -1.6000 1.2092
v -0.6364 0.0000 0.6364
v -0.6364 -1.6000 0.6364
v -0.6364 0.0000 -0.2864
v -0.7703 0.0000 -0.3130
v -0.8839 0.0000 -0.3889
v -0.9598 0.0000 -0.5025
v -0.9864 0.0000 -0.6364
v -0.9598 0.0000 -0.7703
v -0.8839 0.0000 -0.8839
v -0.7703 0.0000 -0.9598
v -0.6364 0.0000 -0.9864
v -0.5025 0.0000 -0.9598
v -0.3889 0.0000 -0.8839
v -0.3130 0.0000 -0.7703
v -0.2864 0.0000 -0.6364
v -0.3130 0.0000 -0.5025
v -0.3889 0.0000 -0.3889
v -0.5025 0.0000 -0.3130
v -0.6364 -1.6000 -0.0164
v -0.8737 -1.6000 -0.0636
v -1.0748 -1.6000 -0.1980
v -1.2092 -1.6000 -0.3991
v -1.2564 -1.6000 -0.6364
v -1.2092 -1.6000 -0.8737
v -1.0748 -1.6000 -1.0748
v -0.8737 -1.6000 -1.2092
v -0.6364 -1.6000 -1.2564
v -0.3991 -1.6000 -1.2092
v -0.1980 -1.6000 -1.0748
v -0.0636 -1.6000 -0.8737
v -0.0164 -1.6000 -0.6364
v -0.0636 -1.6000 -0.3991
v -0.1980 -1.6000 -0.1980
v -0.3991 -1.6000 -0.0636
v -0.6364 0.0000 -0.6364
v -0.6364 -1.6000 -0.6364
v 0.6364 0.0000 -0.2864
v 0.5025 0.0000 -0.3130
v 0.3889 0.0000 -0.3889
v 0.3130 0.0000 -0.5025
v 0.2864 0.0000 -0.6364
v 0.3130 0.0000 -0.7703
v 0.3889 0.0000 -0.8839
v 0.5025 0.0000 -0.9598
v 0.6364 0.0000 -0.9864
v 0.7703 0.0000 -0.9598
v 0.8839 0.0000 -0.8839
v 0.9598 0.0000 -0.7703
v 0.9864 0.0000 -0.6364
v 0.9598 0.0000 -0.5025
v 0.8839 0.0000 -0.3889
v 0.7703 0.0000 -0.3130
v 0.6364 -1.6000 -0.0164
v 0.3991 -1.6000 -0.0636
v 0.1980 -1.6000 -0.1980
v 0.0636 -1.6000 -0.3991
v 0.0164 -1.6000 -0.6364
v 0.0636 -1.6000 -0.8737
v 0.1980 -1.6000 -1.0748
v 0.3991 -1.6000 -1.2092
v 0.6364 -1.6000 -1.2564
v 0.8737 -1.6000 -1.2092
v 1.0748 -1.6000 -1.0748
v 1.2092 -1.6000 -0.8737
v 1.2564 -1.6000 -0.6364
v 1.2092 -1.6000 -0.3991
v 1.0748 -1.6000 -0.1980
v 0.8737 -1.6000 -0.0636
v 0.6364 0.0000 -0.6364
v 0.6364 -1.6000 -0.6364
v 3.8800 -1.6000 -0.0900
v 3.8271 -1.6000 -0.0728
v 3.7944 -1.6000 -0.0278
v 3.7944 -1.6000 0.0278
v 3.8271 -1.6000 0.0728
v 3.8800 -1.6000 0.0900
v 3.9329 -1.6000 0.0728
v 3.9656 -1.6000 0.0278
v 3.9656 -1.6000 -0.0278
v 3.9329 -1.6000 -0.0728
v 3.8800 -0.7500 -0.0900
v 3.8271 -0.7500 -0.0728
v 3.7944 -0.7500 -0.0278
v 3.7944 -0.7500 0.0278
v 3.8271 -0.7500 0.0728
v 3.8800 -0.7500 0.0900
v 3.9329 -0.7500 0.0728
v 3.9656 -0.7500 0.0278
v 3.9656 -0.7500 -0.0278
v 3.9329 -0.7500 -0.0728
v 3.8800 -1.6000 0.0000
v 3.8800 -0.7500 0.0000
v 4.1200 -1.6000 -0.0900
v 4.0671 -1.6000 -0.0728
v 4.0344 -1.6000 -0.0278
v 4.0344 -1.6000 0.0278
v 4.0671 -1.6000 0.0728
v 4.1200 -1.6000 0.0900
v 4.1729 -1.6000 0.0728
v 4.2056 -1.6000 0.0278
v 4.2056 -1.6000 -0.0278
v 4.1729 -1.6000 -0.0728
v 4.1200 -0.7500 -0.0900
v 4.0671 -0.7500 -0.0728
v 4.0344 -0.7500 -0.0278
v 4.0344 -0.7500 0.0278
v 4.0671 -0.7500 0.0728
v 4.1200 -0.7500 0.0900
v 4.1729 -0.7500 0.0728
v 4.2056 -0.7500 0.0278
v 4.2056 -0.7500 -0.0278
v 4.1729 -0.7500 -0.0728
v 4.1200 -1.6000 0.0000
v 4.1200 -0.7500 0.0000
v 4.0000 -0.7500 -0.2000
v 3.9000 -0.7500 -0.1732
v 3.8268 -0.7500 -0.1000
v 3.8000 -0.7500 -0.0000
v 3.8268 -0.7500 0.1000
v 3.9000 -0.7500 0.1732
v 4.0000 -0.7500 0.2000
v 4.1000 -0.7500 0.1732
v 4.1732 -0.7500 0.1000
v 4.2000 -0.7500 0.0000
v 4.1732 -0.7500 -0.1000
v 4.1000 -0.7500 -0.1732
v 4.0000 -0.1000 -0.2000
v 3.9000 -0.1000 -0.1732
v 3.8268 -0.1000 -0.1000
v 3.8000 -0.1000 -0.0000
v 3.8268 -0.1000 0.1000
v 3.9000 -0.1000 0.1732
v 4.0000 -0.1000 0.2000
v 4.1000 -0.1000 0.1732
v 4.1732 -0.1000 0.1000
v 4.2000 -0.1000 0.0000
v 4.1732 -0.1000 -0.1000
v 4.1000 -0.1000 -0.1732
v 4.0000 -0.7500 0.0000
v 4.0000 -0.1000 0.0000
v 4.0000 0.1900 0.0000
v 4.0000 0.1900 0.0000
v 4.0000 0.1900 0.0000
v 4.0000 0.1900 0.0000
v 4.0000 0.1900 0.0000
v 4.0000 0.1900 0.0000
v 4.0000 0.1900 0.0000
v 4.0000 0.1900 0.0000
v 4.0000 0.1900 0.0000
v 4.0000 0.1900 0.0000
v 4.0000 0.1900 0.0000
v 4.0000 0.1900 0.0000
v 4.0421 0.1801 0.0000
v 4.0365 0.1801 0.0210
v 4.0210 0.1801 0.0365
v 4.0000 0.1801 0.0421
v 3.9790 0.1801 0.0365
v 3.9635 0.1801 0.0210
v 3.9579 0.1801 0.0000
v 3.9635 0.1801 -0.0210
v 3.9790 0.1801 -0.0365
v 4.0000 0.1801 -0.0421
v 4.0210 0.1801 -0.0365
v 4.0365 0.1801 -0.0210
v 4.0778 0.1519 0.0000
v 4.0674 0.1519 0.0389
v 4.0389 0.1519 0.0674
v 4.0000 0.1519 0.0778
v 3.9611 0.1519 0.0674
v 3.9326 0.1519 0.0389
v 3.9222 0.1519 0.0000
v 3.9326 0.1519 -0.0389
v 3.9611 0.1519 -0.0674
v 4.0000 0.1519 -0.0778
v 4.0389 0.1519 -0.0674
v 4.0674 0.1519 -0.0389
v 4.1016 0.1097 0.0000
v 4.0880 0.1097 0.0508
v 4.0508 0.1097 0.0880
v 4.0000 0.1097 0.1016
v 3.9492 0.1097 0.0880
v 3.9120 0.1097 0.0508
v 3.8984 0.1097 0.0000
v 3.9120 0.1097 -0.0508
v 3.9492 0.1097 -0.0880
v 4.0000 0.1097 -0.1016
v 4.0508 0.1097 -0.0880
v 4.0880 0.1097 -0.0508
v 4.1100 0.0600 0.0000
v 4.0953 0.0600 0.0550
v 4.0550 0.0600 0.0953
v 4.0000 0.0600 0.1100
v 3.9450 0.0600 0.0953
v 3.9047 0.0600 0.0550
v 3.8900 0.0600 0.0000
v 3.9047 0.0600 -0.0550
v 3.9450 0.0600 -0.0953
v 4.0000 0.0600 -0.1100
v 4.0550 0.0600 -0.0953
v 4.0953 0.0600 -0.0550
v 4.1016 0.0103 0.0000
v 4.0880 0.0103 0.0508
v 4.0508 0.0103 0.0880
v 4.0000 0.0103 0.1016
v 3.9492 0.0103 0.0880
v 3.9120 0.0103 0.0508
v 3.8984 0.0103 0.0000
v 3.9120 0.0103 -0.0508
v 3.9492 0.0103 -0.0880
v 4.0000 0.0103 -0.1016
v 4.0508 0.0103 -0.0880
v 4.0880 0.0103 -0.0508
v 4.0778 -0.0319 0.0000
v 4.0674 -0.0319 0.0389
v 4.0389 -0.0319 0.0674
v 4.0000 -0.0319 0.0778
v 3.9611 -0.0319 0.0674
v 3.9326 -0.0319 0.0389
v 3.9222 -0.0319 0.0000
v 3.9326 -0.0319 -0.0389
v 3.9611 -0.0319 -0.0674
v 4.0000 -0.0319 -0.0778
v 4.0389 -0.0319 -0.0674
v 4.0674 -0.0319 -0.0389
v 4.0421 -0.0601 0.0000
v 4.0365 -0.0601 0.0210
v 4.0210 -0.0601 0.0365
v 4.0000 -0.0601 0.0421
v 3.9790 -0.0601 0.0365
v 3.9635 -0.0601 0.0210
v 3.9579 -0.0601 0.0000
v 3.9635 -0.0601 -0.0210
v 3.9790 -0.0601 -0.0365
v 4.0000 -0.0601 -0.0421
v 4.0210 -0.0601 -0.0365
v 4.0365 -0.0601 -0.0210
v 4.0000 -0.0700 0.0000
v 4.0000 -0.0700 0.0000
v 4.0000 -0.0700 0.0000
v 4.0000 -0.0700 0.0000
v 4.0000 -0.0700 0.0000
v 4.0000 -0.0700 0.0000
v 4.0000 -0.0700 0.0000
v 4.0000 -0.0700 -0.0000
v 4.0000 -0.0700 -0.0000
v 4.0000 -0.0700 -0.0000
v 4.0000 -0.0700 -0.0000
v 4.0000 -0.0700 -0.0000
g stage_1
usemtl vesper
f 1 2 33
f 2 34 33
f 2 3 34
f 3 35 34
f 3 4 35
f 4 36 35
f 4 5 36
f 5 37 36
f 5 6 37
f 6 38 37
f 6 7 38
f 7 39 38
f 7 8 39
f 8 40 39
f 8 9 40
f 9 41 40
f 9 10 41
f 10 42 41
f 10 11 42
f 11 43 42
f 11 12 43
f 12 44 43
f 12 13 44
f 13 45 44
f 13 14 45
f 14 46 45
f 14 15 46
f 15 47 46
f 15 16 47
f 16 48 47
f 16 17 48
f 17 49 48
f 17 18 49
f 18 50 49
f 18 19 50
f 19 51 50
f 19 20 51
f 20 52 51
f 20 21 52
f 21 53 52
f 21 22 53
f 22 54 53
f 22 23 54
f 23 55 54
f 23 24 55
f 24 56 55
f 24 25 56
f 25 57 56
f 25 26 57
f 26 58 57
f 26 27 58
f 27 59 58
f 27 28 59
f 28 60 59
f 28 29 60
f 29 61 60
f 29 30 61
f 30 62 61
f 30 31 62
f 31 63 62
f 31 32 63
f 32 64 63
f 32 1 64
f 1 33 64
f 65 2 1
f 66 33 34
f 65 3 2
f 66 34 35
f 65 4 3
f 66 35 36
f 65 5 4
f 66 36 37
f 65 6 5
f 66 37 38
f 65 7 6
f 66 38 39
f 65 8 7
f 66 39 40
f 65 9 8
f 66 40 41
f 65 10 9
f 66 41 42
f 65 11 10
f 66 42 43
f 65 12 11
f 66 43 44
f 65 13 12
f 66 44 45
f 65 14 13
f 66 45 46
f 65 15 14
f 66 46 47
f 65 16 15
f 66 47 48
f 65 17 16
f 66 48 49
f 65 18 17
f 66 49 50
f 65 19 18
f 66 50 51
f 65 20 19
f 66 51 52
f 65 21 20
f 66 52 53
f 65 22 21
f 66 53 54
f 65 23 22
f 66 54 55
f 65 24 23
f 66 55 56
f 65 25 24
f 66 56 57
f 65 26 25
f 66 57 58
f 65 27 26
f 66 58 59
f 65 28 27
f 66 59 60
f 65 29 28
f 66 60 61
f 65 30 29
f 66 61 62
f 65 31 30
f 66 62 63
f 65 32 31
f 66 63 64
f 65 1 32
f 66 64 33
g stage_2
usemtl vesper
f 67 68 99
f 68 100 99
f 68 69 100
f 69 101 100
f 69 70 101
f 70 102 101
f 70 71 102
f 71 103 102
f 71 72 103
f 72 104 103
f 72 73 104
f 73 105 104
f 73 74 105
f 74 106 105
f 74 75 106
f 75 107 106
f 75 76 107
f 76 108 107
f 76 77 108
f 77 109 108
f 77 78 109
f 78 110 109
f 78 79 110
f 79 111 110
f 79 80 111
f 80 112 111
f 80 81 112
f 81 113 112
f 81 82 113
f 82 114 113
f 82 83 114
f 83 115 114
f 83 84 115
f 84 116 115
f 84 85 116
f 85 117 116
f 85 86 117
f 86 118 117
f 86 87 118
f 87 119 118
f 87 88 119
f 88 120 119
f 88 89 120
f 89 121 120
f 89 90 121
f 90 122 121
f 90 91 122
f 91 123 122
f 91 92 123
f 92 124 123
f 92 93 124
f 93 125 124
f 93 94 125
f 94 126 125
f 94 95 126
f 95 127 126
f 95 96 127
f 96 128 127
f 96 97 128
f 97 129 128
f 97 98 129
f 98 130 129
f 98 67 130
f 67 99 130
f 131 68 67
f 132 99 100
f 131 69 68
f 132 100 101
f 131 70 69
f 132 101 102
f 131 71 70
f 132 102 103
f 131 72 71
f 132 103 104
f 131 73 72
f 132 104 105
f 131 74 73
f 132 105 106
f 131 75 74
f 132 106 107
f 131 76 75
f 132 107 108
f 131 77 76
f 132 108 109
f 131 78 77
f 132 109 110
f 131 79 78
f 132 110 111
f 131 80 79
f 132 111 112
f 131 81 80
f 132 112 113
f 131 82 81
f 132 113 114
f 131 83 82
f 132 114 115
f 131 84 83
f 132 115 116
f 131 85 84
f 132 116 117
f 131 86 85
f 132 117 118
f 131 87 86
f 132 118 119
f 131 88 87
f 132 119 120
f 131 89 88
f 132 120 121
f 131 90 89
f 132 121 122
f 131 91 90
f 132 122 123
f 131 92 91
f 132 123 124
f 131 93 92
f 132 124 125
f 131 94 93
f 132 125 126
f 131 95 94
f 132 126 127
f 131 96 95
f 132 127 128
f 131 97 96
f 132 128 129
f 131 98 97
f 132 129 130
f 131 67 98
f 132 130 99
g capsule
usemtl crew
f 133 134 165
f 134 166 165
f 134 135 166
f 135 167 166
f 135 136 167
f 136 168 167
f 136 137 168
f 137 169 168
f 137 138 169
f 138 170 169
f 138 139 170
f 139 171 170
f 139 140 171
f 140 172 171
f 140 141 172
f 141 173 172
f 141 142 173
f 142 174 173
f 142 143 174
f 143 175 174
f 143 144 175
f 144 176 175
f 144 145 176
f 145 177 176
f 145 146 177
f 146 178 177
f 146 147 178
f 147 179 178
f 147 148 179
f 148 180 179
f 148 149 180
f 149 181 180
f 149 150 181
f 150 182 181
f 150 151 182
f 151 183 182
f 151 152 183
f 152 184 183
f 152 153 184
f 153 185 184
f 153 154 185
f 154 186 185
f 154 155 186
f 155 187 186
f 155 156 187
f 156 188 187
f 156 157 188
f 157 189 188
f 157 158 189
f 158 190 189
f 158 159 190
f 159 191 190
f 159 160 191
f 160 192 191
f 160 161 192
f 161 193 192
f 161 162 193
f 162 194 193
f 162 163 194
f 163 195 194
f 163 164 195
f 164 196 195
f 164 133 196
f 133 165 196
f 197 134 133
f 198 165 166
f 197 135 134
f 198 166 167
f 197 136 135
f 198 167 168
f 197 137 136
f 198 168 169
f 197 138 137
f 198 169 170
f 197 139 138
f 198 170 171
f 197 140 139
f 198 171 172
f 197 141 140
f 198 172 173
f 197 142 141
f 198 173 174
f 197 143 142
f 198 174 175
f 197 144 143
f 198 175 176
f 197 145 144
f 198 176 177
f 197 146 145
f 198 177 178
f 197 147 146
f 198 178 179
f 197 148 147
f 198 179 180
f 197 149 148
f 198 180 181
f 197 150 149
f 198 181 182
f 197 151 150
f 198 182 183
f 197 152 151
f 198 183 184
f 197 153 152
f 198 184 185
f 197 154 153
f 198 185 186
f 197 155 154
f 198 186 187
f 197 156 155
f 198 187 188
f 197 157 156
f 198 188 189
f 197 158 157
f 198 189 190
f 197 159 158
f 198 190 191
f 197 160 159
f 198 191 192
f 197 161 160
f 198 192 193
f 197 162 161
f 198 193 194
f 197 163 162
f 198 194 195
f 197 164 163
f 198 195 196
f 197 133 164
f 198 196 165
g engines
usemtl engine
f 199 200 215
f 200 216 215
f 200 201 216
f 201 217 216
f 201 202 217
f 202 218 217
f 202 203 218
f 203 219 218
f 203 204 219
f 204 220 219
f 204 205 220
f 205 221 220
f 205 206 221
f 206 222 221
f 206 207 222
f 207 223 222
f 207 208 223
f 208 224 223
f 208 209 224
f 209 225 224
f 209 210 225
f 210 226 225
f 210 211 226
f 211 227 226
f 211 212 227
f 212 228 227
f 212 213 228
f 213 229 228
f 213 214 229
f 214 230 229
f 214 199 230
f 199 215 230
f 231 200 199
f 232 215 216
f 231 201 200
f 232 216 217
f 231 202 201
f 232 217 218
f 231 203 202
f 232 218 219
f 231 204 203
f 232 219 220
f 231 205 204
f 232 220 221
f 231 206 205
f 232 221 222
f 231 207 206
f 232 222 223
f 231 208 207
f 232 223 224
f 231 209 208
f 232 224 225
f 231 210 209
f 232 225 226
f 231 211 210
f 232 226 227
f 231 212 211
f 232 227 228
f 231 213 212
f 232 228 229
f 231 214 213
f 232 229 230
f 231 199 214
f 232 230 215
f 233 234 249
f 234 250 249
f 234 235 250
f 235 251 250
f 235 236 251
f 236 252 251
f 236 237 252
f 237 253 252
f 237 238 253
f 238 254 253
f 238 239 254
f 239 255 254
f 239 240 255
f 240 256 255
f 240 241 256
f 241 257 256
f 241 242 257
f 242 258 257
f 242 243 258
f 243 259 258
f 243 244 259
f 244 260 259
f 244 245 260
f 245 261 260
f 245 246 261
f 246 262 261
f 246 247 262
f 247 263 262
f 247 248 263
f 248 264 263
f 248 233 264
f 233 249 264
f 265 234 233
f 266 249 250
f 265 235 234
f 266 250 251
f 265 236 235
f 266 251 252
f 265 237 236
f 266 252 253
f 265 238 237
f 266 253 254
f 265 239 238
f 266 254 255
f 265 240 239
f 266 255 256
f 265 241 240
f 266 256 257
f 265 242 241
f 266 257 258
f 265 243 242
f 266 258 259
f 265 244 243
f 266 259 260
f 265 245 244
f 266 260 261
f 265 246 245
f 266 261 262
f 265 247 246
f 266 262 263
f 265 248 247
f 266 263 264
f 265 233 248
f 266 264 249
f 267 268 283
f 268 284 283
f 268 269 284
f 269 285 284
f 269 270 285
f 270 286 285
f 270 271 286
f 271 287 286
f 271 272 287
f 272 288 287
f 272 273 288
f 273 289 288
f 273 274 289
f 274 290 289
f 274 275 290
f 275 291 290
f 275 276 291
f 276 292 291
f 276 277 292
f 277 293 292
f 277 278 293
f 278 294 293
f 278 279 294
f 279 295 294
f 279 280 295
f 280 296 295
f 280 281 296
f 281 297 296
f 281 282 297
f 282 298 297
f 282 267 298
f 267 283 298
f 299 268 267
f 300 283 284
f 299 269 268
f 300 284 285
f 299 270 269
f 300 285 286
f 299 271 270
f 300 286 287
f 299 272 271
f 300 287 288
f 299 273 272
f 300 288 289
f 299 274 273
f 300 289 290
f 299 275 274
f 300 290 291
f 299 276 275
f 300 291 292
f 299 277 276
f 300 292 293
f 299 278 277
f 300 293 294
f 299 279 278
f 300 294 295
f 299 280 279
f 300 295 296
f 299 281 280
f 300 296 297
f 299 282 281
f 300 297 298
f 299 267 282
f 300 298 283
f 301 302 317
f 302 318 317
f 302 303 318
f 303 319 318
f 303 304 319
f 304 320 319
f 304 305 320
f 305 321 320
f 305 306 321
f 306 322 321
f 306 307 322
f 307 323 322
f 307 308 323
f 308 324 323
f 308 309 324
f 309 325 324
f 309 310 325
f 310 326 325
f 310 311 326
f 311 327 326
f 311 312 327
f 312 328 327
f 312 313 328
f 313 329 328
f 313 314 329
f 314 330 329
f 314 315 330
f 315 331 330
f 315 316 331
f 316 332 331
f 316 301 332
f 301 317 332
f 333 302 301
f 334 317 318
f 333 303 302
f 334 318 319
f 333 304 303
f 334 319 320
f 333 305 304
f 334 320 321
f 333 306 305
f 334 321 322
f 333 307 306
f 334 322 323
f 333 308 307
f 334 323 324
f 333 309 308
f 334 324 325
f 333 310 309
f 334 325 326
f 333 311 310
f 334 326 327
f 333 312 311
f 334 327 328
f 333 313 312
f 334 328 329
f 333 314 313
f 334 329 330
f 333 315 314
f 334 330 331
f 333 316 315
f 334 331 332
f 333 301 316
f 334 332 317
g person
usemtl human
f 335 336 345
f 336 346 345
f 336 337 346
f 337 347 346
f 337 338 347
f 338 348 347
f 338 339 348
f 339 349 348
f 339 340 349
f 340 350 349
f 340 341 350
f 341 351 350
f 341 342 351
f 342 352 351
f 342 343 352
f 343 353 352
f 343 344 353
f 344 354 353
f 344 335 354
f 335 345 354
f 355 336 335
f 356 345 346
f 355 337 336
f 356 346 347
f 355 338 337
f 356 347 348
f 355 339 338
f 356 348 349
f 355 340 339
f 356 349 350
f 355 341 340
f 356 350 351
f 355 342 341
f 356 351 352
f 355 343 342
f 356 352 353
f 355 344 343
f 356 353 354
f 355 335 344
f 356 354 345
f 357 358 367
f 358 368 367
f 358 359 368
f 359 369 368
f 359 360 369
f 360 370 369
f 360 361 370
f 361 371 370
f 361 362 371
f 362 372 371
f 362 363 372
f 363 373 372
f 363 364 373
f 364 374 373
f 364 365 374
f 365 375 374
f 365 366 375
f 366 376 375
f 366 357 376
f 357 367 376
f 377 358 357
f 378 367 368
f 377 359 358
f 378 368 369
f 377 360 359
f 378 369 370
f 377 361 360
f 378 370 371
f 377 362 361
f 378 371 372
f 377 363 362
f 378 372 373
f 377 364 363
f 378 373 374
f 377 365 364
f 378 374 375
f 377 366 365
f 378 375 376
f 377 357 366
f 378 376 367
f 379 380 391
f 380 392 391
f 380 381 392
f 381 393 392
f 381 382 393
f 382 394 393
f 382 383 394
f 383 395 394
f 383 384 395
f 384 396 395
f 384 385 396
f 385 397 396
f 385 386 397
f 386 398 397
f 386 387 398
f 387 399 398
f 387 388 399
f 388 400 399
f 388 389 400
f 389 401 400
f 389 390 401
f 390 402 401
f 390 379 402
f 379 391 402
f 403 380 379
f 404 391 392
f 403 381 380
f 404 392 393
f 403 382 381
f 404 393 394
f 403 383 382
f 404 394 395
f 403 384 383
f 404 395 396
f 403 385 384
f 404 396 397
f 403 386 385
f 404 397 398
f 403 387 386
f 404 398 399
f 403 388 387
f 404 399 400
f 403 389 388
f 404 400 401
f 403 390 389
f 404 401 402
f 403 379 390
f 404 402 391
f 406 417 418
f 407 418 419
f 408 419 420
f 409 420 421
f 410 421 422
f 411 422 423
f 412 423 424
f 413 424 425
f 414 425 426
f 415 426 427
f 416 427 428
f 405 428 417
f 417 429 418
f 418 429 430
f 418 430 419
f 419 430 431
f 419 431 420
f 420 431 432
f 420 432 421
f 421 432 433
f 421 433 422
f 422 433 434
f 422 434 423
f 423 434 435
f 423 435 424
f 424 435 436
f 424 436 425
f 425 436 437
f 425 437 426
f 426 437 438
f 426 438 427
f 427 438 439
f 427 439 428
f 428 439 440
f 428 440 417
f 417 440 429
f 429 441 430
f 430 441 442
f 430 442 431
f 431 442 443
f 431 443 432
f 432 443 444
f 432 444 433
f 433 444 445
f 433 445 434
f 434 445 446
f 434 446 435
f 435 446 447
f 435 447 436
f 436 447 448
f 436 448 437
f 437 448 449
f 437 449 438
f 438 449 450
f 438 450 439
f 439 450 451
f 439 451 440
f 440 451 452
f 440 452 429
f 429 452 441
f 441 453 442
f 442 453 454
f 442 454 443
f 443 454 455
f 443 455 444
f 444 455 456
f 444 456 445
f 445 456 457
f 445 457 446
f 446 457 458
f 446 458 447
f 447 458 459
f 447 459 448
f 448 459 460
f 448 460 449
f 449 460 461
f 449 461 450
f 450 461 462
f 450 462 451
f 451 462 463
f 451 463 452
f 452 463 464
f 452 464 441
f 441 464 453
f 453 465 454
f 454 465 466
f 454 466 455
f 455 466 467
f 455 467 456
f 456 467 468
f 456 468 457
f 457 468 469
f 457 469 458
f 458 469 470
f 458 470 459
f 459 470 471
f 459 471 460
f 460 471 472
f 460 472 461
f 461 472 473
f 461 473 462
f 462 473 474
f 462 474 463
f 463 474 475
f 463 475 464
f 464 475 476
f 464 476 453
f 453 476 465
f 465 477 466
f 466 477 478
f 466 478 467
f 467 478 479
f 467 479 468
f 468 479 480
f 468 480 469
f 469 480 481
f 469 481 470
f 470 481 482
f 470 482 471
f 471 482 483
f 471 483 472
f 472 483 484
f 472 484 473
f 473 484 485
f 473 485 474
f 474 485 486
f 474 486 475
f 475 486 487
f 475 487 476
f 476 487 488
f 476 488 465
f 465 488 477
f 477 489 478
f 478 489 490
f 478 490 479
f 479 490 491
f 479 491 480
f 480 491 492
f 480 492 481
f 481 492 493
f 481 493 482
f 482 493 494
f 482 494 483
f 483 494 495
f 483 495 484
f 484 495 496
f 484 496 485
f 485 496 497
f 485 497 486
f 486 497 498
f 486 498 487
f 487 498 499
f 487 499 488
f 488 499 500
f 488 500 477
f 477 500 489
f 489 501 490
f 490 502 491
f 491 503 492
f 492 504 493
f 493 505 494
f 494 506 495
f 495 507 496
f 496 508 497
f 497 509 498
f 498 510 499
f 499 511 500
f 500 512 489
